G04*
G04 #@! TF.GenerationSoftware,Altium Limited,Altium Designer,18.0.11 (651)*
G04*
G04 Layer_Physical_Order=2*
G04 Layer_Color=14186556*
%FSTAX24Y24*%
%MOIN*%
G70*
G01*
G75*
%ADD12C,0.0080*%
G04:AMPARAMS|DCode=34|XSize=39.4mil|YSize=55.9mil|CornerRadius=4.9mil|HoleSize=0mil|Usage=FLASHONLY|Rotation=180.000|XOffset=0mil|YOffset=0mil|HoleType=Round|Shape=RoundedRectangle|*
%AMROUNDEDRECTD34*
21,1,0.0394,0.0461,0,0,180.0*
21,1,0.0295,0.0559,0,0,180.0*
1,1,0.0098,-0.0148,0.0230*
1,1,0.0098,0.0148,0.0230*
1,1,0.0098,0.0148,-0.0230*
1,1,0.0098,-0.0148,-0.0230*
%
%ADD34ROUNDEDRECTD34*%
%ADD90C,0.0180*%
%ADD92C,0.0551*%
%ADD93C,0.0700*%
%ADD94R,0.1000X0.1600*%
%ADD95R,0.1600X0.1000*%
%ADD96C,0.0787*%
%ADD97C,0.0600*%
%ADD98R,0.0669X0.0669*%
%ADD99C,0.0669*%
%ADD100R,0.0787X0.0984*%
%ADD101R,0.0630X0.0630*%
%ADD102C,0.0630*%
%ADD103C,0.0500*%
%ADD104R,0.0630X0.0630*%
%ADD105C,0.0750*%
%ADD106C,0.0820*%
%ADD107C,0.0720*%
%ADD108R,0.0709X0.0709*%
%ADD109C,0.0709*%
%ADD110O,0.0669X0.0354*%
%ADD111O,0.0787X0.0354*%
%ADD112C,0.0236*%
%ADD113C,0.0165*%
%ADD114C,0.0250*%
%ADD115C,0.1969*%
%ADD116R,0.0276X0.0354*%
%ADD117R,0.0787X0.0709*%
%ADD118R,0.0394X0.0500*%
G36*
X042069Y04215D02*
X04295D01*
Y0414D01*
X042069D01*
X035094Y0414D01*
X034641Y041766D01*
X034641Y041791D01*
X035Y04215D01*
X042069Y04215D01*
D02*
G37*
G36*
X04665Y044982D02*
X04727D01*
X047287Y044968D01*
X047452Y044866D01*
X047632Y044792D01*
X047821Y044746D01*
X048015Y044731D01*
X048208Y044746D01*
X048397Y044792D01*
X048577Y044866D01*
X048742Y044968D01*
X048759Y044982D01*
X049047D01*
X049047Y025532D01*
X047326D01*
X04731Y025582D01*
X047335Y025602D01*
X047399Y025685D01*
X04744Y025783D01*
X047447Y025837D01*
X046653D01*
X04666Y025783D01*
X046701Y025685D01*
X046765Y025602D01*
X04679Y025582D01*
X046774Y025532D01*
X042409D01*
X042387Y025577D01*
X042412Y02561D01*
X042468Y025743D01*
X042487Y025887D01*
X042468Y026031D01*
X042412Y026164D01*
X042324Y026279D01*
X042209Y026367D01*
X042075Y026423D01*
X041932Y026442D01*
X041788Y026423D01*
X041655Y026367D01*
X04154Y026279D01*
X041451Y026164D01*
X041396Y026031D01*
X041377Y025887D01*
X041396Y025743D01*
X041451Y02561D01*
X041477Y025577D01*
X041455Y025532D01*
X038666D01*
X03855Y025648D01*
Y02765D01*
X037993D01*
Y028727D01*
X037981Y028816D01*
X037947Y028898D01*
X037892Y028969D01*
X037462Y0294D01*
Y02953D01*
X037273D01*
X037263Y029534D01*
X037174Y029546D01*
X037085Y029534D01*
X037075Y02953D01*
X036886D01*
Y029386D01*
X036877Y029374D01*
X036843Y029292D01*
X036831Y029203D01*
X036843Y029114D01*
X036877Y029031D01*
X036886Y029019D01*
Y028876D01*
X037016D01*
X037307Y028585D01*
Y027973D01*
X037269Y02794D01*
X03725Y027943D01*
X037143D01*
Y028297D01*
X037131Y028386D01*
X037097Y028469D01*
X037088Y028481D01*
Y028624D01*
X036899D01*
X036889Y028628D01*
X0368Y02864D01*
X036711Y028628D01*
X036701Y028624D01*
X036512D01*
Y028481D01*
X036503Y028469D01*
X036469Y028386D01*
X036457Y028297D01*
Y027943D01*
X033866D01*
X033849Y027993D01*
X033868Y028008D01*
X033923Y028079D01*
X033957Y028161D01*
X033969Y02825D01*
Y02895D01*
X033957Y029039D01*
X033923Y029121D01*
X033868Y029192D01*
X033616Y029445D01*
X033545Y0295D01*
X033462Y029534D01*
X033373Y029546D01*
X03305D01*
X032961Y029534D01*
X032951Y02953D01*
X032762D01*
Y029386D01*
X032753Y029374D01*
X032719Y029292D01*
X032707Y029203D01*
X032719Y029114D01*
X032753Y029031D01*
X032762Y029019D01*
Y028876D01*
X032951D01*
X032961Y028872D01*
X03305Y02886D01*
X033231D01*
X033283Y028808D01*
Y02825D01*
X033295Y028161D01*
X033329Y028079D01*
X033383Y028008D01*
X033402Y027993D01*
X033386Y027943D01*
X033019D01*
Y028297D01*
X033007Y028386D01*
X032973Y028469D01*
X032964Y028481D01*
Y028624D01*
X032775D01*
X032765Y028628D01*
X032676Y02864D01*
X032587Y028628D01*
X032577Y028624D01*
X032388D01*
Y028481D01*
X032379Y028469D01*
X032345Y028386D01*
X032333Y028297D01*
Y027943D01*
X02984D01*
X029824Y027993D01*
X029842Y028008D01*
X029897Y028079D01*
X029931Y028161D01*
X029943Y02825D01*
Y02895D01*
X029931Y029039D01*
X029897Y029121D01*
X029842Y029192D01*
X02959Y029445D01*
X029519Y0295D01*
X029436Y029534D01*
X029347Y029546D01*
X029024D01*
X028935Y029534D01*
X028925Y02953D01*
X028736D01*
Y029386D01*
X028727Y029374D01*
X028693Y029292D01*
X028681Y029203D01*
X028693Y029114D01*
X028727Y029031D01*
X028736Y029019D01*
Y028876D01*
X028925D01*
X028935Y028872D01*
X029024Y02886D01*
X029205D01*
X029257Y028808D01*
Y02825D01*
X029269Y028161D01*
X029303Y028079D01*
X029358Y028008D01*
X029376Y027993D01*
X02936Y027943D01*
X028993D01*
Y028297D01*
X028981Y028386D01*
X028947Y028469D01*
X028938Y028481D01*
Y028624D01*
X028749D01*
X028739Y028628D01*
X02865Y02864D01*
X028561Y028628D01*
X028551Y028624D01*
X028362D01*
Y028481D01*
X028353Y028469D01*
X028319Y028386D01*
X028307Y028297D01*
Y027943D01*
X025115D01*
Y028465D01*
X024715D01*
X024705Y028515D01*
X024759Y028538D01*
X024846Y028604D01*
X024912Y028691D01*
X024954Y028792D01*
X024962Y02885D01*
X02455D01*
X024138D01*
X024146Y028792D01*
X024188Y028691D01*
X024254Y028604D01*
X024341Y028538D01*
X024395Y028515D01*
X024385Y028465D01*
X024006D01*
X023965Y028487D01*
X023965Y028487D01*
X023965Y028487D01*
X023565D01*
X023555Y028537D01*
X023609Y02856D01*
X023696Y028626D01*
X023762Y028713D01*
X023804Y028814D01*
X023812Y028872D01*
X0234D01*
X022988D01*
X022996Y028814D01*
X023038Y028713D01*
X023104Y028626D01*
X023191Y02856D01*
X023245Y028537D01*
X023235Y028487D01*
X022835D01*
Y02765D01*
X020993D01*
Y030937D01*
X021024Y031013D01*
X021036Y0311D01*
X021024Y031187D01*
X020991Y031268D01*
X020937Y031337D01*
X020868Y031391D01*
X020787Y031424D01*
X0207Y031436D01*
X020613Y031424D01*
X020532Y031391D01*
X020463Y031337D01*
X020409Y031268D01*
X020376Y031187D01*
X020364Y0311D01*
X020376Y031013D01*
X020408Y030937D01*
Y02765D01*
X018109D01*
X018082Y0277D01*
X018102Y027729D01*
X018106Y02775D01*
X017753D01*
X017757Y027729D01*
X017777Y0277D01*
X01775Y02765D01*
X017536D01*
X01751Y0277D01*
X017533Y027735D01*
X017537Y027756D01*
X017185D01*
X017189Y027735D01*
X017212Y0277D01*
X017186Y02765D01*
X016947D01*
X016931Y0277D01*
X016932Y0277D01*
X016972Y027761D01*
X016976Y027782D01*
X0168D01*
Y027832D01*
X01675D01*
Y028008D01*
X016729Y028004D01*
X016693Y02798D01*
X016643Y028006D01*
Y028258D01*
X016693Y028273D01*
X016695Y028268D01*
X016756Y028228D01*
X016777Y028224D01*
Y0284D01*
Y028576D01*
X016756Y028572D01*
X016695Y028532D01*
X016693Y028527D01*
X016643Y028542D01*
Y028868D01*
X016693Y028883D01*
X016695Y028879D01*
X016756Y028839D01*
X016777Y028834D01*
Y029011D01*
Y029187D01*
X016756Y029183D01*
X016695Y029142D01*
X016693Y029138D01*
X016643Y029153D01*
Y031887D01*
X016674Y031963D01*
X016686Y03205D01*
X016674Y032137D01*
X016641Y032218D01*
X016587Y032287D01*
X016518Y032341D01*
X016437Y032374D01*
X01635Y032386D01*
X016263Y032374D01*
X016182Y032341D01*
X016113Y032287D01*
X016087D01*
X016018Y032341D01*
X015937Y032374D01*
X01585Y032386D01*
X015763Y032374D01*
X015682Y032341D01*
X015643Y03231D01*
X015593Y032335D01*
Y032958D01*
X017866Y035231D01*
X017913Y035212D01*
Y035013D01*
X017881Y034937D01*
X01787Y03485D01*
X017881Y034763D01*
X017915Y034682D01*
X017968Y034613D01*
X018037Y034559D01*
X018118Y034526D01*
X018205Y034514D01*
X018292Y034526D01*
X018373Y034559D01*
X018442Y034613D01*
X018496Y034682D01*
X018529Y034763D01*
X018541Y03485D01*
X018529Y034937D01*
X018498Y035013D01*
Y035312D01*
X018877Y035692D01*
X020567D01*
X020587Y035646D01*
X020543Y035603D01*
X020497Y035542D01*
X020467Y035471D01*
X020457Y035396D01*
Y035013D01*
X020426Y034937D01*
X020414Y03485D01*
X020426Y034763D01*
X020457Y034687D01*
Y032443D01*
X020013D01*
X019937Y032474D01*
X01985Y032486D01*
X019763Y032474D01*
X019682Y032441D01*
X019613Y032387D01*
X019587D01*
X019518Y032441D01*
X019437Y032474D01*
X01935Y032486D01*
X019263Y032474D01*
X019182Y032441D01*
X019113Y032387D01*
X019059Y032318D01*
X019026Y032237D01*
X019014Y03215D01*
X019026Y032063D01*
X019059Y031982D01*
X019113Y031913D01*
X019182Y031859D01*
X019259Y031828D01*
X019393Y031693D01*
X019454Y031647D01*
X019524Y031617D01*
X0196Y031607D01*
X02095D01*
X021026Y031617D01*
X021096Y031647D01*
X021157Y031693D01*
X021407Y031943D01*
X021453Y032004D01*
X021483Y032074D01*
X021493Y03215D01*
Y034957D01*
X024079D01*
X024258Y034779D01*
Y031388D01*
X024147Y031303D01*
X024057Y031185D01*
X024003Y031055D01*
X023999Y031055D01*
X02395Y03107D01*
X023893Y031207D01*
X023803Y031325D01*
X023685Y031416D01*
X023547Y031472D01*
X0234Y031492D01*
X023253Y031472D01*
X023115Y031416D01*
X022997Y031325D01*
X022907Y031207D01*
X02285Y03107D01*
X02283Y030922D01*
X02285Y030775D01*
X022907Y030637D01*
X022997Y030519D01*
X023082Y030454D01*
Y030391D01*
X022997Y030325D01*
X022907Y030207D01*
X02285Y03007D01*
X02283Y029922D01*
X02285Y029775D01*
X022907Y029637D01*
X022997Y029519D01*
X023115Y029429D01*
X023253Y029372D01*
X023266Y02937D01*
X023273Y029319D01*
X023191Y029285D01*
X023104Y029218D01*
X023038Y029131D01*
X022996Y02903D01*
X022988Y028972D01*
X0234D01*
X023812D01*
X023804Y02903D01*
X023762Y029131D01*
X023696Y029218D01*
X023609Y029285D01*
X023527Y029319D01*
X023534Y02937D01*
X023547Y029372D01*
X023685Y029429D01*
X023803Y029519D01*
X023893Y029637D01*
X023947Y029767D01*
X023951Y029768D01*
X024Y029753D01*
X024057Y029615D01*
X024147Y029497D01*
X024265Y029407D01*
X024403Y02935D01*
X024416Y029348D01*
X024423Y029296D01*
X024341Y029262D01*
X024254Y029196D01*
X024188Y029109D01*
X024146Y029008D01*
X024138Y02895D01*
X02455D01*
X024962D01*
X024954Y029008D01*
X024912Y029109D01*
X024846Y029196D01*
X024759Y029262D01*
X024677Y029296D01*
X024684Y029348D01*
X024697Y02935D01*
X024835Y029407D01*
X024953Y029497D01*
X025043Y029615D01*
X0251Y029753D01*
X025112Y029837D01*
X025257Y029983D01*
X025303Y030043D01*
X025333Y030114D01*
X025343Y030189D01*
Y03505D01*
X025333Y035126D01*
X025303Y035196D01*
X025257Y035257D01*
X024717Y035797D01*
X024656Y035843D01*
X024586Y035873D01*
X02451Y035883D01*
X023812D01*
X023793Y035929D01*
X023949Y036085D01*
X024007Y036109D01*
X024077Y036163D01*
X02413Y036232D01*
X024164Y036313D01*
X024175Y0364D01*
X024164Y036487D01*
X02413Y036568D01*
X024077Y036637D01*
X024007Y036691D01*
X023926Y036724D01*
X023839Y036736D01*
X023753Y036724D01*
X023672Y036691D01*
X023602Y036637D01*
X023549Y036568D01*
X023515Y036487D01*
X023514Y036478D01*
X023313Y036277D01*
X018813D01*
X018793Y0363D01*
Y038688D01*
X019112Y039007D01*
X02205D01*
X022132Y039018D01*
X022172Y038985D01*
X022169Y038977D01*
X022157Y038888D01*
Y038772D01*
X022082Y038741D01*
X022013Y038687D01*
X021959Y038618D01*
X021926Y038537D01*
X021914Y03845D01*
X021926Y038363D01*
X021931Y03835D01*
X021926Y038337D01*
X021914Y03825D01*
X021908Y038242D01*
X020513D01*
X020437Y038274D01*
X02035Y038286D01*
X020263Y038274D01*
X020182Y038241D01*
X020113Y038187D01*
X020059Y038118D01*
X020026Y038037D01*
X020014Y03795D01*
X020026Y037863D01*
X020059Y037782D01*
X020113Y037713D01*
X020182Y037659D01*
X020263Y037626D01*
X02035Y037614D01*
X020437Y037626D01*
X020513Y037657D01*
X024287D01*
X024363Y037626D01*
X02445Y037614D01*
X024537Y037626D01*
X024618Y037659D01*
X024687Y037713D01*
X024741Y037782D01*
X024774Y037863D01*
X024786Y03795D01*
X024774Y038037D01*
X024741Y038118D01*
X024687Y038187D01*
X024618Y038241D01*
X024537Y038274D01*
X02445Y038286D01*
X024363Y038274D01*
X024287Y038242D01*
X02285D01*
X022843Y03825D01*
Y038746D01*
X023231Y039134D01*
X039431D01*
X039658Y038908D01*
X039729Y038853D01*
X039811Y038819D01*
X0399Y038807D01*
X039989Y038819D01*
X040071Y038853D01*
X040142Y038908D01*
X040197Y038979D01*
X040231Y039061D01*
X040243Y03915D01*
X040231Y039239D01*
X040197Y039321D01*
X040142Y039392D01*
X039815Y03972D01*
X039744Y039774D01*
X039662Y039808D01*
X039573Y03982D01*
X029595D01*
X029573Y039865D01*
X029577Y03987D01*
X029621Y039976D01*
X029629Y040039D01*
X028765D01*
X028774Y039976D01*
X028818Y03987D01*
X028822Y039865D01*
X0288Y03982D01*
X028515D01*
X028505Y039824D01*
X028418Y039836D01*
X028331Y039824D01*
X028321Y03982D01*
X026782D01*
Y040669D01*
X025613D01*
Y040377D01*
X025584D01*
X025509Y040367D01*
X025438Y040338D01*
X025378Y040291D01*
X025129Y040043D01*
X024479D01*
X02446Y040089D01*
X024608Y040237D01*
X024662Y040308D01*
X024697Y04039D01*
X024708Y040479D01*
Y041288D01*
X02484Y04142D01*
X0254D01*
X0254Y04142D01*
X025401Y04142D01*
X034623Y041452D01*
X034934Y041202D01*
X034966Y041185D01*
X034996Y041164D01*
X03501Y041162D01*
X035022Y041155D01*
X035058Y041152D01*
X035094Y041145D01*
X042069Y041145D01*
X04295D01*
X043048Y041164D01*
X04313Y04122D01*
X043186Y041302D01*
X043205Y0414D01*
Y041621D01*
X043206Y041623D01*
X043206Y041625D01*
X043206Y041626D01*
X04321Y041653D01*
X043225Y04176D01*
X043224Y041762D01*
X043224Y041763D01*
X043221Y04179D01*
X043207Y041898D01*
X043206Y0419D01*
X043206Y0419D01*
X043205Y041904D01*
Y04215D01*
X043186Y042248D01*
X04313Y04233D01*
X043048Y042386D01*
X04295Y042405D01*
X042069D01*
X03818Y042405D01*
Y044058D01*
X038294D01*
Y045542D01*
X037006D01*
Y044058D01*
X03712D01*
Y042405D01*
X035D01*
X034902Y042386D01*
X03482Y04233D01*
X034628Y042138D01*
X025399Y042106D01*
X024698D01*
X024609Y042094D01*
X024526Y04206D01*
X024455Y042005D01*
X024123Y041673D01*
X024068Y041602D01*
X024034Y041519D01*
X024022Y04143D01*
Y040621D01*
X023794Y040393D01*
X023013D01*
X022988Y040443D01*
X023043Y040515D01*
X0231Y040653D01*
X02312Y0408D01*
X0231Y040947D01*
X023043Y041085D01*
X022953Y041203D01*
X022835Y041293D01*
X022697Y04135D01*
X02255Y04137D01*
X022403Y04135D01*
X022265Y041293D01*
X022147Y041203D01*
X022082Y041118D01*
X022018D01*
X021953Y041203D01*
X021835Y041293D01*
X021697Y04135D01*
X02155Y04137D01*
X021403Y04135D01*
X021265Y041293D01*
X021147Y041203D01*
X021082Y041118D01*
X021018D01*
X020953Y041203D01*
X020835Y041293D01*
X020697Y04135D01*
X02055Y04137D01*
X020403Y04135D01*
X020265Y041293D01*
X020147Y041203D01*
X020057Y041085D01*
X02Y040947D01*
X019998Y040934D01*
X019946Y040927D01*
X019912Y041009D01*
X019846Y041096D01*
X019759Y041162D01*
X019658Y041204D01*
X0196Y041212D01*
Y0408D01*
X0195D01*
Y041212D01*
X019442Y041204D01*
X019341Y041162D01*
X019254Y041096D01*
X019188Y041009D01*
X019154Y040927D01*
X019102Y040934D01*
X0191Y040947D01*
X019043Y041085D01*
X018953Y041203D01*
X018835Y041293D01*
X018697Y04135D01*
X01855Y04137D01*
X018403Y04135D01*
X018265Y041293D01*
X018165Y041217D01*
X018115Y04124D01*
Y041365D01*
X016985D01*
Y040293D01*
X01455D01*
X014461Y040281D01*
X014379Y040247D01*
X014308Y040192D01*
X013958Y039842D01*
X013903Y039771D01*
X013869Y039689D01*
X013857Y0396D01*
Y039442D01*
X013653Y039238D01*
X013603Y039259D01*
Y041025D01*
X013653Y041041D01*
X013668Y041018D01*
X013729Y040978D01*
X01375Y040974D01*
Y04115D01*
Y041326D01*
X013729Y041322D01*
X013668Y041282D01*
X013653Y041259D01*
X013603Y041275D01*
Y044982D01*
X013806D01*
X013822Y044968D01*
X013988Y044866D01*
X014167Y044792D01*
X014356Y044746D01*
X01455Y044731D01*
X014744Y044746D01*
X014933Y044792D01*
X015112Y044866D01*
X015278Y044968D01*
X015294Y044982D01*
X015764D01*
X015777Y045828D01*
X015788Y045969D01*
X015781Y046065D01*
X015795Y047026D01*
X018287D01*
X018309Y046981D01*
X018299Y046968D01*
X018237Y046854D01*
X0182Y046729D01*
X018187Y0466D01*
X0182Y046471D01*
X018237Y046346D01*
X018299Y046232D01*
X018381Y046131D01*
X018482Y046049D01*
X018596Y045987D01*
X018721Y04595D01*
X01885Y045937D01*
X018979Y04595D01*
X019104Y045987D01*
X019218Y046049D01*
X019319Y046131D01*
X019401Y046232D01*
X019463Y046346D01*
X0195Y046471D01*
X019513Y0466D01*
X0195Y046729D01*
X019463Y046854D01*
X019401Y046968D01*
X019391Y046981D01*
X019413Y047026D01*
X020287D01*
X020309Y046981D01*
X020299Y046968D01*
X020237Y046854D01*
X0202Y046729D01*
X020187Y0466D01*
X0202Y046471D01*
X020237Y046346D01*
X020299Y046232D01*
X020381Y046131D01*
X020482Y046049D01*
X020596Y045987D01*
X020721Y04595D01*
X02085Y045937D01*
X020979Y04595D01*
X021104Y045987D01*
X021218Y046049D01*
X021319Y046131D01*
X021401Y046232D01*
X021463Y046346D01*
X0215Y046471D01*
X021513Y0466D01*
X0215Y046729D01*
X021463Y046854D01*
X021401Y046968D01*
X021391Y046981D01*
X021413Y047026D01*
X045588D01*
X045598Y046976D01*
X045529Y046947D01*
X045458Y046892D01*
X045403Y046821D01*
X045369Y046739D01*
X045357Y04665D01*
X045369Y046561D01*
X045403Y046479D01*
X045458Y046408D01*
X045529Y046353D01*
X045611Y046319D01*
X0457Y046307D01*
X045772D01*
X045818Y046262D01*
Y040289D01*
X045829Y040201D01*
X045836Y040185D01*
X045808Y040143D01*
X045693D01*
Y0422D01*
X045681Y042289D01*
X045647Y042371D01*
X045592Y042442D01*
X045521Y042497D01*
X045439Y042531D01*
X04535Y042543D01*
X045261Y042531D01*
X045179Y042497D01*
X045108Y042442D01*
X045053Y042371D01*
X045019Y042289D01*
X045007Y0422D01*
Y040143D01*
X04255D01*
X042461Y040131D01*
X042379Y040097D01*
X042308Y040042D01*
X042253Y039971D01*
X042219Y039889D01*
X042207Y0398D01*
X042219Y039711D01*
X042253Y039629D01*
X042308Y039558D01*
X042379Y039503D01*
X042461Y039469D01*
X04255Y039457D01*
X04825D01*
X048339Y039469D01*
X048421Y039503D01*
X048492Y039558D01*
X048547Y039629D01*
X048581Y039711D01*
X048593Y0398D01*
X048581Y039889D01*
X048547Y039971D01*
X048492Y040042D01*
X048421Y040097D01*
X048339Y040131D01*
X04825Y040143D01*
X046513D01*
X046485Y040185D01*
X046492Y040201D01*
X046503Y040289D01*
Y046404D01*
X046492Y046493D01*
X046458Y046575D01*
X046403Y046646D01*
X046157Y046892D01*
X046086Y046947D01*
X046016Y046976D01*
X046026Y047026D01*
X04665D01*
Y044982D01*
D02*
G37*
G36*
X019998Y040666D02*
X02Y040653D01*
X020057Y040515D01*
X020147Y040397D01*
X020265Y040307D01*
X020403Y04025D01*
X02055Y04023D01*
X020697Y04025D01*
X020835Y040307D01*
X020953Y040397D01*
X021018Y040483D01*
X021082D01*
X021147Y040397D01*
X021265Y040307D01*
X021403Y04025D01*
X02155Y04023D01*
X021697Y04025D01*
X021835Y040307D01*
X021953Y040397D01*
X022018Y040483D01*
X022082D01*
X022147Y040397D01*
X022265Y040307D01*
X022396Y040252D01*
X022418Y040205D01*
X022418Y040203D01*
X021908Y039693D01*
X019649D01*
X019628Y039743D01*
X019792Y039908D01*
X019847Y039979D01*
X019881Y040061D01*
X019893Y04015D01*
Y040565D01*
X019912Y040591D01*
X019946Y040673D01*
X019998Y040666D01*
D02*
G37*
G36*
X014653Y039503D02*
Y0389D01*
X014657D01*
Y038274D01*
X01462Y038241D01*
X0146Y038243D01*
X014477Y038231D01*
X01436Y038195D01*
X014251Y038137D01*
X014238Y038126D01*
X014193Y038147D01*
Y038808D01*
X014335Y03895D01*
X014497D01*
Y039128D01*
X014497Y039129D01*
X014531Y039211D01*
X014543Y0393D01*
Y039458D01*
X014607Y039522D01*
X014653Y039503D01*
D02*
G37*
G36*
X018692Y039557D02*
X018208Y039072D01*
X018153Y039001D01*
X018119Y038919D01*
X018107Y03883D01*
Y036442D01*
X018067Y036402D01*
X018025Y036431D01*
X018031Y036445D01*
X018043Y036534D01*
X018032Y036623D01*
X017998Y036705D01*
X017943Y036777D01*
X017873Y036831D01*
X01779Y036866D01*
X017701Y036878D01*
X017451Y036879D01*
X014193Y036892D01*
Y037082D01*
X014238Y037103D01*
X014251Y037092D01*
X01436Y037034D01*
X014477Y036999D01*
X0146Y036987D01*
X014723Y036999D01*
X01484Y037034D01*
X014949Y037092D01*
X015044Y03717D01*
X015122Y037266D01*
X01518Y037374D01*
X015216Y037492D01*
X015228Y037615D01*
X015216Y037737D01*
X015214Y037744D01*
X015242Y037772D01*
X015297Y037843D01*
X015331Y037926D01*
X015343Y038015D01*
Y0389D01*
X015347D01*
Y039607D01*
X018671D01*
X018692Y039557D01*
D02*
G37*
G36*
X017833Y036168D02*
X015393Y033728D01*
X015347Y033747D01*
Y03445D01*
X015343D01*
Y035285D01*
X015331Y035374D01*
X015297Y035457D01*
X015242Y035528D01*
X015214Y035556D01*
X015216Y035563D01*
X015228Y035685D01*
X015216Y035808D01*
X01518Y035926D01*
X015122Y036034D01*
X015044Y03613D01*
X015013Y036155D01*
X015029Y036202D01*
X017449Y036193D01*
X017699Y036192D01*
X017787Y036203D01*
X017805Y036211D01*
X017833Y036168D01*
D02*
G37*
G36*
X014251Y035163D02*
X01436Y035105D01*
X014477Y035069D01*
X0146Y035057D01*
X01462Y035059D01*
X014657Y035026D01*
Y03445D01*
X014653D01*
Y03365D01*
X01525D01*
X015269Y033604D01*
X015008Y033342D01*
X014953Y033271D01*
X014919Y033189D01*
X014907Y0331D01*
Y02765D01*
X013603D01*
Y034241D01*
X013653Y034262D01*
X013857Y034058D01*
Y032381D01*
X013814Y032372D01*
X013753Y032332D01*
X013713Y032271D01*
X013709Y03225D01*
X013885D01*
Y0322D01*
X013935D01*
Y032024D01*
X013956Y032028D01*
X014005Y03206D01*
X014108Y031958D01*
X014179Y031903D01*
X014261Y031869D01*
X01435Y031857D01*
X014439Y031869D01*
X014521Y031903D01*
X014592Y031958D01*
X014647Y032029D01*
X014681Y032111D01*
X014693Y0322D01*
X014681Y032289D01*
X014647Y032371D01*
X014592Y032442D01*
X014543Y032492D01*
Y03405D01*
Y0342D01*
X014531Y034289D01*
X014497Y034371D01*
X014497Y034372D01*
Y0344D01*
X014475D01*
X014442Y034442D01*
X014193Y034692D01*
Y035153D01*
X014238Y035174D01*
X014251Y035163D01*
D02*
G37*
%LPC*%
G36*
X01985Y046213D02*
X01973Y046201D01*
X019615Y046166D01*
X019509Y04611D01*
X019417Y046033D01*
X01934Y045941D01*
X019284Y045835D01*
X019249Y04572D01*
X019237Y0456D01*
X019249Y04548D01*
X019284Y045365D01*
X01934Y045259D01*
X019417Y045167D01*
X019509Y04509D01*
X019615Y045034D01*
X01973Y044999D01*
X01985Y044987D01*
X01997Y044999D01*
X020085Y045034D01*
X020191Y04509D01*
X020283Y045167D01*
X02036Y045259D01*
X020416Y045365D01*
X020451Y04548D01*
X020463Y0456D01*
X020451Y04572D01*
X020416Y045835D01*
X02036Y045941D01*
X020283Y046033D01*
X020191Y04611D01*
X020085Y046166D01*
X01997Y046201D01*
X01985Y046213D01*
D02*
G37*
G36*
X042144Y045392D02*
X0417D01*
Y04485D01*
X042144D01*
Y045392D01*
D02*
G37*
G36*
X0416D02*
X041156D01*
Y04485D01*
X0416D01*
Y045392D01*
D02*
G37*
G36*
X042144Y04475D02*
X0417D01*
Y044208D01*
X042144D01*
Y04475D01*
D02*
G37*
G36*
X0416D02*
X041156D01*
Y044208D01*
X0416D01*
Y04475D01*
D02*
G37*
G36*
X040294Y045542D02*
X039006D01*
Y044058D01*
X040294D01*
Y045542D01*
D02*
G37*
G36*
X036294D02*
X035006D01*
Y044058D01*
X036294D01*
Y045542D01*
D02*
G37*
G36*
X034294D02*
X033006D01*
Y044058D01*
X034294D01*
Y045542D01*
D02*
G37*
G36*
X032294D02*
X031006D01*
Y044058D01*
X032294D01*
Y045542D01*
D02*
G37*
G36*
X030294D02*
X029006D01*
Y044058D01*
X030294D01*
Y045542D01*
D02*
G37*
G36*
X028294D02*
X027006D01*
Y044058D01*
X028294D01*
Y045542D01*
D02*
G37*
G36*
X026294D02*
X025006D01*
Y044058D01*
X026294D01*
Y045542D01*
D02*
G37*
G36*
X024294D02*
X023006D01*
Y044058D01*
X024294D01*
Y045542D01*
D02*
G37*
G36*
X02085Y045263D02*
X020721Y04525D01*
X020596Y045213D01*
X020482Y045151D01*
X020381Y045069D01*
X020299Y044968D01*
X020237Y044854D01*
X0202Y044729D01*
X020187Y0446D01*
X0202Y044471D01*
X020237Y044346D01*
X020299Y044232D01*
X020381Y044131D01*
X020482Y044049D01*
X020596Y043987D01*
X020721Y04395D01*
X02085Y043937D01*
X020979Y04395D01*
X021104Y043987D01*
X021218Y044049D01*
X021319Y044131D01*
X021401Y044232D01*
X021463Y044346D01*
X0215Y044471D01*
X021513Y0446D01*
X0215Y044729D01*
X021463Y044854D01*
X021401Y044968D01*
X021319Y045069D01*
X021218Y045151D01*
X021104Y045213D01*
X020979Y04525D01*
X02085Y045263D01*
D02*
G37*
G36*
X01885D02*
X018721Y04525D01*
X018596Y045213D01*
X018482Y045151D01*
X018381Y045069D01*
X018299Y044968D01*
X018237Y044854D01*
X0182Y044729D01*
X018187Y0446D01*
X0182Y044471D01*
X018237Y044346D01*
X018299Y044232D01*
X018381Y044131D01*
X018482Y044049D01*
X018596Y043987D01*
X018721Y04395D01*
X01885Y043937D01*
X018979Y04395D01*
X019104Y043987D01*
X019218Y044049D01*
X019319Y044131D01*
X019401Y044232D01*
X019463Y044346D01*
X0195Y044471D01*
X019513Y0446D01*
X0195Y044729D01*
X019463Y044854D01*
X019401Y044968D01*
X019319Y045069D01*
X019218Y045151D01*
X019104Y045213D01*
X018979Y04525D01*
X01885Y045263D01*
D02*
G37*
G36*
X01385Y041326D02*
Y0412D01*
X013976D01*
X013972Y041221D01*
X013932Y041282D01*
X013871Y041322D01*
X01385Y041326D01*
D02*
G37*
G36*
X013976Y0411D02*
X01385D01*
Y040974D01*
X013871Y040978D01*
X013932Y041018D01*
X013972Y041079D01*
X013976Y0411D01*
D02*
G37*
G36*
X029247Y040521D02*
Y040139D01*
X029629D01*
X029621Y040203D01*
X029577Y040309D01*
X029507Y040399D01*
X029416Y040469D01*
X029311Y040513D01*
X029247Y040521D01*
D02*
G37*
G36*
X029147D02*
X029084Y040513D01*
X028978Y040469D01*
X028887Y040399D01*
X028818Y040309D01*
X028774Y040203D01*
X028765Y040139D01*
X029147D01*
Y040521D01*
D02*
G37*
G36*
X02315Y037488D02*
Y037318D01*
X023319D01*
X023312Y037356D01*
X023262Y03743D01*
X023188Y03748D01*
X02315Y037488D01*
D02*
G37*
G36*
X02305D02*
X023012Y03748D01*
X022938Y03743D01*
X022888Y037356D01*
X022881Y037318D01*
X02305D01*
Y037488D01*
D02*
G37*
G36*
X023319Y037218D02*
X02315D01*
Y037049D01*
X023188Y037056D01*
X023262Y037106D01*
X023312Y03718D01*
X023319Y037218D01*
D02*
G37*
G36*
X02305D02*
X022881D01*
X022888Y03718D01*
X022938Y037106D01*
X023012Y037056D01*
X02305Y037049D01*
Y037218D01*
D02*
G37*
G36*
X0399Y034728D02*
X039802Y034715D01*
X039748Y034693D01*
X038098D01*
X038044Y034715D01*
X037946Y034728D01*
X037848Y034715D01*
X037757Y034678D01*
X037679Y034617D01*
X037619Y034539D01*
X037581Y034448D01*
X037568Y03435D01*
X037581Y034252D01*
X037619Y034161D01*
X037679Y034083D01*
X037757Y034022D01*
X037848Y033985D01*
X037946Y033972D01*
X038044Y033985D01*
X038098Y034007D01*
X039748D01*
X039802Y033985D01*
X0399Y033972D01*
X039998Y033985D01*
X040089Y034022D01*
X040167Y034083D01*
X040228Y034161D01*
X040265Y034252D01*
X040278Y03435D01*
X040265Y034448D01*
X040228Y034539D01*
X040167Y034617D01*
X040089Y034678D01*
X039998Y034715D01*
X0399Y034728D01*
D02*
G37*
G36*
X033035Y037208D02*
X029865D01*
X02979Y037198D01*
X029719Y037169D01*
X029659Y037122D01*
X029243Y036707D01*
X029197Y036646D01*
X029167Y036576D01*
X029158Y0365D01*
Y03485D01*
X029167Y034774D01*
X029197Y034704D01*
X029243Y034643D01*
X029472Y034414D01*
X029533Y034367D01*
X029604Y034338D01*
X029619Y034336D01*
X029614Y0343D01*
X029626Y034213D01*
X029659Y034132D01*
X029713Y034063D01*
X029782Y034009D01*
X029863Y033976D01*
X02995Y033964D01*
X030037Y033976D01*
X030118Y034009D01*
X030131Y03402D01*
X030196Y034047D01*
X030257Y034093D01*
X030407Y034243D01*
X030453Y034304D01*
X030483Y034374D01*
X030492Y03445D01*
Y034695D01*
X030483Y034771D01*
X030453Y034841D01*
X030407Y034902D01*
X030329Y03498D01*
X030338Y035003D01*
X030349Y035089D01*
X030338Y035176D01*
X030306Y035253D01*
Y035901D01*
X030362Y035958D01*
X035466D01*
X035542Y035967D01*
X035612Y035997D01*
X035673Y036043D01*
X035858Y036228D01*
X035934Y036259D01*
X036003Y036313D01*
X036057Y036382D01*
X03609Y036463D01*
X036102Y03655D01*
X03609Y036637D01*
X036057Y036718D01*
X036003Y036787D01*
X035934Y036841D01*
X035853Y036874D01*
X035766Y036886D01*
X035679Y036874D01*
X035598Y036841D01*
X035529Y036787D01*
X035476Y036718D01*
X035444Y036641D01*
X035345Y036542D01*
X03363D01*
X033607Y036568D01*
X033596Y036655D01*
X033562Y036736D01*
X033555Y036745D01*
X033554Y036754D01*
X033525Y036825D01*
X033478Y036885D01*
X033241Y037122D01*
X033181Y037169D01*
X03311Y037198D01*
X033035Y037208D01*
D02*
G37*
G36*
X047404Y030804D02*
X046196D01*
Y029596D01*
X047404D01*
Y030804D01*
D02*
G37*
G36*
X0432Y03573D02*
X043063Y035712D01*
X042935Y035659D01*
X042825Y035575D01*
X042741Y035465D01*
X042688Y035337D01*
X04267Y0352D01*
Y03172D01*
X041755Y030804D01*
X041296D01*
Y029596D01*
X042504D01*
Y030055D01*
X043575Y031125D01*
X043659Y031235D01*
X043681Y031288D01*
X043712Y031363D01*
X04373Y0315D01*
Y0352D01*
X043712Y035337D01*
X043659Y035465D01*
X043575Y035575D01*
X043465Y035659D01*
X043337Y035712D01*
X0432Y03573D01*
D02*
G37*
G36*
X01798Y029187D02*
Y029061D01*
X018106D01*
X018102Y029082D01*
X018061Y029142D01*
X018001Y029183D01*
X01798Y029187D01*
D02*
G37*
G36*
X01788D02*
X017858Y029183D01*
X017798Y029142D01*
X017757Y029082D01*
X017753Y029061D01*
X01788D01*
Y029187D01*
D02*
G37*
G36*
X017428D02*
Y029061D01*
X017555D01*
X01755Y029082D01*
X01751Y029142D01*
X01745Y029183D01*
X017428Y029187D01*
D02*
G37*
G36*
X017328D02*
X017307Y029183D01*
X017247Y029142D01*
X017206Y029082D01*
X017202Y029061D01*
X017328D01*
Y029187D01*
D02*
G37*
G36*
X016877D02*
Y029061D01*
X017003D01*
X016999Y029082D01*
X016959Y029142D01*
X016898Y029183D01*
X016877Y029187D01*
D02*
G37*
G36*
X03625Y029536D02*
X036207Y02953D01*
X036138D01*
Y029514D01*
X036082Y029491D01*
X036013Y029437D01*
X035959Y029368D01*
X035926Y029287D01*
X035914Y0292D01*
X035926Y029113D01*
X035959Y029032D01*
X036013Y028963D01*
X036082Y028909D01*
X036138Y028886D01*
Y028876D01*
X036165D01*
X03625Y028864D01*
X036335Y028876D01*
X036714D01*
Y02953D01*
X036293D01*
X03625Y029536D01*
D02*
G37*
G36*
X03215D02*
X032107Y02953D01*
X032014D01*
Y029504D01*
X031982Y029491D01*
X031913Y029437D01*
X031859Y029368D01*
X031826Y029287D01*
X031814Y0292D01*
X031826Y029113D01*
X031859Y029032D01*
X031913Y028963D01*
X031982Y028909D01*
X032014Y028896D01*
Y028876D01*
X032065D01*
X03215Y028864D01*
X032235Y028876D01*
X03259D01*
Y02953D01*
X032193D01*
X03215Y029536D01*
D02*
G37*
G36*
X02815D02*
X028107Y02953D01*
X027988D01*
Y029493D01*
X027982Y029491D01*
X027913Y029437D01*
X027859Y029368D01*
X027826Y029287D01*
X027814Y0292D01*
X027826Y029113D01*
X027859Y029032D01*
X027913Y028963D01*
X027982Y028909D01*
X027988Y028907D01*
Y028876D01*
X028065D01*
X02815Y028864D01*
X028235Y028876D01*
X028564D01*
Y02953D01*
X028193D01*
X02815Y029536D01*
D02*
G37*
G36*
X018106Y028961D02*
X01798D01*
Y028834D01*
X018001Y028839D01*
X018061Y028879D01*
X018102Y028939D01*
X018106Y028961D01*
D02*
G37*
G36*
X01788D02*
X017753D01*
X017757Y028939D01*
X017798Y028879D01*
X017858Y028839D01*
X01788Y028834D01*
Y028961D01*
D02*
G37*
G36*
X017555D02*
X017428D01*
Y028834D01*
X01745Y028839D01*
X01751Y028879D01*
X01755Y028939D01*
X017555Y028961D01*
D02*
G37*
G36*
X017328D02*
X017202D01*
X017206Y028939D01*
X017247Y028879D01*
X017307Y028839D01*
X017328Y028834D01*
Y028961D01*
D02*
G37*
G36*
X017003D02*
X016877D01*
Y028834D01*
X016898Y028839D01*
X016959Y028879D01*
X016999Y028939D01*
X017003Y028961D01*
D02*
G37*
G36*
X01798Y028636D02*
Y028509D01*
X018106D01*
X018102Y028531D01*
X018061Y028591D01*
X018001Y028632D01*
X01798Y028636D01*
D02*
G37*
G36*
X01788D02*
X017858Y028632D01*
X017798Y028591D01*
X017757Y028531D01*
X017753Y028509D01*
X01788D01*
Y028636D01*
D02*
G37*
G36*
X017428D02*
Y028509D01*
X017555D01*
X01755Y028531D01*
X01751Y028591D01*
X01745Y028632D01*
X017428Y028636D01*
D02*
G37*
G36*
X017328D02*
X017307Y028632D01*
X017247Y028591D01*
X017206Y028531D01*
X017202Y028509D01*
X017328D01*
Y028636D01*
D02*
G37*
G36*
X016877Y028576D02*
Y02845D01*
X017003D01*
X016999Y028471D01*
X016959Y028532D01*
X016898Y028572D01*
X016877Y028576D01*
D02*
G37*
G36*
X018106Y028409D02*
X01798D01*
Y028283D01*
X018001Y028287D01*
X018061Y028328D01*
X018102Y028388D01*
X018106Y028409D01*
D02*
G37*
G36*
X01788D02*
X017753D01*
X017757Y028388D01*
X017798Y028328D01*
X017858Y028287D01*
X01788Y028283D01*
Y028409D01*
D02*
G37*
G36*
X017555D02*
X017428D01*
Y028283D01*
X01745Y028287D01*
X01751Y028328D01*
X01755Y028388D01*
X017555Y028409D01*
D02*
G37*
G36*
X017328D02*
X017202D01*
X017206Y028388D01*
X017247Y028328D01*
X017307Y028287D01*
X017328Y028283D01*
Y028409D01*
D02*
G37*
G36*
X04685Y028652D02*
Y02825D01*
X047252D01*
X047243Y028319D01*
X047197Y028429D01*
X047124Y028524D01*
X047029Y028597D01*
X046919Y028643D01*
X04685Y028652D01*
D02*
G37*
G36*
X04195D02*
Y02825D01*
X042352D01*
X042343Y028319D01*
X042297Y028429D01*
X042224Y028524D01*
X042129Y028597D01*
X042019Y028643D01*
X04195Y028652D01*
D02*
G37*
G36*
X04675D02*
X046681Y028643D01*
X046571Y028597D01*
X046476Y028524D01*
X046403Y028429D01*
X046357Y028319D01*
X046348Y02825D01*
X04675D01*
Y028652D01*
D02*
G37*
G36*
X04185D02*
X041781Y028643D01*
X041671Y028597D01*
X041576Y028524D01*
X041503Y028429D01*
X041457Y028319D01*
X041448Y02825D01*
X04185D01*
Y028652D01*
D02*
G37*
G36*
X017003Y02835D02*
X016877D01*
Y028224D01*
X016898Y028228D01*
X016959Y028268D01*
X016999Y028329D01*
X017003Y02835D01*
D02*
G37*
G36*
X01685Y028008D02*
Y027882D01*
X016976D01*
X016972Y027903D01*
X016932Y027964D01*
X016871Y028004D01*
X01685Y028008D01*
D02*
G37*
G36*
X017411Y027983D02*
Y027856D01*
X017537D01*
X017533Y027878D01*
X017493Y027938D01*
X017432Y027978D01*
X017411Y027983D01*
D02*
G37*
G36*
X017311D02*
X01729Y027978D01*
X017229Y027938D01*
X017189Y027878D01*
X017185Y027856D01*
X017311D01*
Y027983D01*
D02*
G37*
G36*
X01798Y027976D02*
Y02785D01*
X018106D01*
X018102Y027871D01*
X018061Y027932D01*
X018001Y027972D01*
X01798Y027976D01*
D02*
G37*
G36*
X01788D02*
X017858Y027972D01*
X017798Y027932D01*
X017757Y027871D01*
X017753Y02785D01*
X01788D01*
Y027976D01*
D02*
G37*
G36*
X047252Y02815D02*
X04685D01*
Y027748D01*
X046919Y027757D01*
X047029Y027803D01*
X047124Y027876D01*
X047197Y027971D01*
X047243Y028081D01*
X047252Y02815D01*
D02*
G37*
G36*
X042352D02*
X04195D01*
Y027748D01*
X042019Y027757D01*
X042129Y027803D01*
X042224Y027876D01*
X042297Y027971D01*
X042343Y028081D01*
X042352Y02815D01*
D02*
G37*
G36*
X04675D02*
X046348D01*
X046357Y028081D01*
X046403Y027971D01*
X046476Y027876D01*
X046571Y027803D01*
X046681Y027757D01*
X04675Y027748D01*
Y02815D01*
D02*
G37*
G36*
X04185D02*
X041448D01*
X041457Y028081D01*
X041503Y027971D01*
X041576Y027876D01*
X041671Y027803D01*
X041781Y027757D01*
X04185Y027748D01*
Y02815D01*
D02*
G37*
G36*
X0471Y026284D02*
Y025937D01*
X047447D01*
X04744Y025991D01*
X047399Y026089D01*
X047335Y026172D01*
X047252Y026236D01*
X047154Y026277D01*
X0471Y026284D01*
D02*
G37*
G36*
X047D02*
X046946Y026277D01*
X046848Y026236D01*
X046765Y026172D01*
X046701Y026089D01*
X04666Y025991D01*
X046653Y025937D01*
X047D01*
Y026284D01*
D02*
G37*
G36*
X013835Y03215D02*
X013709D01*
X013713Y032129D01*
X013753Y032068D01*
X013814Y032028D01*
X013835Y032024D01*
Y03215D01*
D02*
G37*
G36*
X0144Y031776D02*
Y03165D01*
X014526D01*
X014522Y031671D01*
X014482Y031732D01*
X014421Y031772D01*
X0144Y031776D01*
D02*
G37*
G36*
X0143D02*
X014279Y031772D01*
X014218Y031732D01*
X014178Y031671D01*
X014174Y03165D01*
X0143D01*
Y031776D01*
D02*
G37*
G36*
X013935D02*
Y03165D01*
X014061D01*
X014057Y031671D01*
X014017Y031732D01*
X013956Y031772D01*
X013935Y031776D01*
D02*
G37*
G36*
X013835D02*
X013814Y031772D01*
X013753Y031732D01*
X013713Y031671D01*
X013709Y03165D01*
X013835D01*
Y031776D01*
D02*
G37*
G36*
X014526Y03155D02*
X0144D01*
Y031424D01*
X014421Y031428D01*
X014482Y031468D01*
X014522Y031529D01*
X014526Y03155D01*
D02*
G37*
G36*
X0143D02*
X014174D01*
X014178Y031529D01*
X014218Y031468D01*
X014279Y031428D01*
X0143Y031424D01*
Y03155D01*
D02*
G37*
G36*
X014061D02*
X013935D01*
Y031424D01*
X013956Y031428D01*
X014017Y031468D01*
X014057Y031529D01*
X014061Y03155D01*
D02*
G37*
G36*
X013835D02*
X013709D01*
X013713Y031529D01*
X013753Y031468D01*
X013814Y031428D01*
X013835Y031424D01*
Y03155D01*
D02*
G37*
G36*
X0144Y031176D02*
Y03105D01*
X014526D01*
X014522Y031071D01*
X014482Y031132D01*
X014421Y031172D01*
X0144Y031176D01*
D02*
G37*
G36*
X0143D02*
X014279Y031172D01*
X014218Y031132D01*
X014178Y031071D01*
X014174Y03105D01*
X0143D01*
Y031176D01*
D02*
G37*
G36*
X01392D02*
Y03105D01*
X014047D01*
X014043Y031071D01*
X014002Y031132D01*
X013942Y031172D01*
X01392Y031176D01*
D02*
G37*
G36*
X01382D02*
X013799Y031172D01*
X013739Y031132D01*
X013698Y031071D01*
X013694Y03105D01*
X01382D01*
Y031176D01*
D02*
G37*
G36*
X014526Y03095D02*
X0144D01*
Y030824D01*
X014421Y030828D01*
X014482Y030868D01*
X014522Y030929D01*
X014526Y03095D01*
D02*
G37*
G36*
X0143D02*
X014174D01*
X014178Y030929D01*
X014218Y030868D01*
X014279Y030828D01*
X0143Y030824D01*
Y03095D01*
D02*
G37*
G36*
X014047D02*
X01392D01*
Y030824D01*
X013942Y030828D01*
X014002Y030868D01*
X014043Y030929D01*
X014047Y03095D01*
D02*
G37*
G36*
X01382D02*
X013694D01*
X013698Y030929D01*
X013739Y030868D01*
X013799Y030828D01*
X01382Y030824D01*
Y03095D01*
D02*
G37*
G36*
X0144Y030676D02*
Y03055D01*
X014526D01*
X014522Y030571D01*
X014482Y030632D01*
X014421Y030672D01*
X0144Y030676D01*
D02*
G37*
G36*
X0143D02*
X014279Y030672D01*
X014218Y030632D01*
X014178Y030571D01*
X014174Y03055D01*
X0143D01*
Y030676D01*
D02*
G37*
G36*
X013935D02*
Y03055D01*
X014061D01*
X014057Y030571D01*
X014017Y030632D01*
X013956Y030672D01*
X013935Y030676D01*
D02*
G37*
G36*
X013835D02*
X013814Y030672D01*
X013753Y030632D01*
X013713Y030571D01*
X013709Y03055D01*
X013835D01*
Y030676D01*
D02*
G37*
G36*
X014526Y03045D02*
X014174D01*
X014178Y030429D01*
X014218Y030368D01*
X014279Y030328D01*
X014298Y030324D01*
Y030273D01*
X014294Y030272D01*
X014233Y030232D01*
X014193Y030171D01*
X014189Y03015D01*
X014541D01*
X014537Y030171D01*
X014497Y030232D01*
X014436Y030272D01*
X014417Y030276D01*
Y030327D01*
X014421Y030328D01*
X014482Y030368D01*
X014522Y030429D01*
X014526Y03045D01*
D02*
G37*
G36*
X014061D02*
X013709D01*
X013713Y030429D01*
X013753Y030368D01*
X013814Y030328D01*
X013833Y030324D01*
Y030273D01*
X013829Y030272D01*
X013768Y030232D01*
X013728Y030171D01*
X013724Y03015D01*
X014076D01*
X014072Y030171D01*
X014032Y030232D01*
X013971Y030272D01*
X013952Y030276D01*
Y030327D01*
X013956Y030328D01*
X014017Y030368D01*
X014057Y030429D01*
X014061Y03045D01*
D02*
G37*
G36*
X014541Y03005D02*
X014415D01*
Y029924D01*
X014436Y029928D01*
X014497Y029968D01*
X014537Y030029D01*
X014541Y03005D01*
D02*
G37*
G36*
X014315D02*
X014189D01*
X014193Y030029D01*
X014233Y029968D01*
X014294Y029928D01*
X014315Y029924D01*
Y03005D01*
D02*
G37*
G36*
X014076D02*
X01395D01*
Y029924D01*
X013971Y029928D01*
X014032Y029968D01*
X014072Y030029D01*
X014076Y03005D01*
D02*
G37*
G36*
X01385D02*
X013724D01*
X013728Y030029D01*
X013768Y029968D01*
X013829Y029928D01*
X01385Y029924D01*
Y03005D01*
D02*
G37*
G36*
X014415Y029676D02*
Y02955D01*
X014541D01*
X014537Y029571D01*
X014497Y029632D01*
X014436Y029672D01*
X014415Y029676D01*
D02*
G37*
G36*
X014315D02*
X014294Y029672D01*
X014233Y029632D01*
X014193Y029571D01*
X014189Y02955D01*
X014315D01*
Y029676D01*
D02*
G37*
G36*
X01395D02*
Y02955D01*
X014076D01*
X014072Y029571D01*
X014032Y029632D01*
X013971Y029672D01*
X01395Y029676D01*
D02*
G37*
G36*
X01385D02*
X013829Y029672D01*
X013768Y029632D01*
X013728Y029571D01*
X013724Y02955D01*
X01385D01*
Y029676D01*
D02*
G37*
G36*
X014541Y02945D02*
X014415D01*
Y029324D01*
X014436Y029328D01*
X014497Y029368D01*
X014537Y029429D01*
X014541Y02945D01*
D02*
G37*
G36*
X014315D02*
X014189D01*
X014193Y029429D01*
X014233Y029368D01*
X014294Y029328D01*
X014315Y029324D01*
Y02945D01*
D02*
G37*
G36*
X014076D02*
X01395D01*
Y029324D01*
X013971Y029328D01*
X014032Y029368D01*
X014072Y029429D01*
X014076Y02945D01*
D02*
G37*
G36*
X01385D02*
X013724D01*
X013728Y029429D01*
X013768Y029368D01*
X013829Y029328D01*
X01385Y029324D01*
Y02945D01*
D02*
G37*
G36*
X014415Y029076D02*
Y02895D01*
X014541D01*
X014537Y028971D01*
X014497Y029032D01*
X014436Y029072D01*
X014415Y029076D01*
D02*
G37*
G36*
X014315D02*
X014294Y029072D01*
X014233Y029032D01*
X014193Y028971D01*
X014189Y02895D01*
X014315D01*
Y029076D01*
D02*
G37*
G36*
X013935D02*
Y02895D01*
X014062D01*
X014057Y028971D01*
X014017Y029032D01*
X013957Y029072D01*
X013935Y029076D01*
D02*
G37*
G36*
X013835D02*
X013814Y029072D01*
X013754Y029032D01*
X013713Y028971D01*
X013709Y02895D01*
X013835D01*
Y029076D01*
D02*
G37*
G36*
X014541Y02885D02*
X014415D01*
Y028724D01*
X014436Y028728D01*
X014497Y028768D01*
X014537Y028829D01*
X014541Y02885D01*
D02*
G37*
G36*
X014315D02*
X014189D01*
X014193Y028829D01*
X014233Y028768D01*
X014294Y028728D01*
X014315Y028724D01*
Y02885D01*
D02*
G37*
G36*
X014062D02*
X013935D01*
Y028724D01*
X013957Y028728D01*
X014017Y028768D01*
X014057Y028829D01*
X014062Y02885D01*
D02*
G37*
G36*
X013835D02*
X013709D01*
X013713Y028829D01*
X013754Y028768D01*
X013814Y028728D01*
X013835Y028724D01*
Y02885D01*
D02*
G37*
G36*
X014415Y028576D02*
Y02845D01*
X014541D01*
X014537Y028471D01*
X014497Y028532D01*
X014436Y028572D01*
X014415Y028576D01*
D02*
G37*
G36*
X014315D02*
X014294Y028572D01*
X014233Y028532D01*
X014193Y028471D01*
X014189Y02845D01*
X014315D01*
Y028576D01*
D02*
G37*
G36*
X01395D02*
Y02845D01*
X014076D01*
X014072Y028471D01*
X014032Y028532D01*
X013971Y028572D01*
X01395Y028576D01*
D02*
G37*
G36*
X01385D02*
X013829Y028572D01*
X013768Y028532D01*
X013728Y028471D01*
X013724Y02845D01*
X01385D01*
Y028576D01*
D02*
G37*
G36*
X014541Y02835D02*
X014415D01*
Y028224D01*
X014436Y028228D01*
X014497Y028268D01*
X014537Y028329D01*
X014541Y02835D01*
D02*
G37*
G36*
X014315D02*
X014189D01*
X014193Y028329D01*
X014233Y028268D01*
X014294Y028228D01*
X014315Y028224D01*
Y02835D01*
D02*
G37*
G36*
X014076D02*
X01395D01*
Y028224D01*
X013971Y028228D01*
X014032Y028268D01*
X014072Y028329D01*
X014076Y02835D01*
D02*
G37*
G36*
X01385D02*
X013724D01*
X013728Y028329D01*
X013768Y028268D01*
X013829Y028228D01*
X01385Y028224D01*
Y02835D01*
D02*
G37*
G36*
X014411Y028126D02*
Y028D01*
X014537D01*
X014533Y028021D01*
X014493Y028082D01*
X014432Y028122D01*
X014411Y028126D01*
D02*
G37*
G36*
X014311D02*
X01429Y028122D01*
X014229Y028082D01*
X014189Y028021D01*
X014185Y028D01*
X014311D01*
Y028126D01*
D02*
G37*
G36*
X013946D02*
Y028D01*
X014072D01*
X014068Y028021D01*
X014028Y028082D01*
X013967Y028122D01*
X013946Y028126D01*
D02*
G37*
G36*
X013846D02*
X013825Y028122D01*
X013764Y028082D01*
X013724Y028021D01*
X01372Y028D01*
X013846D01*
Y028126D01*
D02*
G37*
G36*
X014537Y0279D02*
X014411D01*
Y027774D01*
X014432Y027778D01*
X014493Y027818D01*
X014533Y027879D01*
X014537Y0279D01*
D02*
G37*
G36*
X014311D02*
X014185D01*
X014189Y027879D01*
X014229Y027818D01*
X01429Y027778D01*
X014311Y027774D01*
Y0279D01*
D02*
G37*
G36*
X014072D02*
X013946D01*
Y027774D01*
X013967Y027778D01*
X014028Y027818D01*
X014068Y027879D01*
X014072Y0279D01*
D02*
G37*
G36*
X013846D02*
X01372D01*
X013724Y027879D01*
X013764Y027818D01*
X013825Y027778D01*
X013846Y027774D01*
Y0279D01*
D02*
G37*
%LPD*%
D12*
X025584Y040084D02*
X026197D01*
X02525Y03975D02*
X025584Y040084D01*
X0228Y03975D02*
X02525D01*
X022766Y039715D02*
X0228Y03975D01*
X022766Y0395D02*
Y039715D01*
X02035Y03795D02*
X02445D01*
X023435Y035985D02*
X023839Y036389D01*
Y0364D01*
X018756Y035985D02*
X023435D01*
X018205Y035433D02*
X018756Y035985D01*
X018205Y03485D02*
Y035433D01*
X015339Y025939D02*
X01535Y02595D01*
X015339Y024411D02*
Y025939D01*
X02505Y030189D02*
Y03505D01*
X024761Y0299D02*
X02505Y030189D01*
X02455Y0299D02*
X024761D01*
X02451Y03559D02*
X02505Y03505D01*
X020944Y03559D02*
X02451D01*
X02075Y035396D02*
X020944Y03559D01*
X02075Y03485D02*
Y035396D01*
X02455Y0309D02*
Y0349D01*
X0242Y03525D02*
X02455Y0349D01*
X0212Y03525D02*
X0242D01*
X035466Y03625D02*
X035766Y03655D01*
X030241Y03625D02*
X035466D01*
X030014Y036022D02*
X030241Y03625D01*
X030014Y035089D02*
Y036022D01*
X02965Y03495D02*
X029718Y034881D01*
X02965Y03495D02*
Y03635D01*
X02985Y03655D02*
X03065D01*
X02965Y03635D02*
X02985Y03655D01*
X029718Y034881D02*
X030014D01*
X0302Y034695D01*
Y03445D02*
Y034695D01*
X03005Y0343D02*
X0302Y03445D01*
X02995Y0343D02*
X03005D01*
X029679Y034621D02*
X029875D01*
X02945Y03485D02*
X029679Y034621D01*
X02945Y03485D02*
Y0365D01*
X029865Y036915D01*
X033272Y036568D02*
Y036678D01*
X033035Y036915D02*
X033272Y036678D01*
X029865Y036915D02*
X033035D01*
X02075Y0323D02*
Y03485D01*
X0206Y03215D02*
X02075Y0323D01*
X01985Y03215D02*
X0206D01*
X0212D02*
Y03525D01*
X02095Y0319D02*
X0212Y03215D01*
X0196Y0319D02*
X02095D01*
X01935Y03215D02*
X0196Y0319D01*
X0207Y02655D02*
Y0311D01*
Y02655D02*
X02105Y0262D01*
Y02225D02*
Y0262D01*
X0182Y02225D02*
X02105D01*
X017276Y023174D02*
X0182Y02225D01*
X016874Y023174D02*
X017276D01*
X01385Y0365D02*
X013885Y036535D01*
X0177Y02335D02*
Y0248D01*
X01635Y02615D02*
X0177Y0248D01*
X01585Y02595D02*
Y03205D01*
X01635Y02615D02*
Y03205D01*
X01585Y02595D02*
X0174Y0244D01*
Y0237D02*
Y0244D01*
X015253Y021303D02*
X016042D01*
X014582Y020632D02*
X015253Y021303D01*
X014582Y0201D02*
Y020632D01*
Y019218D02*
Y0201D01*
X015903Y017897D02*
X016042D01*
X014582Y019218D02*
X015903Y017897D01*
X015318Y0201D02*
X0158D01*
X01585Y0197D02*
X016Y01985D01*
X0189D01*
X0195Y02045D01*
X01975D01*
X01955Y01995D02*
X0197D01*
X0191Y0195D02*
X01955Y01995D01*
X0167Y0195D02*
X0191D01*
D34*
X015318Y0201D02*
D03*
X014582D02*
D03*
D90*
X023936Y04005D02*
X024365Y040479D01*
X02275Y04005D02*
X023936D01*
X02205Y03935D02*
X02275Y04005D01*
X023089Y039477D02*
X039573D01*
X0457Y04665D02*
X045914D01*
X046161Y046404D01*
Y040289D02*
Y046404D01*
X02455Y0276D02*
X02865D01*
Y028297D01*
X024365Y040479D02*
Y04143D01*
X0225Y03825D02*
Y038888D01*
X039573Y039477D02*
X0399Y03915D01*
X0225Y038888D02*
X023089Y039477D01*
X0254Y041763D02*
X03555Y041798D01*
X024698Y041763D02*
X0254D01*
X024365Y04143D02*
X024698Y041763D01*
X01897Y03935D02*
X02205D01*
X01488Y026D02*
Y02699D01*
X01525Y02736D01*
Y0331D01*
X01845Y0363D01*
Y03883D01*
X01897Y03935D01*
X02455Y0276D02*
Y0279D01*
Y023D02*
Y0276D01*
X037946Y03435D02*
X0399D01*
X0234Y021663D02*
Y027922D01*
X022932Y021195D02*
X0234Y021663D01*
X0216Y021195D02*
X022932D01*
X0288Y0276D02*
X02905D01*
X02865D02*
X0288D01*
X02395Y0224D02*
X02455Y023D01*
X02395Y019595D02*
Y0224D01*
X023305Y01895D02*
X02395Y019595D01*
X02055Y01895D02*
X023305D01*
X01745Y036536D02*
X0177Y036535D01*
X01385Y03655D02*
X01745Y036536D01*
X0142Y03405D02*
Y0342D01*
Y03235D02*
Y03405D01*
Y03235D02*
X01435Y0322D01*
X037Y0276D02*
X03725D01*
X0368D02*
X037D01*
X032888D02*
X0331D01*
X032676D02*
X032888D01*
X033626Y02825D02*
Y02895D01*
X0296Y02825D02*
Y02895D01*
X03305Y029203D02*
X033373D01*
X033626Y02895D01*
X029347Y029203D02*
X0296Y02895D01*
X029024Y029203D02*
X029347D01*
X0372Y025183D02*
X03765Y025633D01*
Y028727D01*
X037174Y029203D02*
X03765Y028727D01*
X0331Y0276D02*
X0368D01*
X02905D02*
X032676D01*
Y028297D01*
X0368Y0276D02*
Y028297D01*
X01935Y03995D02*
X01955Y04015D01*
X01455Y03995D02*
X01935D01*
X0142Y0396D02*
X01455Y03995D01*
X0142Y03955D02*
Y0396D01*
Y0393D02*
Y03955D01*
X01385Y03655D02*
Y03895D01*
Y0365D02*
Y03655D01*
X01955Y04015D02*
Y0408D01*
X01385Y03455D02*
Y0365D01*
X04805Y0398D02*
X04825D01*
X04785D02*
X04805D01*
X0454D02*
X04785D01*
X0428D02*
X0454D01*
X04535Y03985D02*
X0454Y0398D01*
X04535Y03985D02*
Y0422D01*
X04255Y0398D02*
X0428D01*
X01385Y03455D02*
X0142Y0342D01*
X01385Y03895D02*
X0142Y0393D01*
X015Y038015D02*
Y0393D01*
X0146Y037615D02*
X015Y038015D01*
X0146Y035685D02*
X015Y035285D01*
Y03405D02*
Y035285D01*
D92*
X0346Y01865D02*
X03535Y0179D01*
X0342Y01865D02*
X0346D01*
X033138D02*
X0342D01*
X03255Y018062D02*
X033138Y01865D01*
X03255Y01655D02*
Y018062D01*
X0316Y0156D02*
X03255Y01655D01*
X029407Y01865D02*
X03015D01*
X02844Y017683D02*
X029407Y01865D01*
X02844Y01644D02*
Y017683D01*
X0276Y0156D02*
X02844Y01644D01*
X03015Y01865D02*
X0305D01*
X03125Y0179D01*
X02516Y01806D02*
X02575Y01865D01*
X02516Y01716D02*
Y01806D01*
X0236Y0156D02*
X02516Y01716D01*
X02575Y01865D02*
X0261D01*
X026476D01*
X027243Y017884D01*
X042151Y041766D02*
X042399Y041764D01*
X042149Y041766D02*
X04215Y041766D01*
X042401Y041764D02*
X042693Y041763D01*
X042694Y041763D01*
X042399Y041764D02*
X0424Y041764D01*
X03555Y041798D02*
X042149Y041766D01*
X0424Y041764D02*
X0424D01*
X04215Y041766D02*
X04215D01*
X042694Y041763D02*
X042694Y041763D01*
X042694Y041763D02*
X042694D01*
X0424Y041764D02*
X042401Y041764D01*
X04215Y041766D02*
X042151Y041766D01*
X03765Y041868D02*
Y0448D01*
X037152Y025135D02*
X0372Y025183D01*
X037152Y02405D02*
Y025135D01*
X03535Y025183D02*
X035448Y025086D01*
Y02405D02*
Y025086D01*
X033052Y025135D02*
X0331Y025183D01*
X033052Y02405D02*
Y025135D01*
X03125Y025183D02*
X031348Y025086D01*
Y02405D02*
Y025086D01*
X029052Y025126D02*
X029093Y025167D01*
X029052Y02405D02*
Y025126D01*
X027243Y025167D02*
X027348Y025062D01*
Y02405D02*
Y025062D01*
X0432Y0315D02*
Y0352D01*
X0419Y0302D02*
X0432Y0315D01*
D93*
X0261Y02065D02*
D03*
Y01865D02*
D03*
X03015Y02065D02*
D03*
Y01865D02*
D03*
X0342Y02065D02*
D03*
Y01865D02*
D03*
D94*
X04495Y01765D02*
D03*
D95*
X04295Y01615D02*
D03*
Y01865D02*
D03*
D96*
X03895Y02205D02*
D03*
X03955Y02405D02*
D03*
D97*
X041932Y02195D02*
D03*
X04705D02*
D03*
X041932D02*
D03*
X04705D02*
D03*
X041932Y025887D02*
D03*
X04705D02*
D03*
D98*
X026197Y040084D02*
D03*
D99*
X029197Y040089D02*
D03*
D100*
X03365Y0448D02*
D03*
X03165D02*
D03*
X02765D02*
D03*
X02965D02*
D03*
X03765D02*
D03*
X03565D02*
D03*
X03965D02*
D03*
X04165D02*
D03*
X02565D02*
D03*
X02365D02*
D03*
X0396Y0156D02*
D03*
X0376D02*
D03*
X0216D02*
D03*
X0236D02*
D03*
X0276D02*
D03*
X0256D02*
D03*
X0336D02*
D03*
X0356D02*
D03*
X0316D02*
D03*
X0296D02*
D03*
D101*
X02455Y0279D02*
D03*
X0234Y027922D02*
D03*
D102*
X02455Y0289D02*
D03*
Y0299D02*
D03*
Y0309D02*
D03*
X0234Y030922D02*
D03*
Y029922D02*
D03*
Y028922D02*
D03*
X01855Y0408D02*
D03*
X01955D02*
D03*
X02055D02*
D03*
X02155D02*
D03*
X02255D02*
D03*
D103*
X03535Y0179D02*
D03*
Y020656D02*
D03*
X0372Y025183D02*
D03*
X03535D02*
D03*
X03125Y0179D02*
D03*
Y020656D02*
D03*
X0331Y025183D02*
D03*
X03125D02*
D03*
X027243Y025167D02*
D03*
X029093D02*
D03*
X027243Y020639D02*
D03*
Y017884D02*
D03*
D104*
X01755Y0408D02*
D03*
D105*
X0146Y037615D02*
D03*
Y035685D02*
D03*
D106*
X02085Y0446D02*
D03*
X01885D02*
D03*
Y0466D02*
D03*
X02085D02*
D03*
D107*
X01985Y0456D02*
D03*
D108*
X0419Y0302D02*
D03*
X0468D02*
D03*
D109*
X0419Y0282D02*
D03*
X0468D02*
D03*
D110*
X0144Y017897D02*
D03*
Y021303D02*
D03*
D111*
X016042Y017897D02*
D03*
Y021303D02*
D03*
D112*
X015849Y018462D02*
D03*
Y020738D02*
D03*
D113*
X022766Y0395D02*
D03*
Y039715D02*
D03*
X014361Y02795D02*
D03*
X013896D02*
D03*
X014365Y0301D02*
D03*
Y0295D02*
D03*
Y0289D02*
D03*
Y0284D02*
D03*
X0139Y0301D02*
D03*
Y0295D02*
D03*
X013885Y0289D02*
D03*
X0139Y0284D02*
D03*
X013885Y0305D02*
D03*
X01387Y031D02*
D03*
X013885Y0316D02*
D03*
Y0322D02*
D03*
X01793Y0278D02*
D03*
X017361Y027806D02*
D03*
X0168Y027832D02*
D03*
X016827Y0284D02*
D03*
X017378Y028459D02*
D03*
X01793D02*
D03*
Y029011D02*
D03*
X017378D02*
D03*
X016827D02*
D03*
X03945Y03435D02*
D03*
X01435Y0305D02*
D03*
Y031D02*
D03*
Y0316D02*
D03*
X0138Y04115D02*
D03*
X0399Y03915D02*
D03*
X028418Y0395D02*
D03*
X0225Y03825D02*
D03*
X02225D02*
D03*
Y03845D02*
D03*
X02035Y03795D02*
D03*
X0216Y021195D02*
D03*
X02055Y01895D02*
D03*
X0288Y0276D02*
D03*
X023839Y0364D02*
D03*
X02445Y03795D02*
D03*
X018205Y03485D02*
D03*
X015339Y024411D02*
D03*
X01535Y02595D02*
D03*
X030014Y035089D02*
D03*
X035766Y03655D02*
D03*
X033272Y036568D02*
D03*
X03065Y03655D02*
D03*
X02995Y0343D02*
D03*
X029875Y034621D02*
D03*
X042694Y041572D02*
D03*
X0424D02*
D03*
X04215D02*
D03*
X042694Y041809D02*
D03*
X0424Y041813D02*
D03*
X04215D02*
D03*
X042694Y04205D02*
D03*
X0424D02*
D03*
X04215D02*
D03*
X0296Y02825D02*
D03*
X033626D02*
D03*
X037Y0276D02*
D03*
X03725D02*
D03*
X032888D02*
D03*
X0331D02*
D03*
X02905D02*
D03*
X03625Y0292D02*
D03*
X03215D02*
D03*
X02815D02*
D03*
X0142Y03955D02*
D03*
X0212Y03525D02*
D03*
X02075Y03485D02*
D03*
X01985Y03215D02*
D03*
X01935D02*
D03*
X01745Y036535D02*
D03*
X0207Y0311D02*
D03*
X02105Y02225D02*
D03*
X016874Y023174D02*
D03*
X0177Y036535D02*
D03*
Y02335D02*
D03*
X01635Y03205D02*
D03*
X01585D02*
D03*
X0174Y0237D02*
D03*
X04535Y0422D02*
D03*
X0457Y04665D02*
D03*
X046161Y040289D02*
D03*
X04825Y0398D02*
D03*
X04805D02*
D03*
X04785D02*
D03*
X0428D02*
D03*
X04255D02*
D03*
X04305Y03505D02*
D03*
X04335D02*
D03*
Y0353D02*
D03*
X04305D02*
D03*
X01435Y0322D02*
D03*
X0158Y0201D02*
D03*
X0197Y01995D02*
D03*
X01975Y02045D02*
D03*
X0167Y0195D02*
D03*
X01585Y0197D02*
D03*
D114*
X0231Y037268D02*
D03*
X01488Y026D02*
D03*
X0399Y03435D02*
D03*
X037946D02*
D03*
D115*
X01455Y014473D02*
D03*
X048015D02*
D03*
Y045969D02*
D03*
X01455D02*
D03*
D116*
X02865Y028297D02*
D03*
X028276Y029203D02*
D03*
X029024D02*
D03*
X03305D02*
D03*
X032302D02*
D03*
X032676Y028297D02*
D03*
X037174Y029203D02*
D03*
X036426D02*
D03*
X0368Y028297D02*
D03*
D117*
X029052Y02405D02*
D03*
X027348D02*
D03*
X031348D02*
D03*
X033052D02*
D03*
X035448D02*
D03*
X037152D02*
D03*
D118*
X015Y03405D02*
D03*
X0142D02*
D03*
X015Y0393D02*
D03*
X0142D02*
D03*
M02*
