G04*
G04 #@! TF.GenerationSoftware,Altium Limited,Altium Designer,18.0.11 (651)*
G04*
G04 Layer_Physical_Order=1*
G04 Layer_Color=204*
%FSTAX24Y24*%
%MOIN*%
G70*
G01*
G75*
%ADD12C,0.0080*%
%ADD25R,0.0394X0.0787*%
%ADD26R,0.1299X0.0787*%
%ADD27R,0.0512X0.0394*%
%ADD28R,0.1228X0.0886*%
%ADD29R,0.0886X0.1228*%
%ADD30R,0.0925X0.1378*%
G04:AMPARAMS|DCode=31|XSize=51.6mil|YSize=24.4mil|CornerRadius=3.1mil|HoleSize=0mil|Usage=FLASHONLY|Rotation=180.000|XOffset=0mil|YOffset=0mil|HoleType=Round|Shape=RoundedRectangle|*
%AMROUNDEDRECTD31*
21,1,0.0516,0.0183,0,0,180.0*
21,1,0.0455,0.0244,0,0,180.0*
1,1,0.0061,-0.0227,0.0092*
1,1,0.0061,0.0227,0.0092*
1,1,0.0061,0.0227,-0.0092*
1,1,0.0061,-0.0227,-0.0092*
%
%ADD31ROUNDEDRECTD31*%
%ADD32R,0.1492X0.0390*%
G04:AMPARAMS|DCode=33|XSize=39.4mil|YSize=55.9mil|CornerRadius=4.9mil|HoleSize=0mil|Usage=FLASHONLY|Rotation=90.000|XOffset=0mil|YOffset=0mil|HoleType=Round|Shape=RoundedRectangle|*
%AMROUNDEDRECTD33*
21,1,0.0394,0.0461,0,0,90.0*
21,1,0.0295,0.0559,0,0,90.0*
1,1,0.0098,0.0230,0.0148*
1,1,0.0098,0.0230,-0.0148*
1,1,0.0098,-0.0230,-0.0148*
1,1,0.0098,-0.0230,0.0148*
%
%ADD33ROUNDEDRECTD33*%
G04:AMPARAMS|DCode=34|XSize=39.4mil|YSize=55.9mil|CornerRadius=4.9mil|HoleSize=0mil|Usage=FLASHONLY|Rotation=180.000|XOffset=0mil|YOffset=0mil|HoleType=Round|Shape=RoundedRectangle|*
%AMROUNDEDRECTD34*
21,1,0.0394,0.0461,0,0,180.0*
21,1,0.0295,0.0559,0,0,180.0*
1,1,0.0098,-0.0148,0.0230*
1,1,0.0098,0.0148,0.0230*
1,1,0.0098,0.0148,-0.0230*
1,1,0.0098,-0.0148,-0.0230*
%
%ADD34ROUNDEDRECTD34*%
%ADD35R,0.0472X0.0512*%
%ADD36R,0.0354X0.0276*%
%ADD37R,0.0472X0.0315*%
%ADD38R,0.0354X0.0354*%
%ADD39R,0.0354X0.0787*%
%ADD40R,0.0787X0.0354*%
G04:AMPARAMS|DCode=41|XSize=17.7mil|YSize=59.1mil|CornerRadius=4.4mil|HoleSize=0mil|Usage=FLASHONLY|Rotation=270.000|XOffset=0mil|YOffset=0mil|HoleType=Round|Shape=RoundedRectangle|*
%AMROUNDEDRECTD41*
21,1,0.0177,0.0502,0,0,270.0*
21,1,0.0089,0.0591,0,0,270.0*
1,1,0.0089,-0.0251,-0.0044*
1,1,0.0089,-0.0251,0.0044*
1,1,0.0089,0.0251,0.0044*
1,1,0.0089,0.0251,-0.0044*
%
%ADD41ROUNDEDRECTD41*%
G04:AMPARAMS|DCode=42|XSize=17.7mil|YSize=59.1mil|CornerRadius=4.4mil|HoleSize=0mil|Usage=FLASHONLY|Rotation=180.000|XOffset=0mil|YOffset=0mil|HoleType=Round|Shape=RoundedRectangle|*
%AMROUNDEDRECTD42*
21,1,0.0177,0.0502,0,0,180.0*
21,1,0.0089,0.0591,0,0,180.0*
1,1,0.0089,-0.0044,0.0251*
1,1,0.0089,0.0044,0.0251*
1,1,0.0089,0.0044,-0.0251*
1,1,0.0089,-0.0044,-0.0251*
%
%ADD42ROUNDEDRECTD42*%
%ADD43O,0.0472X0.0984*%
%ADD44R,0.0394X0.0512*%
%ADD45R,0.1378X0.0630*%
%ADD46R,0.0449X0.0236*%
%ADD47R,0.0449X0.0118*%
%ADD90C,0.0180*%
%ADD91R,0.3102X0.4268*%
%ADD92C,0.0551*%
%ADD93C,0.0700*%
%ADD94R,0.1000X0.1600*%
%ADD95R,0.1600X0.1000*%
%ADD96C,0.0787*%
%ADD97C,0.0600*%
%ADD98R,0.0669X0.0669*%
%ADD99C,0.0669*%
%ADD100R,0.0787X0.0984*%
%ADD101R,0.0630X0.0630*%
%ADD102C,0.0630*%
%ADD103C,0.0500*%
%ADD104R,0.0630X0.0630*%
%ADD105C,0.0750*%
%ADD106C,0.0820*%
%ADD107C,0.0720*%
%ADD108R,0.0709X0.0709*%
%ADD109C,0.0709*%
%ADD110O,0.0669X0.0354*%
%ADD111O,0.0787X0.0354*%
%ADD112C,0.0236*%
%ADD113C,0.0165*%
%ADD114C,0.0250*%
%ADD115C,0.1969*%
G36*
X043176Y046901D02*
X04317Y04685D01*
Y046393D01*
X041947D01*
X041858Y046381D01*
X041775Y046347D01*
X041704Y046292D01*
X041408Y045996D01*
X041353Y045925D01*
X041319Y045842D01*
X041307Y045753D01*
Y045392D01*
X041156D01*
Y04485D01*
X042144D01*
Y045392D01*
X041993D01*
Y045611D01*
X042089Y045707D01*
X043174D01*
X043181Y045649D01*
X043216Y045566D01*
X04327Y045495D01*
X043608Y045158D01*
X043679Y045103D01*
X043761Y045069D01*
X04385Y045057D01*
X044958D01*
X045007Y045008D01*
Y0422D01*
X045013Y042156D01*
X044969Y042106D01*
X0444D01*
Y042307D01*
X043151D01*
X043136Y04233D01*
X043053Y042386D01*
X042956Y042405D01*
X042069D01*
X041972Y042386D01*
X041889Y04233D01*
X041834Y042248D01*
X041814Y04215D01*
Y04205D01*
X041814Y04205D01*
X041814Y04205D01*
Y041813D01*
X041814Y041813D01*
X041814Y041813D01*
Y041572D01*
X041814Y041572D01*
X041814Y041572D01*
Y0414D01*
X041834Y041302D01*
X041889Y04122D01*
X041972Y041164D01*
X042069Y041145D01*
X042956D01*
X043053Y041164D01*
X043135Y041219D01*
X043257D01*
Y040993D01*
X042249D01*
X042161Y040981D01*
X042078Y040947D01*
X042007Y040892D01*
X041551Y040436D01*
X041283D01*
Y039743D01*
X04134D01*
Y039527D01*
X041696D01*
Y039427D01*
X04134D01*
Y03918D01*
X041524D01*
X041525Y03918D01*
X041607Y039146D01*
X041696Y039134D01*
X042361D01*
X042363Y039117D01*
X042394Y039043D01*
X042373Y038993D01*
X040253D01*
X040253Y044058D01*
X040294D01*
Y045542D01*
X039006D01*
Y044556D01*
X038995Y0445D01*
X038995Y038481D01*
X038949Y038462D01*
X038744Y038667D01*
X038673Y038722D01*
X03859Y038756D01*
X038501Y038768D01*
X030297D01*
X02954Y039524D01*
Y039822D01*
X029577Y03987D01*
X029605Y039939D01*
X029664Y039951D01*
X029908Y039708D01*
X029979Y039653D01*
X030061Y039619D01*
X03015Y039607D01*
X037D01*
X037089Y039619D01*
X037171Y039653D01*
X037242Y039708D01*
X03744Y039905D01*
X037494Y039976D01*
X037528Y040058D01*
X03754Y040147D01*
Y040556D01*
X037574Y040637D01*
X037587Y040737D01*
Y041249D01*
X037574Y04135D01*
X03754Y041431D01*
Y041868D01*
X037528Y041957D01*
X037494Y04204D01*
X03744Y042111D01*
X037416Y042134D01*
Y04223D01*
X037401Y042308D01*
X03736Y042368D01*
X037355Y042387D01*
Y042413D01*
X03736Y042432D01*
X037401Y042492D01*
X037416Y04257D01*
Y04303D01*
X037408Y04307D01*
Y043379D01*
X037397Y043467D01*
X037362Y04355D01*
X037308Y043621D01*
X036887Y044042D01*
X036816Y044097D01*
X036733Y044131D01*
X036644Y044143D01*
X036294D01*
Y045542D01*
X035006D01*
Y044058D01*
X035311D01*
X035319Y043997D01*
X035353Y043915D01*
X035408Y043844D01*
X035694Y043558D01*
X035765Y043503D01*
X035847Y043469D01*
X035936Y043457D01*
X036502D01*
X036722Y043237D01*
Y043106D01*
X036717Y0431D01*
X036683Y043105D01*
X03666Y043115D01*
X03662Y043174D01*
X036555Y043218D01*
X036477Y043233D01*
X036181D01*
X036104Y043218D01*
X036038Y043174D01*
X035994Y043108D01*
X035978Y04303D01*
Y04257D01*
X035986Y04253D01*
Y04227D01*
X035978Y04223D01*
Y04177D01*
X035986Y04173D01*
Y041574D01*
X035922Y041525D01*
X03586Y041444D01*
X035821Y04135D01*
X035808Y041249D01*
Y040737D01*
X035821Y040637D01*
X03586Y040543D01*
X035922Y040462D01*
X036002Y0404D01*
X036096Y040361D01*
X036197Y040348D01*
X036298Y040361D01*
X036392Y0404D01*
X036473Y040462D01*
X036535Y040543D01*
X036574Y040637D01*
X036587Y040737D01*
Y040902D01*
X036626Y040954D01*
X03666Y041036D01*
X036672Y041125D01*
Y041694D01*
X036678Y0417D01*
X036711Y041695D01*
X036734Y041685D01*
X036774Y041626D01*
X03684Y041582D01*
X036854Y041579D01*
Y041431D01*
X036821Y04135D01*
X036808Y041249D01*
Y040737D01*
X036821Y040637D01*
X036854Y040556D01*
Y040293D01*
X03504D01*
Y040534D01*
X035074Y040615D01*
X035087Y040716D01*
Y041228D01*
X035074Y041328D01*
X03504Y041409D01*
Y041836D01*
X035028Y041925D01*
X034994Y042008D01*
X03494Y042079D01*
X034934Y042084D01*
Y04218D01*
X034919Y042258D01*
X034878Y042318D01*
X034873Y042337D01*
Y042363D01*
X034878Y042382D01*
X034919Y042442D01*
X034934Y04252D01*
Y04298D01*
X034926Y04302D01*
Y043217D01*
X034915Y043305D01*
X03488Y043388D01*
X034826Y043459D01*
X034273Y044012D01*
X034292Y044058D01*
X034294D01*
Y045542D01*
X033006D01*
Y044058D01*
X03332D01*
X033353Y043979D01*
X033408Y043908D01*
X034116Y043199D01*
X034084Y04316D01*
X034073Y043168D01*
X033995Y043183D01*
X0337D01*
X033622Y043168D01*
X033556Y043124D01*
X033512Y043058D01*
X033496Y04298D01*
Y04252D01*
X033504Y04248D01*
Y04222D01*
X033496Y04218D01*
Y04172D01*
X033504Y04168D01*
Y041566D01*
X033502Y041565D01*
X033422Y041503D01*
X03336Y041422D01*
X033321Y041328D01*
X033308Y041228D01*
Y040716D01*
X033321Y040615D01*
X03336Y040521D01*
X033422Y04044D01*
X033502Y040378D01*
X033596Y040339D01*
X033585Y040293D01*
X03244D01*
Y040534D01*
X032474Y040615D01*
X032487Y040716D01*
Y041228D01*
X032474Y041328D01*
X03244Y041409D01*
Y041752D01*
X032428Y041841D01*
X032394Y041924D01*
X03234Y041995D01*
X03225Y042084D01*
Y04218D01*
X032235Y042258D01*
X032191Y042324D01*
X032189Y042325D01*
Y042375D01*
X032191Y042376D01*
X032235Y042442D01*
X03225Y04252D01*
Y04298D01*
X032243Y04302D01*
Y044058D01*
X032294D01*
Y045542D01*
X031006D01*
Y044058D01*
X031557D01*
Y043056D01*
X031551Y04305D01*
X031518Y043055D01*
X031494Y043065D01*
X031455Y043124D01*
X031389Y043168D01*
X031311Y043183D01*
X031016D01*
X030938Y043168D01*
X030872Y043124D01*
X030828Y043058D01*
X030813Y04298D01*
Y04252D01*
X03082Y04248D01*
Y04222D01*
X030813Y04218D01*
Y04172D01*
X03082Y04168D01*
Y041501D01*
X03076Y041422D01*
X030721Y041328D01*
X030708Y041228D01*
Y040716D01*
X030721Y040615D01*
X03076Y040521D01*
X030822Y04044D01*
X030902Y040378D01*
X030996Y040339D01*
X030985Y040293D01*
X030292D01*
X029993Y040592D01*
Y044058D01*
X030294D01*
Y045542D01*
X029006D01*
Y044058D01*
X029307D01*
Y040551D01*
X029269Y040518D01*
X029247Y040521D01*
Y040089D01*
X029147D01*
Y040521D01*
X029084Y040513D01*
X028978Y040469D01*
X028887Y040399D01*
X028818Y040309D01*
X028774Y040203D01*
X028761Y040103D01*
X028711Y040106D01*
Y042428D01*
X028753Y042492D01*
X028769Y04257D01*
Y04303D01*
X028753Y043108D01*
X028709Y043174D01*
X028643Y043218D01*
X028566Y043233D01*
X02827D01*
X028193Y043218D01*
X028127Y043174D01*
X028083Y043108D01*
X028075Y043071D01*
X028025D01*
X028017Y043108D01*
X027973Y043174D01*
X027943Y043194D01*
Y044058D01*
X028294D01*
Y045542D01*
X027006D01*
Y044058D01*
X027357D01*
Y043124D01*
X027347Y043108D01*
X027331Y04303D01*
Y04257D01*
X027347Y042492D01*
X027357Y042476D01*
Y037046D01*
X026821Y03651D01*
X024403D01*
X024384Y036556D01*
X024457Y036629D01*
X024503Y036689D01*
X024533Y03676D01*
X024543Y036835D01*
Y037628D01*
X024613Y037657D01*
X0254D01*
X025476Y037667D01*
X025546Y037697D01*
X025607Y037743D01*
X025857Y037993D01*
X025903Y038054D01*
X025933Y038124D01*
X025942Y0382D01*
Y0395D01*
X026782D01*
Y040669D01*
X025942D01*
Y044058D01*
X026294D01*
Y045542D01*
X025006D01*
Y044058D01*
X025357D01*
Y038321D01*
X025279Y038242D01*
X024613D01*
X024543Y038272D01*
Y041663D01*
X024576Y041667D01*
X024646Y041697D01*
X024707Y041743D01*
X024807Y041843D01*
X024853Y041904D01*
X024883Y041974D01*
X024892Y04205D01*
Y04385D01*
X024883Y043926D01*
X024853Y043996D01*
X024807Y044057D01*
X024294Y04457D01*
Y045542D01*
X023006D01*
Y045093D01*
X02258D01*
X022505Y045083D01*
X022434Y045053D01*
X022373Y045007D01*
X02213Y044763D01*
X022084Y044703D01*
X022054Y044632D01*
X022044Y044557D01*
Y043119D01*
X021992Y043109D01*
X021926Y043065D01*
X021882Y042999D01*
X021867Y042921D01*
Y042626D01*
X021882Y042548D01*
X021926Y042482D01*
X021992Y042438D01*
X022029Y042431D01*
Y04238D01*
X021992Y042373D01*
X021926Y042329D01*
X021882Y042263D01*
X021867Y042185D01*
Y04189D01*
X021882Y041812D01*
X021926Y041746D01*
X021992Y041702D01*
X02207Y041687D01*
X02253D01*
X022608Y041702D01*
X022674Y041746D01*
X022718Y041812D01*
X022728Y041865D01*
X022986Y042122D01*
X023032Y042103D01*
Y042D01*
X023332D01*
X023632D01*
Y04218D01*
X02362Y042239D01*
X023587Y042288D01*
X023578Y042294D01*
X023593Y042344D01*
X023667D01*
Y043156D01*
X022894D01*
Y042858D01*
X02278Y042743D01*
X022733Y042762D01*
Y042921D01*
X022718Y042999D01*
X022674Y043065D01*
X022629Y043095D01*
Y044435D01*
X022701Y044507D01*
X023006D01*
Y044058D01*
X023978D01*
X024307Y043729D01*
Y043106D01*
X024118D01*
Y04275D01*
X024068D01*
Y0427D01*
X023732D01*
Y042394D01*
X023792D01*
X023807Y042344D01*
X023777Y042324D01*
X023733Y042258D01*
X023717Y04218D01*
Y04172D01*
X023733Y041642D01*
X023777Y041576D01*
X023843Y041532D01*
X02392Y041517D01*
X023958D01*
Y040004D01*
X023919Y039973D01*
X023884Y039979D01*
X023589D01*
X023511Y039964D01*
X023445Y03992D01*
X023401Y039854D01*
X023394Y039817D01*
X023343D01*
X023335Y039854D01*
X023291Y03992D01*
X023225Y039964D01*
X023148Y039979D01*
X023064D01*
X023046Y040007D01*
X022963Y040062D01*
X022866Y040082D01*
X022666D01*
X022568Y040062D01*
X022486Y040007D01*
X02243Y039924D01*
X022411Y039827D01*
X022411Y03925D01*
X02243Y039152D01*
X022486Y03907D01*
X022568Y039014D01*
X022666Y038995D01*
X022791D01*
X022793Y038993D01*
X022985Y038801D01*
X022966Y038755D01*
X022383D01*
X022337Y038774D01*
X02225Y038786D01*
X022163Y038774D01*
X022086Y038742D01*
X022052Y038735D01*
X02197Y03868D01*
X021915Y038598D01*
X021901Y038532D01*
X02185D01*
X021848Y038545D01*
X021805Y038609D01*
X021741Y038652D01*
X021665Y038667D01*
X021163D01*
X021087Y038652D01*
X021023Y038609D01*
X02098Y038545D01*
X020965Y038469D01*
Y038381D01*
X02098Y038305D01*
X021005Y038267D01*
X02098Y03823D01*
X020965Y038154D01*
Y038066D01*
X02098Y03799D01*
X021005Y037952D01*
X02098Y037915D01*
X020965Y037839D01*
Y037751D01*
X02098Y037675D01*
X021005Y037637D01*
X02098Y0376D01*
X020965Y037524D01*
Y037508D01*
X019215D01*
X019126Y037496D01*
X019043Y037462D01*
X018972Y037407D01*
X018758Y037193D01*
X017335D01*
Y037209D01*
X01732Y037285D01*
X017295Y037322D01*
X01732Y03736D01*
X017335Y037436D01*
Y037524D01*
X01732Y0376D01*
X017295Y037637D01*
X01732Y037675D01*
X017335Y037751D01*
Y037839D01*
X01732Y037915D01*
X017295Y037952D01*
X01732Y03799D01*
X017335Y038066D01*
Y038154D01*
X01732Y03823D01*
X017295Y038267D01*
X01732Y038305D01*
X017335Y038381D01*
Y038469D01*
X01732Y038545D01*
X017277Y038609D01*
X017213Y038652D01*
X017137Y038667D01*
X016846D01*
X016813Y038717D01*
X016831Y038761D01*
X016843Y03885D01*
Y039258D01*
X017142Y039557D01*
X017379D01*
X017394Y039507D01*
X017391Y039505D01*
X017348Y039441D01*
X017333Y039365D01*
Y038863D01*
X017348Y038787D01*
X017391Y038723D01*
X017455Y03868D01*
X017531Y038665D01*
X017619D01*
X017695Y03868D01*
X017733Y038705D01*
X01777Y03868D01*
X017846Y038665D01*
X017934D01*
X01801Y03868D01*
X018048Y038705D01*
X018085Y03868D01*
X018161Y038665D01*
X018228D01*
Y03848D01*
X018238Y038404D01*
X018267Y038334D01*
X018313Y038273D01*
X018843Y037743D01*
X018904Y037697D01*
X018974Y037667D01*
X01905Y037657D01*
X020187D01*
X020263Y037626D01*
X02035Y037614D01*
X020437Y037626D01*
X020518Y037659D01*
X020587Y037713D01*
X020641Y037782D01*
X020674Y037863D01*
X020686Y03795D01*
X020674Y038037D01*
X020641Y038118D01*
X020587Y038187D01*
X020518Y038241D01*
X020437Y038274D01*
X02035Y038286D01*
X020263Y038274D01*
X020187Y038242D01*
X019171D01*
X018813Y038601D01*
Y038665D01*
X018879D01*
X018955Y03868D01*
X018993Y038705D01*
X01903Y03868D01*
X019106Y038665D01*
X019194D01*
X01927Y03868D01*
X019307Y038705D01*
X019345Y03868D01*
X019421Y038665D01*
X019509D01*
X019585Y03868D01*
X019622Y038705D01*
X01966Y03868D01*
X019736Y038665D01*
X019824D01*
X0199Y03868D01*
X019937Y038705D01*
X019975Y03868D01*
X020051Y038665D01*
X020139D01*
X020215Y03868D01*
X020252Y038705D01*
X02029Y03868D01*
X020366Y038665D01*
X020454D01*
X02053Y03868D01*
X020567Y038705D01*
X020605Y03868D01*
X020681Y038665D01*
X020769D01*
X020845Y03868D01*
X020909Y038723D01*
X020952Y038787D01*
X020967Y038863D01*
Y039365D01*
X020952Y039441D01*
X020909Y039505D01*
X020845Y039548D01*
X020769Y039563D01*
X020681D01*
X020605Y039548D01*
X020567Y039523D01*
X02053Y039548D01*
X020522Y039549D01*
X020515Y039602D01*
X020771Y039857D01*
X0214D01*
X021476Y039867D01*
X021546Y039897D01*
X021607Y039943D01*
X021757Y040093D01*
X021803Y040154D01*
X021833Y040224D01*
X021843Y0403D01*
Y040312D01*
X021953Y040397D01*
X022018Y040483D01*
X022082D01*
X022147Y040397D01*
X022265Y040307D01*
X022403Y04025D01*
X02255Y04023D01*
X022697Y04025D01*
X022835Y040307D01*
X022953Y040397D01*
X023043Y040515D01*
X0231Y040653D01*
X02312Y0408D01*
X0231Y040947D01*
X023043Y041085D01*
X022953Y041203D01*
X022835Y041293D01*
X022697Y04135D01*
X02255Y04137D01*
X022403Y04135D01*
X022265Y041293D01*
X022147Y041203D01*
X022082Y041118D01*
X022018D01*
X021953Y041203D01*
X021835Y041293D01*
X021697Y04135D01*
X02155Y04137D01*
X021403Y04135D01*
X021265Y041293D01*
X021147Y041203D01*
X021082Y041118D01*
X021018D01*
X020953Y041203D01*
X020835Y041293D01*
X020697Y04135D01*
X02055Y04137D01*
X020403Y04135D01*
X020377Y04134D01*
X020334Y041365D01*
X020333Y041376D01*
X020303Y041446D01*
X020257Y041507D01*
X020107Y041657D01*
X020046Y041703D01*
X019976Y041733D01*
X0199Y041743D01*
X01775D01*
X017674Y041733D01*
X017604Y041703D01*
X017543Y041657D01*
X017343Y041457D01*
X017297Y041396D01*
X017284Y041365D01*
X016985D01*
Y040992D01*
X016914D01*
Y041007D01*
X016142D01*
Y040991D01*
X016074Y040983D01*
X016004Y040953D01*
X015943Y040907D01*
X015743Y040707D01*
X015697Y040646D01*
X015667Y040576D01*
X015658Y0405D01*
Y039756D01*
X015642Y039753D01*
X015576Y039709D01*
X015532Y039643D01*
X015532Y039643D01*
X015347D01*
Y039756D01*
X014653D01*
Y039699D01*
X014517D01*
X014115Y0401D01*
Y0406D01*
X014131Y040639D01*
X014143Y040728D01*
Y04115D01*
X014131Y041239D01*
X014097Y041321D01*
X014042Y041392D01*
X013971Y041447D01*
X013889Y041481D01*
X0138Y041493D01*
X013711Y041481D01*
X013653Y041457D01*
X013603Y041487D01*
Y0449D01*
X013933D01*
X013988Y044866D01*
X014167Y044792D01*
X014356Y044746D01*
X01455Y044731D01*
X014744Y044746D01*
X014933Y044792D01*
X015112Y044866D01*
X015167Y0449D01*
X015832D01*
X015864Y047026D01*
X018287D01*
X018309Y046981D01*
X018299Y046968D01*
X018237Y046854D01*
X0182Y046729D01*
X018187Y0466D01*
X0182Y046471D01*
X018237Y046346D01*
X018299Y046232D01*
X018381Y046131D01*
X018482Y046049D01*
X018596Y045987D01*
X018721Y04595D01*
X01885Y045937D01*
X018979Y04595D01*
X019104Y045987D01*
X019218Y046049D01*
X019319Y046131D01*
X019401Y046232D01*
X019463Y046346D01*
X0195Y046471D01*
X019513Y0466D01*
X0195Y046729D01*
X019463Y046854D01*
X019401Y046968D01*
X019391Y046981D01*
X019413Y047026D01*
X020287D01*
X020309Y046981D01*
X020299Y046968D01*
X020237Y046854D01*
X0202Y046729D01*
X020187Y0466D01*
X0202Y046471D01*
X020237Y046346D01*
X020299Y046232D01*
X020381Y046131D01*
X020482Y046049D01*
X020596Y045987D01*
X020721Y04595D01*
X02085Y045937D01*
X020979Y04595D01*
X021104Y045987D01*
X021218Y046049D01*
X021319Y046131D01*
X021401Y046232D01*
X021463Y046346D01*
X0215Y046471D01*
X021513Y0466D01*
X0215Y046729D01*
X021463Y046854D01*
X021401Y046968D01*
X021391Y046981D01*
X021413Y047026D01*
X043176D01*
Y046901D01*
D02*
G37*
G36*
X042956Y0414D02*
X042069D01*
Y04215D01*
X042956D01*
Y0414D01*
D02*
G37*
G36*
X046718Y0449D02*
X047397D01*
X047452Y044866D01*
X047632Y044792D01*
X047821Y044746D01*
X048015Y044731D01*
X048208Y044746D01*
X048397Y044792D01*
X048577Y044866D01*
X048632Y0449D01*
X049047D01*
X049047Y02545D01*
X047422D01*
X047406Y025497D01*
X047425Y025512D01*
X048775Y026862D01*
X048859Y026972D01*
X048912Y0271D01*
X04893Y027237D01*
Y02825D01*
Y0326D01*
X048912Y032737D01*
X048859Y032865D01*
X048801Y032941D01*
Y0338D01*
X0472D01*
Y031616D01*
X04787D01*
Y02873D01*
X044689D01*
Y02923D01*
X044702D01*
Y029477D01*
X04399D01*
Y02923D01*
X044003D01*
Y02873D01*
X0419D01*
X041763Y028712D01*
X041635Y028659D01*
X041525Y028575D01*
X041441Y028465D01*
X041388Y028337D01*
X04137Y0282D01*
X041388Y028063D01*
X041441Y027935D01*
X041525Y027825D01*
X041635Y027741D01*
X041763Y027688D01*
X0419Y02767D01*
X04787D01*
Y027457D01*
X046675Y026262D01*
X046591Y026152D01*
X046538Y026024D01*
X04652Y025887D01*
X046538Y02575D01*
X046591Y025622D01*
X046675Y025512D01*
X046694Y025497D01*
X046678Y02545D01*
X042339D01*
X042339Y025452D01*
X042328Y0255D01*
X042412Y02561D01*
X042468Y025743D01*
X042487Y025887D01*
X042468Y026031D01*
X042412Y026164D01*
X042324Y026279D01*
X042209Y026367D01*
X042075Y026423D01*
X041932Y026442D01*
X041788Y026423D01*
X041775Y026417D01*
X041483D01*
X04088Y02702D01*
Y02943D01*
X04112Y02967D01*
X041296D01*
Y029596D01*
X042504D01*
Y02967D01*
X04399D01*
Y029577D01*
X044702D01*
Y02967D01*
X046196D01*
Y029596D01*
X047404D01*
Y030804D01*
X046196D01*
Y03073D01*
X042504D01*
Y030804D01*
X041296D01*
Y03073D01*
X0409D01*
X040763Y030712D01*
X040635Y030659D01*
X040525Y030575D01*
X039975Y030025D01*
X039891Y029915D01*
X039838Y029787D01*
X03982Y02965D01*
Y0268D01*
X039838Y026663D01*
X039891Y026535D01*
X039975Y026425D01*
X040888Y025512D01*
X040907Y025497D01*
X040891Y02545D01*
X038734D01*
X038618Y025566D01*
Y027568D01*
X038593D01*
Y032901D01*
X038643Y032922D01*
X039218Y032347D01*
X039289Y032293D01*
X039371Y032259D01*
X03946Y032247D01*
X040136D01*
Y032047D01*
X0408D01*
Y03259D01*
Y033133D01*
X040136D01*
Y032933D01*
X039602D01*
X039193Y033342D01*
Y033781D01*
X039239Y0338D01*
X03977Y03327D01*
X039852Y033214D01*
X03995Y033195D01*
X041363D01*
X041372Y033183D01*
X041346Y033133D01*
X0409D01*
Y03259D01*
Y032047D01*
X041564D01*
Y032168D01*
X045499D01*
Y031616D01*
X0471D01*
Y03385D01*
Y036084D01*
X045499D01*
Y034301D01*
X043814D01*
Y034844D01*
Y035533D01*
X04359D01*
X043587Y035537D01*
X043518Y035591D01*
X043437Y035624D01*
X04335Y035636D01*
X043263Y035624D01*
X0432Y035598D01*
X043137Y035624D01*
X04305Y035636D01*
X042963Y035624D01*
X042882Y035591D01*
X042813Y035537D01*
X04281Y035533D01*
X042022D01*
Y034864D01*
Y034862D01*
X041783D01*
X041614Y035031D01*
Y035589D01*
X041952Y035927D01*
X042006Y035998D01*
X04204Y036081D01*
X042052Y036169D01*
Y036661D01*
X042322D01*
Y038307D01*
X042608D01*
X043478Y037437D01*
Y036661D01*
X044704D01*
Y037157D01*
X044948D01*
Y037035D01*
X046626D01*
Y037965D01*
X046503D01*
Y038933D01*
X046507D01*
Y03899D01*
X046723D01*
Y039346D01*
Y039702D01*
X046507D01*
Y039745D01*
X046503D01*
Y040289D01*
X046492Y040378D01*
X046458Y040461D01*
X046403Y040532D01*
X046332Y040586D01*
X046249Y040621D01*
X046161Y040632D01*
X046072Y040621D01*
X045989Y040586D01*
X045918Y040532D01*
X045864Y040461D01*
X045829Y040378D01*
X045818Y040289D01*
Y039745D01*
X045814D01*
Y039682D01*
X044852D01*
Y039984D01*
X044159D01*
Y038896D01*
X044852D01*
Y038996D01*
X045814D01*
Y038933D01*
X045818D01*
Y037965D01*
X044948D01*
Y037843D01*
X044704D01*
Y038339D01*
X043546D01*
X042992Y038892D01*
X042977Y038904D01*
X042991Y038946D01*
X042991D01*
Y039034D01*
X042991Y039034D01*
X043026Y039117D01*
X043037Y039206D01*
Y03944D01*
X043026Y039529D01*
X042991Y039612D01*
X042991Y039612D01*
Y039934D01*
X042928D01*
X042871Y039972D01*
X04285Y039976D01*
Y0398D01*
X04275D01*
Y039976D01*
X042729Y039972D01*
X042675Y039936D01*
X042621Y039972D01*
X0426Y039976D01*
Y0398D01*
X0425D01*
Y039976D01*
X042479Y039972D01*
X042422Y039934D01*
X042398D01*
Y039901D01*
X042378Y039871D01*
X042368Y03982D01*
X042095D01*
Y04001D01*
X042391Y040307D01*
X043257D01*
Y039984D01*
X043253D01*
Y038896D01*
X043947D01*
Y039984D01*
X043943D01*
Y04065D01*
Y041219D01*
X0444D01*
Y04142D01*
X045098D01*
Y040735D01*
X046776D01*
Y041665D01*
X046211D01*
Y04578D01*
X046219Y04582D01*
Y04628D01*
X046203Y046358D01*
X046159Y046424D01*
X046158Y046425D01*
Y046475D01*
X046159Y046476D01*
X046203Y046542D01*
X046219Y04662D01*
Y047026D01*
X046718D01*
Y0449D01*
D02*
G37*
G36*
X034229Y041645D02*
X034253Y041635D01*
X034292Y041576D01*
X034354Y041535D01*
Y041409D01*
X034321Y041328D01*
X034308Y041228D01*
Y040716D01*
X034321Y040615D01*
X034354Y040534D01*
Y040293D01*
X03381D01*
X033798Y040339D01*
X033892Y040378D01*
X033973Y04044D01*
X034035Y040521D01*
X034074Y040615D01*
X034087Y040716D01*
Y040876D01*
X03409Y040879D01*
X034144Y04095D01*
X034178Y041033D01*
X03419Y041122D01*
Y041644D01*
X034196Y04165D01*
X034229Y041645D01*
D02*
G37*
G36*
X031545D02*
X031569Y041635D01*
X031608Y041576D01*
X031674Y041532D01*
X031752Y041517D01*
X031754D01*
Y041409D01*
X031721Y041328D01*
X031708Y041228D01*
Y040716D01*
X031721Y040615D01*
X031754Y040534D01*
Y040293D01*
X03121D01*
X031198Y040339D01*
X031292Y040378D01*
X031373Y04044D01*
X031435Y040521D01*
X031474Y040615D01*
X031487Y040716D01*
Y04093D01*
X031495Y040949D01*
X031506Y041038D01*
Y041644D01*
X031512Y04165D01*
X031545Y041645D01*
D02*
G37*
G36*
X016985Y040241D02*
X016911Y040231D01*
X016829Y040197D01*
X016758Y040142D01*
X016324Y039709D01*
X016324Y039709D01*
X016258Y039753D01*
X016243Y039756D01*
Y040379D01*
X016256Y040393D01*
X016914D01*
Y040408D01*
X016985D01*
Y040241D01*
D02*
G37*
G36*
X022866Y03925D02*
X022666D01*
X022666Y039827D01*
X022866D01*
Y03925D01*
D02*
G37*
G36*
X023035Y0382D02*
X02215D01*
Y0385D01*
X023035D01*
Y0382D01*
D02*
G37*
G36*
X0234Y038441D02*
X023426Y038438D01*
Y038436D01*
X02344D01*
X023476Y038432D01*
X023753D01*
X023767Y038433D01*
X023818Y0384D01*
Y038268D01*
X023753D01*
X023717Y038264D01*
X023426D01*
Y037688D01*
X023467D01*
Y037402D01*
X023417Y037392D01*
X023397Y03744D01*
X023342Y037511D01*
X023271Y037565D01*
X023189Y037599D01*
X023131Y037607D01*
X023126Y037612D01*
X02311Y03766D01*
X023151Y037713D01*
X023185Y037796D01*
X023196Y037885D01*
Y038007D01*
X023215Y03802D01*
X02327Y038102D01*
X02329Y0382D01*
Y038438D01*
X023307Y038453D01*
X02334Y038466D01*
X0234Y038441D01*
D02*
G37*
G36*
X036988Y038032D02*
X036922Y037981D01*
X03686Y037901D01*
X036821Y037807D01*
X036808Y037706D01*
Y037194D01*
X036821Y037093D01*
X036854Y037013D01*
Y036961D01*
X036499D01*
X036477Y037006D01*
X036491Y037025D01*
X036525Y037106D01*
X036536Y037194D01*
Y037421D01*
X03654Y03745D01*
Y038082D01*
X036971D01*
X036988Y038032D01*
D02*
G37*
G36*
X034527D02*
X034502Y038022D01*
X034422Y03796D01*
X03436Y037879D01*
X034321Y037785D01*
X034308Y037684D01*
Y037172D01*
X034321Y037072D01*
X03436Y036978D01*
X034373Y036961D01*
X034348Y036911D01*
X033983D01*
X033959Y036961D01*
X033991Y037003D01*
X034025Y037085D01*
X034036Y037172D01*
Y037399D01*
X03404Y037428D01*
Y038082D01*
X034517D01*
X034527Y038032D01*
D02*
G37*
G36*
X033354Y037428D02*
X033358Y037399D01*
Y037172D01*
X03337Y037085D01*
X033404Y037003D01*
X033431Y036968D01*
X03341Y036913D01*
X033364Y036903D01*
X033349Y036893D01*
X033272Y036904D01*
X033185Y036892D01*
X033104Y036859D01*
X033034Y036805D01*
X032981Y036736D01*
X032948Y036655D01*
X032936Y036568D01*
X032948Y036481D01*
X032981Y0364D01*
X033034Y036331D01*
X033104Y036278D01*
X033185Y036244D01*
X033272Y036233D01*
X033349Y036243D01*
X033364Y036233D01*
X0334Y036225D01*
Y036175D01*
X033364Y036167D01*
X033298Y036123D01*
X033254Y036057D01*
X033238Y03598D01*
Y035684D01*
X033254Y035607D01*
X033298Y035541D01*
X033329Y03552D01*
Y035224D01*
X03334Y035136D01*
X033375Y035053D01*
X03341Y035007D01*
Y034694D01*
X03336Y034693D01*
X032333D01*
Y034951D01*
X03234Y034958D01*
X032394Y035029D01*
X032428Y035111D01*
X03244Y0352D01*
Y03547D01*
X032471Y035491D01*
X032515Y035557D01*
X032531Y035634D01*
Y03593D01*
X032515Y036007D01*
X032471Y036073D01*
X032405Y036117D01*
X032368Y036125D01*
Y036175D01*
X032405Y036183D01*
X032471Y036227D01*
X032515Y036293D01*
X032531Y03637D01*
Y036666D01*
X032515Y036743D01*
X032471Y036809D01*
X03244Y03683D01*
Y036991D01*
X032474Y037072D01*
X032487Y037172D01*
Y037684D01*
X032474Y037785D01*
X032435Y037879D01*
X032373Y03796D01*
X032292Y038022D01*
X032267Y038032D01*
X032277Y038082D01*
X033354D01*
Y037428D01*
D02*
G37*
G36*
X031927Y038032D02*
X031902Y038022D01*
X031822Y03796D01*
X03176Y037879D01*
X031721Y037785D01*
X031708Y037684D01*
Y037172D01*
X031721Y037072D01*
X031754Y036991D01*
Y036861D01*
X031326D01*
X031312Y036889D01*
X031311Y036913D01*
X031337Y036933D01*
X031391Y037003D01*
X031425Y037085D01*
X031436Y037172D01*
Y037399D01*
X03144Y037428D01*
Y038082D01*
X031917D01*
X031927Y038032D01*
D02*
G37*
G36*
X028774Y039976D02*
X028818Y03987D01*
X028854Y039822D01*
Y039382D01*
X028866Y039293D01*
X0289Y039211D01*
X028955Y03914D01*
X029912Y038182D01*
X029983Y038128D01*
X030066Y038094D01*
X030155Y038082D01*
X030754D01*
Y037428D01*
X030758Y037399D01*
Y037172D01*
X03077Y037085D01*
X030804Y037003D01*
X030857Y036933D01*
X030875Y036919D01*
X030858Y036869D01*
X030814D01*
X03077Y03686D01*
X030737Y036874D01*
X03065Y036886D01*
X030563Y036874D01*
X030482Y036841D01*
X030413Y036787D01*
X030359Y036718D01*
X030326Y036637D01*
X030314Y03655D01*
X030326Y036463D01*
X030359Y036382D01*
X030413Y036313D01*
X030482Y036259D01*
X030563Y036226D01*
X03065Y036214D01*
X030682Y036219D01*
X030736Y036183D01*
X030773Y036175D01*
Y036125D01*
X030736Y036117D01*
X030672Y036074D01*
X029789D01*
X028711Y037153D01*
Y039337D01*
X028742Y039413D01*
X028754Y0395D01*
X028742Y039587D01*
X028711Y039663D01*
Y040073D01*
X028761Y040076D01*
X028774Y039976D01*
D02*
G37*
G36*
X014091Y039155D02*
Y038987D01*
X014338D01*
Y039343D01*
X014438D01*
Y038987D01*
X014653D01*
Y038944D01*
X015347D01*
Y039058D01*
X015612D01*
X015627Y039007D01*
X015576Y038973D01*
X015532Y038907D01*
X015517Y03883D01*
Y038534D01*
X015532Y038457D01*
X015576Y038391D01*
X015607Y03837D01*
Y03705D01*
X015619Y036961D01*
X015653Y036879D01*
X015708Y036808D01*
X015902Y036613D01*
X015896Y036573D01*
X015892Y036563D01*
X015522D01*
X014999Y037086D01*
X015002Y037136D01*
X015044Y03717D01*
X015122Y037266D01*
X01518Y037374D01*
X015216Y037492D01*
X015228Y037615D01*
X015216Y037737D01*
X01518Y037855D01*
X015122Y037963D01*
X015044Y038059D01*
X014949Y038137D01*
X01484Y038195D01*
X014723Y038231D01*
X0146Y038243D01*
X014477Y038231D01*
X01436Y038195D01*
X014251Y038137D01*
X014156Y038059D01*
X014078Y037963D01*
X01402Y037855D01*
X013984Y037737D01*
X013972Y037615D01*
X013984Y037492D01*
X01402Y037374D01*
X014078Y037266D01*
X014156Y03717D01*
X014251Y037092D01*
X014257Y037089D01*
Y037D01*
X014269Y036911D01*
X014303Y036829D01*
X014358Y036758D01*
X014778Y036337D01*
X014752Y036293D01*
X014723Y036301D01*
X0146Y036313D01*
X014477Y036301D01*
X01436Y036266D01*
X014251Y036208D01*
X014156Y03613D01*
X014078Y036034D01*
X01402Y035926D01*
X013984Y035808D01*
X013972Y035685D01*
X013984Y035563D01*
X01402Y035445D01*
X014078Y035337D01*
X014156Y035241D01*
X014251Y035163D01*
X01436Y035105D01*
X014477Y035069D01*
X0146Y035057D01*
X014723Y035069D01*
X01484Y035105D01*
X014949Y035163D01*
X015044Y035241D01*
X015122Y035337D01*
X01518Y035445D01*
X015231Y035441D01*
X015244Y035345D01*
X015297Y035217D01*
X015382Y035106D01*
X015493Y035021D01*
X015622Y034967D01*
X01576Y034949D01*
X015898Y034967D01*
X016027Y035021D01*
X016138Y035106D01*
X016223Y035217D01*
X016276Y035345D01*
X016295Y035484D01*
X016293D01*
Y035562D01*
X016437D01*
Y035546D01*
X016452Y03547D01*
X016477Y035433D01*
X016452Y035395D01*
X016437Y035319D01*
Y035231D01*
X016452Y035155D01*
X016495Y035091D01*
X016559Y035048D01*
X016635Y035033D01*
X017137D01*
X017213Y035048D01*
X017277Y035091D01*
X01732Y035155D01*
X017335Y035231D01*
Y035319D01*
X01732Y035395D01*
X017295Y035433D01*
X01732Y03547D01*
X017335Y035546D01*
Y035634D01*
X01732Y03571D01*
X017295Y035748D01*
X01732Y035785D01*
X017335Y035861D01*
Y035949D01*
X01732Y036025D01*
X017295Y036063D01*
X01732Y0361D01*
X017335Y036176D01*
Y036192D01*
X019135D01*
X019224Y036204D01*
X019307Y036238D01*
X019378Y036293D01*
X019592Y036507D01*
X020965D01*
Y036491D01*
X02098Y036415D01*
X021005Y036378D01*
X02098Y03634D01*
X020965Y036264D01*
Y036176D01*
X02098Y0361D01*
X021005Y036063D01*
X02098Y036025D01*
X020965Y035949D01*
Y035861D01*
X02098Y035785D01*
X021005Y035748D01*
X02098Y03571D01*
X020965Y035634D01*
Y035546D01*
X020975Y035496D01*
X020963Y035487D01*
X020909Y035418D01*
X020876Y035337D01*
X020864Y03525D01*
X020869Y035215D01*
X020856Y035199D01*
X020824Y035176D01*
X02075Y035186D01*
X020663Y035174D01*
X020582Y035141D01*
X020513Y035087D01*
X02047Y035032D01*
X020454Y035035D01*
X020366D01*
X02029Y03502D01*
X020252Y034995D01*
X020215Y03502D01*
X020139Y035035D01*
X020051D01*
X019975Y03502D01*
X019937Y034995D01*
X0199Y03502D01*
X019824Y035035D01*
X019736D01*
X01966Y03502D01*
X019622Y034995D01*
X019585Y03502D01*
X019509Y035035D01*
X019421D01*
X019345Y03502D01*
X019307Y034995D01*
X01927Y03502D01*
X019194Y035035D01*
X019106D01*
X01903Y03502D01*
X018993Y034995D01*
X018955Y03502D01*
X018879Y035035D01*
X018791D01*
X018715Y03502D01*
X018678Y034995D01*
X01864Y03502D01*
X018564Y035035D01*
X018482D01*
X018442Y035087D01*
X018373Y035141D01*
X018292Y035174D01*
X018205Y035186D01*
X018118Y035174D01*
X018037Y035141D01*
X017968Y035087D01*
X017928Y035035D01*
X017846D01*
X01777Y03502D01*
X017733Y034995D01*
X017695Y03502D01*
X017619Y035035D01*
X017531D01*
X017455Y03502D01*
X017391Y034977D01*
X017348Y034913D01*
X017333Y034837D01*
Y034335D01*
X017348Y034259D01*
X017391Y034195D01*
X017455Y034152D01*
X017531Y034137D01*
X017619D01*
X017695Y034152D01*
X017733Y034177D01*
X01777Y034152D01*
X017846Y034137D01*
X017934D01*
X01801Y034152D01*
X018048Y034177D01*
X018085Y034152D01*
X018161Y034137D01*
X018249D01*
X018325Y034152D01*
X018363Y034177D01*
X0184Y034152D01*
X018476Y034137D01*
X018543D01*
Y034062D01*
X018553Y033986D01*
X018582Y033916D01*
X018628Y033855D01*
X018804Y033679D01*
X018785Y033633D01*
X01564D01*
X015564Y033623D01*
X015494Y033593D01*
X015433Y033547D01*
X015132Y033246D01*
X015086Y033185D01*
X015056Y033115D01*
X015046Y033039D01*
Y033039D01*
X014512D01*
Y032989D01*
X014389D01*
Y03255D01*
X0145D01*
Y02585D01*
X013735D01*
Y03255D01*
X014289D01*
Y032989D01*
X014062D01*
Y032805D01*
X013735D01*
X013653Y032789D01*
X013603Y032819D01*
Y039577D01*
X01365Y039596D01*
X014091Y039155D01*
D02*
G37*
G36*
X028083Y042492D02*
X028126Y042428D01*
Y039663D01*
X028094Y039587D01*
X028083Y0395D01*
X028094Y039413D01*
X028126Y039337D01*
Y037032D01*
X028136Y036956D01*
X028165Y036886D01*
X028211Y036825D01*
X028793Y036244D01*
X028773Y036198D01*
X027401D01*
X027382Y036244D01*
X027857Y036718D01*
X027903Y036779D01*
X027933Y036849D01*
X027943Y036925D01*
Y042406D01*
X027973Y042426D01*
X028017Y042492D01*
X028025Y042529D01*
X028075D01*
X028083Y042492D01*
D02*
G37*
G36*
X041096Y036661D02*
X041366D01*
Y036311D01*
X040958Y035903D01*
X040253D01*
Y038307D01*
X041096D01*
Y036661D01*
D02*
G37*
G36*
X022814Y035248D02*
X022808Y0352D01*
Y034421D01*
X022729Y034343D01*
X020967D01*
Y034597D01*
X020987Y034613D01*
X021041Y034682D01*
X021074Y034763D01*
X021086Y03485D01*
X021081Y034885D01*
X021094Y034901D01*
X021126Y034924D01*
X0212Y034914D01*
X021287Y034926D01*
X021368Y034959D01*
X021437Y035013D01*
X021453Y035033D01*
X021665D01*
X021741Y035048D01*
X021805Y035091D01*
X021848Y035155D01*
X021863Y035231D01*
Y035298D01*
X022777D01*
X022814Y035248D01*
D02*
G37*
G36*
X035854Y03745D02*
X035858Y037421D01*
Y037194D01*
X03587Y037106D01*
X035904Y037025D01*
X035909Y037017D01*
X035887Y036964D01*
X035836Y036953D01*
X03577Y036909D01*
X035753Y036884D01*
X035679Y036874D01*
X035598Y036841D01*
X035529Y036787D01*
X035476Y036718D01*
X035442Y036637D01*
X035431Y03655D01*
X035442Y036463D01*
X035476Y036382D01*
X035529Y036313D01*
X035598Y036259D01*
X035679Y036226D01*
X035746Y036217D01*
X035757Y036197D01*
X035766Y036167D01*
X035726Y036107D01*
X035711Y03603D01*
Y035734D01*
X035726Y035657D01*
X03577Y035591D01*
X035836Y035547D01*
X035874Y035539D01*
Y034744D01*
X035917D01*
Y034693D01*
X035019D01*
X03497Y034694D01*
X03497Y034743D01*
Y035481D01*
X034978D01*
X035055Y035497D01*
X035121Y035541D01*
X035165Y035607D01*
X035181Y035684D01*
Y03598D01*
X035165Y036057D01*
X035121Y036123D01*
X035055Y036167D01*
X035018Y036175D01*
Y036225D01*
X035055Y036233D01*
X035121Y036277D01*
X035165Y036343D01*
X035181Y03642D01*
Y036716D01*
X035165Y036793D01*
X035121Y036859D01*
X03509Y03688D01*
Y037378D01*
X035087Y037404D01*
Y037684D01*
X035074Y037785D01*
X035035Y037879D01*
X034973Y03796D01*
X034892Y038022D01*
X034867Y038032D01*
X034877Y038082D01*
X035854D01*
Y03745D01*
D02*
G37*
G36*
X038507Y037934D02*
Y034345D01*
X038457Y034324D01*
X038296Y034485D01*
X038274Y034539D01*
X038214Y034617D01*
X038135Y034678D01*
X038044Y034715D01*
X037946Y034728D01*
X037848Y034715D01*
X037794Y034693D01*
X036658D01*
X036637Y034743D01*
X036638Y034744D01*
X036696Y034744D01*
X037433D01*
Y035532D01*
X037505Y035547D01*
X037571Y035591D01*
X037615Y035657D01*
X037631Y035734D01*
Y03603D01*
X037615Y036107D01*
X037571Y036173D01*
X037505Y036217D01*
X037468Y036225D01*
Y036275D01*
X037505Y036283D01*
X037571Y036327D01*
X037615Y036393D01*
X037631Y03647D01*
Y036766D01*
X037615Y036843D01*
X037571Y036909D01*
X03754Y03693D01*
Y037013D01*
X037574Y037093D01*
X037587Y037194D01*
Y037706D01*
X037574Y037807D01*
X037535Y037901D01*
X037473Y037981D01*
X037407Y038032D01*
X037424Y038082D01*
X038359D01*
X038507Y037934D01*
D02*
G37*
G36*
X030736Y035447D02*
X030774Y035439D01*
Y034644D01*
X030817D01*
Y034503D01*
X030829Y034414D01*
X030863Y034331D01*
X030917Y03426D01*
X030989Y034189D01*
X03097Y034142D01*
X03029D01*
X030262Y034184D01*
X030274Y034213D01*
X030286Y0343D01*
X030274Y034387D01*
X030241Y034468D01*
X030196Y034526D01*
X030199Y034534D01*
X030211Y034621D01*
X030199Y034708D01*
X030166Y034788D01*
X030178Y034797D01*
X030182Y034799D01*
X030251Y034852D01*
X030304Y034922D01*
X030338Y035003D01*
X030349Y035089D01*
X030338Y035176D01*
X030304Y035257D01*
X030251Y035327D01*
X030182Y03538D01*
X030101Y035413D01*
X030014Y035425D01*
X029961Y035418D01*
X029942Y035439D01*
X029965Y035489D01*
X030672D01*
X030736Y035447D01*
D02*
G37*
G36*
X029468Y034189D02*
X029449Y034142D01*
X023403D01*
X023369Y034193D01*
X023383Y034224D01*
X023393Y0343D01*
Y035079D01*
X023425Y035112D01*
X028545D01*
X029468Y034189D01*
D02*
G37*
G36*
X041398Y034277D02*
X041469Y034222D01*
X041552Y034188D01*
X041641Y034176D01*
X042022D01*
Y034174D01*
X042034D01*
X042072Y034145D01*
Y0339D01*
X042918D01*
Y0338D01*
X042072D01*
Y033704D01*
X042025Y033685D01*
X04168Y03403D01*
X041598Y034086D01*
X0415Y034105D01*
X040534Y034105D01*
X040277Y034362D01*
X040265Y034448D01*
X040253Y034478D01*
Y034717D01*
X040958D01*
X041398Y034277D01*
D02*
G37*
G36*
X045995Y03365D02*
X04365D01*
Y034046D01*
X045976D01*
X045995Y034065D01*
Y03365D01*
D02*
G37*
G36*
X039998Y0445D02*
X039998Y03428D01*
X040428Y03385D01*
X0415Y03385D01*
X042Y03335D01*
X0422Y03335D01*
X0422Y033D01*
X04195D01*
X0415Y03345D01*
X03995D01*
X03925Y03415D01*
X03925Y0445D01*
X039998Y0445D01*
D02*
G37*
G36*
X045499Y032854D02*
X043814D01*
Y033395D01*
X045499D01*
Y032854D01*
D02*
G37*
G36*
X020428Y031901D02*
X020417Y031876D01*
X020408Y0318D01*
Y031263D01*
X020376Y031187D01*
X020364Y0311D01*
X020376Y031013D01*
X020409Y030932D01*
X020463Y030863D01*
X020532Y030809D01*
X020613Y030776D01*
X0207Y030764D01*
X020737Y030769D01*
X020787Y030726D01*
Y030475D01*
Y029975D01*
Y029475D01*
Y028975D01*
Y028475D01*
Y027975D01*
Y027568D01*
X018369D01*
X018369Y027568D01*
X01834Y027618D01*
X018346Y027652D01*
X018356Y027701D01*
Y0292D01*
X018337Y029298D01*
X018281Y02938D01*
X018199Y029436D01*
X018101Y029455D01*
X016652D01*
X016603Y029445D01*
X016554Y029436D01*
X016554Y029436D01*
X016554Y029436D01*
X016513Y029408D01*
X016472Y02938D01*
X016471Y02938D01*
X016471Y02938D01*
X016444Y029339D01*
X016416Y029298D01*
X016416Y029298D01*
X016416Y029298D01*
X016406Y029249D01*
X016397Y0292D01*
X016396Y028802D01*
X014755D01*
Y031951D01*
X015531D01*
X015559Y031882D01*
X015613Y031813D01*
X015682Y031759D01*
X015763Y031726D01*
X01585Y031714D01*
X015937Y031726D01*
X016018Y031759D01*
X016087Y031813D01*
X016113D01*
X016182Y031759D01*
X016263Y031726D01*
X01635Y031714D01*
X016437Y031726D01*
X016518Y031759D01*
X016587Y031813D01*
X016641Y031882D01*
X016669Y031951D01*
X019083D01*
X019113Y031913D01*
X019182Y031859D01*
X019263Y031826D01*
X01935Y031814D01*
X019437Y031826D01*
X019518Y031859D01*
X019587Y031913D01*
X019613D01*
X019682Y031859D01*
X019763Y031826D01*
X01985Y031814D01*
X019937Y031826D01*
X020018Y031859D01*
X020087Y031913D01*
X020117Y031951D01*
X020395D01*
X020428Y031901D01*
D02*
G37*
G36*
X037811Y034D02*
X037907Y033904D01*
Y027592D01*
X037883Y027568D01*
X037614D01*
X037586Y0276D01*
X037574Y027687D01*
X037541Y027768D01*
X037487Y027837D01*
X037418Y027891D01*
X037337Y027924D01*
X03725Y027936D01*
X037163Y027924D01*
X037125Y027908D01*
X037087Y027924D01*
X037Y027936D01*
X036913Y027924D01*
X036832Y027891D01*
X036763Y027837D01*
X036709Y027768D01*
X036676Y027687D01*
X036664Y0276D01*
X036636Y027568D01*
X036463D01*
X036443Y027616D01*
Y02775D01*
X036431Y027839D01*
X036397Y027921D01*
X036342Y027992D01*
X036261Y028074D01*
X03619Y028129D01*
X036107Y028163D01*
X036018Y028175D01*
X035518D01*
X035513Y02818D01*
X035518Y028214D01*
X035527Y028237D01*
X035587Y028277D01*
X035631Y028343D01*
X035646Y02842D01*
Y028716D01*
X035631Y028793D01*
X0356Y028839D01*
X035625Y028889D01*
X036112D01*
X036161Y028869D01*
X03625Y028857D01*
X036339Y028869D01*
X036421Y028903D01*
X036492Y028958D01*
X036547Y029029D01*
X036581Y029111D01*
X036593Y0292D01*
X036581Y029289D01*
X036547Y029371D01*
X036492Y029442D01*
X036461Y029474D01*
X03639Y029529D01*
X036307Y029563D01*
X036218Y029575D01*
X03547D01*
X03543Y029583D01*
X03526D01*
X035257Y029633D01*
X035289Y029637D01*
X035365Y029668D01*
X03543D01*
X035489Y02968D01*
X035538Y029713D01*
X035571Y029762D01*
X035582Y02982D01*
Y029918D01*
X0352D01*
Y030018D01*
X035582D01*
Y030116D01*
X035571Y030174D01*
X035543Y030216D01*
Y030379D01*
X035772D01*
X035772Y030378D01*
X035806Y030296D01*
X03586Y030226D01*
X03593Y030172D01*
X036012Y030138D01*
X03605Y030133D01*
Y030722D01*
X03615D01*
Y030133D01*
X036188Y030138D01*
X03627Y030172D01*
X03634Y030226D01*
X036394Y030296D01*
X036428Y030378D01*
X036439Y030466D01*
Y030693D01*
X036443Y030722D01*
X036439Y030751D01*
Y030978D01*
X036428Y031065D01*
X036394Y031147D01*
X03634Y031217D01*
X036343Y031235D01*
X036353Y031267D01*
X036411D01*
X036489Y031282D01*
X036555Y031326D01*
X036595Y031385D01*
X036618Y031395D01*
X036652Y0314D01*
X036657Y031394D01*
Y030822D01*
X036669Y030733D01*
X036703Y03065D01*
X03671Y03064D01*
Y030466D01*
X036724Y030365D01*
X036763Y030271D01*
X036825Y03019D01*
X036905Y030128D01*
X036999Y030089D01*
X0371Y030076D01*
X037201Y030089D01*
X037295Y030128D01*
X037375Y03019D01*
X037437Y030271D01*
X037476Y030365D01*
X03749Y030466D01*
Y030978D01*
X037476Y031078D01*
X037437Y031172D01*
X037375Y031253D01*
X037343Y031278D01*
Y03143D01*
X037351Y03147D01*
Y03193D01*
X037335Y032008D01*
X037291Y032074D01*
X037225Y032118D01*
X037148Y032133D01*
X036852D01*
X036775Y032118D01*
X036709Y032074D01*
X036665Y032008D01*
X036657Y031971D01*
X036606D01*
X036599Y032008D01*
X036556Y032072D01*
Y032939D01*
X036546Y033015D01*
X036517Y033086D01*
X036471Y033146D01*
X035656Y033961D01*
X035675Y034007D01*
X037794D01*
X037811Y034D01*
D02*
G37*
G36*
X035971Y032818D02*
Y032072D01*
X035928Y032008D01*
X035913Y03193D01*
Y03147D01*
X035928Y031392D01*
X035964Y031339D01*
X035956Y031282D01*
X03593Y031271D01*
X03586Y031217D01*
X035806Y031147D01*
X035772Y031065D01*
X035772Y031065D01*
X035372D01*
X035283Y031053D01*
X0352Y031019D01*
X035129Y030964D01*
X034958Y030792D01*
X034903Y030721D01*
X034869Y030639D01*
X034857Y03055D01*
Y030311D01*
X034818D01*
X034729Y030299D01*
X034647Y030265D01*
X034576Y030211D01*
X034358Y029992D01*
X034303Y029921D01*
X034269Y029839D01*
X034257Y02975D01*
Y027568D01*
X033969D01*
Y02825D01*
X033957Y028339D01*
X033923Y028421D01*
X033868Y028492D01*
X033797Y028547D01*
X033715Y028581D01*
X033626Y028593D01*
X033537Y028581D01*
X033455Y028547D01*
X033383Y028492D01*
X033329Y028421D01*
X033295Y028339D01*
X033283Y02825D01*
Y027938D01*
X033233Y027905D01*
X033187Y027924D01*
X0331Y027936D01*
X033013Y027924D01*
X032994Y027916D01*
X032975Y027924D01*
X032888Y027936D01*
X032801Y027924D01*
X03272Y027891D01*
X032651Y027837D01*
X032597Y027768D01*
X032564Y027687D01*
X032552Y0276D01*
X032524Y027568D01*
X032363D01*
X032343Y027616D01*
Y0277D01*
X032331Y027789D01*
X032297Y027871D01*
X032242Y027942D01*
X032111Y028074D01*
X03204Y028129D01*
X031957Y028163D01*
X031868Y028175D01*
X031418D01*
X031413Y02818D01*
X031418Y028214D01*
X031427Y028237D01*
X031487Y028277D01*
X031531Y028343D01*
X031546Y02842D01*
Y028716D01*
X031531Y028793D01*
X0315Y028839D01*
X031525Y028889D01*
X032012D01*
X032061Y028869D01*
X03215Y028857D01*
X032239Y028869D01*
X032321Y028903D01*
X032392Y028958D01*
X032447Y029029D01*
X032481Y029111D01*
X032493Y0292D01*
X032481Y029289D01*
X032447Y029371D01*
X032392Y029442D01*
X032361Y029474D01*
X03229Y029529D01*
X032207Y029563D01*
X032118Y029575D01*
X03137D01*
X03133Y029583D01*
X03116D01*
X031157Y029633D01*
X031189Y029637D01*
X031265Y029668D01*
X03133D01*
X031389Y02968D01*
X031438Y029713D01*
X031471Y029762D01*
X031482Y02982D01*
Y029938D01*
X031493Y030018D01*
Y030379D01*
X031672D01*
X031672Y030378D01*
X031706Y030296D01*
X03176Y030226D01*
X03183Y030172D01*
X031912Y030138D01*
X03195Y030133D01*
Y030722D01*
X03205D01*
Y030133D01*
X032088Y030138D01*
X03217Y030172D01*
X03224Y030226D01*
X032294Y030296D01*
X032328Y030378D01*
X032339Y030466D01*
Y030693D01*
X032343Y030722D01*
X032339Y030751D01*
Y030978D01*
X032328Y031065D01*
X032294Y031147D01*
X03224Y031217D01*
X032243Y031235D01*
X032253Y031267D01*
X032361D01*
X032439Y031282D01*
X032505Y031326D01*
X032549Y031392D01*
X032556Y031429D01*
X032607D01*
X032615Y031392D01*
X032657Y031329D01*
Y031159D01*
X032624Y031078D01*
X03261Y030978D01*
Y030466D01*
X032624Y030365D01*
X032663Y030271D01*
X032725Y03019D01*
X032805Y030128D01*
X032899Y030089D01*
X033Y030076D01*
X033101Y030089D01*
X033195Y030128D01*
X033275Y03019D01*
X033337Y030271D01*
X033376Y030365D01*
X03339Y030466D01*
Y030978D01*
X033376Y031078D01*
X033343Y031159D01*
Y03165D01*
X033331Y031739D01*
X033301Y031812D01*
Y03193D01*
X033285Y032008D01*
X033241Y032074D01*
X033175Y032118D01*
X033098Y032133D01*
X032802D01*
X032725Y032118D01*
X032659Y032074D01*
X032615Y032008D01*
X032607Y031971D01*
X032556D01*
X032549Y032008D01*
X032506Y032072D01*
Y032826D01*
X032496Y032902D01*
X032467Y032972D01*
X032421Y033033D01*
X031942Y033511D01*
X031961Y033558D01*
X035232D01*
X035971Y032818D01*
D02*
G37*
G36*
X031921Y032705D02*
Y032072D01*
X031878Y032008D01*
X031863Y03193D01*
Y03147D01*
X031878Y031392D01*
X031904Y031354D01*
X031905Y031349D01*
X031887Y031295D01*
X03183Y031271D01*
X03176Y031217D01*
X031706Y031147D01*
X031672Y031065D01*
X031672Y031065D01*
X031322D01*
X031233Y031053D01*
X03115Y031019D01*
X031079Y030964D01*
X030908Y030792D01*
X030853Y030721D01*
X030819Y030639D01*
X030807Y03055D01*
Y030311D01*
X030718D01*
X030629Y030299D01*
X030547Y030265D01*
X030476Y030211D01*
X030258Y029992D01*
X030203Y029921D01*
X030169Y029839D01*
X030157Y02975D01*
Y027568D01*
X029943D01*
Y02825D01*
X029931Y028339D01*
X029897Y028421D01*
X029842Y028492D01*
X029771Y028547D01*
X029689Y028581D01*
X0296Y028593D01*
X029511Y028581D01*
X029429Y028547D01*
X029358Y028492D01*
X029303Y028421D01*
X029269Y028339D01*
X029257Y02825D01*
Y027917D01*
X029207Y027895D01*
X029137Y027924D01*
X02905Y027936D01*
X028963Y027924D01*
X028925Y027908D01*
X028887Y027924D01*
X0288Y027936D01*
X028713Y027924D01*
X028632Y027891D01*
X028563Y027837D01*
X028509Y027768D01*
X028476Y027687D01*
X028464Y0276D01*
X028436Y027568D01*
X028313D01*
X028293Y027616D01*
Y02765D01*
X028281Y027739D01*
X028247Y027821D01*
X028192Y027892D01*
X028011Y028074D01*
X02794Y028129D01*
X027857Y028163D01*
X027768Y028175D01*
X027356D01*
X02735Y02818D01*
X027355Y028214D01*
X027365Y028237D01*
X027424Y028277D01*
X027468Y028343D01*
X027483Y02842D01*
Y028716D01*
X027468Y028793D01*
X027438Y028839D01*
X027463Y028889D01*
X028012D01*
X028061Y028869D01*
X02815Y028857D01*
X028239Y028869D01*
X028321Y028903D01*
X028392Y028958D01*
X028447Y029029D01*
X028481Y029111D01*
X028493Y0292D01*
X028481Y029289D01*
X028447Y029371D01*
X028392Y029442D01*
X028361Y029474D01*
X02829Y029529D01*
X028207Y029563D01*
X028118Y029575D01*
X02732D01*
X02728Y029583D01*
X02711D01*
X027107Y029633D01*
X027139Y029637D01*
X027215Y029668D01*
X02728D01*
X027339Y02968D01*
X027388Y029713D01*
X027421Y029762D01*
X027432Y02982D01*
Y029918D01*
X02705D01*
Y030018D01*
X027432D01*
Y030116D01*
X027421Y030174D01*
X027393Y030216D01*
Y030379D01*
X027622D01*
X027622Y030378D01*
X027656Y030296D01*
X02771Y030226D01*
X02778Y030172D01*
X027862Y030138D01*
X0279Y030133D01*
Y030722D01*
X028D01*
Y030133D01*
X028038Y030138D01*
X02812Y030172D01*
X02819Y030226D01*
X028244Y030296D01*
X028278Y030378D01*
X028289Y030466D01*
Y030693D01*
X028293Y030722D01*
X028289Y030751D01*
Y030978D01*
X028278Y031065D01*
X028244Y031147D01*
X02819Y031217D01*
X028193Y031235D01*
X028203Y031267D01*
X028311D01*
X028389Y031282D01*
X028455Y031326D01*
X028495Y031385D01*
X028518Y031395D01*
X028552Y0314D01*
X028557Y031394D01*
Y030772D01*
X02856Y030746D01*
Y030466D01*
X028574Y030365D01*
X028613Y030271D01*
X028675Y03019D01*
X028755Y030128D01*
X028849Y030089D01*
X02895Y030076D01*
X029051Y030089D01*
X029145Y030128D01*
X029225Y03019D01*
X029287Y030271D01*
X029326Y030365D01*
X02934Y030466D01*
Y030978D01*
X029326Y031078D01*
X029287Y031172D01*
X029243Y03123D01*
Y03143D01*
X029251Y03147D01*
Y03193D01*
X029235Y032008D01*
X029191Y032074D01*
X029125Y032118D01*
X029048Y032133D01*
X028752D01*
X028675Y032118D01*
X028609Y032074D01*
X028565Y032008D01*
X028557Y031971D01*
X028506D01*
X028499Y032008D01*
X028456Y032072D01*
Y032836D01*
X028446Y032912D01*
X028417Y032982D01*
X028371Y033043D01*
X028052Y033361D01*
X028071Y033407D01*
X031219D01*
X031921Y032705D01*
D02*
G37*
G36*
X027871Y032715D02*
Y032072D01*
X027828Y032008D01*
X027813Y03193D01*
Y03147D01*
X027828Y031392D01*
X027854Y031354D01*
X027855Y031349D01*
X027837Y031295D01*
X02778Y031271D01*
X02771Y031217D01*
X027656Y031147D01*
X027622Y031065D01*
X027622Y031065D01*
X027172D01*
X027083Y031053D01*
X027Y031019D01*
X026929Y030964D01*
X026808Y030842D01*
X026753Y030771D01*
X026719Y030689D01*
X026707Y0306D01*
Y030311D01*
X026668D01*
X026579Y030299D01*
X026497Y030265D01*
X026426Y030211D01*
X026208Y029992D01*
X026153Y029921D01*
X026119Y029839D01*
X026107Y02975D01*
Y029243D01*
X024785D01*
X024759Y029262D01*
X024677Y029296D01*
X024684Y029348D01*
X024697Y02935D01*
X024835Y029407D01*
X024953Y029497D01*
X025043Y029615D01*
X0251Y029753D01*
X02512Y0299D01*
X0251Y030047D01*
X025043Y030185D01*
X024953Y030303D01*
X024867Y030368D01*
Y030432D01*
X024953Y030497D01*
X025043Y030615D01*
X0251Y030753D01*
X02512Y0309D01*
X0251Y031047D01*
X025043Y031185D01*
X024953Y031303D01*
X024835Y031393D01*
X024697Y03145D01*
X02455Y03147D01*
X024403Y03145D01*
X024293Y031405D01*
X024242Y031436D01*
Y03275D01*
X024233Y032826D01*
X024203Y032896D01*
X024157Y032957D01*
X023902Y033211D01*
X023921Y033258D01*
X027329D01*
X027871Y032715D01*
D02*
G37*
G36*
X018101Y027701D02*
X01665Y027699D01*
X016652Y0292D01*
X018101D01*
Y027701D01*
D02*
G37*
G36*
X026107Y027568D02*
X025115D01*
Y028465D01*
X024715D01*
X024705Y028515D01*
X024759Y028538D01*
X024785Y028557D01*
X026107D01*
Y027568D01*
D02*
G37*
G36*
X023108Y032629D02*
Y03141D01*
X022997Y031325D01*
X022907Y031207D01*
X02285Y03107D01*
X02283Y030922D01*
X02285Y030775D01*
X022907Y030637D01*
X022997Y030519D01*
X023082Y030454D01*
Y030391D01*
X022997Y030325D01*
X022907Y030207D01*
X02285Y03007D01*
X02283Y029922D01*
X02285Y029775D01*
X022907Y029637D01*
X022997Y029519D01*
X023115Y029429D01*
X023253Y029372D01*
X023266Y02937D01*
X023273Y029319D01*
X023191Y029285D01*
X023165Y029265D01*
X022822D01*
X022733Y029253D01*
X022651Y029219D01*
X02258Y029165D01*
X022305Y02889D01*
X02225Y028819D01*
X022216Y028736D01*
X022204Y028647D01*
Y027568D01*
X021875D01*
Y027975D01*
Y028475D01*
Y028975D01*
Y029475D01*
Y029975D01*
Y030475D01*
Y030975D01*
Y031629D01*
X020993D01*
X020993Y031679D01*
X021046Y031732D01*
X021092Y031793D01*
X021122Y031863D01*
X021131Y031939D01*
Y031951D01*
X021166D01*
Y032857D01*
X022879D01*
X023108Y032629D01*
D02*
G37*
G36*
X016395Y028081D02*
X016395Y0277D01*
X016395Y027699D01*
X016395Y027699D01*
X016405Y027651D01*
X016411Y027618D01*
X016382Y027568D01*
X016381Y027568D01*
X014755D01*
Y028117D01*
X01636D01*
X016395Y028081D01*
D02*
G37*
%LPC*%
G36*
X01985Y046213D02*
X01973Y046201D01*
X019615Y046166D01*
X019509Y04611D01*
X019417Y046033D01*
X01934Y045941D01*
X019284Y045835D01*
X019249Y04572D01*
X019237Y0456D01*
X019249Y04548D01*
X019284Y045365D01*
X01934Y045259D01*
X019417Y045167D01*
X019509Y04509D01*
X019615Y045034D01*
X01973Y044999D01*
X01985Y044987D01*
X01997Y044999D01*
X020085Y045034D01*
X020191Y04509D01*
X020283Y045167D01*
X02036Y045259D01*
X020416Y045365D01*
X020451Y04548D01*
X020463Y0456D01*
X020451Y04572D01*
X020416Y045835D01*
X02036Y045941D01*
X020283Y046033D01*
X020191Y04611D01*
X020085Y046166D01*
X01997Y046201D01*
X01985Y046213D01*
D02*
G37*
G36*
X042144Y04475D02*
X0417D01*
Y044208D01*
X042144D01*
Y04475D01*
D02*
G37*
G36*
X0416D02*
X041156D01*
Y044208D01*
X0416D01*
Y04475D01*
D02*
G37*
G36*
X038294Y045542D02*
X037006D01*
Y044058D01*
X038294D01*
Y045542D01*
D02*
G37*
G36*
X02085Y045263D02*
X020721Y04525D01*
X020596Y045213D01*
X020482Y045151D01*
X020381Y045069D01*
X020299Y044968D01*
X020237Y044854D01*
X0202Y044729D01*
X020187Y0446D01*
X0202Y044471D01*
X020237Y044346D01*
X020299Y044232D01*
X020381Y044131D01*
X020482Y044049D01*
X020596Y043987D01*
X020721Y04395D01*
X02085Y043937D01*
X020979Y04395D01*
X021104Y043987D01*
X021218Y044049D01*
X021319Y044131D01*
X021401Y044232D01*
X021463Y044346D01*
X0215Y044471D01*
X021513Y0446D01*
X0215Y044729D01*
X021463Y044854D01*
X021401Y044968D01*
X021319Y045069D01*
X021218Y045151D01*
X021104Y045213D01*
X020979Y04525D01*
X02085Y045263D01*
D02*
G37*
G36*
X01885D02*
X018721Y04525D01*
X018596Y045213D01*
X018482Y045151D01*
X018381Y045069D01*
X018299Y044968D01*
X018237Y044854D01*
X0182Y044729D01*
X018187Y0446D01*
X0182Y044471D01*
X018237Y044346D01*
X018299Y044232D01*
X018381Y044131D01*
X018482Y044049D01*
X018596Y043987D01*
X018721Y04395D01*
X01885Y043937D01*
X018979Y04395D01*
X019104Y043987D01*
X019218Y044049D01*
X019319Y044131D01*
X019401Y044232D01*
X019463Y044346D01*
X0195Y044471D01*
X019513Y0446D01*
X0195Y044729D01*
X019463Y044854D01*
X019401Y044968D01*
X019319Y045069D01*
X019218Y045151D01*
X019104Y045213D01*
X018979Y04525D01*
X01885Y045263D01*
D02*
G37*
G36*
X024018Y043106D02*
X023732D01*
Y0428D01*
X024018D01*
Y043106D01*
D02*
G37*
G36*
X023632Y0419D02*
X023382D01*
Y041568D01*
X02348D01*
X023538Y041579D01*
X023587Y041612D01*
X02362Y041661D01*
X023632Y04172D01*
Y0419D01*
D02*
G37*
G36*
X023282D02*
X023032D01*
Y04172D01*
X023044Y041661D01*
X023077Y041612D01*
X023126Y041579D01*
X023184Y041568D01*
X023282D01*
Y0419D01*
D02*
G37*
G36*
X048063Y04173D02*
X047926Y041712D01*
X047798Y041659D01*
X04774Y041615D01*
X047274D01*
Y04125D01*
X048063D01*
X048852D01*
Y041615D01*
X048386D01*
X048328Y041659D01*
X0482Y041712D01*
X048063Y04173D01*
D02*
G37*
G36*
X048852Y04115D02*
X048063D01*
X047274D01*
Y040785D01*
X047533D01*
Y039689D01*
X04707D01*
Y039702D01*
X046823D01*
Y039346D01*
Y03899D01*
X04707D01*
Y039003D01*
X047533D01*
Y037915D01*
X047124D01*
Y03755D01*
X047913D01*
X048702D01*
Y037915D01*
X048593D01*
Y040785D01*
X048852D01*
Y04115D01*
D02*
G37*
G36*
X048702Y03745D02*
X047913D01*
X047124D01*
Y037085D01*
X047533D01*
Y036084D01*
X0472D01*
Y0339D01*
X048801D01*
Y036084D01*
X048593D01*
Y037085D01*
X048702D01*
Y03745D01*
D02*
G37*
%LPD*%
D12*
X02258Y0448D02*
X02365D01*
X022337Y044557D02*
X02258Y0448D01*
X022337Y042811D02*
Y044557D01*
X0223Y042774D02*
X022337Y042811D01*
X0232Y04275D02*
X023281D01*
X022487Y042037D02*
X0232Y04275D01*
X0223Y042037D02*
X022487D01*
X023759Y036809D02*
Y037976D01*
X024036D01*
X023753D02*
X023759D01*
X024036D02*
X02411Y03805D01*
Y039172D01*
X023736Y039546D02*
X02411Y039172D01*
X023476Y038724D02*
X023753D01*
X023Y0392D02*
X023476Y038724D01*
X023Y0392D02*
Y039546D01*
X023815Y0364D02*
X02425Y036835D01*
X024068Y04195D02*
X02425Y041768D01*
Y036835D02*
Y041768D01*
X028418Y037032D02*
Y0428D01*
X0254Y03795D02*
X02565Y0382D01*
X02445Y03795D02*
X0254D01*
X01905D02*
X02035D01*
X01852Y03848D02*
X01905Y03795D01*
X01852Y03848D02*
Y039114D01*
X029668Y035782D02*
X031044D01*
X028418Y037032D02*
X029668Y035782D01*
X02405Y018428D02*
Y022222D01*
X023482Y036532D02*
X023759Y036809D01*
X0231Y036532D02*
X023482D01*
X023097Y036535D02*
X0231Y036532D01*
X021414Y036535D02*
X023097D01*
X021414Y03622D02*
X021417Y036217D01*
X02765Y036925D02*
Y0448D01*
X026942Y036217D02*
X02765Y036925D01*
X021417Y036217D02*
X026942D01*
X023815Y0364D02*
X023839D01*
X02565Y0382D02*
Y0448D01*
X02365D02*
X0246Y04385D01*
Y04205D02*
Y04385D01*
X0245Y04195D02*
X0246Y04205D01*
X024068Y04195D02*
X0245D01*
X01375Y0244D02*
X01535D01*
X036264Y0317D02*
Y032939D01*
X035353Y03385D02*
X036264Y032939D01*
X01975Y03385D02*
X035353D01*
X032214Y0317D02*
Y032826D01*
X03134Y0337D02*
X032214Y032826D01*
X0195Y0337D02*
X03134D01*
X028164Y0317D02*
Y032836D01*
X02745Y03355D02*
X028164Y032836D01*
X019347Y03355D02*
X02745D01*
X01435Y02165D02*
X0167D01*
X014032Y021968D02*
X01435Y02165D01*
X0167D02*
X01715Y0212D01*
X021414Y03559D02*
X028906D01*
X029875Y034621D01*
X0234Y029922D02*
X023583D01*
X02395Y030289D01*
Y03275D01*
X02336Y03334D02*
X02395Y03275D01*
X01564Y03334D02*
X02336D01*
X015339Y033039D02*
X01564Y03334D01*
X015339Y032495D02*
Y033039D01*
X0234Y030922D02*
Y03275D01*
X023Y03315D02*
X0234Y03275D01*
X01695Y03315D02*
X023D01*
X016839Y033039D02*
X01695Y03315D01*
X016839Y032495D02*
Y033039D01*
X018835Y034062D02*
X019347Y03355D01*
X018835Y034062D02*
Y034586D01*
X01915Y03405D02*
X0195Y0337D01*
X01915Y03405D02*
Y034586D01*
X019465Y034135D02*
X01975Y03385D01*
X019465Y034135D02*
Y034586D01*
X023304Y035404D02*
X028666D01*
X0231Y0352D02*
X023304Y035404D01*
X0231Y0343D02*
Y0352D01*
X02285Y03405D02*
X0231Y0343D01*
X019883Y03405D02*
X02285D01*
X029861Y035089D02*
X030014D01*
X029045Y035905D02*
X029861Y035089D01*
X036076Y03655D02*
X036144Y036618D01*
X035766Y03655D02*
X036076D01*
X03065D02*
X031038D01*
X029771Y0343D02*
X02995D01*
X028666Y035404D02*
X029771Y0343D01*
X021414Y035905D02*
X029045D01*
X033272Y036568D02*
X033672D01*
X01978Y034153D02*
X019883Y03405D01*
X01978Y034153D02*
Y034586D01*
X02065Y04015D02*
X0214D01*
X0203Y0398D02*
X02065Y04015D01*
X0196Y0398D02*
X0203D01*
X0214Y04015D02*
X02155Y0403D01*
Y0408D01*
X02055Y0403D02*
Y0408D01*
X0202Y03995D02*
X02055Y0403D01*
X0193Y03995D02*
X0202D01*
X019465Y039665D02*
X0196Y0398D01*
X019465Y039114D02*
Y039665D01*
X01915Y0398D02*
X0193Y03995D01*
X02005Y0403D02*
Y0413D01*
X01985Y0401D02*
X02005Y0403D01*
X01905Y0401D02*
X01985D01*
X018835Y039885D02*
X01905Y0401D01*
X01915Y039114D02*
Y0398D01*
X018835Y039114D02*
Y039885D01*
X01615Y0407D02*
X016528D01*
X01595Y0405D02*
X01615Y0407D01*
X01595Y039418D02*
Y0405D01*
X015882Y03935D02*
X01595Y039418D01*
X015Y03935D02*
X015882D01*
X01745Y0407D02*
X01755Y0408D01*
X016528Y0407D02*
X01745D01*
X0199Y04145D02*
X02005Y0413D01*
X01775Y04145D02*
X0199D01*
X01755Y04125D02*
X01775Y04145D01*
X01755Y0408D02*
Y04125D01*
X020839Y031939D02*
Y032495D01*
X0207Y0318D02*
X020839Y031939D01*
X0207Y0311D02*
Y0318D01*
X01535Y0244D02*
X01775D01*
X0209Y01855D02*
X02105Y0184D01*
X0209Y01855D02*
Y0211D01*
X0202Y0218D02*
X0209Y0211D01*
X0195Y0218D02*
X0202D01*
X0189Y0224D02*
X0195Y0218D01*
X0189Y0224D02*
Y02325D01*
X01775Y0244D02*
X0189Y02325D01*
X0174Y0237D02*
X0178D01*
X01855Y02295D01*
Y01985D02*
Y02295D01*
Y01985D02*
X01945Y01895D01*
X019883D01*
X0177Y02325D02*
X01825Y0227D01*
X0177Y02325D02*
Y02335D01*
X01825Y0196D02*
Y0227D01*
X0194Y01845D02*
X019883D01*
X01825Y0196D02*
X0194Y01845D01*
X02225Y02095D02*
Y0219D01*
X016503Y023174D02*
X016874D01*
X021322Y0184D02*
X0219D01*
X02105D02*
X021322D01*
X0219D02*
X02225Y01875D01*
Y020144D01*
X0219Y02225D02*
X02225Y0219D01*
X021322Y02225D02*
X0219D01*
X02405Y018428D02*
X024078Y0184D01*
X023223Y02095D02*
X023227Y020954D01*
X02225Y02095D02*
X023223D01*
X023219Y020144D02*
X023229Y020154D01*
X02225Y020144D02*
X023219D01*
X021514D02*
Y02095D01*
X015339Y024411D02*
X01535Y0244D01*
X01355Y0242D02*
X01375Y0244D01*
X01355Y023573D02*
Y0242D01*
Y023573D02*
X013947Y023176D01*
X01615Y0228D02*
X0169D01*
X015597D02*
X01615D01*
X0174Y01945D02*
X017717D01*
X0173Y01955D02*
X0174Y01945D01*
X0173Y01955D02*
Y0224D01*
X0169Y0228D02*
X0173Y0224D01*
Y01895D02*
X017717D01*
X01715Y0191D02*
X0173Y01895D01*
X01715Y0191D02*
Y0212D01*
X014032Y021968D02*
Y022397D01*
X016474D02*
X016503Y022426D01*
X014768Y022397D02*
X016474D01*
X015656Y023924D02*
X015682Y02395D01*
X013947Y023924D02*
X015656D01*
X014032Y022397D02*
X0144Y022765D01*
Y0234D01*
X01455Y02355D01*
X014853D01*
X01615Y023682D02*
X016418Y02395D01*
X01615Y0228D02*
Y023682D01*
X0158Y0201D02*
X015808Y020092D01*
X01627D01*
X0167Y0195D02*
Y01965D01*
Y01935D02*
Y0195D01*
X01585Y0197D02*
Y01985D01*
Y01955D02*
Y0197D01*
X016655Y019305D02*
X0167Y01935D01*
X01627Y019305D02*
X016655D01*
X016652Y019698D02*
X0167Y01965D01*
X01627Y019698D02*
X016652D01*
X015898Y019502D02*
X01627D01*
X01585Y01955D02*
X015898Y019502D01*
X01585Y01985D02*
X015895Y019895D01*
X01627D01*
D25*
X042694Y03944D02*
D03*
X0436D02*
D03*
X044506D02*
D03*
D26*
X0436Y041763D02*
D03*
D27*
X041696Y039477D02*
D03*
X041689Y040089D02*
D03*
X044339Y030139D02*
D03*
X044346Y029527D02*
D03*
D28*
X04085Y03531D02*
D03*
Y03259D02*
D03*
D29*
X04569Y01965D02*
D03*
X04841D02*
D03*
D30*
X041709Y0375D02*
D03*
X044091D02*
D03*
D31*
X019883Y01795D02*
D03*
Y01845D02*
D03*
Y01895D02*
D03*
Y01945D02*
D03*
Y01995D02*
D03*
Y02045D02*
D03*
Y02095D02*
D03*
Y02145D02*
D03*
X017717D02*
D03*
Y02095D02*
D03*
Y02045D02*
D03*
Y01995D02*
D03*
Y01945D02*
D03*
Y01895D02*
D03*
Y01845D02*
D03*
Y01795D02*
D03*
D32*
X042918Y032511D02*
D03*
Y033181D02*
D03*
Y03385D02*
D03*
Y034519D02*
D03*
Y035189D02*
D03*
D33*
X033672Y035832D02*
D03*
Y036568D02*
D03*
X034747Y035832D02*
D03*
Y036568D02*
D03*
X036144Y035882D02*
D03*
Y036618D02*
D03*
X037197Y035882D02*
D03*
Y036618D02*
D03*
X0223Y042037D02*
D03*
Y042774D02*
D03*
X032097Y036518D02*
D03*
Y035782D02*
D03*
X031044Y036518D02*
D03*
Y035782D02*
D03*
X0352Y029232D02*
D03*
Y029968D02*
D03*
X035213Y028568D02*
D03*
Y027832D02*
D03*
X0311Y029232D02*
D03*
Y029968D02*
D03*
X031113Y028568D02*
D03*
Y027832D02*
D03*
X02705Y029968D02*
D03*
Y029232D02*
D03*
Y027832D02*
D03*
Y028568D02*
D03*
X01595Y039418D02*
D03*
Y038682D02*
D03*
D34*
X037Y0317D02*
D03*
X036264D02*
D03*
X023Y039546D02*
D03*
X023736D02*
D03*
X028418Y0428D02*
D03*
X027682D02*
D03*
X023332Y04195D02*
D03*
X024068D02*
D03*
X037065Y0428D02*
D03*
X036329D02*
D03*
X037065Y042D02*
D03*
X036329D02*
D03*
X034583Y04275D02*
D03*
X033847D02*
D03*
X034583Y04195D02*
D03*
X033847D02*
D03*
X031163Y04275D02*
D03*
X0319D02*
D03*
X031163Y04195D02*
D03*
X0319D02*
D03*
X032214Y0317D02*
D03*
X03295D02*
D03*
X0289D02*
D03*
X028164D02*
D03*
X0351Y02605D02*
D03*
X035836D02*
D03*
X031032Y026056D02*
D03*
X031768D02*
D03*
X0277D02*
D03*
X026964D02*
D03*
X02225Y020144D02*
D03*
X021514D02*
D03*
X02225Y02095D02*
D03*
X021514D02*
D03*
X045868Y04605D02*
D03*
X045132D02*
D03*
X045868Y04685D02*
D03*
X045132D02*
D03*
X015682Y02395D02*
D03*
X016418D02*
D03*
X014032Y022397D02*
D03*
X014768D02*
D03*
D35*
X023281Y04275D02*
D03*
X024068D02*
D03*
X033796Y0351D02*
D03*
X034583D02*
D03*
X03626Y03515D02*
D03*
X037047D02*
D03*
X031947Y03505D02*
D03*
X03116D02*
D03*
X0443Y04605D02*
D03*
X043513D02*
D03*
Y04685D02*
D03*
X0443D02*
D03*
D36*
X022847Y03835D02*
D03*
X023753Y037976D02*
D03*
Y038724D02*
D03*
X014853Y02355D02*
D03*
X013947Y023924D02*
D03*
Y023176D02*
D03*
X015597Y0228D02*
D03*
X016503Y022426D02*
D03*
Y023174D02*
D03*
D37*
X013772Y0407D02*
D03*
X016528D02*
D03*
X024078Y0184D02*
D03*
X021322D02*
D03*
X024078Y02225D02*
D03*
X021322D02*
D03*
D38*
X016827Y027908D02*
D03*
X017378Y028459D02*
D03*
X016827D02*
D03*
Y029011D02*
D03*
X01793D02*
D03*
Y028459D02*
D03*
Y027908D02*
D03*
X017378Y029011D02*
D03*
Y027908D02*
D03*
D39*
X014339Y032495D02*
D03*
X014839D02*
D03*
X015339D02*
D03*
X015839D02*
D03*
X016339D02*
D03*
X016839D02*
D03*
X017339D02*
D03*
X017839D02*
D03*
X018339D02*
D03*
X018839D02*
D03*
X019339D02*
D03*
X019839D02*
D03*
X020339D02*
D03*
X020839D02*
D03*
X014339Y025605D02*
D03*
X014839D02*
D03*
X015339D02*
D03*
X015839D02*
D03*
X019839D02*
D03*
X019339D02*
D03*
X018839D02*
D03*
X018339D02*
D03*
X017839D02*
D03*
X017339D02*
D03*
X016339D02*
D03*
X016839D02*
D03*
X020839D02*
D03*
X020339D02*
D03*
D40*
X021331Y031302D02*
D03*
Y030802D02*
D03*
Y030302D02*
D03*
Y029802D02*
D03*
Y029302D02*
D03*
Y028802D02*
D03*
Y028302D02*
D03*
Y027802D02*
D03*
Y027302D02*
D03*
Y026802D02*
D03*
D41*
X021414Y035275D02*
D03*
Y03559D02*
D03*
Y035905D02*
D03*
Y03622D02*
D03*
Y036535D02*
D03*
Y03685D02*
D03*
Y037165D02*
D03*
Y03748D02*
D03*
Y037795D02*
D03*
Y03811D02*
D03*
Y038425D02*
D03*
X016886D02*
D03*
Y03811D02*
D03*
Y037795D02*
D03*
Y03748D02*
D03*
Y037165D02*
D03*
Y03685D02*
D03*
Y036535D02*
D03*
Y03622D02*
D03*
Y035905D02*
D03*
Y03559D02*
D03*
Y035275D02*
D03*
D42*
X020725Y039114D02*
D03*
X02041D02*
D03*
X020095D02*
D03*
X01978D02*
D03*
X019465D02*
D03*
X01915D02*
D03*
X018835D02*
D03*
X01852D02*
D03*
X018205D02*
D03*
X01789D02*
D03*
X017575D02*
D03*
Y034586D02*
D03*
X01789D02*
D03*
X018205D02*
D03*
X01852D02*
D03*
X018835D02*
D03*
X01915D02*
D03*
X019465D02*
D03*
X01978D02*
D03*
X020095D02*
D03*
X02041D02*
D03*
X020725D02*
D03*
D43*
X037197Y040993D02*
D03*
X036197D02*
D03*
X037197Y03745D02*
D03*
X036197D02*
D03*
X034697Y040972D02*
D03*
X033697D02*
D03*
X034697Y037428D02*
D03*
X033697D02*
D03*
X031097D02*
D03*
X032097D02*
D03*
X031097Y040972D02*
D03*
X032097D02*
D03*
X0361Y027178D02*
D03*
X0371D02*
D03*
X0361Y030722D02*
D03*
X0371D02*
D03*
X032Y027178D02*
D03*
X033D02*
D03*
X032Y030722D02*
D03*
X033D02*
D03*
X02895D02*
D03*
X02795D02*
D03*
X02895Y027178D02*
D03*
X02795D02*
D03*
D44*
X037383Y02605D02*
D03*
X036517D02*
D03*
X033283D02*
D03*
X032417D02*
D03*
X028417D02*
D03*
X029283D02*
D03*
X015Y03935D02*
D03*
X014388Y039343D02*
D03*
X023842Y020161D02*
D03*
X023229Y020154D02*
D03*
X023839Y020961D02*
D03*
X023227Y020954D02*
D03*
X046161Y039339D02*
D03*
X046773Y039346D02*
D03*
D45*
X048063Y0412D02*
D03*
X045937D02*
D03*
X047913Y0375D02*
D03*
X045787D02*
D03*
D46*
X01627Y01834D02*
D03*
Y018655D02*
D03*
Y020545D02*
D03*
Y02086D02*
D03*
D47*
Y018911D02*
D03*
Y019108D02*
D03*
Y019305D02*
D03*
Y019502D02*
D03*
Y020289D02*
D03*
Y020092D02*
D03*
Y019895D02*
D03*
Y019698D02*
D03*
D90*
X01614Y035905D02*
G03*
X01595Y035715I0J-00019D01*
G01*
X01576Y035294D02*
G03*
X01595Y035484I0J00019D01*
G01*
X01557D02*
G03*
X01576Y035294I00019J0D01*
G01*
X01557Y035715D02*
G03*
X01538Y035905I-00019J0D01*
G01*
X029197Y039382D02*
X030155Y038425D01*
X029197Y039382D02*
Y040089D01*
X0399Y03865D02*
Y039704D01*
X013772Y0407D02*
X0138Y040728D01*
Y04115D01*
X032097Y03995D02*
X0347D01*
X03015D02*
X032097D01*
X02965Y04045D02*
Y0448D01*
Y04045D02*
X03015Y03995D01*
X04245Y041763D02*
X0436D01*
X037946Y03435D02*
X03825Y034046D01*
Y02745D02*
Y034046D01*
X037978Y027178D02*
X03825Y02745D01*
X0371Y027178D02*
X037978D01*
X0399Y03435D02*
Y03865D01*
Y03405D02*
Y03435D01*
X03626D02*
X037946D01*
X0338D02*
X03626D01*
X02055Y01895D02*
Y0192D01*
Y0177D02*
Y01895D01*
X030155Y038425D02*
X031097D01*
X013772Y039958D02*
X014388Y039343D01*
X02405Y022222D02*
X026972D01*
X014339Y02845D02*
Y032495D01*
X01627Y01748D02*
Y01834D01*
X031097Y038425D02*
X0337D01*
X0399Y03865D02*
X04275D01*
X03965Y039954D02*
X0399Y039704D01*
X03965Y039954D02*
Y0448D01*
X0399Y03405D02*
X0403Y03365D01*
X04155D02*
X042019Y033181D01*
X0403Y03365D02*
X04155D01*
X042019Y033181D02*
X042918D01*
X03946Y03259D02*
X04085D01*
X03885Y0332D02*
X03946Y03259D01*
X03885Y0332D02*
Y038076D01*
X038501Y038425D02*
X03885Y038076D01*
X0337Y038425D02*
X038501D01*
X022818Y037268D02*
X0231D01*
X0224Y03685D02*
X022818Y037268D01*
X021414Y03685D02*
X0224D01*
X022854Y037885D02*
Y03835D01*
X022134Y037165D02*
X022854Y037885D01*
X021414Y037165D02*
X022134D01*
X0234Y025571D02*
Y027922D01*
X022679Y02485D02*
X0234Y025571D01*
X014994Y02485D02*
X022679D01*
X014839Y025005D02*
X014994Y02485D01*
X014839Y025005D02*
Y025605D01*
X02645Y0289D02*
Y02975D01*
Y02655D02*
Y0289D01*
X02455D02*
X02645D01*
X024078Y018077D02*
Y0184D01*
X023801Y0178D02*
X024078Y018077D01*
X021417Y0178D02*
X023801D01*
X020717Y0171D02*
X021417Y0178D01*
X01665Y0171D02*
X020717D01*
X01627Y01748D02*
X01665Y0171D01*
X031313Y03435D02*
X0338D01*
X03116Y034503D02*
X031313Y03435D01*
X03116Y034503D02*
Y03505D01*
X022822Y028922D02*
X0234D01*
X022547Y028647D02*
X022822Y028922D01*
X022547Y027147D02*
Y028647D01*
X022202Y026802D02*
X022547Y027147D01*
X021331Y026802D02*
X022202D01*
X027243Y022493D02*
Y02415D01*
Y025167D01*
X026972Y022222D02*
X027243Y022493D01*
X018326Y026802D02*
X021331D01*
X01793Y027199D02*
X018326Y026802D01*
X01793Y027199D02*
Y027908D01*
X033796Y034354D02*
X0338Y03435D01*
X033796Y034354D02*
Y0351D01*
X03626Y03435D02*
Y03515D01*
X023422Y0289D02*
X02455D01*
X0234Y028922D02*
X023422Y0289D01*
X0347Y03995D02*
X037D01*
X034697Y039953D02*
X0347Y03995D01*
X034697Y039953D02*
Y040972D01*
X037197Y040147D02*
Y040993D01*
X037Y03995D02*
X037197Y040147D01*
X032097Y03995D02*
Y040972D01*
X033697Y038422D02*
X0337Y038425D01*
X033697Y037428D02*
Y038422D01*
X036197Y03745D02*
Y0384D01*
X031097Y037428D02*
Y038425D01*
X034583Y035668D02*
X034747Y035832D01*
X034583Y0351D02*
Y035668D01*
X033672Y035224D02*
X033796Y0351D01*
X033672Y035224D02*
Y035832D01*
X037047Y035732D02*
X037197Y035882D01*
X037047Y03515D02*
Y035732D01*
X036144Y035882D02*
X03626Y035766D01*
Y03515D02*
Y035766D01*
X03361Y03577D02*
X033672Y035832D01*
X031044Y035782D02*
X03116Y035666D01*
Y03505D02*
Y035666D01*
X031947Y03505D02*
X032097Y0352D01*
Y035782D01*
X037197Y036618D02*
Y03745D01*
X036144Y036618D02*
X037197D01*
X034697Y037428D02*
X034747Y037378D01*
Y036568D02*
Y037378D01*
X033672Y036568D02*
X034747D01*
X031044Y036518D02*
X032097D01*
Y037428D01*
X036329Y042D02*
Y0428D01*
Y041125D02*
Y042D01*
X036197Y040993D02*
X036329Y041125D01*
X037197Y040993D02*
Y041868D01*
X037065Y042D02*
X037197Y041868D01*
X034697Y040972D02*
Y041836D01*
X034583Y04195D02*
X034697Y041836D01*
X033847Y04195D02*
Y04275D01*
Y041122D02*
Y04195D01*
X033697Y040972D02*
X033847Y041122D01*
X032097Y040972D02*
Y041752D01*
X0319Y04195D02*
X032097Y041752D01*
X031163Y04195D02*
Y04275D01*
Y041038D02*
Y04195D01*
X031097Y040972D02*
X031163Y041038D01*
X035936Y0438D02*
X036644D01*
X03565Y044086D02*
X035936Y0438D01*
X03565Y044086D02*
Y0448D01*
X037065Y0428D02*
Y043379D01*
X036644Y0438D02*
X037065Y043379D01*
X034583Y04275D02*
Y043217D01*
X03365Y04415D02*
X034583Y043217D01*
X03365Y04415D02*
Y0448D01*
X03165D02*
X0319Y04455D01*
Y04275D02*
Y04455D01*
X04165Y0448D02*
Y045753D01*
X041947Y04605D02*
X043513D01*
X04165Y045753D02*
X041947Y04605D01*
X01635Y035905D02*
X016886D01*
X01482D02*
X015D01*
X01614D02*
X01635D01*
X01595Y035484D02*
Y035715D01*
X01557Y035484D02*
Y035715D01*
X01519Y035905D02*
X01538D01*
X015D02*
X01519D01*
X0146Y035685D02*
X01482Y035905D01*
X0313Y02415D02*
X03515D01*
X027243D02*
X0313D01*
X03125Y0242D02*
X0313Y02415D01*
X03125Y0242D02*
Y025183D01*
X03535Y02435D02*
Y025183D01*
X03515Y02415D02*
X03535Y02435D01*
X026668Y029968D02*
X02705D01*
X02645Y02975D02*
X026668Y029968D01*
X02645Y02655D02*
X02695Y02605D01*
X030718Y029968D02*
X0311D01*
X0305Y02975D02*
X030718Y029968D01*
X0305Y02655D02*
Y02975D01*
Y02655D02*
X031Y02605D01*
X0346Y02655D02*
X0351Y02605D01*
X0346Y02655D02*
Y02975D01*
X034818Y029968D01*
X0352D01*
X037Y030822D02*
X0371Y030722D01*
X037Y030822D02*
Y0317D01*
X03295D02*
X033Y03165D01*
Y030722D02*
Y03165D01*
X035372Y030722D02*
X0361D01*
X0352Y03055D02*
X035372Y030722D01*
X0352Y029968D02*
Y03055D01*
X031322Y030722D02*
X032D01*
X03115Y03055D02*
X031322Y030722D01*
X03115Y030018D02*
Y03055D01*
X0311Y029968D02*
X03115Y030018D01*
X033626Y026393D02*
Y02825D01*
X033283Y02605D02*
X033626Y026393D01*
X0296Y026367D02*
Y02825D01*
X029283Y02605D02*
X0296Y026367D01*
X036218Y029232D02*
X03625Y0292D01*
X0352Y029232D02*
X036218D01*
X032118D02*
X03215Y0292D01*
X0311Y029232D02*
X032118D01*
X028118D02*
X02815Y0292D01*
X02705Y029232D02*
X028118D01*
X0331Y025183D02*
X033283Y025366D01*
Y02605D01*
X032411Y026056D02*
X032417Y02605D01*
X031768Y026056D02*
X032411D01*
X031032Y025402D02*
X03125Y025183D01*
X031032Y025402D02*
Y026056D01*
X0351Y025433D02*
X03535Y025183D01*
X0351Y025433D02*
Y02605D01*
X035836D02*
X036517D01*
X0372Y025183D02*
X037383Y025366D01*
Y02605D01*
X032Y027178D02*
Y0277D01*
X031868Y027832D02*
X032Y0277D01*
X031113Y027832D02*
X031868D01*
X0361Y027178D02*
Y02775D01*
X036018Y027832D02*
X0361Y02775D01*
X035213Y027832D02*
X036018D01*
X0352Y028581D02*
X035213Y028568D01*
X0352Y028581D02*
Y029232D01*
X0311Y028581D02*
X031113Y028568D01*
X0311Y028581D02*
Y029232D01*
X0289Y030772D02*
X02895Y030722D01*
X0289Y030772D02*
Y0317D01*
X02705Y029968D02*
Y0306D01*
X027172Y030722D01*
X02795D01*
X02705Y028568D02*
Y029232D01*
X02795Y027178D02*
Y02765D01*
X027768Y027832D02*
X02795Y02765D01*
X02705Y027832D02*
X027768D01*
X029283Y025357D02*
Y02605D01*
X029093Y025167D02*
X029283Y025357D01*
X028411Y026056D02*
X028417Y02605D01*
X0277Y026056D02*
X028411D01*
X026964Y025446D02*
Y026056D01*
Y025446D02*
X027243Y025167D01*
X01615Y03685D02*
X016886D01*
X01595Y03705D02*
X01615Y03685D01*
X01595Y03705D02*
Y038682D01*
X016332D01*
X0165Y03885D01*
Y0394D01*
X017Y0399D01*
X0183D01*
X01855Y04015D01*
Y0408D01*
X013772Y039958D02*
Y0407D01*
X01745Y036535D02*
X0177D01*
X016886D02*
X01745D01*
X01538Y03622D02*
X016886D01*
X0146Y037D02*
X01538Y03622D01*
X0146Y037D02*
Y037615D01*
X0177Y036535D02*
X019135D01*
X019883Y01945D02*
X0203D01*
X02055Y0192D01*
X02035Y0175D02*
X02055Y0177D01*
X01875Y0175D02*
X02035D01*
X0183Y01795D02*
X01875Y0175D01*
X017717Y01795D02*
X0183D01*
X01945Y03685D02*
X021414D01*
X019135Y036535D02*
X01945Y03685D01*
X019215Y037165D02*
X021414D01*
X0189Y03685D02*
X019215Y037165D01*
X016886Y03685D02*
X0189D01*
X045868Y041269D02*
Y04605D01*
X04535Y0422D02*
Y04515D01*
X0451Y0454D02*
X04535Y04515D01*
X04385Y0454D02*
X0451D01*
X043513Y045737D02*
X04385Y0454D01*
X043513Y045737D02*
Y04605D01*
Y04685D01*
X046161Y039339D02*
Y040289D01*
X0443Y04605D02*
X045132D01*
X0443Y04685D02*
X045132D01*
X045868Y041269D02*
X045937Y0412D01*
X0436Y041763D02*
X0458D01*
X042694Y039206D02*
Y03944D01*
X0439Y0375D02*
X044091D01*
X04275Y03865D02*
X0439Y0375D01*
X048019Y039346D02*
X048023Y03935D01*
X046773Y039346D02*
X048019D01*
X0436Y04065D02*
Y041763D01*
Y03944D02*
Y04065D01*
X042249D02*
X0436D01*
X041689Y040089D02*
X042249Y04065D01*
X042658Y039477D02*
X042694Y03944D01*
X041696Y039477D02*
X042658D01*
X046161Y037561D02*
Y039339D01*
X0461Y0375D02*
X046161Y037561D01*
X045787Y0375D02*
X0461D01*
X044607Y039339D02*
X046161D01*
X044506Y03944D02*
X044607Y039339D01*
X044091Y0375D02*
X045787D01*
X041709Y036169D02*
Y0375D01*
X04085Y03531D02*
X041709Y036169D01*
X041641Y034519D02*
X042918D01*
X04085Y03531D02*
X041641Y034519D01*
X040928Y032511D02*
X042918D01*
X04085Y03259D02*
X040928Y032511D01*
X045811D02*
X04715Y03385D01*
X042918Y032511D02*
X045811D01*
X042918Y03385D02*
X04715D01*
X044346Y028254D02*
X0444Y0282D01*
X044346Y028254D02*
Y029527D01*
X016827Y029011D02*
X017378D01*
X014339Y025605D02*
Y02845D01*
X014348Y028459D01*
X016827D01*
X017378D01*
X016827Y028459D02*
X016827Y028459D01*
X016827Y027908D02*
Y028459D01*
X017378Y027908D02*
X01793D01*
X016827D02*
X017378D01*
X01793Y028459D02*
Y029011D01*
Y027908D02*
Y028459D01*
X017378Y029011D02*
X01793D01*
X01695Y01865D02*
Y02035D01*
Y0182D02*
Y01865D01*
X01627Y018655D02*
X016275Y01865D01*
X01695D01*
Y0182D02*
X0172Y01795D01*
X016755Y020545D02*
X01695Y02035D01*
X0172Y01795D02*
X017717D01*
X01627Y020545D02*
X016755D01*
X016042Y021303D02*
X01627Y021074D01*
Y02086D02*
Y021074D01*
D91*
X04715Y03385D02*
D03*
D92*
X033634Y020656D02*
X03535D01*
X0322Y01655D02*
X0331Y01745D01*
X03045Y01655D02*
X0322D01*
X0296Y0157D02*
X03045Y01655D01*
X029007Y017857D02*
Y020272D01*
X0281Y01695D02*
X029007Y017857D01*
X026044Y01695D02*
X0281D01*
X0331Y020122D02*
X033634Y020656D01*
X0331Y01745D02*
Y020122D01*
X0296Y0156D02*
Y0157D01*
X02516Y017744D02*
Y01971D01*
X024116Y0167D02*
X02516Y017744D01*
X0221Y0167D02*
X024116D01*
X0256Y0156D02*
Y016506D01*
X026044Y01695D01*
X029007Y020272D02*
X029385Y02065D01*
X03015D01*
X030156Y020656D01*
X03125D01*
X0216Y0156D02*
Y0162D01*
X0221Y0167D01*
X02516Y01971D02*
X0261Y02065D01*
X026111Y020639D01*
X027243D01*
X038166Y01715D02*
X03895Y017934D01*
X036629Y01715D02*
X038166D01*
X0356Y016121D02*
X036629Y01715D01*
X0356Y0156D02*
Y016121D01*
X0336Y0156D02*
X0356D01*
X0376D02*
X0396D01*
X048063Y035563D02*
Y0412D01*
X04015Y01615D02*
X04295D01*
X0396Y0156D02*
X04015Y01615D01*
X03895Y018655D02*
Y02205D01*
Y017934D02*
Y018655D01*
X038955Y01865D01*
X0419Y0302D02*
X0468D01*
X04715Y03465D02*
X048063Y035563D01*
X04715Y03385D02*
Y03465D01*
X0484Y02825D02*
Y0326D01*
Y027237D02*
Y02825D01*
X04835Y0282D02*
X0484Y02825D01*
X0468Y0282D02*
X04835D01*
X04705Y025887D02*
X0484Y027237D01*
X04715Y03385D02*
X0484Y0326D01*
X0444Y0282D02*
X0468D01*
X0419D02*
X0444D01*
X041263Y025887D02*
X041932D01*
X04035Y0268D02*
X041263Y025887D01*
X04035Y0268D02*
Y02965D01*
X0409Y0302D02*
X0419D01*
X04035Y02965D02*
X0409Y0302D01*
X04841Y01965D02*
Y02059D01*
X04705Y02195D02*
X04841Y02059D01*
X041932Y02195D02*
X04339D01*
X04569Y01965D01*
X04841Y01816D02*
Y01965D01*
X0464Y01615D02*
X04841Y01816D01*
X04295Y01615D02*
X0464D01*
X038955Y01865D02*
X04295D01*
X03955Y02405D02*
X039832D01*
X041932Y02195D01*
D93*
X0261Y02065D02*
D03*
Y01865D02*
D03*
X03015Y02065D02*
D03*
Y01865D02*
D03*
X0342Y02065D02*
D03*
Y01865D02*
D03*
D94*
X04495Y01765D02*
D03*
D95*
X04295Y01615D02*
D03*
Y01865D02*
D03*
D96*
X03895Y02205D02*
D03*
X03955Y02405D02*
D03*
D97*
X041932Y02195D02*
D03*
X04705D02*
D03*
X041932D02*
D03*
X04705D02*
D03*
X041932Y025887D02*
D03*
X04705D02*
D03*
D98*
X026197Y040084D02*
D03*
D99*
X029197Y040089D02*
D03*
D100*
X03365Y0448D02*
D03*
X03165D02*
D03*
X02765D02*
D03*
X02965D02*
D03*
X03765D02*
D03*
X03565D02*
D03*
X03965D02*
D03*
X04165D02*
D03*
X02565D02*
D03*
X02365D02*
D03*
X0396Y0156D02*
D03*
X0376D02*
D03*
X0216D02*
D03*
X0236D02*
D03*
X0276D02*
D03*
X0256D02*
D03*
X0336D02*
D03*
X0356D02*
D03*
X0316D02*
D03*
X0296D02*
D03*
D101*
X02455Y0279D02*
D03*
X0234Y027922D02*
D03*
D102*
X02455Y0289D02*
D03*
Y0299D02*
D03*
Y0309D02*
D03*
X0234Y030922D02*
D03*
Y029922D02*
D03*
Y028922D02*
D03*
X01855Y0408D02*
D03*
X01955D02*
D03*
X02055D02*
D03*
X02155D02*
D03*
X02255D02*
D03*
D103*
X03535Y0179D02*
D03*
Y020656D02*
D03*
X0372Y025183D02*
D03*
X03535D02*
D03*
X03125Y0179D02*
D03*
Y020656D02*
D03*
X0331Y025183D02*
D03*
X03125D02*
D03*
X027243Y025167D02*
D03*
X029093D02*
D03*
X027243Y020639D02*
D03*
Y017884D02*
D03*
D104*
X01755Y0408D02*
D03*
D105*
X0146Y037615D02*
D03*
Y035685D02*
D03*
D106*
X02085Y0446D02*
D03*
X01885D02*
D03*
Y0466D02*
D03*
X02085D02*
D03*
D107*
X01985Y0456D02*
D03*
D108*
X0419Y0302D02*
D03*
X0468D02*
D03*
D109*
X0419Y0282D02*
D03*
X0468D02*
D03*
D110*
X0144Y017897D02*
D03*
Y021303D02*
D03*
D111*
X016042Y017897D02*
D03*
Y021303D02*
D03*
D112*
X015849Y018462D02*
D03*
Y020738D02*
D03*
D113*
X022766Y0395D02*
D03*
Y039715D02*
D03*
X014361Y02795D02*
D03*
X013896D02*
D03*
X014365Y0301D02*
D03*
Y0295D02*
D03*
Y0289D02*
D03*
Y0284D02*
D03*
X0139Y0301D02*
D03*
Y0295D02*
D03*
X013885Y0289D02*
D03*
X0139Y0284D02*
D03*
X013885Y0305D02*
D03*
X01387Y031D02*
D03*
X013885Y0316D02*
D03*
Y0322D02*
D03*
X01793Y0278D02*
D03*
X017361Y027806D02*
D03*
X0168Y027832D02*
D03*
X016827Y0284D02*
D03*
X017378Y028459D02*
D03*
X01793D02*
D03*
Y029011D02*
D03*
X017378D02*
D03*
X016827D02*
D03*
X03945Y03435D02*
D03*
X01435Y0305D02*
D03*
Y031D02*
D03*
Y0316D02*
D03*
X0138Y04115D02*
D03*
X0399Y03915D02*
D03*
X028418Y0395D02*
D03*
X0225Y03825D02*
D03*
X02225D02*
D03*
Y03845D02*
D03*
X02035Y03795D02*
D03*
X0216Y021195D02*
D03*
X02055Y01895D02*
D03*
X0288Y0276D02*
D03*
X023839Y0364D02*
D03*
X02445Y03795D02*
D03*
X018205Y03485D02*
D03*
X015339Y024411D02*
D03*
X01535Y02595D02*
D03*
X030014Y035089D02*
D03*
X035766Y03655D02*
D03*
X033272Y036568D02*
D03*
X03065Y03655D02*
D03*
X02995Y0343D02*
D03*
X029875Y034621D02*
D03*
X042694Y041572D02*
D03*
X0424D02*
D03*
X04215D02*
D03*
X042694Y041809D02*
D03*
X0424Y041813D02*
D03*
X04215D02*
D03*
X042694Y04205D02*
D03*
X0424D02*
D03*
X04215D02*
D03*
X0296Y02825D02*
D03*
X033626D02*
D03*
X037Y0276D02*
D03*
X03725D02*
D03*
X032888D02*
D03*
X0331D02*
D03*
X02905D02*
D03*
X03625Y0292D02*
D03*
X03215D02*
D03*
X02815D02*
D03*
X0142Y03955D02*
D03*
X0212Y03525D02*
D03*
X02075Y03485D02*
D03*
X01985Y03215D02*
D03*
X01935D02*
D03*
X01745Y036535D02*
D03*
X0207Y0311D02*
D03*
X02105Y02225D02*
D03*
X016874Y023174D02*
D03*
X0177Y036535D02*
D03*
Y02335D02*
D03*
X01635Y03205D02*
D03*
X01585D02*
D03*
X0174Y0237D02*
D03*
X04535Y0422D02*
D03*
X0457Y04665D02*
D03*
X046161Y040289D02*
D03*
X04825Y0398D02*
D03*
X04805D02*
D03*
X04785D02*
D03*
X0428D02*
D03*
X04255D02*
D03*
X04305Y03505D02*
D03*
X04335D02*
D03*
Y0353D02*
D03*
X04305D02*
D03*
X01435Y0322D02*
D03*
X0158Y0201D02*
D03*
X0197Y01995D02*
D03*
X01975Y02045D02*
D03*
X0167Y0195D02*
D03*
X01585Y0197D02*
D03*
D114*
X0231Y037268D02*
D03*
X01488Y026D02*
D03*
X0399Y03435D02*
D03*
X037946D02*
D03*
D115*
X01455Y014473D02*
D03*
X048015D02*
D03*
Y045969D02*
D03*
X01455D02*
D03*
M02*
