M48
;Layer_Color=9474304
;FILE_FORMAT=2:4
INCH,LZ
;TYPE=PLATED
T1F00S00C0.0138
T2F00S00C0.0200
T4F00S00C0.0300
T5F00S00C0.0310
T6F00S00C0.0315
T7F00S00C0.0354
T8F00S00C0.0394
T9F00S00C0.0433
T10F00S00C0.0450
T11F00S00C0.0551
T13F00S00C0.1181
;TYPE=NON_PLATED
T14F00S00C0.0236
%
T01
X032888Y0276
X0331
X033626Y02825
X03215Y0292
X03625
X037Y0276
X03725
X02905
X0288
X0296Y02825
X02815Y0292
X0207Y0311
X01793Y029011
Y028459
X017378
X017378Y029011
X016827
X016827Y0284
X0168Y027832
X017361Y027806
X01793Y0278
X0174Y0237
X0177Y02335
X016874Y023174
X0167Y0195
X01585Y0197
X0158Y0201
X0197Y01995
X01975Y02045
X02055Y01895
X0216Y021195
X02105Y02225
X015339Y024411
X01535Y02595
X014361Y02795
X014365Y0284
X0139
X013896Y02795
X013885Y0289
X014365
Y0295
X0139
Y0301
X013885Y0305
X01435
X014365Y0301
X01435Y031
X01387
X013885Y0316
X01435
Y0322
X013885
X0142Y03955
X0138Y04115
X01745Y036535
X0177
X018205Y03485
X02075
X0212Y03525
X02035Y03795
X02225Y03825
Y03845
X0225Y03825
X022766Y0395
Y039715
X02445Y03795
X023839Y0364
X03065Y03655
X030014Y035089
X029875Y034621
X02995Y0343
X028418Y0395
X01985Y03215
X01935
X01635Y03205
X01585
X033272Y036568
X035766Y03655
X03945Y03435
X04305Y03505
Y0353
X04335
Y03505
X0428Y0398
X04255
X042694Y041572
Y041809
Y04205
X0424
Y041813
Y041572
X04215
Y041813
Y04205
X04535Y0422
X046161Y040289
X0457Y04665
X0399Y03915
X04785Y0398
X04805
X04825
T02
X01488Y026
X0231Y037268
X037946Y03435
X0399
T04
X04705Y02195
Y025887
X041932
Y02195
T05
X0342Y01865
Y02065
X03015
Y01865
X0261
Y02065
T06
X0146Y035685
Y037615
T07
X03125Y0179
Y020656
X03535
Y0179
Y025183
X0372
X0331
X03125
X029093Y025167
X027243
Y020639
Y017884
T08
X03895Y02205
X03955Y02405
X0419Y0282
Y0302
X0468
Y0282
X029197Y040089
X026197Y040084
T09
X0234Y027922
Y028922
Y029922
Y030922
X02455Y0309
Y0299
Y0289
Y0279
X02255Y0408
X02155
X02055
X01955
X01855
X01755
T10
X01885Y0446
X02085
Y0466
X01885
X01985Y0456
T11
X0216Y0156
X0236
X0256
X0276
X0296
X0316
X0336
X0356
X0376
X0396
X02965Y0448
X02765
X02565
X02365
X03165
X03365
X03565
X03765
X03965
X04165
T13
X01455Y014473
X048015
X01455Y045969
X048015
T14
X015849Y018462
Y020738
M30
