G04*
G04 #@! TF.GenerationSoftware,Altium Limited,Altium Designer,18.0.11 (651)*
G04*
G04 Layer_Color=16711935*
%FSTAX24Y24*%
%MOIN*%
G70*
G01*
G75*
%ADD11C,0.0079*%
%ADD16C,0.0039*%
%ADD17C,0.0050*%
%ADD18C,0.0120*%
G36*
X014183Y024141D02*
Y022959D01*
X014617D01*
Y024141D01*
X014183D01*
D02*
G37*
G36*
X016267Y022209D02*
Y023391D01*
X015833D01*
Y022209D01*
X016267D01*
D02*
G37*
G36*
X028059Y028967D02*
X029241D01*
Y028533D01*
X028059D01*
Y028967D01*
D02*
G37*
G36*
X023517Y037759D02*
Y038941D01*
X023083D01*
Y037759D01*
X023517D01*
D02*
G37*
G36*
X032085Y028967D02*
X033267D01*
Y028533D01*
X032085D01*
Y028967D01*
D02*
G37*
G36*
X036209D02*
X037391D01*
Y028533D01*
X036209D01*
Y028967D01*
D02*
G37*
G36*
X041719Y037008D02*
X041522D01*
Y037992D01*
X041719D01*
Y037008D01*
D02*
G37*
G36*
X044278Y037007D02*
X044083D01*
Y037992D01*
X044278D01*
Y037007D01*
D02*
G37*
D11*
X029814Y02405D02*
G03*
X029814Y02405I-000039J0D01*
G01*
X033814D02*
G03*
X033814Y02405I-000039J0D01*
G01*
X037914D02*
G03*
X037914Y02405I-000039J0D01*
G01*
X040889Y036017D02*
G03*
X040889Y036017I-000039J0D01*
G01*
X045022Y01965D02*
G03*
X045022Y01965I-000039J0D01*
G01*
X019922Y017434D02*
G03*
X019922Y017434I-000039J0D01*
G01*
X041933Y035346D02*
G03*
X041933Y035346I-000039J0D01*
G01*
X016802Y02086D02*
G03*
X016802Y02086I-000039J0D01*
G01*
X028059Y028967D02*
X029241D01*
X028059Y028533D02*
Y028967D01*
Y028533D02*
X029241D01*
Y028967D01*
X033267Y028533D02*
Y028967D01*
X032085Y028533D02*
X033267D01*
X032085D02*
Y028967D01*
X033267D01*
X037391Y028533D02*
Y028967D01*
X036209Y028533D02*
X037391D01*
X036209D02*
Y028967D01*
X037391D01*
X041346Y039188D02*
X042054D01*
Y040366D01*
X041346Y039188D02*
Y040366D01*
X042054D01*
X023517Y037759D02*
Y038941D01*
X023083Y037759D02*
X023517D01*
X023083D02*
Y038941D01*
X023517D01*
X037678Y025696D02*
Y026404D01*
X036222Y025696D02*
Y026404D01*
Y025696D02*
X037678D01*
X036222Y026404D02*
X037678D01*
X033578Y025696D02*
Y026404D01*
X032122Y025696D02*
Y026404D01*
Y025696D02*
X033578D01*
X032122Y026404D02*
X033578D01*
X028122D02*
X029578D01*
X028122Y025696D02*
X029578D01*
X028122D02*
Y026404D01*
X029578Y025696D02*
Y026404D01*
X015289Y039D02*
Y039708D01*
X014111D02*
X015289D01*
X014111Y039D02*
X015289D01*
X014111D02*
Y039708D01*
X024118Y019796D02*
Y020504D01*
X02294D02*
X024118D01*
X02294Y019796D02*
X024118D01*
X02294D02*
Y020504D01*
X024116Y020596D02*
Y021304D01*
X022938D02*
X024116D01*
X022938Y020596D02*
X024116D01*
X022938D02*
Y021304D01*
X043996Y030416D02*
X044704D01*
X043996Y029238D02*
Y030416D01*
X044704Y029238D02*
Y030416D01*
X043996Y029238D02*
X044704D01*
X045884Y038996D02*
Y039704D01*
Y038996D02*
X047062D01*
X045884Y039704D02*
X047062D01*
Y038996D02*
Y039704D01*
X014183Y022959D02*
Y024141D01*
X014617D01*
Y022959D02*
Y024141D01*
X014183Y022959D02*
X014617D01*
X016267Y022209D02*
Y023391D01*
X015833Y022209D02*
X016267D01*
X015833D02*
Y023391D01*
X016267D01*
D16*
X020961Y035236D02*
G03*
X020961Y035236I-000197J0D01*
G01*
X04232Y039893D02*
X04488D01*
X04232Y04131D02*
X04488D01*
X04232Y039893D02*
Y04131D01*
X04488Y039893D02*
Y04131D01*
X021119Y034881D02*
Y038819D01*
X017182Y034881D02*
Y038819D01*
Y034881D02*
X021119D01*
X017182Y038819D02*
X021119D01*
D17*
X029051Y0235D02*
Y0246D01*
X027349Y0235D02*
X029051D01*
X027349D02*
Y0246D01*
X029051D01*
X014525Y019824D02*
Y020376D01*
X015375Y019824D02*
Y020376D01*
X014525D02*
X015375D01*
X014525Y019824D02*
X015375D01*
X031349Y0246D02*
X033051D01*
X031349Y0235D02*
Y0246D01*
Y0235D02*
X033051D01*
Y0246D01*
X035449D02*
X037151D01*
X035449Y0235D02*
Y0246D01*
Y0235D02*
X037151D01*
Y0246D01*
X04Y035303D02*
X0417D01*
X04Y032597D02*
Y035303D01*
Y032597D02*
X0417D01*
Y035303D01*
X045697Y0188D02*
Y0205D01*
Y0188D02*
X048403D01*
Y0205D01*
X045697D02*
X048403D01*
X018032Y017731D02*
X019568D01*
X018032Y021669D02*
X019568D01*
Y017731D02*
Y021669D01*
X018032Y017731D02*
Y021669D01*
X044432Y03585D02*
X047944D01*
X044432Y03185D02*
Y03585D01*
Y03185D02*
X047944D01*
Y03585D01*
X033396Y035775D02*
Y036625D01*
X033947Y035775D02*
Y036625D01*
X033396D02*
X033947D01*
X033396Y035775D02*
X033947D01*
X034472D02*
Y036625D01*
X035023Y035775D02*
Y036625D01*
X034472D02*
X035023D01*
X034472Y035775D02*
X035023D01*
X036207Y031424D02*
X037057D01*
X036207Y031976D02*
X037057D01*
X036207Y031424D02*
Y031976D01*
X037057Y031424D02*
Y031976D01*
X035868Y035825D02*
Y036675D01*
X03642Y035825D02*
Y036675D01*
X035868D02*
X03642D01*
X035868Y035825D02*
X03642D01*
X036922D02*
Y036675D01*
X037473Y035825D02*
Y036675D01*
X036922D02*
X037473D01*
X036922Y035825D02*
X037473D01*
X022024Y042831D02*
X022576D01*
X022024Y04198D02*
X022576D01*
X022024D02*
Y042831D01*
X022576Y04198D02*
Y042831D01*
X023793Y03927D02*
Y039822D01*
X022943Y03927D02*
Y039822D01*
X023793D01*
X022943Y03927D02*
X023793D01*
X027625Y042524D02*
Y043076D01*
X028475Y042524D02*
Y043076D01*
X027625Y042524D02*
X028475D01*
X027625Y043076D02*
X028475D01*
X024125Y041674D02*
Y042226D01*
X023275Y041674D02*
Y042226D01*
X024125D01*
X023275Y041674D02*
X024125D01*
X036272Y042524D02*
X037122D01*
X036272Y043076D02*
X037122D01*
X036272Y042524D02*
Y043076D01*
X037122Y042524D02*
Y043076D01*
X036272Y041724D02*
X037122D01*
X036272Y042276D02*
X037122D01*
X036272Y041724D02*
Y042276D01*
X037122Y041724D02*
Y042276D01*
X03379Y042474D02*
X034641D01*
X03379Y043026D02*
X034641D01*
X03379Y042474D02*
Y043026D01*
X034641Y042474D02*
Y043026D01*
X03379Y041674D02*
X034641D01*
X03379Y042226D02*
X034641D01*
X03379Y041674D02*
Y042226D01*
X034641Y041674D02*
Y042226D01*
X031822Y035725D02*
X032373D01*
X031822Y036575D02*
X032373D01*
Y035725D02*
Y036575D01*
X031822Y035725D02*
Y036575D01*
X030768Y035725D02*
X03132D01*
X030768Y036575D02*
X03132D01*
Y035725D02*
Y036575D01*
X030768Y035725D02*
Y036575D01*
X031957Y042474D02*
Y043026D01*
X031106Y042474D02*
Y043026D01*
X031957D01*
X031106Y042474D02*
X031957D01*
Y041674D02*
Y042226D01*
X031106Y041674D02*
Y042226D01*
X031957D01*
X031106Y041674D02*
X031957D01*
X034924Y030025D02*
X035476D01*
X034924Y029175D02*
X035476D01*
X034924D02*
Y030025D01*
X035476Y029175D02*
Y030025D01*
X034937Y027775D02*
X035488D01*
X034937Y028625D02*
X035488D01*
Y027775D02*
Y028625D01*
X034937Y027775D02*
Y028625D01*
X033007Y031424D02*
Y031976D01*
X032157Y031424D02*
Y031976D01*
X033007D01*
X032157Y031424D02*
X033007D01*
X030824Y030025D02*
X031376D01*
X030824Y029175D02*
X031376D01*
X030824D02*
Y030025D01*
X031376Y029175D02*
Y030025D01*
X030837Y027775D02*
X031388D01*
X030837Y028625D02*
X031388D01*
Y027775D02*
Y028625D01*
X030837Y027775D02*
Y028625D01*
X028107Y031424D02*
X028957D01*
X028107Y031976D02*
X028957D01*
X028107Y031424D02*
Y031976D01*
X028957Y031424D02*
Y031976D01*
X027326Y029175D02*
Y030025D01*
X026774Y029175D02*
Y030025D01*
Y029175D02*
X027326D01*
X026774Y030025D02*
X027326D01*
X026774Y027775D02*
Y028625D01*
X027326Y027775D02*
Y028625D01*
X026774D02*
X027326D01*
X026774Y027775D02*
X027326D01*
X035893Y025774D02*
Y026326D01*
X035043Y025774D02*
Y026326D01*
X035893D01*
X035043Y025774D02*
X035893D01*
X031825Y02578D02*
Y026332D01*
X030975Y02578D02*
Y026332D01*
X031825D01*
X030975Y02578D02*
X031825D01*
X026907D02*
X027757D01*
X026907Y026332D02*
X027757D01*
X026907Y02578D02*
Y026332D01*
X027757Y02578D02*
Y026332D01*
X016226Y038625D02*
Y039475D01*
X015674Y038625D02*
Y039475D01*
Y038625D02*
X016226D01*
X015674Y039475D02*
X016226D01*
X021457Y019869D02*
X022307D01*
X021457Y02042D02*
X022307D01*
X021457Y019869D02*
Y02042D01*
X022307Y019869D02*
Y02042D01*
X021457Y020674D02*
X022307D01*
X021457Y021226D02*
X022307D01*
X021457Y020674D02*
Y021226D01*
X022307Y020674D02*
Y021226D01*
X013376Y02136D02*
X01627D01*
Y01784D02*
Y02136D01*
X013376Y01784D02*
X01627D01*
X013376D02*
Y02136D01*
X045075Y045774D02*
Y046326D01*
X045925Y045774D02*
Y046326D01*
X045075Y045774D02*
X045925D01*
X045075Y046326D02*
X045925D01*
X045075Y046574D02*
Y047126D01*
X045925Y046574D02*
Y047126D01*
X045075Y046574D02*
X045925D01*
X045075Y047126D02*
X045925D01*
X016475Y023674D02*
Y024226D01*
X015625Y023674D02*
Y024226D01*
X016475D01*
X015625Y023674D02*
X016475D01*
X014825Y022121D02*
Y022672D01*
X013975Y022121D02*
Y022672D01*
X014825D01*
X013975Y022121D02*
X014825D01*
D18*
X044081Y036614D02*
Y038386D01*
X041719Y036614D02*
Y038386D01*
M02*
