G04*
G04 #@! TF.GenerationSoftware,Altium Limited,Altium Designer,18.0.11 (651)*
G04*
G04 Layer_Color=2752767*
%FSTAX24Y24*%
%MOIN*%
G70*
G01*
G75*
%ADD123C,0.0020*%
%ADD124C,0.0027*%
%ADD125C,0.0013*%
D123*
X02602Y02057D02*
Y02073D01*
X02618D01*
Y02057D01*
X02602D01*
Y01857D02*
Y01873D01*
X02618D01*
Y01857D01*
X02602D01*
X03895Y02197D02*
X03887Y02213D01*
X03903D01*
X03895Y02197D01*
X03955Y02397D02*
X03947Y02413D01*
X03963D01*
X03955Y02397D01*
X041932Y02187D02*
X041972Y02191D01*
X042012D01*
X041972Y02195D01*
X042012Y02199D01*
X041972D01*
X041932Y02203D01*
X041892Y02199D01*
X041852D01*
X041892Y02195D01*
X041852Y02191D01*
X041892D01*
X041932Y02187D01*
X04705D02*
X04709Y02191D01*
X04713D01*
X04709Y02195D01*
X04713Y02199D01*
X04709D01*
X04705Y02203D01*
X04701Y02199D01*
X04697D01*
X04701Y02195D01*
X04697Y02191D01*
X04701D01*
X04705Y02187D01*
X041932D02*
X041972Y02191D01*
X042012D01*
X041972Y02195D01*
X042012Y02199D01*
X041972D01*
X041932Y02203D01*
X041892Y02199D01*
X041852D01*
X041892Y02195D01*
X041852Y02191D01*
X041892D01*
X041932Y02187D01*
X04705D02*
X04709Y02191D01*
X04713D01*
X04709Y02195D01*
X04713Y02199D01*
X04709D01*
X04705Y02203D01*
X04701Y02199D01*
X04697D01*
X04701Y02195D01*
X04697Y02191D01*
X04701D01*
X04705Y02187D01*
X041932Y025807D02*
X041972Y025847D01*
X042012D01*
X041972Y025887D01*
X042012Y025927D01*
X041972D01*
X041932Y025967D01*
X041892Y025927D01*
X041852D01*
X041892Y025887D01*
X041852Y025847D01*
X041892D01*
X041932Y025807D01*
X04705D02*
X04709Y025847D01*
X04713D01*
X04709Y025887D01*
X04713Y025927D01*
X04709D01*
X04705Y025967D01*
X04701Y025927D01*
X04697D01*
X04701Y025887D01*
X04697Y025847D01*
X04701D01*
X04705Y025807D01*
X03007Y02057D02*
Y02073D01*
X03023D01*
Y02057D01*
X03007D01*
Y01857D02*
Y01873D01*
X03023D01*
Y01857D01*
X03007D01*
X03412Y02057D02*
Y02073D01*
X03428D01*
Y02057D01*
X03412D01*
Y01857D02*
Y01873D01*
X03428D01*
Y01857D01*
X03412D01*
X026197Y040004D02*
X026117Y040164D01*
X026277D01*
X026197Y040004D01*
X029197Y040009D02*
X029117Y040169D01*
X029277D01*
X029197Y040009D01*
X03357Y04472D02*
X03361Y0448D01*
X03357Y04488D01*
X03365Y04484D01*
X03373Y04488D01*
X03369Y0448D01*
X03373Y04472D01*
X03365Y04476D01*
X03357Y04472D01*
X03157D02*
X03161Y0448D01*
X03157Y04488D01*
X03165Y04484D01*
X03173Y04488D01*
X03169Y0448D01*
X03173Y04472D01*
X03165Y04476D01*
X03157Y04472D01*
X02757D02*
X02761Y0448D01*
X02757Y04488D01*
X02765Y04484D01*
X02773Y04488D01*
X02769Y0448D01*
X02773Y04472D01*
X02765Y04476D01*
X02757Y04472D01*
X02957D02*
X02961Y0448D01*
X02957Y04488D01*
X02965Y04484D01*
X02973Y04488D01*
X02969Y0448D01*
X02973Y04472D01*
X02965Y04476D01*
X02957Y04472D01*
X03757D02*
X03761Y0448D01*
X03757Y04488D01*
X03765Y04484D01*
X03773Y04488D01*
X03769Y0448D01*
X03773Y04472D01*
X03765Y04476D01*
X03757Y04472D01*
X03557D02*
X03561Y0448D01*
X03557Y04488D01*
X03565Y04484D01*
X03573Y04488D01*
X03569Y0448D01*
X03573Y04472D01*
X03565Y04476D01*
X03557Y04472D01*
X03957D02*
X03961Y0448D01*
X03957Y04488D01*
X03965Y04484D01*
X03973Y04488D01*
X03969Y0448D01*
X03973Y04472D01*
X03965Y04476D01*
X03957Y04472D01*
X04157D02*
X04161Y0448D01*
X04157Y04488D01*
X04165Y04484D01*
X04173Y04488D01*
X04169Y0448D01*
X04173Y04472D01*
X04165Y04476D01*
X04157Y04472D01*
X02557D02*
X02561Y0448D01*
X02557Y04488D01*
X02565Y04484D01*
X02573Y04488D01*
X02569Y0448D01*
X02573Y04472D01*
X02565Y04476D01*
X02557Y04472D01*
X02357D02*
X02361Y0448D01*
X02357Y04488D01*
X02365Y04484D01*
X02373Y04488D01*
X02369Y0448D01*
X02373Y04472D01*
X02365Y04476D01*
X02357Y04472D01*
X03952Y01552D02*
X03956Y0156D01*
X03952Y01568D01*
X0396Y01564D01*
X03968Y01568D01*
X03964Y0156D01*
X03968Y01552D01*
X0396Y01556D01*
X03952Y01552D01*
X03752D02*
X03756Y0156D01*
X03752Y01568D01*
X0376Y01564D01*
X03768Y01568D01*
X03764Y0156D01*
X03768Y01552D01*
X0376Y01556D01*
X03752Y01552D01*
X02152D02*
X02156Y0156D01*
X02152Y01568D01*
X0216Y01564D01*
X02168Y01568D01*
X02164Y0156D01*
X02168Y01552D01*
X0216Y01556D01*
X02152Y01552D01*
X02352D02*
X02356Y0156D01*
X02352Y01568D01*
X0236Y01564D01*
X02368Y01568D01*
X02364Y0156D01*
X02368Y01552D01*
X0236Y01556D01*
X02352Y01552D01*
X02752D02*
X02756Y0156D01*
X02752Y01568D01*
X0276Y01564D01*
X02768Y01568D01*
X02764Y0156D01*
X02768Y01552D01*
X0276Y01556D01*
X02752Y01552D01*
X02552D02*
X02556Y0156D01*
X02552Y01568D01*
X0256Y01564D01*
X02568Y01568D01*
X02564Y0156D01*
X02568Y01552D01*
X0256Y01556D01*
X02552Y01552D01*
X03352D02*
X03356Y0156D01*
X03352Y01568D01*
X0336Y01564D01*
X03368Y01568D01*
X03364Y0156D01*
X03368Y01552D01*
X0336Y01556D01*
X03352Y01552D01*
X03552D02*
X03556Y0156D01*
X03552Y01568D01*
X0356Y01564D01*
X03568Y01568D01*
X03564Y0156D01*
X03568Y01552D01*
X0356Y01556D01*
X03552Y01552D01*
X03152D02*
X03156Y0156D01*
X03152Y01568D01*
X0316Y01564D01*
X03168Y01568D01*
X03164Y0156D01*
X03168Y01552D01*
X0316Y01556D01*
X03152Y01552D01*
X02952D02*
X02956Y0156D01*
X02952Y01568D01*
X0296Y01564D01*
X02968Y01568D01*
X02964Y0156D01*
X02968Y01552D01*
X0296Y01556D01*
X02952Y01552D01*
X02451Y02786D02*
Y02782D01*
X02459D01*
Y02786D01*
X02463D01*
Y02794D01*
X02459D01*
Y02798D01*
X02451D01*
Y02794D01*
X02447D01*
Y02786D01*
X02451D01*
Y02886D02*
Y02882D01*
X02459D01*
Y02886D01*
X02463D01*
Y02894D01*
X02459D01*
Y02898D01*
X02451D01*
Y02894D01*
X02447D01*
Y02886D01*
X02451D01*
Y02986D02*
Y02982D01*
X02459D01*
Y02986D01*
X02463D01*
Y02994D01*
X02459D01*
Y02998D01*
X02451D01*
Y02994D01*
X02447D01*
Y02986D01*
X02451D01*
Y03086D02*
Y03082D01*
X02459D01*
Y03086D01*
X02463D01*
Y03094D01*
X02459D01*
Y03098D01*
X02451D01*
Y03094D01*
X02447D01*
Y03086D01*
X02451D01*
X02336Y030882D02*
Y030842D01*
X02344D01*
Y030882D01*
X02348D01*
Y030962D01*
X02344D01*
Y031002D01*
X02336D01*
Y030962D01*
X02332D01*
Y030882D01*
X02336D01*
Y029882D02*
Y029842D01*
X02344D01*
Y029882D01*
X02348D01*
Y029962D01*
X02344D01*
Y030002D01*
X02336D01*
Y029962D01*
X02332D01*
Y029882D01*
X02336D01*
Y028882D02*
Y028842D01*
X02344D01*
Y028882D01*
X02348D01*
Y028962D01*
X02344D01*
Y029002D01*
X02336D01*
Y028962D01*
X02332D01*
Y028882D01*
X02336D01*
Y027882D02*
Y027842D01*
X02344D01*
Y027882D01*
X02348D01*
Y027962D01*
X02344D01*
Y028002D01*
X02336D01*
Y027962D01*
X02332D01*
Y027882D01*
X02336D01*
X03527Y01782D02*
X03531D01*
X03535Y01786D01*
X03539Y01782D01*
X03543D01*
Y01786D01*
X03539Y0179D01*
X03543Y01794D01*
Y01798D01*
X03539D01*
X03535Y01794D01*
X03531Y01798D01*
X03527D01*
Y01794D01*
X03531Y0179D01*
X03527Y01786D01*
Y01782D01*
Y020576D02*
X03531D01*
X03535Y020616D01*
X03539Y020576D01*
X03543D01*
Y020616D01*
X03539Y020656D01*
X03543Y020696D01*
Y020736D01*
X03539D01*
X03535Y020696D01*
X03531Y020736D01*
X03527D01*
Y020696D01*
X03531Y020656D01*
X03527Y020616D01*
Y020576D01*
X03712Y025103D02*
X03716D01*
X0372Y025143D01*
X03724Y025103D01*
X03728D01*
Y025143D01*
X03724Y025183D01*
X03728Y025223D01*
Y025263D01*
X03724D01*
X0372Y025223D01*
X03716Y025263D01*
X03712D01*
Y025223D01*
X03716Y025183D01*
X03712Y025143D01*
Y025103D01*
X03527D02*
X03531D01*
X03535Y025143D01*
X03539Y025103D01*
X03543D01*
Y025143D01*
X03539Y025183D01*
X03543Y025223D01*
Y025263D01*
X03539D01*
X03535Y025223D01*
X03531Y025263D01*
X03527D01*
Y025223D01*
X03531Y025183D01*
X03527Y025143D01*
Y025103D01*
X03117Y01782D02*
X03121D01*
X03125Y01786D01*
X03129Y01782D01*
X03133D01*
Y01786D01*
X03129Y0179D01*
X03133Y01794D01*
Y01798D01*
X03129D01*
X03125Y01794D01*
X03121Y01798D01*
X03117D01*
Y01794D01*
X03121Y0179D01*
X03117Y01786D01*
Y01782D01*
Y020576D02*
X03121D01*
X03125Y020616D01*
X03129Y020576D01*
X03133D01*
Y020616D01*
X03129Y020656D01*
X03133Y020696D01*
Y020736D01*
X03129D01*
X03125Y020696D01*
X03121Y020736D01*
X03117D01*
Y020696D01*
X03121Y020656D01*
X03117Y020616D01*
Y020576D01*
X03302Y025103D02*
X03306D01*
X0331Y025143D01*
X03314Y025103D01*
X03318D01*
Y025143D01*
X03314Y025183D01*
X03318Y025223D01*
Y025263D01*
X03314D01*
X0331Y025223D01*
X03306Y025263D01*
X03302D01*
Y025223D01*
X03306Y025183D01*
X03302Y025143D01*
Y025103D01*
X03117D02*
X03121D01*
X03125Y025143D01*
X03129Y025103D01*
X03133D01*
Y025143D01*
X03129Y025183D01*
X03133Y025223D01*
Y025263D01*
X03129D01*
X03125Y025223D01*
X03121Y025263D01*
X03117D01*
Y025223D01*
X03121Y025183D01*
X03117Y025143D01*
Y025103D01*
X027163Y025087D02*
X027203D01*
X027243Y025127D01*
X027283Y025087D01*
X027323D01*
Y025127D01*
X027283Y025167D01*
X027323Y025207D01*
Y025247D01*
X027283D01*
X027243Y025207D01*
X027203Y025247D01*
X027163D01*
Y025207D01*
X027203Y025167D01*
X027163Y025127D01*
Y025087D01*
X029013D02*
X029053D01*
X029093Y025127D01*
X029133Y025087D01*
X029173D01*
Y025127D01*
X029133Y025167D01*
X029173Y025207D01*
Y025247D01*
X029133D01*
X029093Y025207D01*
X029053Y025247D01*
X029013D01*
Y025207D01*
X029053Y025167D01*
X029013Y025127D01*
Y025087D01*
X027163Y020559D02*
X027203D01*
X027243Y020599D01*
X027283Y020559D01*
X027323D01*
Y020599D01*
X027283Y020639D01*
X027323Y020679D01*
Y020719D01*
X027283D01*
X027243Y020679D01*
X027203Y020719D01*
X027163D01*
Y020679D01*
X027203Y020639D01*
X027163Y020599D01*
Y020559D01*
Y017804D02*
X027203D01*
X027243Y017844D01*
X027283Y017804D01*
X027323D01*
Y017844D01*
X027283Y017884D01*
X027323Y017924D01*
Y017964D01*
X027283D01*
X027243Y017924D01*
X027203Y017964D01*
X027163D01*
Y017924D01*
X027203Y017884D01*
X027163Y017844D01*
Y017804D01*
X01751Y04076D02*
Y04072D01*
X01759D01*
Y04076D01*
X01763D01*
Y04084D01*
X01759D01*
Y04088D01*
X01751D01*
Y04084D01*
X01747D01*
Y04076D01*
X01751D01*
X01851D02*
Y04072D01*
X01859D01*
Y04076D01*
X01863D01*
Y04084D01*
X01859D01*
Y04088D01*
X01851D01*
Y04084D01*
X01847D01*
Y04076D01*
X01851D01*
X01951D02*
Y04072D01*
X01959D01*
Y04076D01*
X01963D01*
Y04084D01*
X01959D01*
Y04088D01*
X01951D01*
Y04084D01*
X01947D01*
Y04076D01*
X01951D01*
X02051D02*
Y04072D01*
X02059D01*
Y04076D01*
X02063D01*
Y04084D01*
X02059D01*
Y04088D01*
X02051D01*
Y04084D01*
X02047D01*
Y04076D01*
X02051D01*
X02151D02*
Y04072D01*
X02159D01*
Y04076D01*
X02163D01*
Y04084D01*
X02159D01*
Y04088D01*
X02151D01*
Y04084D01*
X02147D01*
Y04076D01*
X02151D01*
X02251D02*
Y04072D01*
X02259D01*
Y04076D01*
X02263D01*
Y04084D01*
X02259D01*
Y04088D01*
X02251D01*
Y04084D01*
X02247D01*
Y04076D01*
X02251D01*
X01452Y037615D02*
X0146Y037695D01*
X01468Y037615D01*
X0146Y037535D01*
X01452Y037615D01*
Y035685D02*
X0146Y035765D01*
X01468Y035685D01*
X0146Y035605D01*
X01452Y035685D01*
X02077Y04452D02*
Y04468D01*
X02093D01*
Y04452D01*
X02077D01*
X02081Y04456D02*
Y04464D01*
X02089D01*
Y04456D01*
X02081D01*
X01877Y04452D02*
Y04468D01*
X01893D01*
Y04452D01*
X01877D01*
X01881Y04456D02*
Y04464D01*
X01889D01*
Y04456D01*
X01881D01*
X01877Y04652D02*
Y04668D01*
X01893D01*
Y04652D01*
X01877D01*
X01881Y04656D02*
Y04664D01*
X01889D01*
Y04656D01*
X01881D01*
X02077Y04652D02*
Y04668D01*
X02093D01*
Y04652D01*
X02077D01*
X02081Y04656D02*
Y04664D01*
X02089D01*
Y04656D01*
X02081D01*
X01977Y04552D02*
Y04568D01*
X01993D01*
Y04552D01*
X01977D01*
X01981Y04556D02*
Y04564D01*
X01989D01*
Y04556D01*
X01981D01*
X0419Y03012D02*
X04182Y03028D01*
X04198D01*
X0419Y03012D01*
Y02812D02*
X04182Y02828D01*
X04198D01*
X0419Y02812D01*
X0468Y03012D02*
X04672Y03028D01*
X04688D01*
X0468Y03012D01*
Y02812D02*
X04672Y02828D01*
X04688D01*
X0468Y02812D01*
X016042Y017817D02*
X015962Y017977D01*
X016122D01*
X016042Y017817D01*
Y017857D02*
X016002Y017937D01*
X016082D01*
X016042Y017857D01*
Y021223D02*
X015962Y021383D01*
X016122D01*
X016042Y021223D01*
Y021263D02*
X016002Y021343D01*
X016082D01*
X016042Y021263D01*
X015849Y018382D02*
X015889Y018422D01*
X015929D01*
X015889Y018462D01*
X015929Y018502D01*
X015889D01*
X015849Y018542D01*
X015809Y018502D01*
X015769D01*
X015809Y018462D01*
X015769Y018422D01*
X015809D01*
X015849Y018382D01*
Y018422D02*
X015869Y018442D01*
X015889D01*
X015869Y018462D01*
X015889Y018482D01*
X015869D01*
X015849Y018502D01*
X015829Y018482D01*
X015809D01*
X015829Y018462D01*
X015809Y018442D01*
X015829D01*
X015849Y018422D01*
Y020658D02*
X015889Y020698D01*
X015929D01*
X015889Y020738D01*
X015929Y020778D01*
X015889D01*
X015849Y020818D01*
X015809Y020778D01*
X015769D01*
X015809Y020738D01*
X015769Y020698D01*
X015809D01*
X015849Y020658D01*
Y020698D02*
X015869Y020718D01*
X015889D01*
X015869Y020738D01*
X015889Y020758D01*
X015869D01*
X015849Y020778D01*
X015829Y020758D01*
X015809D01*
X015829Y020738D01*
X015809Y020718D01*
X015829D01*
X015849Y020698D01*
X022686Y03942D02*
X022726Y0395D01*
X022686Y03958D01*
X022766Y03954D01*
X022846Y03958D01*
X022806Y0395D01*
X022846Y03942D01*
X022766Y03946D01*
X022686Y03942D01*
X022726Y03946D02*
X022746Y0395D01*
X022726Y03954D01*
X022766Y03952D01*
X022806Y03954D01*
X022786Y0395D01*
X022806Y03946D01*
X022766Y03948D01*
X022726Y03946D01*
X022686Y039635D02*
X022726Y039715D01*
X022686Y039795D01*
X022766Y039755D01*
X022846Y039795D01*
X022806Y039715D01*
X022846Y039635D01*
X022766Y039675D01*
X022686Y039635D01*
X022726Y039675D02*
X022746Y039715D01*
X022726Y039755D01*
X022766Y039735D01*
X022806Y039755D01*
X022786Y039715D01*
X022806Y039675D01*
X022766Y039695D01*
X022726Y039675D01*
X02306Y037228D02*
Y037188D01*
X02314D01*
Y037228D01*
X02318D01*
Y037308D01*
X02314D01*
Y037348D01*
X02306D01*
Y037308D01*
X02302D01*
Y037228D01*
X02306D01*
X02308Y037248D02*
Y037228D01*
X02312D01*
Y037248D01*
X02314D01*
Y037288D01*
X02312D01*
Y037308D01*
X02308D01*
Y037288D01*
X02306D01*
Y037248D01*
X02308D01*
X014281Y02787D02*
X014321Y02795D01*
X014281Y02803D01*
X014361Y02799D01*
X014441Y02803D01*
X014401Y02795D01*
X014441Y02787D01*
X014361Y02791D01*
X014281Y02787D01*
X014321Y02791D02*
X014341Y02795D01*
X014321Y02799D01*
X014361Y02797D01*
X014401Y02799D01*
X014381Y02795D01*
X014401Y02791D01*
X014361Y02793D01*
X014321Y02791D01*
X013816Y02787D02*
X013856Y02795D01*
X013816Y02803D01*
X013896Y02799D01*
X013976Y02803D01*
X013936Y02795D01*
X013976Y02787D01*
X013896Y02791D01*
X013816Y02787D01*
X013856Y02791D02*
X013876Y02795D01*
X013856Y02799D01*
X013896Y02797D01*
X013936Y02799D01*
X013916Y02795D01*
X013936Y02791D01*
X013896Y02793D01*
X013856Y02791D01*
X014285Y03002D02*
X014325Y0301D01*
X014285Y03018D01*
X014365Y03014D01*
X014445Y03018D01*
X014405Y0301D01*
X014445Y03002D01*
X014365Y03006D01*
X014285Y03002D01*
X014325Y03006D02*
X014345Y0301D01*
X014325Y03014D01*
X014365Y03012D01*
X014405Y03014D01*
X014385Y0301D01*
X014405Y03006D01*
X014365Y03008D01*
X014325Y03006D01*
X014285Y02942D02*
X014325Y0295D01*
X014285Y02958D01*
X014365Y02954D01*
X014445Y02958D01*
X014405Y0295D01*
X014445Y02942D01*
X014365Y02946D01*
X014285Y02942D01*
X014325Y02946D02*
X014345Y0295D01*
X014325Y02954D01*
X014365Y02952D01*
X014405Y02954D01*
X014385Y0295D01*
X014405Y02946D01*
X014365Y02948D01*
X014325Y02946D01*
X014285Y02882D02*
X014325Y0289D01*
X014285Y02898D01*
X014365Y02894D01*
X014445Y02898D01*
X014405Y0289D01*
X014445Y02882D01*
X014365Y02886D01*
X014285Y02882D01*
X014325Y02886D02*
X014345Y0289D01*
X014325Y02894D01*
X014365Y02892D01*
X014405Y02894D01*
X014385Y0289D01*
X014405Y02886D01*
X014365Y02888D01*
X014325Y02886D01*
X014285Y02832D02*
X014325Y0284D01*
X014285Y02848D01*
X014365Y02844D01*
X014445Y02848D01*
X014405Y0284D01*
X014445Y02832D01*
X014365Y02836D01*
X014285Y02832D01*
X014325Y02836D02*
X014345Y0284D01*
X014325Y02844D01*
X014365Y02842D01*
X014405Y02844D01*
X014385Y0284D01*
X014405Y02836D01*
X014365Y02838D01*
X014325Y02836D01*
X01382Y03002D02*
X01386Y0301D01*
X01382Y03018D01*
X0139Y03014D01*
X01398Y03018D01*
X01394Y0301D01*
X01398Y03002D01*
X0139Y03006D01*
X01382Y03002D01*
X01386Y03006D02*
X01388Y0301D01*
X01386Y03014D01*
X0139Y03012D01*
X01394Y03014D01*
X01392Y0301D01*
X01394Y03006D01*
X0139Y03008D01*
X01386Y03006D01*
X01382Y02942D02*
X01386Y0295D01*
X01382Y02958D01*
X0139Y02954D01*
X01398Y02958D01*
X01394Y0295D01*
X01398Y02942D01*
X0139Y02946D01*
X01382Y02942D01*
X01386Y02946D02*
X01388Y0295D01*
X01386Y02954D01*
X0139Y02952D01*
X01394Y02954D01*
X01392Y0295D01*
X01394Y02946D01*
X0139Y02948D01*
X01386Y02946D01*
X013805Y02882D02*
X013845Y0289D01*
X013805Y02898D01*
X013885Y02894D01*
X013965Y02898D01*
X013925Y0289D01*
X013965Y02882D01*
X013885Y02886D01*
X013805Y02882D01*
X013845Y02886D02*
X013865Y0289D01*
X013845Y02894D01*
X013885Y02892D01*
X013925Y02894D01*
X013905Y0289D01*
X013925Y02886D01*
X013885Y02888D01*
X013845Y02886D01*
X01382Y02832D02*
X01386Y0284D01*
X01382Y02848D01*
X0139Y02844D01*
X01398Y02848D01*
X01394Y0284D01*
X01398Y02832D01*
X0139Y02836D01*
X01382Y02832D01*
X01386Y02836D02*
X01388Y0284D01*
X01386Y02844D01*
X0139Y02842D01*
X01394Y02844D01*
X01392Y0284D01*
X01394Y02836D01*
X0139Y02838D01*
X01386Y02836D01*
X013805Y03042D02*
X013845Y0305D01*
X013805Y03058D01*
X013885Y03054D01*
X013965Y03058D01*
X013925Y0305D01*
X013965Y03042D01*
X013885Y03046D01*
X013805Y03042D01*
X013845Y03046D02*
X013865Y0305D01*
X013845Y03054D01*
X013885Y03052D01*
X013925Y03054D01*
X013905Y0305D01*
X013925Y03046D01*
X013885Y03048D01*
X013845Y03046D01*
X01379Y03092D02*
X01383Y031D01*
X01379Y03108D01*
X01387Y03104D01*
X01395Y03108D01*
X01391Y031D01*
X01395Y03092D01*
X01387Y03096D01*
X01379Y03092D01*
X01383Y03096D02*
X01385Y031D01*
X01383Y03104D01*
X01387Y03102D01*
X01391Y03104D01*
X01389Y031D01*
X01391Y03096D01*
X01387Y03098D01*
X01383Y03096D01*
X013805Y03152D02*
X013845Y0316D01*
X013805Y03168D01*
X013885Y03164D01*
X013965Y03168D01*
X013925Y0316D01*
X013965Y03152D01*
X013885Y03156D01*
X013805Y03152D01*
X013845Y03156D02*
X013865Y0316D01*
X013845Y03164D01*
X013885Y03162D01*
X013925Y03164D01*
X013905Y0316D01*
X013925Y03156D01*
X013885Y03158D01*
X013845Y03156D01*
X013805Y03212D02*
X013845Y0322D01*
X013805Y03228D01*
X013885Y03224D01*
X013965Y03228D01*
X013925Y0322D01*
X013965Y03212D01*
X013885Y03216D01*
X013805Y03212D01*
X013845Y03216D02*
X013865Y0322D01*
X013845Y03224D01*
X013885Y03222D01*
X013925Y03224D01*
X013905Y0322D01*
X013925Y03216D01*
X013885Y03218D01*
X013845Y03216D01*
X01785Y02772D02*
X01789Y0278D01*
X01785Y02788D01*
X01793Y02784D01*
X01801Y02788D01*
X01797Y0278D01*
X01801Y02772D01*
X01793Y02776D01*
X01785Y02772D01*
X01789Y02776D02*
X01791Y0278D01*
X01789Y02784D01*
X01793Y02782D01*
X01797Y02784D01*
X01795Y0278D01*
X01797Y02776D01*
X01793Y02778D01*
X01789Y02776D01*
X017281Y027726D02*
X017321Y027806D01*
X017281Y027886D01*
X017361Y027846D01*
X017441Y027886D01*
X017401Y027806D01*
X017441Y027726D01*
X017361Y027766D01*
X017281Y027726D01*
X017321Y027766D02*
X017341Y027806D01*
X017321Y027846D01*
X017361Y027826D01*
X017401Y027846D01*
X017381Y027806D01*
X017401Y027766D01*
X017361Y027786D01*
X017321Y027766D01*
X01672Y027752D02*
X01676Y027832D01*
X01672Y027912D01*
X0168Y027872D01*
X01688Y027912D01*
X01684Y027832D01*
X01688Y027752D01*
X0168Y027792D01*
X01672Y027752D01*
X01676Y027792D02*
X01678Y027832D01*
X01676Y027872D01*
X0168Y027852D01*
X01684Y027872D01*
X01682Y027832D01*
X01684Y027792D01*
X0168Y027812D01*
X01676Y027792D01*
X016747Y02832D02*
X016787Y0284D01*
X016747Y02848D01*
X016827Y02844D01*
X016907Y02848D01*
X016867Y0284D01*
X016907Y02832D01*
X016827Y02836D01*
X016747Y02832D01*
X016787Y02836D02*
X016807Y0284D01*
X016787Y02844D01*
X016827Y02842D01*
X016867Y02844D01*
X016847Y0284D01*
X016867Y02836D01*
X016827Y02838D01*
X016787Y02836D01*
X017298Y028379D02*
X017338Y028459D01*
X017298Y028539D01*
X017378Y028499D01*
X017458Y028539D01*
X017418Y028459D01*
X017458Y028379D01*
X017378Y028419D01*
X017298Y028379D01*
X017338Y028419D02*
X017358Y028459D01*
X017338Y028499D01*
X017378Y028479D01*
X017418Y028499D01*
X017398Y028459D01*
X017418Y028419D01*
X017378Y028439D01*
X017338Y028419D01*
X01785Y028379D02*
X01789Y028459D01*
X01785Y028539D01*
X01793Y028499D01*
X01801Y028539D01*
X01797Y028459D01*
X01801Y028379D01*
X01793Y028419D01*
X01785Y028379D01*
X01789Y028419D02*
X01791Y028459D01*
X01789Y028499D01*
X01793Y028479D01*
X01797Y028499D01*
X01795Y028459D01*
X01797Y028419D01*
X01793Y028439D01*
X01789Y028419D01*
X01785Y028931D02*
X01789Y029011D01*
X01785Y029091D01*
X01793Y029051D01*
X01801Y029091D01*
X01797Y029011D01*
X01801Y028931D01*
X01793Y028971D01*
X01785Y028931D01*
X01789Y028971D02*
X01791Y029011D01*
X01789Y029051D01*
X01793Y029031D01*
X01797Y029051D01*
X01795Y029011D01*
X01797Y028971D01*
X01793Y028991D01*
X01789Y028971D01*
X017298Y028931D02*
X017338Y029011D01*
X017298Y029091D01*
X017378Y029051D01*
X017458Y029091D01*
X017418Y029011D01*
X017458Y028931D01*
X017378Y028971D01*
X017298Y028931D01*
X017338Y028971D02*
X017358Y029011D01*
X017338Y029051D01*
X017378Y029031D01*
X017418Y029051D01*
X017398Y029011D01*
X017418Y028971D01*
X017378Y028991D01*
X017338Y028971D01*
X016747Y028931D02*
X016787Y029011D01*
X016747Y029091D01*
X016827Y029051D01*
X016907Y029091D01*
X016867Y029011D01*
X016907Y028931D01*
X016827Y028971D01*
X016747Y028931D01*
X016787Y028971D02*
X016807Y029011D01*
X016787Y029051D01*
X016827Y029031D01*
X016867Y029051D01*
X016847Y029011D01*
X016867Y028971D01*
X016827Y028991D01*
X016787Y028971D01*
X03937Y03427D02*
X03941Y03435D01*
X03937Y03443D01*
X03945Y03439D01*
X03953Y03443D01*
X03949Y03435D01*
X03953Y03427D01*
X03945Y03431D01*
X03937Y03427D01*
X03941Y03431D02*
X03943Y03435D01*
X03941Y03439D01*
X03945Y03437D01*
X03949Y03439D01*
X03947Y03435D01*
X03949Y03431D01*
X03945Y03433D01*
X03941Y03431D01*
X01427Y03042D02*
X01431Y0305D01*
X01427Y03058D01*
X01435Y03054D01*
X01443Y03058D01*
X01439Y0305D01*
X01443Y03042D01*
X01435Y03046D01*
X01427Y03042D01*
X01431Y03046D02*
X01433Y0305D01*
X01431Y03054D01*
X01435Y03052D01*
X01439Y03054D01*
X01437Y0305D01*
X01439Y03046D01*
X01435Y03048D01*
X01431Y03046D01*
X01427Y03092D02*
X01431Y031D01*
X01427Y03108D01*
X01435Y03104D01*
X01443Y03108D01*
X01439Y031D01*
X01443Y03092D01*
X01435Y03096D01*
X01427Y03092D01*
X01431Y03096D02*
X01433Y031D01*
X01431Y03104D01*
X01435Y03102D01*
X01439Y03104D01*
X01437Y031D01*
X01439Y03096D01*
X01435Y03098D01*
X01431Y03096D01*
X01427Y03152D02*
X01431Y0316D01*
X01427Y03168D01*
X01435Y03164D01*
X01443Y03168D01*
X01439Y0316D01*
X01443Y03152D01*
X01435Y03156D01*
X01427Y03152D01*
X01431Y03156D02*
X01433Y0316D01*
X01431Y03164D01*
X01435Y03162D01*
X01439Y03164D01*
X01437Y0316D01*
X01439Y03156D01*
X01435Y03158D01*
X01431Y03156D01*
X01372Y04107D02*
X01376Y04115D01*
X01372Y04123D01*
X0138Y04119D01*
X01388Y04123D01*
X01384Y04115D01*
X01388Y04107D01*
X0138Y04111D01*
X01372Y04107D01*
X01376Y04111D02*
X01378Y04115D01*
X01376Y04119D01*
X0138Y04117D01*
X01384Y04119D01*
X01382Y04115D01*
X01384Y04111D01*
X0138Y04113D01*
X01376Y04111D01*
X03982Y03907D02*
X03986Y03915D01*
X03982Y03923D01*
X0399Y03919D01*
X03998Y03923D01*
X03994Y03915D01*
X03998Y03907D01*
X0399Y03911D01*
X03982Y03907D01*
X03986Y03911D02*
X03988Y03915D01*
X03986Y03919D01*
X0399Y03917D01*
X03994Y03919D01*
X03992Y03915D01*
X03994Y03911D01*
X0399Y03913D01*
X03986Y03911D01*
X028338Y03942D02*
X028378Y0395D01*
X028338Y03958D01*
X028418Y03954D01*
X028498Y03958D01*
X028458Y0395D01*
X028498Y03942D01*
X028418Y03946D01*
X028338Y03942D01*
X028378Y03946D02*
X028398Y0395D01*
X028378Y03954D01*
X028418Y03952D01*
X028458Y03954D01*
X028438Y0395D01*
X028458Y03946D01*
X028418Y03948D01*
X028378Y03946D01*
X02242Y03817D02*
X02246Y03825D01*
X02242Y03833D01*
X0225Y03829D01*
X02258Y03833D01*
X02254Y03825D01*
X02258Y03817D01*
X0225Y03821D01*
X02242Y03817D01*
X02246Y03821D02*
X02248Y03825D01*
X02246Y03829D01*
X0225Y03827D01*
X02254Y03829D01*
X02252Y03825D01*
X02254Y03821D01*
X0225Y03823D01*
X02246Y03821D01*
X02217Y03817D02*
X02221Y03825D01*
X02217Y03833D01*
X02225Y03829D01*
X02233Y03833D01*
X02229Y03825D01*
X02233Y03817D01*
X02225Y03821D01*
X02217Y03817D01*
X02221Y03821D02*
X02223Y03825D01*
X02221Y03829D01*
X02225Y03827D01*
X02229Y03829D01*
X02227Y03825D01*
X02229Y03821D01*
X02225Y03823D01*
X02221Y03821D01*
X02217Y03837D02*
X02221Y03845D01*
X02217Y03853D01*
X02225Y03849D01*
X02233Y03853D01*
X02229Y03845D01*
X02233Y03837D01*
X02225Y03841D01*
X02217Y03837D01*
X02221Y03841D02*
X02223Y03845D01*
X02221Y03849D01*
X02225Y03847D01*
X02229Y03849D01*
X02227Y03845D01*
X02229Y03841D01*
X02225Y03843D01*
X02221Y03841D01*
X01484Y02596D02*
Y02592D01*
X01492D01*
Y02596D01*
X01496D01*
Y02604D01*
X01492D01*
Y02608D01*
X01484D01*
Y02604D01*
X0148D01*
Y02596D01*
X01484D01*
X01486Y02598D02*
Y02596D01*
X0149D01*
Y02598D01*
X01492D01*
Y02602D01*
X0149D01*
Y02604D01*
X01486D01*
Y02602D01*
X01484D01*
Y02598D01*
X01486D01*
X02027Y03787D02*
X02031Y03795D01*
X02027Y03803D01*
X02035Y03799D01*
X02043Y03803D01*
X02039Y03795D01*
X02043Y03787D01*
X02035Y03791D01*
X02027Y03787D01*
X02031Y03791D02*
X02033Y03795D01*
X02031Y03799D01*
X02035Y03797D01*
X02039Y03799D01*
X02037Y03795D01*
X02039Y03791D01*
X02035Y03793D01*
X02031Y03791D01*
X03986Y03431D02*
Y03427D01*
X03994D01*
Y03431D01*
X03998D01*
Y03439D01*
X03994D01*
Y03443D01*
X03986D01*
Y03439D01*
X03982D01*
Y03431D01*
X03986D01*
X03988Y03433D02*
Y03431D01*
X03992D01*
Y03433D01*
X03994D01*
Y03437D01*
X03992D01*
Y03439D01*
X03988D01*
Y03437D01*
X03986D01*
Y03433D01*
X03988D01*
X037906Y03431D02*
Y03427D01*
X037986D01*
Y03431D01*
X038026D01*
Y03439D01*
X037986D01*
Y03443D01*
X037906D01*
Y03439D01*
X037866D01*
Y03431D01*
X037906D01*
X037926Y03433D02*
Y03431D01*
X037966D01*
Y03433D01*
X037986D01*
Y03437D01*
X037966D01*
Y03439D01*
X037926D01*
Y03437D01*
X037906D01*
Y03433D01*
X037926D01*
X02152Y021115D02*
X02156Y021195D01*
X02152Y021275D01*
X0216Y021235D01*
X02168Y021275D01*
X02164Y021195D01*
X02168Y021115D01*
X0216Y021155D01*
X02152Y021115D01*
X02156Y021155D02*
X02158Y021195D01*
X02156Y021235D01*
X0216Y021215D01*
X02164Y021235D01*
X02162Y021195D01*
X02164Y021155D01*
X0216Y021175D01*
X02156Y021155D01*
X02047Y01887D02*
X02051Y01895D01*
X02047Y01903D01*
X02055Y01899D01*
X02063Y01903D01*
X02059Y01895D01*
X02063Y01887D01*
X02055Y01891D01*
X02047Y01887D01*
X02051Y01891D02*
X02053Y01895D01*
X02051Y01899D01*
X02055Y01897D01*
X02059Y01899D01*
X02057Y01895D01*
X02059Y01891D01*
X02055Y01893D01*
X02051Y01891D01*
X02872Y02752D02*
X02876Y0276D01*
X02872Y02768D01*
X0288Y02764D01*
X02888Y02768D01*
X02884Y0276D01*
X02888Y02752D01*
X0288Y02756D01*
X02872Y02752D01*
X02876Y02756D02*
X02878Y0276D01*
X02876Y02764D01*
X0288Y02762D01*
X02884Y02764D01*
X02882Y0276D01*
X02884Y02756D01*
X0288Y02758D01*
X02876Y02756D01*
X023759Y03632D02*
X023799Y0364D01*
X023759Y03648D01*
X023839Y03644D01*
X023919Y03648D01*
X023879Y0364D01*
X023919Y03632D01*
X023839Y03636D01*
X023759Y03632D01*
X023799Y03636D02*
X023819Y0364D01*
X023799Y03644D01*
X023839Y03642D01*
X023879Y03644D01*
X023859Y0364D01*
X023879Y03636D01*
X023839Y03638D01*
X023799Y03636D01*
X02437Y03787D02*
X02441Y03795D01*
X02437Y03803D01*
X02445Y03799D01*
X02453Y03803D01*
X02449Y03795D01*
X02453Y03787D01*
X02445Y03791D01*
X02437Y03787D01*
X02441Y03791D02*
X02443Y03795D01*
X02441Y03799D01*
X02445Y03797D01*
X02449Y03799D01*
X02447Y03795D01*
X02449Y03791D01*
X02445Y03793D01*
X02441Y03791D01*
X018125Y03477D02*
X018165Y03485D01*
X018125Y03493D01*
X018205Y03489D01*
X018285Y03493D01*
X018245Y03485D01*
X018285Y03477D01*
X018205Y03481D01*
X018125Y03477D01*
X018165Y03481D02*
X018185Y03485D01*
X018165Y03489D01*
X018205Y03487D01*
X018245Y03489D01*
X018225Y03485D01*
X018245Y03481D01*
X018205Y03483D01*
X018165Y03481D01*
X015259Y024331D02*
X015299Y024411D01*
X015259Y024491D01*
X015339Y024451D01*
X015419Y024491D01*
X015379Y024411D01*
X015419Y024331D01*
X015339Y024371D01*
X015259Y024331D01*
X015299Y024371D02*
X015319Y024411D01*
X015299Y024451D01*
X015339Y024431D01*
X015379Y024451D01*
X015359Y024411D01*
X015379Y024371D01*
X015339Y024391D01*
X015299Y024371D01*
X01527Y02587D02*
X01531Y02595D01*
X01527Y02603D01*
X01535Y02599D01*
X01543Y02603D01*
X01539Y02595D01*
X01543Y02587D01*
X01535Y02591D01*
X01527Y02587D01*
X01531Y02591D02*
X01533Y02595D01*
X01531Y02599D01*
X01535Y02597D01*
X01539Y02599D01*
X01537Y02595D01*
X01539Y02591D01*
X01535Y02593D01*
X01531Y02591D01*
X029934Y035009D02*
X029974Y035089D01*
X029934Y035169D01*
X030014Y035129D01*
X030094Y035169D01*
X030054Y035089D01*
X030094Y035009D01*
X030014Y035049D01*
X029934Y035009D01*
X029974Y035049D02*
X029994Y035089D01*
X029974Y035129D01*
X030014Y035109D01*
X030054Y035129D01*
X030034Y035089D01*
X030054Y035049D01*
X030014Y035069D01*
X029974Y035049D01*
X035686Y03647D02*
X035726Y03655D01*
X035686Y03663D01*
X035766Y03659D01*
X035846Y03663D01*
X035806Y03655D01*
X035846Y03647D01*
X035766Y03651D01*
X035686Y03647D01*
X035726Y03651D02*
X035746Y03655D01*
X035726Y03659D01*
X035766Y03657D01*
X035806Y03659D01*
X035786Y03655D01*
X035806Y03651D01*
X035766Y03653D01*
X035726Y03651D01*
X033192Y036488D02*
X033232Y036568D01*
X033192Y036648D01*
X033272Y036608D01*
X033352Y036648D01*
X033312Y036568D01*
X033352Y036488D01*
X033272Y036528D01*
X033192Y036488D01*
X033232Y036528D02*
X033252Y036568D01*
X033232Y036608D01*
X033272Y036588D01*
X033312Y036608D01*
X033292Y036568D01*
X033312Y036528D01*
X033272Y036548D01*
X033232Y036528D01*
X03057Y03647D02*
X03061Y03655D01*
X03057Y03663D01*
X03065Y03659D01*
X03073Y03663D01*
X03069Y03655D01*
X03073Y03647D01*
X03065Y03651D01*
X03057Y03647D01*
X03061Y03651D02*
X03063Y03655D01*
X03061Y03659D01*
X03065Y03657D01*
X03069Y03659D01*
X03067Y03655D01*
X03069Y03651D01*
X03065Y03653D01*
X03061Y03651D01*
X02987Y03422D02*
X02991Y0343D01*
X02987Y03438D01*
X02995Y03434D01*
X03003Y03438D01*
X02999Y0343D01*
X03003Y03422D01*
X02995Y03426D01*
X02987Y03422D01*
X02991Y03426D02*
X02993Y0343D01*
X02991Y03434D01*
X02995Y03432D01*
X02999Y03434D01*
X02997Y0343D01*
X02999Y03426D01*
X02995Y03428D01*
X02991Y03426D01*
X029795Y034541D02*
X029835Y034621D01*
X029795Y034701D01*
X029875Y034661D01*
X029955Y034701D01*
X029915Y034621D01*
X029955Y034541D01*
X029875Y034581D01*
X029795Y034541D01*
X029835Y034581D02*
X029855Y034621D01*
X029835Y034661D01*
X029875Y034641D01*
X029915Y034661D01*
X029895Y034621D01*
X029915Y034581D01*
X029875Y034601D01*
X029835Y034581D01*
X042614Y041492D02*
X042654Y041572D01*
X042614Y041652D01*
X042694Y041612D01*
X042774Y041652D01*
X042734Y041572D01*
X042774Y041492D01*
X042694Y041532D01*
X042614Y041492D01*
X042654Y041532D02*
X042674Y041572D01*
X042654Y041612D01*
X042694Y041592D01*
X042734Y041612D01*
X042714Y041572D01*
X042734Y041532D01*
X042694Y041552D01*
X042654Y041532D01*
X04232Y041492D02*
X04236Y041572D01*
X04232Y041652D01*
X0424Y041612D01*
X04248Y041652D01*
X04244Y041572D01*
X04248Y041492D01*
X0424Y041532D01*
X04232Y041492D01*
X04236Y041532D02*
X04238Y041572D01*
X04236Y041612D01*
X0424Y041592D01*
X04244Y041612D01*
X04242Y041572D01*
X04244Y041532D01*
X0424Y041552D01*
X04236Y041532D01*
X04207Y041492D02*
X04211Y041572D01*
X04207Y041652D01*
X04215Y041612D01*
X04223Y041652D01*
X04219Y041572D01*
X04223Y041492D01*
X04215Y041532D01*
X04207Y041492D01*
X04211Y041532D02*
X04213Y041572D01*
X04211Y041612D01*
X04215Y041592D01*
X04219Y041612D01*
X04217Y041572D01*
X04219Y041532D01*
X04215Y041552D01*
X04211Y041532D01*
X042614Y041729D02*
X042654Y041809D01*
X042614Y041889D01*
X042694Y041849D01*
X042774Y041889D01*
X042734Y041809D01*
X042774Y041729D01*
X042694Y041769D01*
X042614Y041729D01*
X042654Y041769D02*
X042674Y041809D01*
X042654Y041849D01*
X042694Y041829D01*
X042734Y041849D01*
X042714Y041809D01*
X042734Y041769D01*
X042694Y041789D01*
X042654Y041769D01*
X04232Y041733D02*
X04236Y041813D01*
X04232Y041893D01*
X0424Y041853D01*
X04248Y041893D01*
X04244Y041813D01*
X04248Y041733D01*
X0424Y041773D01*
X04232Y041733D01*
X04236Y041773D02*
X04238Y041813D01*
X04236Y041853D01*
X0424Y041833D01*
X04244Y041853D01*
X04242Y041813D01*
X04244Y041773D01*
X0424Y041793D01*
X04236Y041773D01*
X04207Y041733D02*
X04211Y041813D01*
X04207Y041893D01*
X04215Y041853D01*
X04223Y041893D01*
X04219Y041813D01*
X04223Y041733D01*
X04215Y041773D01*
X04207Y041733D01*
X04211Y041773D02*
X04213Y041813D01*
X04211Y041853D01*
X04215Y041833D01*
X04219Y041853D01*
X04217Y041813D01*
X04219Y041773D01*
X04215Y041793D01*
X04211Y041773D01*
X042614Y04197D02*
X042654Y04205D01*
X042614Y04213D01*
X042694Y04209D01*
X042774Y04213D01*
X042734Y04205D01*
X042774Y04197D01*
X042694Y04201D01*
X042614Y04197D01*
X042654Y04201D02*
X042674Y04205D01*
X042654Y04209D01*
X042694Y04207D01*
X042734Y04209D01*
X042714Y04205D01*
X042734Y04201D01*
X042694Y04203D01*
X042654Y04201D01*
X04232Y04197D02*
X04236Y04205D01*
X04232Y04213D01*
X0424Y04209D01*
X04248Y04213D01*
X04244Y04205D01*
X04248Y04197D01*
X0424Y04201D01*
X04232Y04197D01*
X04236Y04201D02*
X04238Y04205D01*
X04236Y04209D01*
X0424Y04207D01*
X04244Y04209D01*
X04242Y04205D01*
X04244Y04201D01*
X0424Y04203D01*
X04236Y04201D01*
X04207Y04197D02*
X04211Y04205D01*
X04207Y04213D01*
X04215Y04209D01*
X04223Y04213D01*
X04219Y04205D01*
X04223Y04197D01*
X04215Y04201D01*
X04207Y04197D01*
X04211Y04201D02*
X04213Y04205D01*
X04211Y04209D01*
X04215Y04207D01*
X04219Y04209D01*
X04217Y04205D01*
X04219Y04201D01*
X04215Y04203D01*
X04211Y04201D01*
X02952Y02817D02*
X02956Y02825D01*
X02952Y02833D01*
X0296Y02829D01*
X02968Y02833D01*
X02964Y02825D01*
X02968Y02817D01*
X0296Y02821D01*
X02952Y02817D01*
X02956Y02821D02*
X02958Y02825D01*
X02956Y02829D01*
X0296Y02827D01*
X02964Y02829D01*
X02962Y02825D01*
X02964Y02821D01*
X0296Y02823D01*
X02956Y02821D01*
X033546Y02817D02*
X033586Y02825D01*
X033546Y02833D01*
X033626Y02829D01*
X033706Y02833D01*
X033666Y02825D01*
X033706Y02817D01*
X033626Y02821D01*
X033546Y02817D01*
X033586Y02821D02*
X033606Y02825D01*
X033586Y02829D01*
X033626Y02827D01*
X033666Y02829D01*
X033646Y02825D01*
X033666Y02821D01*
X033626Y02823D01*
X033586Y02821D01*
X03692Y02752D02*
X03696Y0276D01*
X03692Y02768D01*
X037Y02764D01*
X03708Y02768D01*
X03704Y0276D01*
X03708Y02752D01*
X037Y02756D01*
X03692Y02752D01*
X03696Y02756D02*
X03698Y0276D01*
X03696Y02764D01*
X037Y02762D01*
X03704Y02764D01*
X03702Y0276D01*
X03704Y02756D01*
X037Y02758D01*
X03696Y02756D01*
X03717Y02752D02*
X03721Y0276D01*
X03717Y02768D01*
X03725Y02764D01*
X03733Y02768D01*
X03729Y0276D01*
X03733Y02752D01*
X03725Y02756D01*
X03717Y02752D01*
X03721Y02756D02*
X03723Y0276D01*
X03721Y02764D01*
X03725Y02762D01*
X03729Y02764D01*
X03727Y0276D01*
X03729Y02756D01*
X03725Y02758D01*
X03721Y02756D01*
X032808Y02752D02*
X032848Y0276D01*
X032808Y02768D01*
X032888Y02764D01*
X032968Y02768D01*
X032928Y0276D01*
X032968Y02752D01*
X032888Y02756D01*
X032808Y02752D01*
X032848Y02756D02*
X032868Y0276D01*
X032848Y02764D01*
X032888Y02762D01*
X032928Y02764D01*
X032908Y0276D01*
X032928Y02756D01*
X032888Y02758D01*
X032848Y02756D01*
X03302Y02752D02*
X03306Y0276D01*
X03302Y02768D01*
X0331Y02764D01*
X03318Y02768D01*
X03314Y0276D01*
X03318Y02752D01*
X0331Y02756D01*
X03302Y02752D01*
X03306Y02756D02*
X03308Y0276D01*
X03306Y02764D01*
X0331Y02762D01*
X03314Y02764D01*
X03312Y0276D01*
X03314Y02756D01*
X0331Y02758D01*
X03306Y02756D01*
X02897Y02752D02*
X02901Y0276D01*
X02897Y02768D01*
X02905Y02764D01*
X02913Y02768D01*
X02909Y0276D01*
X02913Y02752D01*
X02905Y02756D01*
X02897Y02752D01*
X02901Y02756D02*
X02903Y0276D01*
X02901Y02764D01*
X02905Y02762D01*
X02909Y02764D01*
X02907Y0276D01*
X02909Y02756D01*
X02905Y02758D01*
X02901Y02756D01*
X03617Y02912D02*
X03621Y0292D01*
X03617Y02928D01*
X03625Y02924D01*
X03633Y02928D01*
X03629Y0292D01*
X03633Y02912D01*
X03625Y02916D01*
X03617Y02912D01*
X03621Y02916D02*
X03623Y0292D01*
X03621Y02924D01*
X03625Y02922D01*
X03629Y02924D01*
X03627Y0292D01*
X03629Y02916D01*
X03625Y02918D01*
X03621Y02916D01*
X03207Y02912D02*
X03211Y0292D01*
X03207Y02928D01*
X03215Y02924D01*
X03223Y02928D01*
X03219Y0292D01*
X03223Y02912D01*
X03215Y02916D01*
X03207Y02912D01*
X03211Y02916D02*
X03213Y0292D01*
X03211Y02924D01*
X03215Y02922D01*
X03219Y02924D01*
X03217Y0292D01*
X03219Y02916D01*
X03215Y02918D01*
X03211Y02916D01*
X02807Y02912D02*
X02811Y0292D01*
X02807Y02928D01*
X02815Y02924D01*
X02823Y02928D01*
X02819Y0292D01*
X02823Y02912D01*
X02815Y02916D01*
X02807Y02912D01*
X02811Y02916D02*
X02813Y0292D01*
X02811Y02924D01*
X02815Y02922D01*
X02819Y02924D01*
X02817Y0292D01*
X02819Y02916D01*
X02815Y02918D01*
X02811Y02916D01*
X01412Y03947D02*
X01416Y03955D01*
X01412Y03963D01*
X0142Y03959D01*
X01428Y03963D01*
X01424Y03955D01*
X01428Y03947D01*
X0142Y03951D01*
X01412Y03947D01*
X01416Y03951D02*
X01418Y03955D01*
X01416Y03959D01*
X0142Y03957D01*
X01424Y03959D01*
X01422Y03955D01*
X01424Y03951D01*
X0142Y03953D01*
X01416Y03951D01*
X02112Y03517D02*
X02116Y03525D01*
X02112Y03533D01*
X0212Y03529D01*
X02128Y03533D01*
X02124Y03525D01*
X02128Y03517D01*
X0212Y03521D01*
X02112Y03517D01*
X02116Y03521D02*
X02118Y03525D01*
X02116Y03529D01*
X0212Y03527D01*
X02124Y03529D01*
X02122Y03525D01*
X02124Y03521D01*
X0212Y03523D01*
X02116Y03521D01*
X02067Y03477D02*
X02071Y03485D01*
X02067Y03493D01*
X02075Y03489D01*
X02083Y03493D01*
X02079Y03485D01*
X02083Y03477D01*
X02075Y03481D01*
X02067Y03477D01*
X02071Y03481D02*
X02073Y03485D01*
X02071Y03489D01*
X02075Y03487D01*
X02079Y03489D01*
X02077Y03485D01*
X02079Y03481D01*
X02075Y03483D01*
X02071Y03481D01*
X01977Y03207D02*
X01981Y03215D01*
X01977Y03223D01*
X01985Y03219D01*
X01993Y03223D01*
X01989Y03215D01*
X01993Y03207D01*
X01985Y03211D01*
X01977Y03207D01*
X01981Y03211D02*
X01983Y03215D01*
X01981Y03219D01*
X01985Y03217D01*
X01989Y03219D01*
X01987Y03215D01*
X01989Y03211D01*
X01985Y03213D01*
X01981Y03211D01*
X01927Y03207D02*
X01931Y03215D01*
X01927Y03223D01*
X01935Y03219D01*
X01943Y03223D01*
X01939Y03215D01*
X01943Y03207D01*
X01935Y03211D01*
X01927Y03207D01*
X01931Y03211D02*
X01933Y03215D01*
X01931Y03219D01*
X01935Y03217D01*
X01939Y03219D01*
X01937Y03215D01*
X01939Y03211D01*
X01935Y03213D01*
X01931Y03211D01*
X01737Y036455D02*
X01741Y036535D01*
X01737Y036615D01*
X01745Y036575D01*
X01753Y036615D01*
X01749Y036535D01*
X01753Y036455D01*
X01745Y036495D01*
X01737Y036455D01*
X01741Y036495D02*
X01743Y036535D01*
X01741Y036575D01*
X01745Y036555D01*
X01749Y036575D01*
X01747Y036535D01*
X01749Y036495D01*
X01745Y036515D01*
X01741Y036495D01*
X02062Y03102D02*
X02066Y0311D01*
X02062Y03118D01*
X0207Y03114D01*
X02078Y03118D01*
X02074Y0311D01*
X02078Y03102D01*
X0207Y03106D01*
X02062Y03102D01*
X02066Y03106D02*
X02068Y0311D01*
X02066Y03114D01*
X0207Y03112D01*
X02074Y03114D01*
X02072Y0311D01*
X02074Y03106D01*
X0207Y03108D01*
X02066Y03106D01*
X02097Y02217D02*
X02101Y02225D01*
X02097Y02233D01*
X02105Y02229D01*
X02113Y02233D01*
X02109Y02225D01*
X02113Y02217D01*
X02105Y02221D01*
X02097Y02217D01*
X02101Y02221D02*
X02103Y02225D01*
X02101Y02229D01*
X02105Y02227D01*
X02109Y02229D01*
X02107Y02225D01*
X02109Y02221D01*
X02105Y02223D01*
X02101Y02221D01*
X016794Y023094D02*
X016834Y023174D01*
X016794Y023254D01*
X016874Y023214D01*
X016954Y023254D01*
X016914Y023174D01*
X016954Y023094D01*
X016874Y023134D01*
X016794Y023094D01*
X016834Y023134D02*
X016854Y023174D01*
X016834Y023214D01*
X016874Y023194D01*
X016914Y023214D01*
X016894Y023174D01*
X016914Y023134D01*
X016874Y023154D01*
X016834Y023134D01*
X01762Y036455D02*
X01766Y036535D01*
X01762Y036615D01*
X0177Y036575D01*
X01778Y036615D01*
X01774Y036535D01*
X01778Y036455D01*
X0177Y036495D01*
X01762Y036455D01*
X01766Y036495D02*
X01768Y036535D01*
X01766Y036575D01*
X0177Y036555D01*
X01774Y036575D01*
X01772Y036535D01*
X01774Y036495D01*
X0177Y036515D01*
X01766Y036495D01*
X01762Y02327D02*
X01766Y02335D01*
X01762Y02343D01*
X0177Y02339D01*
X01778Y02343D01*
X01774Y02335D01*
X01778Y02327D01*
X0177Y02331D01*
X01762Y02327D01*
X01766Y02331D02*
X01768Y02335D01*
X01766Y02339D01*
X0177Y02337D01*
X01774Y02339D01*
X01772Y02335D01*
X01774Y02331D01*
X0177Y02333D01*
X01766Y02331D01*
X01627Y03197D02*
X01631Y03205D01*
X01627Y03213D01*
X01635Y03209D01*
X01643Y03213D01*
X01639Y03205D01*
X01643Y03197D01*
X01635Y03201D01*
X01627Y03197D01*
X01631Y03201D02*
X01633Y03205D01*
X01631Y03209D01*
X01635Y03207D01*
X01639Y03209D01*
X01637Y03205D01*
X01639Y03201D01*
X01635Y03203D01*
X01631Y03201D01*
X01577Y03197D02*
X01581Y03205D01*
X01577Y03213D01*
X01585Y03209D01*
X01593Y03213D01*
X01589Y03205D01*
X01593Y03197D01*
X01585Y03201D01*
X01577Y03197D01*
X01581Y03201D02*
X01583Y03205D01*
X01581Y03209D01*
X01585Y03207D01*
X01589Y03209D01*
X01587Y03205D01*
X01589Y03201D01*
X01585Y03203D01*
X01581Y03201D01*
X01732Y02362D02*
X01736Y0237D01*
X01732Y02378D01*
X0174Y02374D01*
X01748Y02378D01*
X01744Y0237D01*
X01748Y02362D01*
X0174Y02366D01*
X01732Y02362D01*
X01736Y02366D02*
X01738Y0237D01*
X01736Y02374D01*
X0174Y02372D01*
X01744Y02374D01*
X01742Y0237D01*
X01744Y02366D01*
X0174Y02368D01*
X01736Y02366D01*
X04527Y04212D02*
X04531Y0422D01*
X04527Y04228D01*
X04535Y04224D01*
X04543Y04228D01*
X04539Y0422D01*
X04543Y04212D01*
X04535Y04216D01*
X04527Y04212D01*
X04531Y04216D02*
X04533Y0422D01*
X04531Y04224D01*
X04535Y04222D01*
X04539Y04224D01*
X04537Y0422D01*
X04539Y04216D01*
X04535Y04218D01*
X04531Y04216D01*
X04562Y04657D02*
X04566Y04665D01*
X04562Y04673D01*
X0457Y04669D01*
X04578Y04673D01*
X04574Y04665D01*
X04578Y04657D01*
X0457Y04661D01*
X04562Y04657D01*
X04566Y04661D02*
X04568Y04665D01*
X04566Y04669D01*
X0457Y04667D01*
X04574Y04669D01*
X04572Y04665D01*
X04574Y04661D01*
X0457Y04663D01*
X04566Y04661D01*
X046081Y040209D02*
X046121Y040289D01*
X046081Y040369D01*
X046161Y040329D01*
X046241Y040369D01*
X046201Y040289D01*
X046241Y040209D01*
X046161Y040249D01*
X046081Y040209D01*
X046121Y040249D02*
X046141Y040289D01*
X046121Y040329D01*
X046161Y040309D01*
X046201Y040329D01*
X046181Y040289D01*
X046201Y040249D01*
X046161Y040269D01*
X046121Y040249D01*
X04817Y03972D02*
X04821Y0398D01*
X04817Y03988D01*
X04825Y03984D01*
X04833Y03988D01*
X04829Y0398D01*
X04833Y03972D01*
X04825Y03976D01*
X04817Y03972D01*
X04821Y03976D02*
X04823Y0398D01*
X04821Y03984D01*
X04825Y03982D01*
X04829Y03984D01*
X04827Y0398D01*
X04829Y03976D01*
X04825Y03978D01*
X04821Y03976D01*
X04797Y03972D02*
X04801Y0398D01*
X04797Y03988D01*
X04805Y03984D01*
X04813Y03988D01*
X04809Y0398D01*
X04813Y03972D01*
X04805Y03976D01*
X04797Y03972D01*
X04801Y03976D02*
X04803Y0398D01*
X04801Y03984D01*
X04805Y03982D01*
X04809Y03984D01*
X04807Y0398D01*
X04809Y03976D01*
X04805Y03978D01*
X04801Y03976D01*
X04777Y03972D02*
X04781Y0398D01*
X04777Y03988D01*
X04785Y03984D01*
X04793Y03988D01*
X04789Y0398D01*
X04793Y03972D01*
X04785Y03976D01*
X04777Y03972D01*
X04781Y03976D02*
X04783Y0398D01*
X04781Y03984D01*
X04785Y03982D01*
X04789Y03984D01*
X04787Y0398D01*
X04789Y03976D01*
X04785Y03978D01*
X04781Y03976D01*
X04272Y03972D02*
X04276Y0398D01*
X04272Y03988D01*
X0428Y03984D01*
X04288Y03988D01*
X04284Y0398D01*
X04288Y03972D01*
X0428Y03976D01*
X04272Y03972D01*
X04276Y03976D02*
X04278Y0398D01*
X04276Y03984D01*
X0428Y03982D01*
X04284Y03984D01*
X04282Y0398D01*
X04284Y03976D01*
X0428Y03978D01*
X04276Y03976D01*
X04247Y03972D02*
X04251Y0398D01*
X04247Y03988D01*
X04255Y03984D01*
X04263Y03988D01*
X04259Y0398D01*
X04263Y03972D01*
X04255Y03976D01*
X04247Y03972D01*
X04251Y03976D02*
X04253Y0398D01*
X04251Y03984D01*
X04255Y03982D01*
X04259Y03984D01*
X04257Y0398D01*
X04259Y03976D01*
X04255Y03978D01*
X04251Y03976D01*
X04297Y03497D02*
X04301Y03505D01*
X04297Y03513D01*
X04305Y03509D01*
X04313Y03513D01*
X04309Y03505D01*
X04313Y03497D01*
X04305Y03501D01*
X04297Y03497D01*
X04301Y03501D02*
X04303Y03505D01*
X04301Y03509D01*
X04305Y03507D01*
X04309Y03509D01*
X04307Y03505D01*
X04309Y03501D01*
X04305Y03503D01*
X04301Y03501D01*
X04327Y03497D02*
X04331Y03505D01*
X04327Y03513D01*
X04335Y03509D01*
X04343Y03513D01*
X04339Y03505D01*
X04343Y03497D01*
X04335Y03501D01*
X04327Y03497D01*
X04331Y03501D02*
X04333Y03505D01*
X04331Y03509D01*
X04335Y03507D01*
X04339Y03509D01*
X04337Y03505D01*
X04339Y03501D01*
X04335Y03503D01*
X04331Y03501D01*
X04327Y03522D02*
X04331Y0353D01*
X04327Y03538D01*
X04335Y03534D01*
X04343Y03538D01*
X04339Y0353D01*
X04343Y03522D01*
X04335Y03526D01*
X04327Y03522D01*
X04331Y03526D02*
X04333Y0353D01*
X04331Y03534D01*
X04335Y03532D01*
X04339Y03534D01*
X04337Y0353D01*
X04339Y03526D01*
X04335Y03528D01*
X04331Y03526D01*
X04297Y03522D02*
X04301Y0353D01*
X04297Y03538D01*
X04305Y03534D01*
X04313Y03538D01*
X04309Y0353D01*
X04313Y03522D01*
X04305Y03526D01*
X04297Y03522D01*
X04301Y03526D02*
X04303Y0353D01*
X04301Y03534D01*
X04305Y03532D01*
X04309Y03534D01*
X04307Y0353D01*
X04309Y03526D01*
X04305Y03528D01*
X04301Y03526D01*
X01427Y03212D02*
X01431Y0322D01*
X01427Y03228D01*
X01435Y03224D01*
X01443Y03228D01*
X01439Y0322D01*
X01443Y03212D01*
X01435Y03216D01*
X01427Y03212D01*
X01431Y03216D02*
X01433Y0322D01*
X01431Y03224D01*
X01435Y03222D01*
X01439Y03224D01*
X01437Y0322D01*
X01439Y03216D01*
X01435Y03218D01*
X01431Y03216D01*
X01572Y02002D02*
X01576Y0201D01*
X01572Y02018D01*
X0158Y02014D01*
X01588Y02018D01*
X01584Y0201D01*
X01588Y02002D01*
X0158Y02006D01*
X01572Y02002D01*
X01576Y02006D02*
X01578Y0201D01*
X01576Y02014D01*
X0158Y02012D01*
X01584Y02014D01*
X01582Y0201D01*
X01584Y02006D01*
X0158Y02008D01*
X01576Y02006D01*
X01962Y01987D02*
X01966Y01995D01*
X01962Y02003D01*
X0197Y01999D01*
X01978Y02003D01*
X01974Y01995D01*
X01978Y01987D01*
X0197Y01991D01*
X01962Y01987D01*
X01966Y01991D02*
X01968Y01995D01*
X01966Y01999D01*
X0197Y01997D01*
X01974Y01999D01*
X01972Y01995D01*
X01974Y01991D01*
X0197Y01993D01*
X01966Y01991D01*
X01967Y02037D02*
X01971Y02045D01*
X01967Y02053D01*
X01975Y02049D01*
X01983Y02053D01*
X01979Y02045D01*
X01983Y02037D01*
X01975Y02041D01*
X01967Y02037D01*
X01971Y02041D02*
X01973Y02045D01*
X01971Y02049D01*
X01975Y02047D01*
X01979Y02049D01*
X01977Y02045D01*
X01979Y02041D01*
X01975Y02043D01*
X01971Y02041D01*
X01662Y01942D02*
X01666Y0195D01*
X01662Y01958D01*
X0167Y01954D01*
X01678Y01958D01*
X01674Y0195D01*
X01678Y01942D01*
X0167Y01946D01*
X01662Y01942D01*
X01666Y01946D02*
X01668Y0195D01*
X01666Y01954D01*
X0167Y01952D01*
X01674Y01954D01*
X01672Y0195D01*
X01674Y01946D01*
X0167Y01948D01*
X01666Y01946D01*
X01577Y01962D02*
X01581Y0197D01*
X01577Y01978D01*
X01585Y01974D01*
X01593Y01978D01*
X01589Y0197D01*
X01593Y01962D01*
X01585Y01966D01*
X01577Y01962D01*
X01581Y01966D02*
X01583Y0197D01*
X01581Y01974D01*
X01585Y01972D01*
X01589Y01974D01*
X01587Y0197D01*
X01589Y01966D01*
X01585Y01968D01*
X01581Y01966D01*
X01447Y014393D02*
X01451D01*
X01455Y014433D01*
X01459Y014393D01*
X01463D01*
Y014433D01*
X01459Y014473D01*
X01463Y014513D01*
Y014553D01*
X01459D01*
X01455Y014513D01*
X01451Y014553D01*
X01447D01*
Y014513D01*
X01451Y014473D01*
X01447Y014433D01*
Y014393D01*
X01451Y014433D02*
X01453D01*
X01455Y014453D01*
X01457Y014433D01*
X01459D01*
Y014453D01*
X01457Y014473D01*
X01459Y014493D01*
Y014513D01*
X01457D01*
X01455Y014493D01*
X01453Y014513D01*
X01451D01*
Y014493D01*
X01453Y014473D01*
X01451Y014453D01*
Y014433D01*
X047935Y014393D02*
X047975D01*
X048015Y014433D01*
X048055Y014393D01*
X048095D01*
Y014433D01*
X048055Y014473D01*
X048095Y014513D01*
Y014553D01*
X048055D01*
X048015Y014513D01*
X047975Y014553D01*
X047935D01*
Y014513D01*
X047975Y014473D01*
X047935Y014433D01*
Y014393D01*
X047975Y014433D02*
X047995D01*
X048015Y014453D01*
X048035Y014433D01*
X048055D01*
Y014453D01*
X048035Y014473D01*
X048055Y014493D01*
Y014513D01*
X048035D01*
X048015Y014493D01*
X047995Y014513D01*
X047975D01*
Y014493D01*
X047995Y014473D01*
X047975Y014453D01*
Y014433D01*
X047935Y045889D02*
X047975D01*
X048015Y045929D01*
X048055Y045889D01*
X048095D01*
Y045929D01*
X048055Y045969D01*
X048095Y046009D01*
Y046049D01*
X048055D01*
X048015Y046009D01*
X047975Y046049D01*
X047935D01*
Y046009D01*
X047975Y045969D01*
X047935Y045929D01*
Y045889D01*
X047975Y045929D02*
X047995D01*
X048015Y045949D01*
X048035Y045929D01*
X048055D01*
Y045949D01*
X048035Y045969D01*
X048055Y045989D01*
Y046009D01*
X048035D01*
X048015Y045989D01*
X047995Y046009D01*
X047975D01*
Y045989D01*
X047995Y045969D01*
X047975Y045949D01*
Y045929D01*
X01447Y045889D02*
X01451D01*
X01455Y045929D01*
X01459Y045889D01*
X01463D01*
Y045929D01*
X01459Y045969D01*
X01463Y046009D01*
Y046049D01*
X01459D01*
X01455Y046009D01*
X01451Y046049D01*
X01447D01*
Y046009D01*
X01451Y045969D01*
X01447Y045929D01*
Y045889D01*
X01451Y045929D02*
X01453D01*
X01455Y045949D01*
X01457Y045929D01*
X01459D01*
Y045949D01*
X01457Y045969D01*
X01459Y045989D01*
Y046009D01*
X01457D01*
X01455Y045989D01*
X01453Y046009D01*
X01451D01*
Y045989D01*
X01453Y045969D01*
X01451Y045949D01*
Y045929D01*
D124*
X04503Y01765D02*
G03*
X04503Y01765I-00008J0D01*
G01*
X04303Y01615D02*
G03*
X04303Y01615I-00008J0D01*
G01*
Y01865D02*
G03*
X04303Y01865I-00008J0D01*
G01*
X01448Y017897D02*
G03*
X01448Y017897I-00008J0D01*
G01*
Y021303D02*
G03*
X01448Y021303I-00008J0D01*
G01*
D125*
X01444Y017897D02*
G03*
X01444Y017897I-00004J0D01*
G01*
Y021303D02*
G03*
X01444Y021303I-00004J0D01*
G01*
M02*
