G04*
G04 #@! TF.GenerationSoftware,Altium Limited,Altium Designer,18.0.11 (651)*
G04*
G04 Layer_Color=32768*
%FSTAX24Y24*%
%MOIN*%
G70*
G01*
G75*
%ADD11C,0.0079*%
%ADD16C,0.0039*%
%ADD17C,0.0050*%
%ADD19C,0.0020*%
D11*
X013802Y02527D02*
Y03283D01*
X021666D01*
Y02527D02*
Y03283D01*
X013802Y02527D02*
X021666D01*
D16*
X02865Y028553D02*
Y028947D01*
X028453Y02875D02*
X028847D01*
X032479D02*
X032873D01*
X032676Y028553D02*
Y028947D01*
X036603Y02875D02*
X036997D01*
X0368Y028553D02*
Y028947D01*
X0436Y040503D02*
Y040897D01*
X043403Y0407D02*
X043797D01*
X023103Y03835D02*
X023497D01*
X0233Y038153D02*
Y038547D01*
X01765Y028853D02*
Y029247D01*
X017453Y02905D02*
X017847D01*
X018953Y03685D02*
X019347D01*
X01915Y036653D02*
Y037047D01*
X036697Y039025D02*
Y039418D01*
X0365Y039222D02*
X036894D01*
X034197Y039003D02*
Y039397D01*
X034Y0392D02*
X034394D01*
X0314D02*
X031794D01*
X031597Y039003D02*
Y039397D01*
X036403Y02895D02*
X036797D01*
X0366Y028753D02*
Y029147D01*
X032303Y02895D02*
X032697D01*
X0325Y028753D02*
Y029147D01*
X02845Y028753D02*
Y029147D01*
X028253Y02895D02*
X028647D01*
X036793Y02605D02*
X037107D01*
X03695Y025893D02*
Y026207D01*
X032693Y02605D02*
X033007D01*
X03285Y025893D02*
Y026207D01*
X02885Y025893D02*
Y026207D01*
X028693Y02605D02*
X029007D01*
X014203Y02355D02*
X014597D01*
X0144Y023353D02*
Y023747D01*
X015853Y0228D02*
X016247D01*
X01605Y022603D02*
Y022997D01*
D17*
X041089Y036181D02*
Y038819D01*
Y036181D02*
X044711D01*
Y038819D01*
X041089D02*
X044711D01*
D19*
X0295Y02335D02*
Y02475D01*
X0269Y02335D02*
X0295D01*
X0269D02*
Y02475D01*
X0295D01*
X0309D02*
X0335D01*
X0309Y02335D02*
Y02475D01*
Y02335D02*
X0335D01*
Y02475D01*
X035D02*
X0376D01*
X035Y02335D02*
Y02475D01*
Y02335D02*
X0376D01*
Y02475D01*
X0399Y035852D02*
X0418D01*
X0399Y032048D02*
Y035852D01*
Y032048D02*
X0418D01*
Y035852D01*
X045148Y0187D02*
Y0206D01*
Y0187D02*
X048952D01*
Y0206D01*
X045148D02*
X048952D01*
X020239Y017633D02*
Y021767D01*
X017361D02*
X020239D01*
X017361Y017633D02*
Y021767D01*
Y017633D02*
X020239D01*
X042073Y035482D02*
X044334D01*
Y036082D01*
X0488D01*
Y031618D02*
Y036082D01*
X044334Y031618D02*
X0488D01*
X044334D02*
Y032218D01*
X042073D02*
X044334D01*
X042073D02*
Y035482D01*
X016593Y017622D02*
Y021578D01*
X013278Y017622D02*
X016593D01*
X013278D02*
Y021578D01*
X016593D01*
M02*
