G04*
G04 #@! TF.GenerationSoftware,Altium Limited,Altium Designer,18.0.11 (651)*
G04*
G04 Layer_Color=16711935*
%FSTAX24Y24*%
%MOIN*%
G70*
G01*
G75*
G04:AMPARAMS|DCode=58|XSize=47.4mil|YSize=63.9mil|CornerRadius=8.9mil|HoleSize=0mil|Usage=FLASHONLY|Rotation=180.000|XOffset=0mil|YOffset=0mil|HoleType=Round|Shape=RoundedRectangle|*
%AMROUNDEDRECTD58*
21,1,0.0474,0.0461,0,0,180.0*
21,1,0.0295,0.0639,0,0,180.0*
1,1,0.0178,-0.0148,0.0230*
1,1,0.0178,0.0148,0.0230*
1,1,0.0178,0.0148,-0.0230*
1,1,0.0178,-0.0148,-0.0230*
%
%ADD58ROUNDEDRECTD58*%
%ADD69C,0.0780*%
%ADD70R,0.1080X0.1680*%
%ADD71R,0.1680X0.1080*%
%ADD72C,0.0867*%
%ADD73C,0.0680*%
%ADD74R,0.0749X0.0749*%
%ADD75C,0.0749*%
%ADD76R,0.0867X0.1064*%
%ADD77R,0.0710X0.0710*%
%ADD78C,0.0710*%
%ADD79C,0.0580*%
%ADD80R,0.0710X0.0710*%
%ADD81C,0.0830*%
%ADD82C,0.0900*%
%ADD83C,0.0800*%
%ADD84R,0.0789X0.0789*%
%ADD85C,0.0789*%
%ADD86O,0.0749X0.0434*%
%ADD87O,0.0867X0.0434*%
%ADD88C,0.0316*%
%ADD89C,0.2049*%
%ADD119R,0.0356X0.0434*%
%ADD120R,0.0867X0.0789*%
%ADD121R,0.0474X0.0580*%
D58*
X015318Y0201D02*
D03*
X014582D02*
D03*
D69*
X0261Y02065D02*
D03*
Y01865D02*
D03*
X03015Y02065D02*
D03*
Y01865D02*
D03*
X0342Y02065D02*
D03*
Y01865D02*
D03*
D70*
X04495Y01765D02*
D03*
D71*
X04295Y01615D02*
D03*
Y01865D02*
D03*
D72*
X03895Y02205D02*
D03*
X03955Y02405D02*
D03*
D73*
X041932Y02195D02*
D03*
X04705D02*
D03*
X041932D02*
D03*
X04705D02*
D03*
X041932Y025887D02*
D03*
X04705D02*
D03*
D74*
X026197Y040084D02*
D03*
D75*
X029197Y040089D02*
D03*
D76*
X03365Y0448D02*
D03*
X03165D02*
D03*
X02765D02*
D03*
X02965D02*
D03*
X03765D02*
D03*
X03565D02*
D03*
X03965D02*
D03*
X04165D02*
D03*
X02565D02*
D03*
X02365D02*
D03*
X0396Y0156D02*
D03*
X0376D02*
D03*
X0216D02*
D03*
X0236D02*
D03*
X0276D02*
D03*
X0256D02*
D03*
X0336D02*
D03*
X0356D02*
D03*
X0316D02*
D03*
X0296D02*
D03*
D77*
X02455Y0279D02*
D03*
X0234Y027922D02*
D03*
D78*
X02455Y0289D02*
D03*
Y0299D02*
D03*
Y0309D02*
D03*
X0234Y030922D02*
D03*
Y029922D02*
D03*
Y028922D02*
D03*
X01855Y0408D02*
D03*
X01955D02*
D03*
X02055D02*
D03*
X02155D02*
D03*
X02255D02*
D03*
D79*
X03535Y0179D02*
D03*
Y020656D02*
D03*
X0372Y025183D02*
D03*
X03535D02*
D03*
X03125Y0179D02*
D03*
Y020656D02*
D03*
X0331Y025183D02*
D03*
X03125D02*
D03*
X027243Y025167D02*
D03*
X029093D02*
D03*
X027243Y020639D02*
D03*
Y017884D02*
D03*
D80*
X01755Y0408D02*
D03*
D81*
X0146Y037615D02*
D03*
Y035685D02*
D03*
D82*
X02085Y0446D02*
D03*
X01885D02*
D03*
Y0466D02*
D03*
X02085D02*
D03*
D83*
X01985Y0456D02*
D03*
D84*
X0419Y0302D02*
D03*
X0468D02*
D03*
D85*
X0419Y0282D02*
D03*
X0468D02*
D03*
D86*
X0144Y017897D02*
D03*
Y021303D02*
D03*
D87*
X016042Y017897D02*
D03*
Y021303D02*
D03*
D88*
X015849Y018462D02*
D03*
Y020738D02*
D03*
D89*
X01455Y014473D02*
D03*
X048015D02*
D03*
Y045969D02*
D03*
X01455D02*
D03*
D119*
X02865Y028297D02*
D03*
X028276Y029203D02*
D03*
X029024D02*
D03*
X03305D02*
D03*
X032302D02*
D03*
X032676Y028297D02*
D03*
X037174Y029203D02*
D03*
X036426D02*
D03*
X0368Y028297D02*
D03*
D120*
X029052Y02405D02*
D03*
X027348D02*
D03*
X031348D02*
D03*
X033052D02*
D03*
X035448D02*
D03*
X037152D02*
D03*
D121*
X015Y03405D02*
D03*
X0142D02*
D03*
X015Y0393D02*
D03*
X0142D02*
D03*
M02*
