G04*
G04 #@! TF.GenerationSoftware,Altium Limited,Altium Designer,18.0.11 (651)*
G04*
G04 Layer_Color=65535*
%FSTAX24Y24*%
%MOIN*%
G70*
G01*
G75*
%ADD10C,0.0070*%
%ADD11C,0.0079*%
%ADD12C,0.0080*%
%ADD13C,0.0098*%
%ADD14C,0.0100*%
%ADD15C,0.0200*%
%ADD16C,0.0039*%
%ADD17C,0.0050*%
%ADD18C,0.0120*%
%ADD19C,0.0020*%
%ADD20C,0.0060*%
%ADD21C,0.0010*%
%ADD22C,0.0040*%
%ADD23R,0.1000X0.0500*%
%ADD24R,0.1815X0.0366*%
G36*
X014183Y024141D02*
Y022959D01*
X014617D01*
Y024141D01*
X014183D01*
D02*
G37*
G36*
X016267Y022209D02*
Y023391D01*
X015833D01*
Y022209D01*
X016267D01*
D02*
G37*
G36*
X0172Y041439D02*
Y042D01*
X0169Y0417D01*
X0172Y041439D01*
D02*
G37*
G36*
X023517Y037759D02*
Y038941D01*
X023083D01*
Y037759D01*
X023517D01*
D02*
G37*
G36*
X023818Y023074D02*
X022822D01*
X022846Y023075D01*
X022867Y023077D01*
X022886Y02308D01*
X022894Y023082D01*
X022903Y023084D01*
X022909Y023086D01*
X022915Y023087D01*
X02292Y023088D01*
X022925Y02309D01*
X022928Y023091D01*
X022931Y023092D01*
X022932Y023093D01*
X022933D01*
X022949Y023101D01*
X022963Y02311D01*
X022975Y023119D01*
X022985Y023128D01*
X022992Y023137D01*
X022998Y023144D01*
X023001Y023148D01*
X023002Y023149D01*
Y02315D01*
X023011Y023165D01*
X023017Y023179D01*
X023022Y023193D01*
X023025Y023206D01*
X023026Y023216D01*
X023027Y023222D01*
X023028Y023225D01*
Y023233D01*
X023027Y023251D01*
X023025Y023266D01*
X023021Y02328D01*
X023017Y023292D01*
X023014Y023302D01*
X02301Y023308D01*
X023008Y023313D01*
X023007Y023314D01*
X022999Y023326D01*
X022989Y023336D01*
X02298Y023345D01*
X022971Y023353D01*
X022963Y023359D01*
X022956Y023363D01*
X022951Y023366D01*
X022951Y023367D01*
X02295D01*
X022943Y02337D01*
X022935Y023374D01*
X022917Y023381D01*
X022899Y023387D01*
X022881Y023393D01*
X022873Y023395D01*
X022865Y023397D01*
X022857Y023399D01*
X022852Y023401D01*
X022846Y023402D01*
X022843Y023403D01*
X02284Y023404D01*
X022839D01*
X022826Y023407D01*
X022814Y02341D01*
X022803Y023413D01*
X022792Y023416D01*
X022784Y023419D01*
X022776Y023422D01*
X022769Y023425D01*
X022763Y023427D01*
X022758Y02343D01*
X022755Y023432D01*
X022751Y023433D01*
X022749Y023435D01*
X022745Y023437D01*
X022744Y023438D01*
X022739Y023443D01*
X022735Y023448D01*
X022733Y023453D01*
X022732Y023458D01*
X02273Y023462D01*
X022729Y023466D01*
Y023468D01*
Y023469D01*
X02273Y023476D01*
X022732Y023482D01*
X022735Y023488D01*
X022738Y023493D01*
X02274Y023496D01*
X022743Y023498D01*
X022745Y0235D01*
X022746Y023501D01*
X022756Y023507D01*
X022767Y023512D01*
X022779Y023515D01*
X02279Y023518D01*
X0228Y023519D01*
X022808Y02352D01*
X022815D01*
X022831Y023519D01*
X022844Y023517D01*
X022855Y023514D01*
X022864Y023511D01*
X022871Y023508D01*
X022877Y023505D01*
X02288Y023503D01*
X02288Y023502D01*
X022888Y023495D01*
X022894Y023486D01*
X0229Y023477D01*
X022903Y023467D01*
X022906Y023459D01*
X022908Y023453D01*
X022909Y023447D01*
Y023447D01*
Y023446D01*
X023013Y02345D01*
X023012Y023463D01*
X02301Y023475D01*
X023007Y023487D01*
X023003Y023497D01*
X022999Y023507D01*
X022995Y023517D01*
X022991Y023525D01*
X022986Y023533D01*
X022981Y02354D01*
X022977Y023546D01*
X022972Y023551D01*
X022968Y023555D01*
X022965Y023558D01*
X022963Y023561D01*
X022962Y023562D01*
X022961Y023563D01*
X022951Y02357D01*
X022941Y023577D01*
X02293Y023583D01*
X022918Y023588D01*
X022906Y023592D01*
X022894Y023595D01*
X022871Y023601D01*
X02286Y023602D01*
X02285Y023604D01*
X02284Y023604D01*
X022832Y023605D01*
X022826Y023606D01*
X022817D01*
X022795Y023605D01*
X022776Y023603D01*
X022759Y0236D01*
X022744Y023597D01*
X022738Y023595D01*
X022732Y023593D01*
X022727Y023592D01*
X022723Y02359D01*
X02272Y023589D01*
X022718Y023588D01*
X022716Y023587D01*
X022715D01*
X022701Y02358D01*
X022688Y023572D01*
X022677Y023563D01*
X022668Y023555D01*
X022661Y023547D01*
X022656Y023541D01*
X022652Y023537D01*
X022652Y023536D01*
Y023535D01*
X022644Y023523D01*
X022639Y02351D01*
X022635Y023497D01*
X022633Y023486D01*
X022632Y023476D01*
X02263Y023469D01*
Y023466D01*
Y023464D01*
Y023463D01*
Y023462D01*
X022631Y023451D01*
X022632Y02344D01*
X022635Y02343D01*
X022638Y023421D01*
X022645Y023403D01*
X022654Y023387D01*
X022658Y023381D01*
X022662Y023376D01*
X022666Y02337D01*
X022669Y023366D01*
X022672Y023363D01*
X022675Y023361D01*
X022676Y023359D01*
X022677Y023359D01*
X022684Y023353D01*
X022692Y023348D01*
X0227Y023343D01*
X022709Y023339D01*
X022728Y02333D01*
X022747Y023322D01*
X022757Y023319D01*
X022765Y023316D01*
X022773Y023314D01*
X02278Y023312D01*
X022785Y02331D01*
X022789Y023309D01*
X022792Y023308D01*
X022793D01*
X022805Y023305D01*
X022815Y023302D01*
X022825Y0233D01*
X022834Y023298D01*
X022841Y023296D01*
X022848Y023294D01*
X022854Y023292D01*
X022859Y02329D01*
X022863Y02329D01*
X022867Y023288D01*
X022872Y023287D01*
X022875Y023285D01*
X022876D01*
X022886Y023282D01*
X022893Y023278D01*
X0229Y023274D01*
X022905Y023271D01*
X022908Y023268D01*
X022911Y023265D01*
X022912Y023264D01*
X022913Y023263D01*
X022917Y023258D01*
X02292Y023253D01*
X022921Y023248D01*
X022923Y023243D01*
X022923Y023239D01*
X022924Y023235D01*
Y023233D01*
Y023232D01*
X022923Y023222D01*
X02292Y023213D01*
X022916Y023204D01*
X022911Y023197D01*
X022906Y023191D01*
X022903Y023186D01*
X0229Y023183D01*
X022898Y023182D01*
X022888Y023176D01*
X022876Y023171D01*
X022863Y023167D01*
X022852Y023165D01*
X02284Y023163D01*
X022832Y023162D01*
X022823D01*
X022806Y023162D01*
X022792Y023165D01*
X022779Y023169D01*
X022768Y023174D01*
X022759Y023178D01*
X022753Y023182D01*
X022749Y023185D01*
X022748Y023185D01*
X022738Y023196D01*
X022731Y023207D01*
X022724Y023219D01*
X02272Y023232D01*
X022716Y023243D01*
X022713Y023252D01*
X022712Y023255D01*
Y023258D01*
X022712Y023259D01*
Y02326D01*
X022611Y023251D01*
X022613Y023235D01*
X022616Y02322D01*
X022621Y023206D01*
X022624Y023194D01*
X022629Y023182D01*
X022635Y023171D01*
X02264Y023161D01*
X022645Y023152D01*
X02265Y023145D01*
X022655Y023138D01*
X02266Y023132D01*
X022664Y023127D01*
X022667Y023123D01*
X02267Y023121D01*
X022672Y02312D01*
X022672Y023119D01*
X022683Y023111D01*
X022694Y023104D01*
X022706Y023098D01*
X022718Y023093D01*
X02273Y023089D01*
X022743Y023086D01*
X022767Y02308D01*
X022778Y023078D01*
X022789Y023077D01*
X022797Y023076D01*
X022806Y023075D01*
X022812Y023074D01*
X021609D01*
Y023674D01*
X023818D01*
Y023074D01*
D02*
G37*
G36*
X044641Y045124D02*
Y044665D01*
X043359D01*
Y045124D01*
X044641D01*
D02*
G37*
G36*
X024177Y019183D02*
X0232D01*
X023224Y019184D01*
X023245Y019186D01*
X023264Y019189D01*
X023273Y01919D01*
X023281Y019193D01*
X023287Y019194D01*
X023293Y019195D01*
X023298Y019197D01*
X023303Y019198D01*
X023307Y0192D01*
X023309Y019201D01*
X02331Y019201D01*
X023311D01*
X023327Y01921D01*
X023341Y019218D01*
X023353Y019227D01*
X023363Y019237D01*
X02337Y019245D01*
X023376Y019252D01*
X023379Y019257D01*
X023381Y019258D01*
Y019258D01*
X023389Y019273D01*
X023395Y019287D01*
X0234Y019301D01*
X023403Y019315D01*
X023404Y019325D01*
X023405Y01933D01*
X023406Y019334D01*
Y019341D01*
X023405Y019359D01*
X023403Y019375D01*
X023399Y019389D01*
X023395Y0194D01*
X023392Y01941D01*
X023388Y019417D01*
X023386Y019421D01*
X023385Y019423D01*
X023377Y019434D01*
X023367Y019445D01*
X023358Y019454D01*
X023349Y019461D01*
X023341Y019467D01*
X023334Y019471D01*
X02333Y019474D01*
X023329Y019475D01*
X023328D01*
X023321Y019479D01*
X023313Y019483D01*
X023295Y019489D01*
X023277Y019495D01*
X023259Y019501D01*
X023251Y019503D01*
X023243Y019506D01*
X023236Y019508D01*
X02323Y019509D01*
X023224Y019511D01*
X023221Y019511D01*
X023218Y019512D01*
X023217D01*
X023204Y019516D01*
X023192Y019519D01*
X023181Y019522D01*
X02317Y019525D01*
X023162Y019528D01*
X023154Y019531D01*
X023147Y019534D01*
X023142Y019536D01*
X023136Y019538D01*
X023133Y01954D01*
X023129Y019542D01*
X023127Y019543D01*
X023123Y019546D01*
X023122Y019546D01*
X023117Y019551D01*
X023113Y019557D01*
X023111Y019562D01*
X02311Y019567D01*
X023108Y019571D01*
X023108Y019574D01*
Y019577D01*
Y019577D01*
X023108Y019585D01*
X02311Y019591D01*
X023113Y019597D01*
X023116Y019601D01*
X023119Y019605D01*
X023122Y019607D01*
X023123Y019608D01*
X023124Y019609D01*
X023134Y019616D01*
X023145Y01962D01*
X023157Y019624D01*
X023168Y019626D01*
X023178Y019628D01*
X023186Y019628D01*
X023193D01*
X023209Y019628D01*
X023222Y019625D01*
X023233Y019622D01*
X023242Y019619D01*
X02325Y019617D01*
X023255Y019614D01*
X023258Y019611D01*
X023258Y019611D01*
X023266Y019603D01*
X023273Y019594D01*
X023278Y019585D01*
X023281Y019576D01*
X023284Y019568D01*
X023286Y019561D01*
X023287Y019556D01*
Y019555D01*
Y019554D01*
X023391Y019558D01*
X02339Y019571D01*
X023388Y019583D01*
X023385Y019595D01*
X023381Y019605D01*
X023378Y019616D01*
X023373Y019625D01*
X023369Y019634D01*
X023364Y019642D01*
X023359Y019648D01*
X023355Y019654D01*
X02335Y019659D01*
X023347Y019664D01*
X023344Y019667D01*
X023341Y019669D01*
X02334Y019671D01*
X023339Y019671D01*
X02333Y019679D01*
X023319Y019685D01*
X023308Y019691D01*
X023296Y019696D01*
X023284Y0197D01*
X023273Y019704D01*
X023249Y019709D01*
X023238Y019711D01*
X023228Y019712D01*
X023219Y019713D01*
X02321Y019713D01*
X023204Y019714D01*
X023195D01*
X023173Y019713D01*
X023154Y019711D01*
X023137Y019708D01*
X023122Y019705D01*
X023116Y019703D01*
X02311Y019702D01*
X023105Y0197D01*
X023101Y019699D01*
X023098Y019697D01*
X023096Y019696D01*
X023094Y019696D01*
X023093D01*
X023079Y019688D01*
X023066Y01968D01*
X023055Y019671D01*
X023046Y019663D01*
X023039Y019656D01*
X023034Y01965D01*
X023031Y019645D01*
X02303Y019645D01*
Y019644D01*
X023022Y019631D01*
X023017Y019618D01*
X023014Y019605D01*
X023011Y019594D01*
X02301Y019585D01*
X023008Y019577D01*
Y019574D01*
Y019572D01*
Y019571D01*
Y019571D01*
X023009Y01956D01*
X023011Y019548D01*
X023013Y019539D01*
X023016Y019529D01*
X023023Y019511D01*
X023032Y019496D01*
X023036Y019489D01*
X02304Y019484D01*
X023044Y019479D01*
X023048Y019474D01*
X023051Y019471D01*
X023053Y019469D01*
X023054Y019468D01*
X023055Y019467D01*
X023062Y019462D01*
X02307Y019457D01*
X023078Y019452D01*
X023088Y019447D01*
X023106Y019438D01*
X023125Y019431D01*
X023135Y019428D01*
X023143Y019425D01*
X023151Y019423D01*
X023158Y01942D01*
X023163Y019419D01*
X023167Y019417D01*
X02317Y019417D01*
X023171D01*
X023183Y019414D01*
X023193Y019411D01*
X023203Y019409D01*
X023212Y019406D01*
X023219Y019404D01*
X023226Y019403D01*
X023232Y0194D01*
X023237Y019399D01*
X023241Y019398D01*
X023245Y019397D01*
X02325Y019395D01*
X023253Y019394D01*
X023254D01*
X023264Y01939D01*
X023271Y019386D01*
X023278Y019383D01*
X023283Y019379D01*
X023287Y019376D01*
X023289Y019374D01*
X02329Y019372D01*
X023291Y019372D01*
X023295Y019366D01*
X023298Y019361D01*
X023299Y019356D01*
X023301Y019352D01*
X023301Y019347D01*
X023302Y019343D01*
Y019341D01*
Y019341D01*
X023301Y01933D01*
X023298Y019321D01*
X023294Y019312D01*
X02329Y019305D01*
X023284Y019299D01*
X023281Y019295D01*
X023278Y019292D01*
X023276Y019291D01*
X023266Y019284D01*
X023254Y019279D01*
X023241Y019275D01*
X02323Y019273D01*
X023219Y019272D01*
X02321Y01927D01*
X023201D01*
X023184Y019271D01*
X02317Y019274D01*
X023157Y019278D01*
X023146Y019282D01*
X023137Y019287D01*
X023131Y01929D01*
X023128Y019293D01*
X023126Y019294D01*
X023116Y019304D01*
X023109Y019315D01*
X023102Y019328D01*
X023098Y019341D01*
X023094Y019352D01*
X023091Y019361D01*
X023091Y019363D01*
Y019366D01*
X02309Y019368D01*
Y019369D01*
X022989Y019359D01*
X022991Y019343D01*
X022994Y019329D01*
X022999Y019315D01*
X023002Y019302D01*
X023008Y01929D01*
X023013Y019279D01*
X023018Y019269D01*
X023023Y019261D01*
X023028Y019253D01*
X023034Y019247D01*
X023038Y019241D01*
X023042Y019235D01*
X023045Y019232D01*
X023048Y01923D01*
X02305Y019228D01*
X023051Y019227D01*
X023061Y019219D01*
X023072Y019212D01*
X023084Y019207D01*
X023096Y019201D01*
X023108Y019198D01*
X023121Y019194D01*
X023145Y019189D01*
X023156Y019187D01*
X023167Y019185D01*
X023176Y019184D01*
X023184Y019184D01*
X02319Y019183D01*
X021609D01*
Y01977D01*
X024177D01*
Y019183D01*
D02*
G37*
G36*
X044641Y045632D02*
Y045175D01*
X043359D01*
Y045632D01*
X044641D01*
D02*
G37*
%LPC*%
G36*
X023782Y023599D02*
X023702D01*
X023694Y023582D01*
X023685Y023567D01*
X023674Y023552D01*
X023664Y02354D01*
X023655Y02353D01*
X023647Y023523D01*
X023644Y02352D01*
X023642Y023518D01*
X02364Y023517D01*
X02364Y023516D01*
X023623Y023504D01*
X023608Y023494D01*
X023594Y023486D01*
X023581Y02348D01*
X023571Y023475D01*
X023563Y023472D01*
X02356Y023471D01*
X023558Y02347D01*
X023557Y02347D01*
X023557D01*
Y023381D01*
X023583Y023391D01*
X023607Y023402D01*
X023618Y023408D01*
X023628Y023415D01*
X023638Y023421D01*
X023647Y023427D01*
X023655Y023433D01*
X023663Y023438D01*
X023668Y023442D01*
X023674Y023447D01*
X023678Y02345D01*
X023681Y023453D01*
X023683Y023454D01*
X023683Y023455D01*
Y023084D01*
X023782D01*
Y023599D01*
D02*
G37*
G36*
X023486Y023596D02*
X023079D01*
Y02351D01*
X023231D01*
Y023084D01*
X023335D01*
Y02351D01*
X023486D01*
Y023596D01*
D02*
G37*
G36*
X022541D02*
X022161D01*
Y023084D01*
X02255D01*
Y023171D01*
X022265D01*
Y02331D01*
X022521D01*
Y023396D01*
X022265D01*
Y02351D01*
X022541D01*
Y023596D01*
D02*
G37*
G36*
X021875D02*
X021645D01*
Y023084D01*
X021748D01*
Y023298D01*
X021781D01*
X021792Y023297D01*
X021801Y023296D01*
X021808Y023295D01*
X021814Y023294D01*
X021818Y023293D01*
X02182Y023292D01*
X021821D01*
X021827Y023289D01*
X021833Y023286D01*
X021838Y023282D01*
X021843Y023279D01*
X021847Y023276D01*
X02185Y023273D01*
X021851Y023271D01*
X021852Y023271D01*
X021855Y023267D01*
X021858Y023263D01*
X021867Y023252D01*
X021875Y02324D01*
X021885Y023227D01*
X021893Y023215D01*
X021897Y023209D01*
X0219Y023205D01*
X021903Y023201D01*
X021905Y023198D01*
X021906Y023196D01*
X021907Y023195D01*
X021981Y023084D01*
X022105D01*
X022042Y023184D01*
X022035Y023194D01*
X022029Y023205D01*
X022023Y023214D01*
X022017Y023222D01*
X022012Y023229D01*
X022007Y023236D01*
X021998Y023248D01*
X021992Y023256D01*
X021987Y023262D01*
X021983Y023266D01*
X021983Y023267D01*
X021975Y023276D01*
X021965Y023284D01*
X021956Y02329D01*
X021947Y023297D01*
X02194Y023302D01*
X021934Y023306D01*
X021929Y023309D01*
X021929Y02331D01*
X021928D01*
X021941Y023312D01*
X021952Y023315D01*
X021962Y023318D01*
X021972Y023322D01*
X021981Y023325D01*
X021989Y023329D01*
X021998Y023333D01*
X022004Y023337D01*
X02201Y023341D01*
X022015Y023345D01*
X02202Y023348D01*
X022023Y023351D01*
X022026Y023353D01*
X022028Y023356D01*
X022029Y023356D01*
X022029Y023357D01*
X022035Y023364D01*
X02204Y023372D01*
X022049Y023388D01*
X022055Y023404D01*
X022059Y023419D01*
X022062Y023433D01*
X022063Y023438D01*
Y023443D01*
X022063Y023447D01*
Y02345D01*
Y023452D01*
Y023453D01*
X022063Y023469D01*
X02206Y023484D01*
X022056Y023498D01*
X022052Y02351D01*
X022048Y023519D01*
X022044Y023527D01*
X022043Y023529D01*
X022041Y023531D01*
X02204Y023532D01*
Y023532D01*
X022032Y023545D01*
X022022Y023555D01*
X022012Y023564D01*
X022003Y023571D01*
X021994Y023575D01*
X021987Y023579D01*
X021983Y023581D01*
X021982Y023582D01*
X021981D01*
X021974Y023584D01*
X021966Y023586D01*
X021947Y02359D01*
X021927Y023592D01*
X021908Y023595D01*
X021898D01*
X02189Y023595D01*
X021882D01*
X021875Y023596D01*
D02*
G37*
%LPD*%
G36*
X021873Y023509D02*
X02189D01*
X021896Y023508D01*
X021901D01*
X021903Y023507D01*
X021904D01*
X021912Y023505D01*
X021921Y023502D01*
X021927Y023499D01*
X021932Y023495D01*
X021937Y023492D01*
X021941Y02349D01*
X021942Y023487D01*
X021943Y023487D01*
X021947Y023481D01*
X021951Y023473D01*
X021953Y023467D01*
X021955Y02346D01*
X021956Y023454D01*
X021957Y02345D01*
Y023447D01*
Y023445D01*
X021956Y023437D01*
X021955Y02343D01*
X021953Y023423D01*
X021952Y023417D01*
X021949Y023413D01*
X021947Y02341D01*
X021946Y023407D01*
X021946Y023407D01*
X021941Y023401D01*
X021937Y023397D01*
X021927Y02339D01*
X021924Y023388D01*
X02192Y023387D01*
X021918Y023385D01*
X021917D01*
X021913Y023384D01*
X021907Y023383D01*
X021901Y023382D01*
X021895Y023382D01*
X021879Y023381D01*
X021864Y02338D01*
X021849Y023379D01*
X021748D01*
Y02351D01*
X021867D01*
X021873Y023509D01*
D02*
G37*
%LPC*%
G36*
X044131Y04512D02*
X044088D01*
Y045077D01*
X044131D01*
Y04512D01*
D02*
G37*
G36*
X044246Y045124D02*
X044243D01*
X044237Y045124D01*
X044231Y045123D01*
X044226Y045122D01*
X044221Y045121D01*
X044216Y04512D01*
X044212Y045118D01*
X044207Y045116D01*
X044204Y045114D01*
X044201Y045112D01*
X044197Y04511D01*
X044195Y045109D01*
X044193Y045107D01*
X044191Y045106D01*
X04419Y045105D01*
X044189Y045104D01*
X044189Y045104D01*
X044185Y0451D01*
X044182Y045096D01*
X044179Y045091D01*
X044176Y045087D01*
X044174Y045083D01*
X044172Y045078D01*
X04417Y045071D01*
X044169Y045067D01*
X044169Y045064D01*
X044168Y045061D01*
X044168Y045058D01*
X044167Y045056D01*
Y045053D01*
X044168Y045046D01*
X044169Y045039D01*
X044171Y045033D01*
X044173Y045028D01*
X044175Y045024D01*
X044177Y045021D01*
X044178Y045019D01*
X044179Y045018D01*
X044183Y045014D01*
X044189Y045009D01*
X044194Y045006D01*
X044199Y045004D01*
X044203Y045002D01*
X044206Y045001D01*
X044208Y045D01*
X044209D01*
X044209Y045D01*
X04421D01*
X044204Y044996D01*
X044199Y044993D01*
X044195Y044989D01*
X044191Y044985D01*
X044188Y044981D01*
X044185Y044977D01*
X044183Y044973D01*
X044181Y04497D01*
X04418Y044966D01*
X044179Y044963D01*
X044178Y04496D01*
X044178Y044957D01*
X044178Y044955D01*
X044177Y044954D01*
Y044953D01*
Y044952D01*
X044178Y044948D01*
X044178Y044945D01*
X04418Y044938D01*
X044182Y044931D01*
X044185Y044926D01*
X044188Y044921D01*
X044191Y044918D01*
X044192Y044917D01*
X044193Y044916D01*
X044193Y044915D01*
X044193Y044915D01*
X044197Y044912D01*
X044201Y044908D01*
X044205Y044906D01*
X044209Y044903D01*
X044214Y044901D01*
X044218Y0449D01*
X044226Y044897D01*
X044229Y044896D01*
X044233Y044896D01*
X044236Y044895D01*
X044239Y044895D01*
X044241Y044895D01*
X044167D01*
D01*
X044316D01*
X044244D01*
X044251Y044895D01*
X044257Y044896D01*
X044263Y044897D01*
X044268Y044898D01*
X044272Y0449D01*
X044275Y044901D01*
X044277Y044901D01*
X044277Y044902D01*
X044277D01*
X044283Y044905D01*
X044287Y044908D01*
X044291Y044911D01*
X044295Y044914D01*
X044297Y044917D01*
X044299Y044919D01*
X0443Y044921D01*
X044301Y044921D01*
X044304Y044926D01*
X044306Y044931D01*
X044308Y044937D01*
X04431Y044942D01*
X044311Y044947D01*
X044312Y04495D01*
X044313Y044952D01*
Y044953D01*
X044313Y044954D01*
Y044954D01*
X044274Y04496D01*
X044273Y044955D01*
X044271Y044951D01*
X04427Y044947D01*
X044268Y044944D01*
X044267Y044941D01*
X044265Y044939D01*
X044264Y044938D01*
X044264Y044938D01*
X044261Y044936D01*
X044258Y044934D01*
X044255Y044932D01*
X044252Y044931D01*
X044249Y044931D01*
X044247Y04493D01*
X044245D01*
X044241Y044931D01*
X044238Y044931D01*
X044235Y044933D01*
X044232Y044934D01*
X04423Y044935D01*
X044228Y044936D01*
X044228Y044937D01*
X044227Y044937D01*
X044225Y04494D01*
X044223Y044943D01*
X044222Y044946D01*
X044221Y044949D01*
X044221Y044951D01*
X04422Y044953D01*
Y044955D01*
Y044955D01*
X044221Y04496D01*
X044222Y044964D01*
X044223Y044968D01*
X044225Y044971D01*
X044227Y044973D01*
X044228Y044975D01*
X044229Y044976D01*
X04423Y044977D01*
X044234Y044979D01*
X044238Y044981D01*
X044242Y044983D01*
X044247Y044983D01*
X044251Y044984D01*
X044254Y044984D01*
X044257D01*
X044261Y045019D01*
X044257Y045018D01*
X044253Y045017D01*
X04425Y045016D01*
X044247Y045016D01*
X044245Y045016D01*
X044241D01*
X044237Y045016D01*
X044233Y045017D01*
X044229Y045018D01*
X044226Y04502D01*
X044224Y045022D01*
X044222Y045024D01*
X044221Y045025D01*
X04422Y045025D01*
X044217Y045029D01*
X044215Y045033D01*
X044214Y045038D01*
X044212Y045042D01*
X044212Y045046D01*
X044211Y045049D01*
Y045051D01*
Y045051D01*
Y045051D01*
X044212Y045057D01*
X044213Y045063D01*
X044214Y045068D01*
X044216Y045072D01*
X044218Y045075D01*
X044219Y045077D01*
X04422Y045078D01*
X044221Y045079D01*
X044224Y045082D01*
X044228Y045085D01*
X044232Y045086D01*
X044235Y045087D01*
X044239Y045088D01*
X044241Y045088D01*
X044242Y045089D01*
X044243D01*
X044248Y045088D01*
X044251Y045087D01*
X044255Y045086D01*
X044258Y045085D01*
X044261Y045083D01*
X044262Y045082D01*
X044264Y045081D01*
X044264Y045081D01*
X044267Y045077D01*
X04427Y045073D01*
X044271Y045069D01*
X044273Y045065D01*
X044274Y045062D01*
X044274Y045059D01*
X044275Y045057D01*
Y045056D01*
Y045056D01*
X044316Y045061D01*
X044316Y045066D01*
X044314Y045071D01*
X044311Y04508D01*
X044308Y045088D01*
X044306Y045091D01*
X044304Y045095D01*
X044302Y045098D01*
X0443Y0451D01*
X044298Y045102D01*
X044297Y045104D01*
X044295Y045105D01*
X044294Y045106D01*
X044294Y045107D01*
X044293Y045107D01*
X044289Y04511D01*
X044285Y045113D01*
X044281Y045115D01*
X044277Y045117D01*
X044268Y04512D01*
X044261Y045122D01*
X044257Y045123D01*
X044253Y045123D01*
X044251Y045124D01*
X044248Y045124D01*
X044246Y045124D01*
D02*
G37*
G36*
X043984D02*
X043906D01*
X043981D01*
X043975Y045124D01*
X04397Y045123D01*
X043964Y045122D01*
X043959Y045121D01*
X043955Y04512D01*
X04395Y045118D01*
X043946Y045116D01*
X043942Y045114D01*
X043939Y045112D01*
X043936Y04511D01*
X043934Y045109D01*
X043931Y045107D01*
X04393Y045106D01*
X043928Y045105D01*
X043928Y045104D01*
X043927Y045104D01*
X043924Y0451D01*
X04392Y045096D01*
X043917Y045091D01*
X043915Y045087D01*
X043913Y045083D01*
X043911Y045078D01*
X043908Y045071D01*
X043908Y045067D01*
X043907Y045064D01*
X043906Y045061D01*
X043906Y045058D01*
X043906Y045056D01*
Y045053D01*
X043906Y045046D01*
X043908Y045039D01*
X043909Y045033D01*
X043912Y045028D01*
X043914Y045024D01*
X043915Y045021D01*
X043917Y045019D01*
X043917Y045018D01*
X043922Y045014D01*
X043927Y045009D01*
X043932Y045006D01*
X043937Y045004D01*
X043941Y045002D01*
X043945Y045001D01*
X043946Y045D01*
X043947D01*
X043948Y045D01*
X043948D01*
X043942Y044996D01*
X043938Y044993D01*
X043933Y044989D01*
X043929Y044985D01*
X043926Y044981D01*
X043924Y044977D01*
X043922Y044973D01*
X04392Y04497D01*
X043918Y044966D01*
X043917Y044963D01*
X043917Y04496D01*
X043916Y044957D01*
X043916Y044955D01*
X043916Y044954D01*
Y044953D01*
Y044952D01*
X043916Y044948D01*
X043916Y044945D01*
X043918Y044938D01*
X043921Y044931D01*
X043924Y044926D01*
X043927Y044921D01*
X043929Y044918D01*
X04393Y044917D01*
X043931Y044916D01*
X043931Y044915D01*
X043932Y044915D01*
X043935Y044912D01*
X043939Y044908D01*
X043943Y044906D01*
X043948Y044903D01*
X043952Y044901D01*
X043956Y0449D01*
X043964Y044897D01*
X043968Y044896D01*
X043972Y044896D01*
X043974Y044895D01*
X043977Y044895D01*
X04398Y044895D01*
X043906D01*
X044055D01*
X043983D01*
X043989Y044895D01*
X043996Y044896D01*
X044001Y044897D01*
X044006Y044898D01*
X04401Y0449D01*
X044013Y044901D01*
X044015Y044901D01*
X044016Y044902D01*
X044016D01*
X044021Y044905D01*
X044026Y044908D01*
X04403Y044911D01*
X044033Y044914D01*
X044036Y044917D01*
X044038Y044919D01*
X044039Y044921D01*
X044039Y044921D01*
X044042Y044926D01*
X044045Y044931D01*
X044047Y044937D01*
X044049Y044942D01*
X04405Y044947D01*
X044051Y04495D01*
X044051Y044952D01*
Y044953D01*
X044052Y044954D01*
Y044954D01*
X044012Y04496D01*
X044011Y044955D01*
X04401Y044951D01*
X044008Y044947D01*
X044007Y044944D01*
X044005Y044941D01*
X044004Y044939D01*
X044003Y044938D01*
X044003Y044938D01*
X044Y044936D01*
X043996Y044934D01*
X043993Y044932D01*
X04399Y044931D01*
X043988Y044931D01*
X043986Y04493D01*
X043984D01*
X04398Y044931D01*
X043976Y044931D01*
X043973Y044933D01*
X043971Y044934D01*
X043968Y044935D01*
X043967Y044936D01*
X043966Y044937D01*
X043966Y044937D01*
X043963Y04494D01*
X043962Y044943D01*
X043961Y044946D01*
X04396Y044949D01*
X043959Y044951D01*
X043959Y044953D01*
Y044955D01*
Y044955D01*
X043959Y04496D01*
X04396Y044964D01*
X043962Y044968D01*
X043963Y044971D01*
X043965Y044973D01*
X043967Y044975D01*
X043968Y044976D01*
X043968Y044977D01*
X043972Y044979D01*
X043976Y044981D01*
X043981Y044983D01*
X043985Y044983D01*
X043989Y044984D01*
X043992Y044984D01*
X043995D01*
X044Y045019D01*
X043996Y045018D01*
X043992Y045017D01*
X043988Y045016D01*
X043985Y045016D01*
X043983Y045016D01*
X04398D01*
X043975Y045016D01*
X043972Y045017D01*
X043968Y045018D01*
X043965Y04502D01*
X043962Y045022D01*
X043961Y045024D01*
X043959Y045025D01*
X043959Y045025D01*
X043956Y045029D01*
X043954Y045033D01*
X043952Y045038D01*
X043951Y045042D01*
X04395Y045046D01*
X04395Y045049D01*
Y045051D01*
Y045051D01*
Y045051D01*
X04395Y045057D01*
X043951Y045063D01*
X043953Y045068D01*
X043954Y045072D01*
X043956Y045075D01*
X043958Y045077D01*
X043959Y045078D01*
X043959Y045079D01*
X043963Y045082D01*
X043967Y045085D01*
X04397Y045086D01*
X043974Y045087D01*
X043977Y045088D01*
X043979Y045088D01*
X043981Y045089D01*
X043982D01*
X043986Y045088D01*
X04399Y045087D01*
X043994Y045086D01*
X043997Y045085D01*
X043999Y045083D01*
X044001Y045082D01*
X044002Y045081D01*
X044003Y045081D01*
X044006Y045077D01*
X044008Y045073D01*
X04401Y045069D01*
X044011Y045065D01*
X044012Y045062D01*
X044013Y045059D01*
X044013Y045057D01*
Y045056D01*
Y045056D01*
X044055Y045061D01*
X044054Y045066D01*
X044053Y045071D01*
X04405Y04508D01*
X044046Y045088D01*
X044044Y045091D01*
X044042Y045095D01*
X04404Y045098D01*
X044038Y0451D01*
X044037Y045102D01*
X044035Y045104D01*
X044034Y045105D01*
X044033Y045106D01*
X044032Y045107D01*
X044032Y045107D01*
X044028Y04511D01*
X044024Y045113D01*
X04402Y045115D01*
X044015Y045117D01*
X044007Y04512D01*
X043999Y045122D01*
X043995Y045123D01*
X043992Y045123D01*
X043989Y045124D01*
X043986Y045124D01*
X043984Y045124D01*
D02*
G37*
G36*
X043812Y04512D02*
X043763D01*
X043683Y044896D01*
X043829D01*
X043731D01*
X043786Y045062D01*
X043843Y044896D01*
X043892D01*
X043812Y04512D01*
D02*
G37*
G36*
X02416Y019708D02*
X02408D01*
X024072Y019691D01*
X024063Y019675D01*
X024053Y01966D01*
X024042Y019648D01*
X024033Y019639D01*
X024025Y019631D01*
X024022Y019628D01*
X02402Y019626D01*
X024018Y019625D01*
X024018Y019625D01*
X024001Y019613D01*
X023986Y019602D01*
X023972Y019594D01*
X023959Y019588D01*
X023949Y019584D01*
X023942Y01958D01*
X023939Y01958D01*
X023936Y019579D01*
X023936Y019578D01*
X023935D01*
Y019489D01*
X023961Y0195D01*
X023985Y019511D01*
X023996Y019517D01*
X024007Y019523D01*
X024016Y019529D01*
X024025Y019535D01*
X024033Y019541D01*
X024041Y019546D01*
X024047Y019551D01*
X024052Y019555D01*
X024056Y019559D01*
X024059Y019561D01*
X024061Y019563D01*
X024061Y019563D01*
Y019193D01*
X02416D01*
Y019708D01*
D02*
G37*
G36*
X023864Y019705D02*
X023458D01*
Y019618D01*
X023609D01*
Y019193D01*
X023713D01*
Y019618D01*
X023864D01*
Y019705D01*
D02*
G37*
G36*
X022755D02*
X022646D01*
X022447Y019193D01*
X022557D01*
X022599Y019309D01*
X022805D01*
X022849Y019193D01*
X022961D01*
X022755Y019705D01*
D02*
G37*
G36*
X022168Y019701D02*
X022065D01*
Y019193D01*
X022426D01*
Y019279D01*
X022168D01*
Y019701D01*
D02*
G37*
G36*
X021977Y019705D02*
X021625D01*
Y019193D01*
X021729D01*
Y01941D01*
X021943D01*
Y019497D01*
X021729D01*
Y019618D01*
X021977D01*
Y019705D01*
D02*
G37*
%LPD*%
G36*
X022772Y019395D02*
X02263D01*
X0227Y019585D01*
X022772Y019395D01*
D02*
G37*
%LPC*%
G36*
X044113Y045632D02*
X044033D01*
X044111D01*
X044103Y045632D01*
X044097Y045631D01*
X04409Y04563D01*
X044085Y045628D01*
X044079Y045625D01*
X044074Y045623D01*
X04407Y04562D01*
X044066Y045617D01*
X044062Y045615D01*
X044059Y045612D01*
X044056Y045609D01*
X044054Y045607D01*
X044052Y045605D01*
X044051Y045604D01*
X04405Y045603D01*
X04405Y045603D01*
X044047Y045598D01*
X044044Y045594D01*
X044042Y04559D01*
X04404Y045586D01*
X044037Y045577D01*
X044035Y045569D01*
X044035Y045566D01*
X044034Y045563D01*
X044034Y04556D01*
Y045557D01*
X044033Y045555D01*
Y04556D01*
Y045407D01*
Y045553D01*
X044034Y045547D01*
X044034Y045541D01*
X044035Y045535D01*
X044037Y04553D01*
X044038Y045526D01*
X04404Y045521D01*
X044042Y045517D01*
X044043Y045513D01*
X044045Y04551D01*
X044047Y045507D01*
X044049Y045505D01*
X04405Y045503D01*
X044052Y045501D01*
X044053Y0455D01*
X044053Y045499D01*
X044054Y045499D01*
X044057Y045495D01*
X044061Y045492D01*
X044066Y045489D01*
X04407Y045486D01*
X044074Y045484D01*
X044078Y045483D01*
X044085Y04548D01*
X044089Y045479D01*
X044092Y045479D01*
X044095Y045478D01*
X044097Y045478D01*
X044099Y045478D01*
X044102D01*
X044108Y045478D01*
X044113Y045479D01*
X044118Y04548D01*
X044123Y045481D01*
X044126Y045483D01*
X044129Y045484D01*
X044131Y045485D01*
X044131Y045485D01*
X044132D01*
X044125Y045447D01*
X044043D01*
Y045407D01*
X044033D01*
X044184D01*
X044157D01*
X044179Y045524D01*
X044145Y045528D01*
X044142Y045526D01*
X044139Y045523D01*
X044136Y045521D01*
X044133Y045519D01*
X044127Y045516D01*
X044122Y045514D01*
X044118Y045513D01*
X044114Y045512D01*
X044113Y045512D01*
X044111D01*
X044106Y045512D01*
X044101Y045514D01*
X044097Y045515D01*
X044093Y045517D01*
X044091Y045519D01*
X044089Y045521D01*
X044087Y045522D01*
X044087Y045523D01*
X044084Y045527D01*
X044081Y045532D01*
X04408Y045537D01*
X044079Y045542D01*
X044078Y045547D01*
X044077Y04555D01*
Y045552D01*
Y045553D01*
Y045553D01*
Y045554D01*
X044078Y045562D01*
X044079Y045568D01*
X04408Y045574D01*
X044082Y045578D01*
X044084Y045582D01*
X044085Y045585D01*
X044087Y045586D01*
X044087Y045587D01*
X04409Y04559D01*
X044094Y045593D01*
X044098Y045595D01*
X044102Y045597D01*
X044105Y045597D01*
X044108Y045598D01*
X044109Y045598D01*
X04411D01*
X044114Y045598D01*
X044118Y045597D01*
X044122Y045595D01*
X044125Y045594D01*
X044127Y045592D01*
X044129Y045591D01*
X044131Y04559D01*
X044131Y045589D01*
X044134Y045586D01*
X044136Y045582D01*
X044138Y045578D01*
X04414Y045575D01*
X044141Y045572D01*
X044141Y045569D01*
X044142Y045567D01*
Y045566D01*
X044184Y045571D01*
X044183Y045576D01*
X044182Y045581D01*
X044179Y04559D01*
X044176Y045598D01*
X044174Y045601D01*
X044171Y045604D01*
X04417Y045607D01*
X044168Y045609D01*
X044166Y045611D01*
X044165Y045613D01*
X044163Y045614D01*
X044162Y045615D01*
X044162Y045615D01*
X044161Y045616D01*
X044158Y045619D01*
X044154Y045621D01*
X044149Y045623D01*
X044145Y045625D01*
X044136Y045628D01*
X044129Y04563D01*
X044125Y045631D01*
X044122Y045631D01*
X044118Y045632D01*
X044116Y045632D01*
X044113Y045632D01*
D02*
G37*
G36*
X043944Y045628D02*
X043895D01*
X043815Y045404D01*
X044024D01*
D01*
X043944Y045628D01*
D02*
G37*
%LPD*%
G36*
X043975Y045404D02*
X043863D01*
X043918Y04557D01*
X043975Y045404D01*
D02*
G37*
D10*
X0265Y02065D02*
G03*
X0257Y02065I-0004J0D01*
G01*
Y01865D02*
G03*
X0265Y01865I0004J0D01*
G01*
X03055Y02065D02*
G03*
X02975Y02065I-0004J0D01*
G01*
Y01865D02*
G03*
X03055Y01865I0004J0D01*
G01*
X0346Y02065D02*
G03*
X0338Y02065I-0004J0D01*
G01*
Y01865D02*
G03*
X0346Y01865I0004J0D01*
G01*
X0155Y037809D02*
G03*
X0137Y0378I-0009J-000006D01*
G01*
Y0355D02*
G03*
X015499Y035499I000899J-00003D01*
G01*
X01535Y0378D02*
G03*
X01385Y037793I-00075J-000005D01*
G01*
Y035493D02*
G03*
X01535Y0355I00075J000005D01*
G01*
X0265Y01865D02*
Y02065D01*
X0257Y01865D02*
Y02065D01*
X02585Y0199D02*
X0264D01*
X02585Y01945D02*
X0264D01*
X0261Y0199D02*
Y0202D01*
Y01915D02*
Y01945D01*
X04145Y01385D02*
X04475D01*
Y01315D02*
Y0186D01*
X04145Y01315D02*
Y0186D01*
X04475D01*
X04145Y01315D02*
X04475D01*
X03055Y01865D02*
Y02065D01*
X02975Y01865D02*
Y02065D01*
X0299Y0199D02*
X03045D01*
X0299Y01945D02*
X03045D01*
X03015Y0199D02*
Y0202D01*
Y01915D02*
Y01945D01*
X0346Y01865D02*
Y02065D01*
X0338Y01865D02*
Y02065D01*
X03395Y0199D02*
X0345D01*
X03395Y01945D02*
X0345D01*
X0342Y0199D02*
Y0202D01*
Y01915D02*
Y01945D01*
X0137Y0355D02*
X0137Y0378D01*
X0155Y0355D02*
Y0378D01*
X01385Y0355D02*
X01385Y0378D01*
X01535Y0355D02*
Y0378D01*
D11*
X040889Y036017D02*
G03*
X040889Y036017I-000039J0D01*
G01*
X045022Y01965D02*
G03*
X045022Y01965I-000039J0D01*
G01*
X019922Y017434D02*
G03*
X019922Y017434I-000039J0D01*
G01*
X041933Y035346D02*
G03*
X041933Y035346I-000039J0D01*
G01*
X037599Y039497D02*
G03*
X037599Y038946I0J-000276D01*
G01*
X035099Y039476D02*
G03*
X035099Y038924I0J-000276D01*
G01*
X032499Y039476D02*
G03*
X032499Y038924I0J-000276D01*
G01*
X037502Y029226D02*
G03*
X037502Y028674I0J-000276D01*
G01*
X033402Y029226D02*
G03*
X033402Y028674I0J-000276D01*
G01*
X029352Y029226D02*
G03*
X029352Y028674I0J-000276D01*
G01*
X016802Y02086D02*
G03*
X016802Y02086I-000039J0D01*
G01*
X041346Y040366D02*
X042054D01*
Y039182D02*
Y040366D01*
X041346Y039182D02*
Y040366D01*
Y039182D02*
X042054D01*
X023517Y037759D02*
Y038941D01*
X023083Y037759D02*
X023517D01*
X023083D02*
Y038941D01*
X023517D01*
X02275Y03765D02*
X02385D01*
X02275Y03905D02*
X02385D01*
X02275Y03765D02*
Y03805D01*
Y03865D02*
Y03905D01*
X013841Y025477D02*
Y032623D01*
X021164D02*
X021459D01*
X013841D02*
X014014D01*
X021459Y025477D02*
Y026477D01*
Y031627D02*
Y032623D01*
X021164Y025477D02*
X021459D01*
X013841D02*
X014014D01*
X020961Y035039D02*
Y038661D01*
X017339Y035039D02*
Y038661D01*
Y035039D02*
X020961D01*
X017339Y038661D02*
X020961D01*
X02405Y0314D02*
X02505D01*
Y0274D02*
Y0314D01*
X02405Y0274D02*
Y0314D01*
Y0274D02*
X02505D01*
X02405Y0284D02*
X02505D01*
X0229Y028422D02*
X0239D01*
X0229Y027422D02*
X0239D01*
X0229D02*
Y031422D01*
X0239Y027422D02*
Y031422D01*
X0229D02*
X0239D01*
X035796Y037942D02*
X037599D01*
X035796Y040501D02*
X037599D01*
X035796Y037942D02*
Y040501D01*
X037599Y039497D02*
Y040501D01*
Y037942D02*
Y038946D01*
X033296Y03792D02*
X035099D01*
X033296Y04048D02*
X035099D01*
X033296Y03792D02*
Y04048D01*
X035099Y039476D02*
Y04048D01*
Y03792D02*
Y038924D01*
X032499Y03792D02*
Y038924D01*
Y039476D02*
Y04048D01*
X030696Y03792D02*
Y04048D01*
X032499D01*
X030696Y03792D02*
X032499D01*
X037502Y02767D02*
Y028674D01*
Y029226D02*
Y03023D01*
X035698Y02767D02*
Y03023D01*
X037502D01*
X035698Y02767D02*
X037502D01*
X033402D02*
Y028674D01*
Y029226D02*
Y03023D01*
X031598Y02767D02*
Y03023D01*
X033402D01*
X031598Y02767D02*
X033402D01*
X027548D02*
X029352D01*
X027548Y03023D02*
X029352D01*
X027548Y02767D02*
Y03023D01*
X029352Y029226D02*
Y03023D01*
Y02767D02*
Y028674D01*
X036222Y025696D02*
Y026404D01*
Y025696D02*
X037678D01*
X036222Y026404D02*
X037678D01*
Y025696D02*
Y026404D01*
X032122Y025696D02*
Y026404D01*
Y025696D02*
X033578D01*
X032122Y026404D02*
X033578D01*
Y025696D02*
Y026404D01*
X029578Y025696D02*
Y026404D01*
X028122D02*
X029578D01*
X028122Y025696D02*
X029578D01*
X028122D02*
Y026404D01*
X02305Y0403D02*
Y0413D01*
X01705Y0403D02*
Y0413D01*
X02305D01*
X01705Y0403D02*
X02305D01*
X01805D02*
Y0413D01*
X014111Y039D02*
Y039708D01*
X015295D01*
X014111Y039D02*
X015295D01*
Y039708D01*
X022934Y019796D02*
Y020504D01*
X024118D01*
X022934Y019796D02*
X024118D01*
Y020504D01*
X022932Y020596D02*
Y021304D01*
X024116D01*
X022932Y020596D02*
X024116D01*
Y021304D01*
X043996Y029232D02*
X044704D01*
X043996D02*
Y030416D01*
X044704Y029232D02*
Y030416D01*
X043996D02*
X044704D01*
X047068Y038996D02*
Y039704D01*
X045884Y038996D02*
X047068D01*
X045884Y039704D02*
X047068D01*
X045884Y038996D02*
Y039704D01*
X014183Y022959D02*
Y024141D01*
X014617D01*
Y022959D02*
Y024141D01*
X014183Y022959D02*
X014617D01*
X01385Y02425D02*
X01495D01*
X01385Y02285D02*
X01495D01*
Y02385D02*
Y02425D01*
Y02285D02*
Y02325D01*
X016267Y022209D02*
Y023391D01*
X015833Y022209D02*
X016267D01*
X015833D02*
Y023391D01*
X016267D01*
X0155Y0221D02*
X0166D01*
X0155Y0235D02*
X0166D01*
X0155Y0221D02*
Y0225D01*
Y0231D02*
Y0235D01*
D12*
X029238Y041529D02*
G03*
X029252Y041514I-001539J-001448D01*
G01*
X043225Y027786D02*
G03*
X043211Y027773I-001333J001417D01*
G01*
X048125Y027786D02*
G03*
X048111Y027773I-001333J001417D01*
G01*
X025209Y031098D02*
X025442D01*
X025325D01*
Y030748D01*
X025558Y031098D02*
X025792Y030748D01*
Y031098D02*
X025558Y030748D01*
X026142D02*
X025908D01*
X026142Y030981D01*
Y03104D01*
X026083Y031098D01*
X025967D01*
X025908Y03104D01*
X022305Y031048D02*
X022246Y031106D01*
X02213D01*
X022071Y031048D01*
Y03099D01*
X02213Y030931D01*
X022246D01*
X022305Y030873D01*
Y030815D01*
X022246Y030756D01*
X02213D01*
X022071Y030815D01*
X022421Y031106D02*
Y030756D01*
X022596D01*
X022655Y030815D01*
Y031048D01*
X022596Y031106D01*
X022421D01*
X022771Y030756D02*
Y03099D01*
X022888Y031106D01*
X023004Y03099D01*
Y030756D01*
Y030931D01*
X022771D01*
X025209Y029748D02*
Y030098D01*
X025384D01*
X025442Y03004D01*
Y029923D01*
X025384Y029865D01*
X025209D01*
X025325D02*
X025442Y029748D01*
X025558Y030098D02*
X025792Y029748D01*
Y030098D02*
X025558Y029748D01*
X026142D02*
X025908D01*
X026142Y029981D01*
Y03004D01*
X026083Y030098D01*
X025967D01*
X025908Y03004D01*
X022305Y030048D02*
X022246Y030106D01*
X02213D01*
X022071Y030048D01*
Y02999D01*
X02213Y029931D01*
X022246D01*
X022305Y029873D01*
Y029815D01*
X022246Y029756D01*
X02213D01*
X022071Y029815D01*
X022655Y030048D02*
X022596Y030106D01*
X02248D01*
X022421Y030048D01*
Y029815D01*
X02248Y029756D01*
X022596D01*
X022655Y029815D01*
X022771Y030106D02*
Y029756D01*
X023004D01*
X025442Y02904D02*
X025384Y029098D01*
X025267D01*
X025209Y02904D01*
Y028806D01*
X025267Y028748D01*
X025384D01*
X025442Y028806D01*
Y028923D01*
X025325D01*
X025558Y028748D02*
Y029098D01*
X025792Y028748D01*
Y029098D01*
X025908D02*
Y028748D01*
X026083D01*
X026142Y028806D01*
Y02904D01*
X026083Y029098D01*
X025908D01*
X022305Y029048D02*
X022246Y029106D01*
X02213D01*
X022071Y029048D01*
Y028815D01*
X02213Y028756D01*
X022246D01*
X022305Y028815D01*
Y028931D01*
X022188D01*
X022421Y028756D02*
Y029106D01*
X022655Y028756D01*
Y029106D01*
X022771D02*
Y028756D01*
X022946D01*
X023004Y028815D01*
Y029048D01*
X022946Y029106D01*
X022771D01*
X022121Y028048D02*
X02218Y028106D01*
X022296D01*
X022355Y028048D01*
Y02799D01*
X022296Y027931D01*
X022238D01*
X022296D01*
X022355Y027873D01*
Y027815D01*
X022296Y027756D01*
X02218D01*
X022121Y027815D01*
X022471Y027756D02*
Y027815D01*
X02253D01*
Y027756D01*
X022471D01*
X022763Y028048D02*
X022821Y028106D01*
X022938D01*
X022996Y028048D01*
Y02799D01*
X022938Y027931D01*
X02288D01*
X022938D01*
X022996Y027873D01*
Y027815D01*
X022938Y027756D01*
X022821D01*
X022763Y027815D01*
X025442Y028098D02*
X025209D01*
Y027923D01*
X025325Y027981D01*
X025384D01*
X025442Y027923D01*
Y027806D01*
X025384Y027748D01*
X025267D01*
X025209Y027806D01*
X025558Y028098D02*
Y027865D01*
X025675Y027748D01*
X025792Y027865D01*
Y028098D01*
D13*
X013802Y025241D02*
G03*
X013802Y025241I-000049J0D01*
G01*
X021649Y0344D02*
G03*
X021649Y0344I-000049J0D01*
G01*
X03855Y0208D02*
Y0253D01*
X03995D01*
Y0208D02*
Y0253D01*
X03855Y0208D02*
X03995D01*
D14*
X045845Y040815D02*
G03*
X048155Y040815I001155J000385D01*
G01*
X048114Y041605D02*
G03*
X045886Y041605I-001114J-000405D01*
G01*
X045695Y037115D02*
G03*
X048005Y037115I001155J000385D01*
G01*
X047964Y037905D02*
G03*
X045736Y037905I-001114J-000405D01*
G01*
X046382Y02085D02*
X048782D01*
Y02705D01*
X043682Y02085D02*
Y02705D01*
X045132Y02085D02*
Y02705D01*
X040182Y0271D02*
X042632D01*
Y0208D02*
Y0271D01*
X040182Y0208D02*
X042632D01*
X046382Y02705D02*
X048782D01*
X046382Y02085D02*
Y02705D01*
X043682Y02085D02*
X045132D01*
X043682Y02705D02*
X045132D01*
X040182Y0208D02*
Y0271D01*
X047632Y0231D02*
X048732D01*
X047632D02*
Y0246D01*
X048732D01*
X040232Y024695D02*
X041332D01*
Y023195D02*
Y024695D01*
X040232Y023195D02*
X041332D01*
X042632Y023053D02*
X043625D01*
X045182Y02305D02*
X046382D01*
X042682Y0246D02*
X043632D01*
X045132D02*
X046332D01*
X01404Y04098D02*
Y04143D01*
Y03997D02*
Y04042D01*
Y03997D02*
X01626D01*
X01404Y04143D02*
X01626D01*
X01465Y04095D02*
X01565D01*
Y04045D02*
Y04095D01*
X01465Y04045D02*
X01565D01*
X01465D02*
Y04095D01*
X01626Y04098D02*
Y04143D01*
Y03997D02*
Y04042D01*
X021784Y025113D02*
Y032987D01*
X013634D02*
X021784D01*
X013634Y025113D02*
Y032987D01*
Y025113D02*
X021784D01*
X03065Y044D02*
X03465D01*
X02672D02*
X03065D01*
X02672D02*
Y0488D01*
X03465D01*
X0331D02*
X04255D01*
X03465Y044D02*
X03865D01*
X04255D01*
Y0488D01*
X02265D02*
X02665D01*
Y044D02*
Y04882D01*
X02265Y04405D02*
Y048805D01*
Y044D02*
X02665D01*
X0366Y0164D02*
X0406D01*
Y011595D02*
Y01635D01*
X0366Y01158D02*
Y0164D01*
Y0116D02*
X0406D01*
X0207D02*
Y0164D01*
X0246D01*
X0286D01*
X0207Y0116D02*
X03015D01*
X0286D02*
X03653D01*
Y0164D01*
X0326D02*
X03653D01*
X0286D02*
X0326D01*
X017865Y043992D02*
X044665D01*
X0179Y01645D02*
X0447D01*
X02381Y01767D02*
Y01812D01*
Y01868D02*
Y01913D01*
X02159D02*
X02381D01*
X02159Y01767D02*
X02381D01*
X0222Y01815D02*
X0232D01*
X0222D02*
Y01865D01*
X0232D01*
Y01815D02*
Y01865D01*
X02159Y01767D02*
Y01812D01*
Y01868D02*
Y01913D01*
X02381Y02152D02*
Y02197D01*
Y02253D02*
Y02298D01*
X02159D02*
X02381D01*
X02159Y02152D02*
X02381D01*
X0222Y022D02*
X0232D01*
X0222D02*
Y0225D01*
X0232D01*
Y022D02*
Y0225D01*
X02159Y02152D02*
Y02197D01*
Y02253D02*
Y02298D01*
X04572Y041889D02*
X046311Y04248D01*
X04828D01*
X045729Y040502D02*
X046311Y03992D01*
X04828D01*
X045729Y040815D02*
X045845D01*
X045729Y040502D02*
Y040815D01*
X048155D02*
X048271D01*
X04828Y03992D02*
Y040806D01*
X048271Y040815D02*
X04828Y040806D01*
X04572Y041605D02*
X045886D01*
X04572D02*
Y041889D01*
X048114Y041605D02*
X048268D01*
X04828Y041616D01*
Y04248D01*
X04557Y038189D02*
X046161Y03878D01*
X04813D01*
X045579Y036802D02*
X046161Y03622D01*
X04813D01*
X045579Y037115D02*
X045695D01*
X045579Y036802D02*
Y037115D01*
X048005D02*
X048121D01*
X04813Y03622D02*
Y037106D01*
X048121Y037115D02*
X04813Y037106D01*
X04557Y037905D02*
X045736D01*
X04557D02*
Y038189D01*
X047964Y037905D02*
X048118D01*
X04813Y037916D01*
Y03878D01*
X042579Y042474D02*
Y042708D01*
X042695Y042824D01*
X042812Y042708D01*
Y042474D01*
Y042649D01*
X042579D01*
X042928Y042474D02*
Y042824D01*
X043045Y042708D01*
X043162Y042824D01*
Y042474D01*
X043512Y042766D02*
X043453Y042824D01*
X043337D01*
X043278Y042766D01*
Y042708D01*
X043337Y042649D01*
X043453D01*
X043512Y042591D01*
Y042533D01*
X043453Y042474D01*
X043337D01*
X043278Y042533D01*
X043628Y042474D02*
X043745D01*
X043687D01*
Y042824D01*
X043628Y042766D01*
X04392Y042474D02*
X044036D01*
X043978D01*
Y042824D01*
X04392Y042766D01*
X044211Y042474D02*
X044328D01*
X04427D01*
Y042824D01*
X044211Y042766D01*
X044503Y042824D02*
X044736D01*
Y042766D01*
X044503Y042533D01*
Y042474D01*
X041552Y040976D02*
X041494Y041034D01*
X041377D01*
X041319Y040976D01*
Y040743D01*
X041377Y040684D01*
X041494D01*
X041552Y040743D01*
X041668Y040684D02*
X041785D01*
X041727D01*
Y041034D01*
X041668Y040976D01*
X042193Y040684D02*
X04196D01*
X042193Y040918D01*
Y040976D01*
X042135Y041034D01*
X042018D01*
X04196Y040976D01*
X026002Y021756D02*
X025944Y021814D01*
X025827D01*
X025769Y021756D01*
Y021523D01*
X025827Y021464D01*
X025944D01*
X026002Y021523D01*
X026118Y021464D02*
X026235D01*
X026177D01*
Y021814D01*
X026118Y021756D01*
X026643Y021814D02*
X02641D01*
Y021639D01*
X026527Y021698D01*
X026585D01*
X026643Y021639D01*
Y021523D01*
X026585Y021464D01*
X026468D01*
X02641Y021523D01*
X040679Y036724D02*
Y036374D01*
X040854D01*
X040912Y036433D01*
Y036666D01*
X040854Y036724D01*
X040679D01*
X041028Y036374D02*
X041145D01*
X041087D01*
Y036724D01*
X041028Y036666D01*
X046699Y021234D02*
Y020884D01*
X046874D01*
X046932Y020943D01*
Y021176D01*
X046874Y021234D01*
X046699D01*
X047282Y020884D02*
X047048D01*
X047282Y021118D01*
Y021176D01*
X047223Y021234D01*
X047107D01*
X047048Y021176D01*
X042322Y019814D02*
X042205D01*
X042264D01*
Y019523D01*
X042205Y019464D01*
X042147D01*
X042089Y019523D01*
X042438Y019464D02*
Y019698D01*
X042555Y019814D01*
X042672Y019698D01*
Y019464D01*
Y019639D01*
X042438D01*
X043022Y019756D02*
X042963Y019814D01*
X042847D01*
X042788Y019756D01*
Y019523D01*
X042847Y019464D01*
X042963D01*
X043022Y019523D01*
X043138Y019814D02*
Y019464D01*
Y019581D01*
X043372Y019814D01*
X043197Y019639D01*
X043372Y019464D01*
X043838Y019814D02*
Y019464D01*
X044013D01*
X044071Y019523D01*
Y019756D01*
X044013Y019814D01*
X043838D01*
X044421Y019756D02*
X044363Y019814D01*
X044246D01*
X044188Y019756D01*
Y019523D01*
X044246Y019464D01*
X044363D01*
X044421Y019523D01*
X044771Y019464D02*
X044538D01*
X044771Y019698D01*
Y019756D01*
X044713Y019814D01*
X044596D01*
X044538Y019756D01*
X042669Y039464D02*
Y039114D01*
X042902D01*
X043252D02*
X043018D01*
X043252Y039348D01*
Y039406D01*
X043193Y039464D01*
X043077D01*
X043018Y039406D01*
X038549Y025624D02*
Y025974D01*
X038724D01*
X038782Y025916D01*
Y025799D01*
X038724Y025741D01*
X038549D01*
X038665D02*
X038782Y025624D01*
X038898Y025974D02*
Y025683D01*
X038957Y025624D01*
X039073D01*
X039132Y025683D01*
Y025974D01*
X039482D02*
X039248D01*
Y025624D01*
X039482D01*
X039248Y025799D02*
X039365D01*
X039832Y025974D02*
X039598D01*
Y025799D01*
X039715D01*
X039598D01*
Y025624D01*
X039948D02*
X040065D01*
X040006D01*
Y025974D01*
X039948Y025916D01*
X018569Y022404D02*
Y022113D01*
X018627Y022054D01*
X018744D01*
X018802Y022113D01*
Y022404D01*
X018918Y022346D02*
X018977Y022404D01*
X019093D01*
X019152Y022346D01*
Y022288D01*
X019093Y022229D01*
X019035D01*
X019093D01*
X019152Y022171D01*
Y022113D01*
X019093Y022054D01*
X018977D01*
X018918Y022113D01*
X044129Y027774D02*
Y027483D01*
X044187Y027424D01*
X044304D01*
X044362Y027483D01*
Y027774D01*
X044478D02*
Y027483D01*
X044537Y027424D01*
X044653D01*
X044712Y027483D01*
Y027774D01*
X044828Y027424D02*
X044945D01*
X044887D01*
Y027774D01*
X044828Y027716D01*
X044909Y036714D02*
Y036481D01*
X045025Y036364D01*
X045142Y036481D01*
Y036714D01*
X045258Y036364D02*
Y036714D01*
X045433D01*
X045492Y036656D01*
Y036539D01*
X045433Y036481D01*
X045258D01*
X045375D02*
X045492Y036364D01*
X045842D02*
X045608D01*
X045842Y036598D01*
Y036656D01*
X045783Y036714D01*
X045667D01*
X045608Y036656D01*
X030102Y021756D02*
X030044Y021814D01*
X029927D01*
X029869Y021756D01*
Y021523D01*
X029927Y021464D01*
X030044D01*
X030102Y021523D01*
X030452Y021464D02*
X030218D01*
X030452Y021698D01*
Y021756D01*
X030393Y021814D01*
X030277D01*
X030218Y021756D01*
X034152D02*
X034094Y021814D01*
X033977D01*
X033919Y021756D01*
Y021523D01*
X033977Y021464D01*
X034094D01*
X034152Y021523D01*
X034268Y021756D02*
X034327Y021814D01*
X034443D01*
X034502Y021756D01*
Y021698D01*
X034443Y021639D01*
X034385D01*
X034443D01*
X034502Y021581D01*
Y021523D01*
X034443Y021464D01*
X034327D01*
X034268Y021523D01*
X033439Y037154D02*
Y037504D01*
X033614D01*
X033672Y037446D01*
Y037329D01*
X033614Y037271D01*
X033439D01*
X033555D02*
X033672Y037154D01*
X034022D02*
X033788D01*
X034022Y037388D01*
Y037446D01*
X033963Y037504D01*
X033847D01*
X033788Y037446D01*
X034138Y037154D02*
X034255D01*
X034197D01*
Y037504D01*
X034138Y037446D01*
X034519Y037154D02*
Y037504D01*
X034694D01*
X034752Y037446D01*
Y037329D01*
X034694Y037271D01*
X034519D01*
X034635D02*
X034752Y037154D01*
X035102D02*
X034868D01*
X035102Y037388D01*
Y037446D01*
X035043Y037504D01*
X034927D01*
X034868Y037446D01*
X035452Y037154D02*
X035218D01*
X035452Y037388D01*
Y037446D01*
X035393Y037504D01*
X035277D01*
X035218Y037446D01*
X036119Y032364D02*
Y032714D01*
X036294D01*
X036352Y032656D01*
Y032539D01*
X036294Y032481D01*
X036119D01*
X036235D02*
X036352Y032364D01*
X036702D02*
X036468D01*
X036702Y032598D01*
Y032656D01*
X036643Y032714D01*
X036527D01*
X036468Y032656D01*
X037052Y032714D02*
X036935Y032656D01*
X036818Y032539D01*
Y032423D01*
X036877Y032364D01*
X036993D01*
X037052Y032423D01*
Y032481D01*
X036993Y032539D01*
X036818D01*
X035919Y037204D02*
Y037554D01*
X036094D01*
X036152Y037496D01*
Y037379D01*
X036094Y037321D01*
X035919D01*
X036035D02*
X036152Y037204D01*
X036502D02*
X036268D01*
X036502Y037438D01*
Y037496D01*
X036443Y037554D01*
X036327D01*
X036268Y037496D01*
X036618Y037263D02*
X036677Y037204D01*
X036793D01*
X036852Y037263D01*
Y037496D01*
X036793Y037554D01*
X036677D01*
X036618Y037496D01*
Y037438D01*
X036677Y037379D01*
X036852D01*
X036969Y037204D02*
Y037554D01*
X037144D01*
X037202Y037496D01*
Y037379D01*
X037144Y037321D01*
X036969D01*
X037085D02*
X037202Y037204D01*
X037318Y037496D02*
X037377Y037554D01*
X037493D01*
X037552Y037496D01*
Y037438D01*
X037493Y037379D01*
X037435D01*
X037493D01*
X037552Y037321D01*
Y037263D01*
X037493Y037204D01*
X037377D01*
X037318Y037263D01*
X037668Y037496D02*
X037727Y037554D01*
X037843D01*
X037902Y037496D01*
Y037263D01*
X037843Y037204D01*
X037727D01*
X037668Y037263D01*
Y037496D01*
X021784Y041974D02*
X021434D01*
Y042149D01*
X021492Y042208D01*
X021609D01*
X021667Y042149D01*
Y041974D01*
Y042091D02*
X021784Y042208D01*
X021492Y042324D02*
X021434Y042382D01*
Y042499D01*
X021492Y042557D01*
X021551D01*
X021609Y042499D01*
Y042441D01*
Y042499D01*
X021667Y042557D01*
X021726D01*
X021784Y042499D01*
Y042382D01*
X021726Y042324D01*
X021434Y042907D02*
Y042674D01*
X021609D01*
X021551Y042791D01*
Y042849D01*
X021609Y042907D01*
X021726D01*
X021784Y042849D01*
Y042732D01*
X021726Y042674D01*
X02485Y043056D02*
X0245D01*
Y042822D01*
X02485Y042472D02*
Y042706D01*
X0245D01*
Y042472D01*
X024675Y042706D02*
Y042589D01*
X02485Y042356D02*
X0245D01*
Y042181D01*
X024558Y042123D01*
X024792D01*
X02485Y042181D01*
Y042356D01*
X024558Y042006D02*
X0245Y041948D01*
Y041831D01*
X024558Y041773D01*
X024792D01*
X02485Y041831D01*
Y041948D01*
X024792Y042006D01*
X024733D01*
X024675Y041948D01*
Y041773D01*
X026752Y040104D02*
X027152D01*
X026952Y040304D02*
Y039904D01*
X037492Y016816D02*
X037434Y016874D01*
X037317D01*
X037259Y016816D01*
Y016583D01*
X037317Y016524D01*
X037434D01*
X037492Y016583D01*
Y016699D01*
X037375D01*
X037608Y016524D02*
Y016874D01*
X037842Y016524D01*
Y016874D01*
X037958D02*
Y016524D01*
X038133D01*
X038192Y016583D01*
Y016816D01*
X038133Y016874D01*
X037958D01*
X035209D02*
Y016641D01*
X035325Y016524D01*
X035442Y016641D01*
Y016874D01*
X035792Y016816D02*
X035733Y016874D01*
X035617D01*
X035558Y016816D01*
Y016583D01*
X035617Y016524D01*
X035733D01*
X035792Y016583D01*
X036142Y016816D02*
X036083Y016874D01*
X035967D01*
X035908Y016816D01*
Y016583D01*
X035967Y016524D01*
X036083D01*
X036142Y016583D01*
X033259Y016874D02*
Y016641D01*
X033375Y016524D01*
X033492Y016641D01*
Y016874D01*
X033842Y016816D02*
X033783Y016874D01*
X033667D01*
X033608Y016816D01*
Y016583D01*
X033667Y016524D01*
X033783D01*
X033842Y016583D01*
X034192Y016816D02*
X034133Y016874D01*
X034017D01*
X033958Y016816D01*
Y016583D01*
X034017Y016524D01*
X034133D01*
X034192Y016583D01*
X029042Y016816D02*
X028984Y016874D01*
X028867D01*
X028809Y016816D01*
Y016583D01*
X028867Y016524D01*
X028984D01*
X029042Y016583D01*
X029158Y016699D02*
X029392D01*
X029683Y016874D02*
X029567D01*
X029508Y016816D01*
Y016583D01*
X029567Y016524D01*
X029683D01*
X029742Y016583D01*
Y016816D01*
X029683Y016874D01*
X029858D02*
Y016583D01*
X029917Y016524D01*
X030033D01*
X030092Y016583D01*
Y016874D01*
X030208D02*
X030441D01*
X030325D01*
Y016524D01*
X025042Y016816D02*
X024984Y016874D01*
X024867D01*
X024809Y016816D01*
Y016583D01*
X024867Y016524D01*
X024984D01*
X025042Y016583D01*
X025158Y016699D02*
X025392D01*
X025683Y016874D02*
X025567D01*
X025508Y016816D01*
Y016583D01*
X025567Y016524D01*
X025683D01*
X025742Y016583D01*
Y016816D01*
X025683Y016874D01*
X025858D02*
Y016583D01*
X025917Y016524D01*
X026033D01*
X026092Y016583D01*
Y016874D01*
X026208D02*
X026441D01*
X026325D01*
Y016524D01*
X024715Y034253D02*
X024656Y034311D01*
X02454D01*
X024481Y034253D01*
Y034195D01*
X02454Y034136D01*
X024656D01*
X024715Y034078D01*
Y03402D01*
X024656Y033961D01*
X02454D01*
X024481Y03402D01*
X024831Y034311D02*
Y033961D01*
X025006D01*
X025065Y03402D01*
Y034253D01*
X025006Y034311D01*
X024831D01*
X025181D02*
X025414D01*
X025298D01*
Y033961D01*
X025531Y034195D02*
X025589D01*
Y034136D01*
X025531D01*
Y034195D01*
Y03402D02*
X025589D01*
Y033961D01*
X025531D01*
Y03402D01*
X025823Y034253D02*
X025881Y034311D01*
X025998D01*
X026056Y034253D01*
Y03402D01*
X025998Y033961D01*
X025881D01*
X025823Y03402D01*
Y034253D01*
X026173Y03402D02*
X026231Y033961D01*
X026347D01*
X026406Y03402D01*
Y034253D01*
X026347Y034311D01*
X026231D01*
X026173Y034253D01*
Y034195D01*
X026231Y034136D01*
X026406D01*
X026522Y034253D02*
X026581Y034311D01*
X026697D01*
X026756Y034253D01*
Y034195D01*
X026697Y034136D01*
X026639D01*
X026697D01*
X026756Y034078D01*
Y03402D01*
X026697Y033961D01*
X026581D01*
X026522Y03402D01*
X026872Y034311D02*
X027106D01*
Y034253D01*
X026872Y03402D01*
Y033961D01*
X027455Y034311D02*
X027222D01*
Y034136D01*
X027339Y034195D01*
X027397D01*
X027455Y034136D01*
Y03402D01*
X027397Y033961D01*
X027281D01*
X027222Y03402D01*
X027805Y034311D02*
X027689Y034253D01*
X027572Y034136D01*
Y03402D01*
X02763Y033961D01*
X027747D01*
X027805Y03402D01*
Y034078D01*
X027747Y034136D01*
X027572D01*
X027922Y03402D02*
X02798Y033961D01*
X028097D01*
X028155Y03402D01*
Y034253D01*
X028097Y034311D01*
X02798D01*
X027922Y034253D01*
Y034195D01*
X02798Y034136D01*
X028155D01*
X028447Y033961D02*
Y034311D01*
X028272Y034136D01*
X028505D01*
X028855Y034311D02*
X028738Y034253D01*
X028622Y034136D01*
Y03402D01*
X02868Y033961D01*
X028797D01*
X028855Y03402D01*
Y034078D01*
X028797Y034136D01*
X028622D01*
X028972Y034253D02*
X02903Y034311D01*
X029147D01*
X029205Y034253D01*
Y03402D01*
X029147Y033961D01*
X02903D01*
X028972Y03402D01*
Y034253D01*
X021042Y016816D02*
X020984Y016874D01*
X020867D01*
X020809Y016816D01*
Y016583D01*
X020867Y016524D01*
X020984D01*
X021042Y016583D01*
X021158Y016699D02*
X021392D01*
X021683Y016874D02*
X021567D01*
X021508Y016816D01*
Y016583D01*
X021567Y016524D01*
X021683D01*
X021742Y016583D01*
Y016816D01*
X021683Y016874D01*
X021858D02*
Y016583D01*
X021917Y016524D01*
X022033D01*
X022092Y016583D01*
Y016874D01*
X022208D02*
X022441D01*
X022325D01*
Y016524D01*
X023009Y016874D02*
Y016524D01*
X023184D01*
X023242Y016583D01*
Y016816D01*
X023184Y016874D01*
X023009D01*
X023533D02*
X023417D01*
X023358Y016816D01*
Y016583D01*
X023417Y016524D01*
X023533D01*
X023592Y016583D01*
Y016816D01*
X023533Y016874D01*
X023708Y016699D02*
X023942D01*
X024058Y016524D02*
X024175D01*
X024117D01*
Y016874D01*
X024058Y016816D01*
X027109Y016874D02*
Y016524D01*
X027284D01*
X027342Y016583D01*
Y016816D01*
X027284Y016874D01*
X027109D01*
X027633D02*
X027517D01*
X027458Y016816D01*
Y016583D01*
X027517Y016524D01*
X027633D01*
X027692Y016583D01*
Y016816D01*
X027633Y016874D01*
X027808Y016699D02*
X028042D01*
X028392Y016524D02*
X028158D01*
X028392Y016758D01*
Y016816D01*
X028333Y016874D01*
X028217D01*
X028158Y016816D01*
X031059Y016874D02*
Y016524D01*
X031234D01*
X031292Y016583D01*
Y016816D01*
X031234Y016874D01*
X031059D01*
X031583D02*
X031467D01*
X031408Y016816D01*
Y016583D01*
X031467Y016524D01*
X031583D01*
X031642Y016583D01*
Y016816D01*
X031583Y016874D01*
X031758Y016699D02*
X031992D01*
X032108Y016816D02*
X032167Y016874D01*
X032283D01*
X032342Y016816D01*
Y016758D01*
X032283Y016699D01*
X032225D01*
X032283D01*
X032342Y016641D01*
Y016583D01*
X032283Y016524D01*
X032167D01*
X032108Y016583D01*
X039492Y016816D02*
X039434Y016874D01*
X039317D01*
X039259Y016816D01*
Y016583D01*
X039317Y016524D01*
X039434D01*
X039492Y016583D01*
Y016699D01*
X039375D01*
X039608Y016524D02*
Y016874D01*
X039842Y016524D01*
Y016874D01*
X039958D02*
Y016524D01*
X040133D01*
X040192Y016583D01*
Y016816D01*
X040133Y016874D01*
X039958D01*
X041975Y043583D02*
X042034Y043525D01*
X04215D01*
X042209Y043583D01*
Y043816D01*
X04215Y043874D01*
X042034D01*
X041975Y043816D01*
Y043699D01*
X042092D01*
X041859Y043874D02*
Y043525D01*
X041625Y043874D01*
Y043525D01*
X041509D02*
Y043874D01*
X041334D01*
X041276Y043816D01*
Y043583D01*
X041334Y043525D01*
X041509D01*
X039775D02*
X040009D01*
Y043699D01*
X039892Y043641D01*
X039834D01*
X039775Y043699D01*
Y043816D01*
X039834Y043874D01*
X03995D01*
X040009Y043816D01*
X039659Y043525D02*
Y043758D01*
X039542Y043874D01*
X039425Y043758D01*
Y043525D01*
X038359Y043583D02*
X0383Y043525D01*
X038184D01*
X038125Y043583D01*
Y043641D01*
X038184Y043699D01*
X038242D01*
X038184D01*
X038125Y043758D01*
Y043816D01*
X038184Y043874D01*
X0383D01*
X038359Y043816D01*
X038009Y043874D02*
Y043816D01*
X03795D01*
Y043874D01*
X038009D01*
X037717Y043583D02*
X037659Y043525D01*
X037542D01*
X037484Y043583D01*
Y043641D01*
X037542Y043699D01*
X037601D01*
X037542D01*
X037484Y043758D01*
Y043816D01*
X037542Y043874D01*
X037659D01*
X037717Y043816D01*
X037367Y043525D02*
Y043758D01*
X037251Y043874D01*
X037134Y043758D01*
Y043525D01*
X036359D02*
X036242D01*
X0363D01*
Y043874D01*
X036359D01*
X036242D01*
X036067D02*
Y043525D01*
X035834Y043874D01*
Y043525D01*
X035717Y043699D02*
X035484D01*
X035367Y043583D02*
X035309Y043525D01*
X035192D01*
X035134Y043583D01*
Y043641D01*
X035192Y043699D01*
X035251D01*
X035192D01*
X035134Y043758D01*
Y043816D01*
X035192Y043874D01*
X035309D01*
X035367Y043816D01*
X034359Y043525D02*
X034242D01*
X0343D01*
Y043874D01*
X034359D01*
X034242D01*
X034067D02*
Y043525D01*
X033834Y043874D01*
Y043525D01*
X033717Y043699D02*
X033484D01*
X033134Y043874D02*
X033367D01*
X033134Y043641D01*
Y043583D01*
X033192Y043525D01*
X033309D01*
X033367Y043583D01*
X032309Y043525D02*
X032192D01*
X03225D01*
Y043874D01*
X032309D01*
X032192D01*
X032017D02*
Y043525D01*
X031784Y043874D01*
Y043525D01*
X031667Y043699D02*
X031434D01*
X031317Y043874D02*
X031201D01*
X031259D01*
Y043525D01*
X031317Y043583D01*
X024159Y043874D02*
Y043525D01*
X023984D01*
X023925Y043583D01*
Y043699D01*
X023984Y043758D01*
X024159D01*
X023809Y043525D02*
Y043874D01*
X023692Y043758D01*
X023575Y043874D01*
Y043525D01*
X023459Y043874D02*
Y043525D01*
X023342Y043641D01*
X023226Y043525D01*
Y043874D01*
X026209Y043874D02*
Y04364D01*
X026092Y043524D01*
X025975Y04364D01*
Y043874D01*
Y043699D01*
X026209D01*
X025859Y043524D02*
Y043874D01*
X025684D01*
X025625Y043815D01*
Y043582D01*
X025684Y043524D01*
X025859D01*
X025276Y043582D02*
X025334Y043524D01*
X02545D01*
X025509Y043582D01*
Y043815D01*
X02545Y043874D01*
X025334D01*
X025276Y043815D01*
X028259Y043524D02*
X028025D01*
X028142D01*
Y043874D01*
X027909Y043524D02*
X027675D01*
X027792D01*
Y043874D01*
X027559Y043524D02*
Y043874D01*
X027326D01*
X030125Y043583D02*
X030184Y043525D01*
X0303D01*
X030359Y043583D01*
Y043816D01*
X0303Y043874D01*
X030184D01*
X030125Y043816D01*
X030009Y043699D02*
X029775D01*
X029659Y043525D02*
X029542D01*
X029601D01*
Y043874D01*
X029659D01*
X029542D01*
X029367D02*
Y043525D01*
X029134Y043874D01*
Y043525D01*
X0419Y031D02*
Y0306D01*
X0421Y0308D02*
X0417D01*
X0468Y031D02*
Y0306D01*
X047Y0308D02*
X0466D01*
X023215Y041085D02*
Y041435D01*
X02339D01*
X023448Y041376D01*
Y04126D01*
X02339Y041202D01*
X023215D01*
X023332D02*
X023448Y041085D01*
X023565Y041376D02*
X023623Y041435D01*
X02374D01*
X023798Y041376D01*
Y041318D01*
X02374Y04126D01*
X023681D01*
X02374D01*
X023798Y041202D01*
Y041143D01*
X02374Y041085D01*
X023623D01*
X023565Y041143D01*
X02409Y041085D02*
Y041435D01*
X023915Y04126D01*
X024148D01*
X028559Y042259D02*
Y041909D01*
X028384D01*
X028325Y041967D01*
Y042084D01*
X028384Y042142D01*
X028559D01*
X028442D02*
X028325Y042259D01*
X028209Y041967D02*
X02815Y041909D01*
X028034D01*
X027975Y041967D01*
Y042026D01*
X028034Y042084D01*
X028092D01*
X028034D01*
X027975Y042142D01*
Y042201D01*
X028034Y042259D01*
X02815D01*
X028209Y042201D01*
X027859Y041967D02*
X027801Y041909D01*
X027684D01*
X027626Y041967D01*
Y042026D01*
X027684Y042084D01*
X027742D01*
X027684D01*
X027626Y042142D01*
Y042201D01*
X027684Y042259D01*
X027801D01*
X027859Y042201D01*
X021009Y014374D02*
Y014724D01*
X021184D01*
X021242Y014666D01*
Y014549D01*
X021184Y014491D01*
X021009D01*
X021533Y014374D02*
Y014724D01*
X021358Y014549D01*
X021592D01*
X036859Y014374D02*
Y014724D01*
X037034D01*
X037092Y014666D01*
Y014549D01*
X037034Y014491D01*
X036859D01*
X037208Y014666D02*
X037267Y014724D01*
X037383D01*
X037442Y014666D01*
Y014608D01*
X037383Y014549D01*
X037325D01*
X037383D01*
X037442Y014491D01*
Y014433D01*
X037383Y014374D01*
X037267D01*
X037208Y014433D01*
X027109Y046674D02*
Y047024D01*
X027284D01*
X027342Y046966D01*
Y046849D01*
X027284Y046791D01*
X027109D01*
X027458Y046674D02*
X027575D01*
X027517D01*
Y047024D01*
X027458Y046966D01*
X022909Y046624D02*
Y046974D01*
X023084D01*
X023142Y046916D01*
Y046799D01*
X023084Y046741D01*
X022909D01*
X023492Y046624D02*
X023258D01*
X023492Y046858D01*
Y046916D01*
X023433Y046974D01*
X023317D01*
X023258Y046916D01*
X024709Y031524D02*
X025D01*
X025059Y031583D01*
Y031699D01*
X025Y031758D01*
X024709D01*
X025059Y031874D02*
X024825D01*
X024709Y031991D01*
X024825Y032108D01*
X025059D01*
X024884D01*
Y031874D01*
X025059Y032224D02*
X024709D01*
Y032399D01*
X024767Y032457D01*
X024884D01*
X024942Y032399D01*
Y032224D01*
Y032341D02*
X025059Y032457D01*
X024709Y032574D02*
Y032807D01*
Y032691D01*
X025059D01*
X025117Y032924D02*
Y033157D01*
X025059Y033507D02*
Y033274D01*
X024825Y033507D01*
X024767D01*
X024709Y033449D01*
Y033332D01*
X024767Y033274D01*
X023909Y031583D02*
Y031699D01*
X02385Y031758D01*
X023734D01*
X023675Y031699D01*
Y031583D01*
X023734Y031524D01*
X02385D01*
X023909Y031583D01*
Y031874D02*
Y031991D01*
Y031933D01*
X023559D01*
Y031874D01*
X023909Y032341D02*
Y032224D01*
X02385Y032166D01*
X023734D01*
X023675Y032224D01*
Y032341D01*
X023734Y032399D01*
X023792D01*
Y032166D01*
X023559Y032749D02*
X023909D01*
Y032574D01*
X02385Y032516D01*
X023734D01*
X023675Y032574D01*
Y032749D01*
X037909Y025541D02*
X038258D01*
Y025366D01*
X0382Y025308D01*
X038084D01*
X038025Y025366D01*
Y025541D01*
Y025424D02*
X037909Y025308D01*
X038258Y025191D02*
X037909D01*
Y024958D01*
X0382Y024841D02*
X038258Y024783D01*
Y024666D01*
X0382Y024608D01*
X038142D01*
X038084Y024666D01*
Y024724D01*
Y024666D01*
X038025Y024608D01*
X037967D01*
X037909Y024666D01*
Y024783D01*
X037967Y024841D01*
X037531Y0431D02*
X037881D01*
Y042925D01*
X037823Y042867D01*
X037706D01*
X037648Y042925D01*
Y0431D01*
Y042983D02*
X037531Y042867D01*
X037823Y04275D02*
X037881Y042692D01*
Y042575D01*
X037823Y042517D01*
X037765D01*
X037706Y042575D01*
Y042633D01*
Y042575D01*
X037648Y042517D01*
X03759D01*
X037531Y042575D01*
Y042692D01*
X03759Y04275D01*
X037531Y042167D02*
Y0424D01*
X037765Y042167D01*
X037823D01*
X037881Y042225D01*
Y042342D01*
X037823Y0424D01*
X035957Y041646D02*
X035607D01*
Y041821D01*
X035665Y04188D01*
X035782D01*
X03584Y041821D01*
Y041646D01*
Y041763D02*
X035957Y04188D01*
X035665Y041996D02*
X035607Y042055D01*
Y042171D01*
X035665Y04223D01*
X035723D01*
X035782Y042171D01*
Y042113D01*
Y042171D01*
X03584Y04223D01*
X035898D01*
X035957Y042171D01*
Y042055D01*
X035898Y041996D01*
X035957Y042346D02*
Y042463D01*
Y042405D01*
X035607D01*
X035665Y042346D01*
X034759Y029024D02*
X034409D01*
Y029199D01*
X034467Y029258D01*
X034584D01*
X034642Y029199D01*
Y029024D01*
Y029141D02*
X034759Y029258D01*
Y029608D02*
Y029374D01*
X034525Y029608D01*
X034467D01*
X034409Y029549D01*
Y029433D01*
X034467Y029374D01*
Y029724D02*
X034409Y029783D01*
Y029899D01*
X034467Y029957D01*
X034525D01*
X034584Y029899D01*
X034642Y029957D01*
X0347D01*
X034759Y029899D01*
Y029783D01*
X0347Y029724D01*
X034642D01*
X034584Y029783D01*
X034525Y029724D01*
X034467D01*
X034584Y029783D02*
Y029899D01*
X034759Y027524D02*
X034409D01*
Y027699D01*
X034467Y027758D01*
X034584D01*
X034642Y027699D01*
Y027524D01*
Y027641D02*
X034759Y027758D01*
Y028108D02*
Y027874D01*
X034525Y028108D01*
X034467D01*
X034409Y028049D01*
Y027933D01*
X034467Y027874D01*
X034409Y028224D02*
Y028457D01*
X034467D01*
X0347Y028224D01*
X034759D01*
X034959Y026524D02*
Y026874D01*
X035134D01*
X035192Y026816D01*
Y026699D01*
X035134Y026641D01*
X034959D01*
X035075D02*
X035192Y026524D01*
X035542D02*
X035308D01*
X035542Y026758D01*
Y026816D01*
X035483Y026874D01*
X035367D01*
X035308Y026816D01*
X035892Y026874D02*
X035658D01*
Y026699D01*
X035775Y026758D01*
X035833D01*
X035892Y026699D01*
Y026583D01*
X035833Y026524D01*
X035717D01*
X035658Y026583D01*
X035056Y043024D02*
X035406D01*
Y042849D01*
X035347Y042791D01*
X035231D01*
X035172Y042849D01*
Y043024D01*
Y042908D02*
X035056Y042791D01*
Y042441D02*
Y042675D01*
X035289Y042441D01*
X035347D01*
X035406Y0425D01*
Y042616D01*
X035347Y042675D01*
X035056Y04215D02*
X035406D01*
X035231Y042325D01*
Y042091D01*
X033474Y041546D02*
X033124D01*
Y041721D01*
X033182Y04178D01*
X033299D01*
X033357Y041721D01*
Y041546D01*
Y041663D02*
X033474Y04178D01*
Y04213D02*
Y041896D01*
X033241Y04213D01*
X033182D01*
X033124Y042071D01*
Y041955D01*
X033182Y041896D01*
Y042246D02*
X033124Y042305D01*
Y042421D01*
X033182Y042479D01*
X033241D01*
X033299Y042421D01*
Y042363D01*
Y042421D01*
X033357Y042479D01*
X033416D01*
X033474Y042421D01*
Y042305D01*
X033416Y042246D01*
X03234Y043074D02*
X03269D01*
Y042899D01*
X032632Y042841D01*
X032515D01*
X032457Y042899D01*
Y043074D01*
Y042958D02*
X03234Y042841D01*
Y042491D02*
Y042725D01*
X032573Y042491D01*
X032632D01*
X03269Y04255D01*
Y042666D01*
X032632Y042725D01*
Y042375D02*
X03269Y042316D01*
Y0422D01*
X032632Y042141D01*
X032398D01*
X03234Y0422D01*
Y042316D01*
X032398Y042375D01*
X032632D01*
X03079Y041624D02*
X03044D01*
Y041799D01*
X030499Y041858D01*
X030615D01*
X030673Y041799D01*
Y041624D01*
Y041741D02*
X03079Y041858D01*
Y041974D02*
Y042091D01*
Y042033D01*
X03044D01*
X030499Y041974D01*
X030732Y042266D02*
X03079Y042324D01*
Y042441D01*
X030732Y042499D01*
X030499D01*
X03044Y042441D01*
Y042324D01*
X030499Y042266D01*
X030557D01*
X030615Y042324D01*
Y042499D01*
X033006Y035524D02*
X032656D01*
Y035699D01*
X032714Y035758D01*
X032831D01*
X032889Y035699D01*
Y035524D01*
Y035641D02*
X033006Y035758D01*
Y035874D02*
Y035991D01*
Y035933D01*
X032656D01*
X032714Y035874D01*
Y036166D02*
X032656Y036224D01*
Y036341D01*
X032714Y036399D01*
X032773D01*
X032831Y036341D01*
X032889Y036399D01*
X032948D01*
X033006Y036341D01*
Y036224D01*
X032948Y036166D01*
X032889D01*
X032831Y036224D01*
X032773Y036166D01*
X032714D01*
X032831Y036224D02*
Y036341D01*
X030603Y035524D02*
X030253D01*
Y035699D01*
X030311Y035758D01*
X030428D01*
X030486Y035699D01*
Y035524D01*
Y035641D02*
X030603Y035758D01*
Y035874D02*
Y035991D01*
Y035933D01*
X030253D01*
X030311Y035874D01*
X030253Y036166D02*
Y036399D01*
X030311D01*
X030544Y036166D01*
X030603D01*
X037959Y029174D02*
X037609D01*
Y029349D01*
X037667Y029408D01*
X037784D01*
X037842Y029349D01*
Y029174D01*
X037667Y029758D02*
X037609Y029699D01*
Y029583D01*
X037667Y029524D01*
X0379D01*
X037959Y029583D01*
Y029699D01*
X0379Y029758D01*
X037667Y029874D02*
X037609Y029932D01*
Y030049D01*
X037667Y030107D01*
X037725D01*
X037784Y030049D01*
Y029991D01*
Y030049D01*
X037842Y030107D01*
X0379D01*
X037959Y030049D01*
Y029932D01*
X0379Y029874D01*
X035353Y038649D02*
Y038533D01*
X035412Y038474D01*
X035645D01*
X035703Y038533D01*
Y038649D01*
X035645Y038708D01*
X035412D01*
X035353Y038649D01*
X035703Y038824D02*
X035353D01*
Y038999D01*
X035412Y039058D01*
X035528D01*
X035586Y038999D01*
Y038824D01*
X035703Y039174D02*
X035353D01*
Y039349D01*
X035412Y039407D01*
X035528D01*
X035586Y039349D01*
Y039174D01*
X035353Y039524D02*
Y039757D01*
Y039641D01*
X035703D01*
X035353Y040049D02*
Y039932D01*
X035412Y039874D01*
X035645D01*
X035703Y039932D01*
Y040049D01*
X035645Y040107D01*
X035412D01*
X035353Y040049D01*
X035412Y040224D02*
X035353Y040282D01*
Y040399D01*
X035412Y040457D01*
X03547D01*
X035528Y040399D01*
Y04034D01*
Y040399D01*
X035586Y040457D01*
X035645D01*
X035703Y040399D01*
Y040282D01*
X035645Y040224D01*
X032806Y038599D02*
Y038483D01*
X032864Y038424D01*
X033098D01*
X033156Y038483D01*
Y038599D01*
X033098Y038658D01*
X032864D01*
X032806Y038599D01*
X033156Y038774D02*
X032806D01*
Y038949D01*
X032864Y039008D01*
X032981D01*
X033039Y038949D01*
Y038774D01*
X033156Y039124D02*
X032806D01*
Y039299D01*
X032864Y039357D01*
X032981D01*
X033039Y039299D01*
Y039124D01*
X032806Y039474D02*
Y039707D01*
Y039591D01*
X033156D01*
X032806Y039999D02*
Y039882D01*
X032864Y039824D01*
X033098D01*
X033156Y039882D01*
Y039999D01*
X033098Y040057D01*
X032864D01*
X032806Y039999D01*
X033156Y040407D02*
Y040174D01*
X032923Y040407D01*
X032864D01*
X032806Y040349D01*
Y040232D01*
X032864Y040174D01*
X030202Y038549D02*
Y038433D01*
X03026Y038374D01*
X030494D01*
X030552Y038433D01*
Y038549D01*
X030494Y038608D01*
X03026D01*
X030202Y038549D01*
X030552Y038724D02*
X030202D01*
Y038899D01*
X03026Y038958D01*
X030377D01*
X030435Y038899D01*
Y038724D01*
X030552Y039074D02*
X030202D01*
Y039249D01*
X03026Y039307D01*
X030377D01*
X030435Y039249D01*
Y039074D01*
X030202Y039424D02*
Y039657D01*
Y039541D01*
X030552D01*
X030202Y039949D02*
Y039832D01*
X03026Y039774D01*
X030494D01*
X030552Y039832D01*
Y039949D01*
X030494Y040007D01*
X03026D01*
X030202Y039949D01*
X030552Y040124D02*
Y04024D01*
Y040182D01*
X030202D01*
X03026Y040124D01*
X036063Y034674D02*
Y034324D01*
X036296D01*
X036588D02*
X036471D01*
X036413Y034383D01*
Y034499D01*
X036471Y034558D01*
X036588D01*
X036646Y034499D01*
Y034441D01*
X036413D01*
X036996Y034674D02*
Y034324D01*
X036821D01*
X036763Y034383D01*
Y034499D01*
X036821Y034558D01*
X036996D01*
X037113Y034616D02*
X037171Y034674D01*
X037288D01*
X037346Y034616D01*
Y034558D01*
X037288Y034499D01*
X037346Y034441D01*
Y034383D01*
X037288Y034324D01*
X037171D01*
X037113Y034383D01*
Y034441D01*
X037171Y034499D01*
X037113Y034558D01*
Y034616D01*
X037171Y034499D02*
X037288D01*
X036359Y026824D02*
Y026474D01*
X036592D01*
X036942Y026824D02*
X036708D01*
Y026474D01*
X036942D01*
X036708Y026649D02*
X036825D01*
X037058Y026824D02*
Y026474D01*
X037233D01*
X037292Y026533D01*
Y026766D01*
X037233Y026824D01*
X037058D01*
X037408D02*
X037642D01*
Y026766D01*
X037408Y026533D01*
Y026474D01*
X033545Y034624D02*
Y034274D01*
X033779D01*
X03407D02*
X033953D01*
X033895Y034333D01*
Y034449D01*
X033953Y034508D01*
X03407D01*
X034128Y034449D01*
Y034391D01*
X033895D01*
X034478Y034624D02*
Y034274D01*
X034303D01*
X034245Y034333D01*
Y034449D01*
X034303Y034508D01*
X034478D01*
X034828Y034624D02*
X034712Y034566D01*
X034595Y034449D01*
Y034333D01*
X034653Y034274D01*
X03477D01*
X034828Y034333D01*
Y034391D01*
X03477Y034449D01*
X034595D01*
X030925Y034574D02*
Y034224D01*
X031158D01*
X03145D02*
X031333D01*
X031275Y034283D01*
Y034399D01*
X031333Y034458D01*
X03145D01*
X031508Y034399D01*
Y034341D01*
X031275D01*
X031858Y034574D02*
Y034224D01*
X031683D01*
X031625Y034283D01*
Y034399D01*
X031683Y034458D01*
X031858D01*
X032208Y034574D02*
X031974D01*
Y034399D01*
X032091Y034458D01*
X032149D01*
X032208Y034399D01*
Y034283D01*
X032149Y034224D01*
X032033D01*
X031974Y034283D01*
X013977Y039295D02*
X014036Y039353D01*
Y03947D01*
X013977Y039528D01*
X013744D01*
X013686Y03947D01*
Y039353D01*
X013744Y039295D01*
X013686Y039178D02*
Y039062D01*
Y03912D01*
X014036D01*
X013977Y039178D01*
X033759Y025491D02*
X034108D01*
Y025316D01*
X03405Y025258D01*
X033934D01*
X033875Y025316D01*
Y025491D01*
Y025374D02*
X033759Y025258D01*
X034108Y025141D02*
X033759D01*
Y024908D01*
Y024558D02*
Y024791D01*
X033992Y024558D01*
X03405D01*
X034108Y024616D01*
Y024733D01*
X03405Y024791D01*
X030709Y029024D02*
X030359D01*
Y029199D01*
X030417Y029258D01*
X030534D01*
X030592Y029199D01*
Y029024D01*
Y029141D02*
X030709Y029258D01*
Y029374D02*
Y029491D01*
Y029433D01*
X030359D01*
X030417Y029374D01*
X030359Y029899D02*
X030417Y029783D01*
X030534Y029666D01*
X03065D01*
X030709Y029724D01*
Y029841D01*
X03065Y029899D01*
X030592D01*
X030534Y029841D01*
Y029666D01*
X032009Y032174D02*
Y032524D01*
X032184D01*
X032242Y032466D01*
Y032349D01*
X032184Y032291D01*
X032009D01*
X032125D02*
X032242Y032174D01*
X032592D02*
X032358D01*
X032592Y032408D01*
Y032466D01*
X032533Y032524D01*
X032417D01*
X032358Y032466D01*
X030709Y027524D02*
X030359D01*
Y027699D01*
X030417Y027758D01*
X030534D01*
X030592Y027699D01*
Y027524D01*
Y027641D02*
X030709Y027758D01*
Y027874D02*
Y027991D01*
Y027933D01*
X030359D01*
X030417Y027874D01*
X030359Y028399D02*
Y028166D01*
X030534D01*
X030475Y028282D01*
Y028341D01*
X030534Y028399D01*
X03065D01*
X030709Y028341D01*
Y028224D01*
X03065Y028166D01*
X030809Y026474D02*
Y026824D01*
X030984D01*
X031042Y026766D01*
Y026649D01*
X030984Y026591D01*
X030809D01*
X030925D02*
X031042Y026474D01*
X031158D02*
X031275D01*
X031217D01*
Y026824D01*
X031158Y026766D01*
X033959Y029174D02*
X033609D01*
Y029349D01*
X033667Y029408D01*
X033784D01*
X033842Y029349D01*
Y029174D01*
X033667Y029758D02*
X033609Y029699D01*
Y029583D01*
X033667Y029524D01*
X0339D01*
X033959Y029583D01*
Y029699D01*
X0339Y029758D01*
X033959Y030107D02*
Y029874D01*
X033725Y030107D01*
X033667D01*
X033609Y030049D01*
Y029932D01*
X033667Y029874D01*
X032209Y026824D02*
Y026474D01*
X032442D01*
X032792Y026824D02*
X032558D01*
Y026474D01*
X032792D01*
X032558Y026649D02*
X032675D01*
X032908Y026824D02*
Y026474D01*
X033083D01*
X033142Y026533D01*
Y026766D01*
X033083Y026824D01*
X032908D01*
X033258Y026474D02*
X033375D01*
X033317D01*
Y026824D01*
X033258Y026766D01*
X014409Y036324D02*
X014467D01*
X014584Y036441D01*
X014467Y036558D01*
X014409D01*
X014584Y036441D02*
X014759D01*
Y036908D02*
Y036674D01*
X014525Y036908D01*
X014467D01*
X014409Y036849D01*
Y036733D01*
X014467Y036674D01*
X017759Y041424D02*
X017409D01*
Y041599D01*
X017467Y041658D01*
X017584D01*
X017642Y041599D01*
Y041424D01*
Y041541D02*
X017759Y041658D01*
X017409Y042008D02*
Y041774D01*
X017759D01*
Y042008D01*
X017584Y041774D02*
Y041891D01*
X017467Y042357D02*
X017409Y042299D01*
Y042182D01*
X017467Y042124D01*
X017525D01*
X017584Y042182D01*
Y042299D01*
X017642Y042357D01*
X0177D01*
X017759Y042299D01*
Y042182D01*
X0177Y042124D01*
X017409Y042707D02*
Y042474D01*
X017759D01*
Y042707D01*
X017584Y042474D02*
Y042591D01*
X017409Y042824D02*
Y043057D01*
Y042941D01*
X017759D01*
X029859Y02545D02*
X030208D01*
Y025275D01*
X03015Y025216D01*
X030034D01*
X029975Y025275D01*
Y02545D01*
Y025333D02*
X029859Y025216D01*
X030208Y0251D02*
X029859D01*
Y024867D01*
Y02475D02*
Y024633D01*
Y024692D01*
X030208D01*
X03015Y02475D01*
X026659Y029024D02*
X026309D01*
Y029199D01*
X026367Y029258D01*
X026484D01*
X026542Y029199D01*
Y029024D01*
Y029141D02*
X026659Y029258D01*
Y029374D02*
Y029491D01*
Y029433D01*
X026309D01*
X026367Y029374D01*
X026659Y029841D02*
X026309D01*
X026484Y029666D01*
Y029899D01*
X026659Y027524D02*
X026309D01*
Y027699D01*
X026367Y027758D01*
X026484D01*
X026542Y027699D01*
Y027524D01*
Y027641D02*
X026659Y027758D01*
Y027874D02*
Y027991D01*
Y027933D01*
X026309D01*
X026367Y027874D01*
Y028166D02*
X026309Y028224D01*
Y028341D01*
X026367Y028399D01*
X026425D01*
X026484Y028341D01*
Y028282D01*
Y028341D01*
X026542Y028399D01*
X0266D01*
X026659Y028341D01*
Y028224D01*
X0266Y028166D01*
X027959Y032174D02*
Y032524D01*
X028134D01*
X028192Y032466D01*
Y032349D01*
X028134Y032291D01*
X027959D01*
X028075D02*
X028192Y032174D01*
X028308D02*
X028425D01*
X028367D01*
Y032524D01*
X028308Y032466D01*
X028833Y032174D02*
X0286D01*
X028833Y032408D01*
Y032466D01*
X028775Y032524D01*
X028658D01*
X0286Y032466D01*
X026809Y026486D02*
Y026836D01*
X026984D01*
X027042Y026778D01*
Y026661D01*
X026984Y026603D01*
X026809D01*
X026925D02*
X027042Y026486D01*
X027158D02*
X027275D01*
X027217D01*
Y026836D01*
X027158Y026778D01*
X02745Y026486D02*
X027567D01*
X027508D01*
Y026836D01*
X02745Y026778D01*
X021109Y019624D02*
X020759D01*
Y019799D01*
X020817Y019858D01*
X020934D01*
X020992Y019799D01*
Y019624D01*
Y019741D02*
X021109Y019858D01*
Y019974D02*
Y020091D01*
Y020033D01*
X020759D01*
X020817Y019974D01*
Y020266D02*
X020759Y020324D01*
Y020441D01*
X020817Y020499D01*
X02105D01*
X021109Y020441D01*
Y020324D01*
X02105Y020266D01*
X020817D01*
X021159Y020674D02*
X020809D01*
Y020849D01*
X020867Y020908D01*
X020984D01*
X021042Y020849D01*
Y020674D01*
Y020791D02*
X021159Y020908D01*
X0211Y021024D02*
X021159Y021083D01*
Y021199D01*
X0211Y021258D01*
X020867D01*
X020809Y021199D01*
Y021083D01*
X020867Y021024D01*
X020925D01*
X020984Y021083D01*
Y021258D01*
X016309Y038224D02*
Y037875D01*
X016134D01*
X016075Y037933D01*
Y038049D01*
X016134Y038108D01*
X016309D01*
X016192D02*
X016075Y038224D01*
X015959Y037933D02*
X0159Y037875D01*
X015784D01*
X015725Y037933D01*
Y037991D01*
X015784Y038049D01*
X015725Y038108D01*
Y038166D01*
X015784Y038224D01*
X0159D01*
X015959Y038166D01*
Y038108D01*
X0159Y038049D01*
X015959Y037991D01*
Y037933D01*
X0159Y038049D02*
X015784D01*
X029859Y029291D02*
X029509D01*
Y029466D01*
X029567Y029524D01*
X029684D01*
X029742Y029466D01*
Y029291D01*
X029567Y029874D02*
X029509Y029816D01*
Y029699D01*
X029567Y029641D01*
X0298D01*
X029859Y029699D01*
Y029816D01*
X0298Y029874D01*
X029859Y029991D02*
Y030107D01*
Y030049D01*
X029509D01*
X029567Y029991D01*
X028209Y026824D02*
Y026474D01*
X028442D01*
X028792Y026824D02*
X028558D01*
Y026474D01*
X028792D01*
X028558Y026649D02*
X028675D01*
X028908Y026824D02*
Y026474D01*
X029083D01*
X029142Y026533D01*
Y026766D01*
X029083Y026824D01*
X028908D01*
X029433Y026474D02*
Y026824D01*
X029258Y026649D01*
X029492D01*
X018509Y039974D02*
X018625D01*
X018567D01*
Y039624D01*
X018509D01*
X018625D01*
X019033Y039916D02*
X018975Y039974D01*
X018858D01*
X0188Y039916D01*
Y039683D01*
X018858Y039624D01*
X018975D01*
X019033Y039683D01*
X01915Y039624D02*
X019267D01*
X019208D01*
Y039974D01*
X01915Y039916D01*
X017292Y033524D02*
X017059D01*
Y033174D01*
X017292D01*
X017059Y033349D02*
X017175D01*
X017642Y033466D02*
X017583Y033524D01*
X017467D01*
X017408Y033466D01*
Y033408D01*
X017467Y033349D01*
X017583D01*
X017642Y033291D01*
Y033233D01*
X017583Y033174D01*
X017467D01*
X017408Y033233D01*
X017758Y033174D02*
Y033524D01*
X017933D01*
X017992Y033466D01*
Y033349D01*
X017933Y033291D01*
X017758D01*
X018108Y033174D02*
X018225D01*
X018167D01*
Y033524D01*
X018108Y033466D01*
X0489Y042391D02*
X048958Y042449D01*
Y042566D01*
X0489Y042624D01*
X048667D01*
X048609Y042566D01*
Y042449D01*
X048667Y042391D01*
X048609Y042275D02*
X048958D01*
Y0421D01*
X0489Y042041D01*
X048784D01*
X048725Y0421D01*
Y042275D01*
X048958Y041691D02*
X0489Y041808D01*
X048784Y041925D01*
X048667D01*
X048609Y041866D01*
Y04175D01*
X048667Y041691D01*
X048725D01*
X048784Y04175D01*
Y041925D01*
X0487Y038691D02*
X048758Y038749D01*
Y038866D01*
X0487Y038924D01*
X048467D01*
X048409Y038866D01*
Y038749D01*
X048467Y038691D01*
X048409Y038575D02*
X048758D01*
Y0384D01*
X0487Y038341D01*
X048584D01*
X048525Y0384D01*
Y038575D01*
X048758Y037991D02*
Y038225D01*
X048584D01*
X048642Y038108D01*
Y03805D01*
X048584Y037991D01*
X048467D01*
X048409Y03805D01*
Y038166D01*
X048467Y038225D01*
X045242Y031616D02*
X045184Y031674D01*
X045067D01*
X045009Y031616D01*
Y031383D01*
X045067Y031324D01*
X045184D01*
X045242Y031383D01*
X045358Y031324D02*
Y031674D01*
X045533D01*
X045592Y031616D01*
Y031499D01*
X045533Y031441D01*
X045358D01*
X045883Y031324D02*
Y031674D01*
X045708Y031499D01*
X045942D01*
X040292Y031566D02*
X040234Y031624D01*
X040117D01*
X040059Y031566D01*
Y031333D01*
X040117Y031274D01*
X040234D01*
X040292Y031333D01*
X040408Y031274D02*
Y031624D01*
X040583D01*
X040642Y031566D01*
Y031449D01*
X040583Y031391D01*
X040408D01*
X040758Y031566D02*
X040817Y031624D01*
X040933D01*
X040992Y031566D01*
Y031508D01*
X040933Y031449D01*
X040875D01*
X040933D01*
X040992Y031391D01*
Y031333D01*
X040933Y031274D01*
X040817D01*
X040758Y031333D01*
X047592Y039416D02*
X047534Y039474D01*
X047417D01*
X047359Y039416D01*
Y039183D01*
X047417Y039124D01*
X047534D01*
X047592Y039183D01*
X047708Y039416D02*
X047767Y039474D01*
X047883D01*
X047942Y039416D01*
Y039358D01*
X047883Y039299D01*
X047942Y039241D01*
Y039183D01*
X047883Y039124D01*
X047767D01*
X047708Y039183D01*
Y039241D01*
X047767Y039299D01*
X047708Y039358D01*
Y039416D01*
X047767Y039299D02*
X047883D01*
X04455Y028791D02*
X044608Y028849D01*
Y028966D01*
X04455Y029024D01*
X044317D01*
X044259Y028966D01*
Y028849D01*
X044317Y028791D01*
X044608Y028675D02*
Y028441D01*
X04455D01*
X044317Y028675D01*
X044259D01*
D15*
X015958Y015107D02*
G03*
X015342Y015723I-000616J0D01*
G01*
X015184Y044561D02*
G03*
X0158Y045177I0J000616D01*
G01*
X046607Y045335D02*
G03*
X047223Y044719I000616J-0D01*
G01*
X047381Y015881D02*
G03*
X046765Y015265I-0J-000616D01*
G01*
X0132Y015723D02*
X015342D01*
X01595Y012973D02*
X015958Y015107D01*
X0158Y045177D02*
Y047382D01*
X01325Y044569D02*
X015184Y044561D01*
X047223Y044719D02*
X049407D01*
X046607Y045335D02*
X046614Y047393D01*
X046765Y013027D02*
Y015265D01*
X047381Y015881D02*
X0494Y015874D01*
X0179Y017023D02*
X04475D01*
Y012973D02*
Y017023D01*
X0179Y012973D02*
Y017023D01*
X04475Y043406D02*
Y047456D01*
X0179Y043406D02*
Y047456D01*
Y0434D02*
X04475Y043406D01*
D16*
X04232Y039893D02*
X044883D01*
X04232Y04131D02*
X044883D01*
X04232Y039893D02*
Y04131D01*
X044883Y039893D02*
Y04131D01*
D17*
X04159Y035303D02*
X041704D01*
X039998D02*
X04011D01*
X04159Y032597D02*
X041704D01*
X039998D02*
X04011D01*
X039998D02*
Y035303D01*
X041704Y032597D02*
Y035303D01*
X045697Y02039D02*
Y020504D01*
Y018798D02*
Y01891D01*
X048403Y02039D02*
Y020504D01*
Y018798D02*
Y01891D01*
X045697Y018798D02*
X048403D01*
X045697Y020504D02*
X048403D01*
X018101Y017731D02*
X019499D01*
X018101Y021669D02*
X019499D01*
X018101Y017731D02*
X019499D01*
X018101Y021669D02*
X019499D01*
X044432Y03585D02*
X045473D01*
X044432Y03185D02*
Y03585D01*
Y03185D02*
X045473D01*
X034897Y025597D02*
X037707D01*
X034897Y017487D02*
Y025597D01*
Y017487D02*
X037707D01*
Y025597D01*
X030797D02*
X033607D01*
X030797Y017487D02*
Y025597D01*
Y017487D02*
X033607D01*
Y025597D01*
X0296Y01747D02*
Y02558D01*
X02679Y01747D02*
X0296D01*
X02679D02*
Y02558D01*
X0296D01*
X013376Y01784D02*
Y02136D01*
X013939D01*
X014861D02*
X015522D01*
X013376Y01784D02*
X013939D01*
X014861D02*
X015522D01*
D18*
X044081Y036319D02*
Y036614D01*
X041719Y036319D02*
X044081D01*
X041719D02*
Y036614D01*
X044081Y038386D02*
Y038681D01*
X041719D02*
X044081D01*
X041719Y038386D02*
Y038681D01*
D19*
X033294Y035535D02*
Y036865D01*
X03405D01*
Y035535D02*
Y036865D01*
X033294Y035535D02*
X03405D01*
X034369D02*
Y036865D01*
X035125D01*
Y035535D02*
Y036865D01*
X034369Y035535D02*
X035125D01*
X035967Y031322D02*
X037297D01*
X035967D02*
Y032078D01*
X037297D01*
Y031322D02*
Y032078D01*
X035766Y035585D02*
Y036915D01*
X036522D01*
Y035585D02*
Y036915D01*
X035766Y035585D02*
X036522D01*
X036819D02*
Y036915D01*
X037575D01*
Y035585D02*
Y036915D01*
X036819Y035585D02*
X037575D01*
X021922Y043071D02*
X022678D01*
X021922Y04174D02*
Y043071D01*
Y04174D02*
X022678D01*
Y043071D01*
X024033Y039168D02*
Y039924D01*
X022703D02*
X024033D01*
X022703Y039168D02*
Y039924D01*
Y039168D02*
X024033D01*
X016502Y039498D02*
X021798D01*
X016502Y034202D02*
X021798D01*
Y039498D01*
X016502Y034202D02*
Y039498D01*
X027385Y042422D02*
Y043178D01*
Y042422D02*
X028715D01*
Y043178D01*
X027385D02*
X028715D01*
X024365Y041572D02*
Y042328D01*
X023035D02*
X024365D01*
X023035Y041572D02*
Y042328D01*
Y041572D02*
X024365D01*
X036032Y042422D02*
X037363D01*
X036032D02*
Y043178D01*
X037363D01*
Y042422D02*
Y043178D01*
X036032Y041622D02*
X037363D01*
X036032D02*
Y042378D01*
X037363D01*
Y041622D02*
Y042378D01*
X03355Y042372D02*
X034881D01*
X03355D02*
Y043128D01*
X034881D01*
Y042372D02*
Y043128D01*
X03355Y041572D02*
X034881D01*
X03355D02*
Y042328D01*
X034881D01*
Y041572D02*
Y042328D01*
X031719Y035485D02*
X032475D01*
Y036815D01*
X031719D02*
X032475D01*
X031719Y035485D02*
Y036815D01*
X030666Y035485D02*
X031422D01*
Y036815D01*
X030666D02*
X031422D01*
X030666Y035485D02*
Y036815D01*
X032197Y042372D02*
Y043128D01*
X030866D02*
X032197D01*
X030866Y042372D02*
Y043128D01*
Y042372D02*
X032197D01*
Y041572D02*
Y042328D01*
X030866D02*
X032197D01*
X030866Y041572D02*
Y042328D01*
Y041572D02*
X032197D01*
X034822Y030265D02*
X035578D01*
X034822Y028935D02*
Y030265D01*
Y028935D02*
X035578D01*
Y030265D01*
X034835Y027535D02*
X035591D01*
Y028865D01*
X034835D02*
X035591D01*
X034835Y027535D02*
Y028865D01*
X033247Y031322D02*
Y032078D01*
X031917D02*
X033247D01*
X031917Y031322D02*
Y032078D01*
Y031322D02*
X033247D01*
X030722Y030265D02*
X031478D01*
X030722Y028935D02*
Y030265D01*
Y028935D02*
X031478D01*
Y030265D01*
X030735Y027535D02*
X031491D01*
Y028865D01*
X030735D02*
X031491D01*
X030735Y027535D02*
Y028865D01*
X027867Y031322D02*
X029197D01*
X027867D02*
Y032078D01*
X029197D01*
Y031322D02*
Y032078D01*
X027428Y028935D02*
Y030265D01*
X026672Y028935D02*
X027428D01*
X026672D02*
Y030265D01*
X027428D01*
X026672Y027535D02*
Y028865D01*
X027428D01*
Y027535D02*
Y028865D01*
X026672Y027535D02*
X027428D01*
X036133Y025672D02*
Y026428D01*
X034803D02*
X036133D01*
X034803Y025672D02*
Y026428D01*
Y025672D02*
X036133D01*
X032065Y025678D02*
Y026434D01*
X030735D02*
X032065D01*
X030735Y025678D02*
Y026434D01*
Y025678D02*
X032065D01*
X026667D02*
X027997D01*
X026667D02*
Y026434D01*
X027997D01*
Y025678D02*
Y026434D01*
X016328Y038385D02*
Y039715D01*
X015572Y038385D02*
X016328D01*
X015572D02*
Y039715D01*
X016328D01*
X021217Y019766D02*
X022547D01*
X021217D02*
Y020522D01*
X022547D01*
Y019766D02*
Y020522D01*
X021217Y020572D02*
X022547D01*
X021217D02*
Y021328D01*
X022547D01*
Y020572D02*
Y021328D01*
X044835Y045672D02*
Y046428D01*
Y045672D02*
X046165D01*
Y046428D01*
X044835D02*
X046165D01*
X044835Y046472D02*
Y047228D01*
Y046472D02*
X046165D01*
Y047228D01*
X044835D02*
X046165D01*
X016715Y023572D02*
Y024328D01*
X015385D02*
X016715D01*
X015385Y023572D02*
Y024328D01*
Y023572D02*
X016715D01*
X015065Y022019D02*
Y022775D01*
X013735D02*
X015065D01*
X013735Y022019D02*
Y022775D01*
Y022019D02*
X015065D01*
D20*
X022966Y042396D02*
Y043104D01*
Y042396D02*
X024383D01*
Y043104D01*
X022966D02*
X024383D01*
X023753Y042553D02*
Y042947D01*
X023596D02*
X023753Y042789D01*
X023596Y042553D02*
Y042947D01*
X023753Y04275D02*
Y042789D01*
Y042711D02*
Y042789D01*
X023596Y042553D02*
X023753Y042711D01*
X033481Y034746D02*
Y035454D01*
Y034746D02*
X034898D01*
Y035454D01*
X033481D02*
X034898D01*
X034269Y034903D02*
Y035297D01*
X034111D02*
X034269Y035139D01*
X034111Y034903D02*
Y035297D01*
X034269Y0351D02*
Y035139D01*
Y035061D02*
Y035139D01*
X034111Y034903D02*
X034269Y035061D01*
X035945Y034796D02*
Y035504D01*
Y034796D02*
X037362D01*
Y035504D01*
X035945D02*
X037362D01*
X036732Y034953D02*
Y035347D01*
X036575D02*
X036732Y035189D01*
X036575Y034953D02*
Y035347D01*
X036732Y03515D02*
Y035189D01*
Y035111D02*
Y035189D01*
X036575Y034953D02*
X036732Y035111D01*
X031475Y034853D02*
X031632Y035011D01*
Y035089D01*
Y03505D02*
Y035089D01*
X031475Y034853D02*
Y035247D01*
X031632Y035089D01*
Y034853D02*
Y035247D01*
X030845Y035404D02*
X032262D01*
Y034696D02*
Y035404D01*
X030845Y034696D02*
X032262D01*
X030845D02*
Y035404D01*
X044615Y045696D02*
Y046404D01*
X043198D02*
X044615D01*
X043198Y045696D02*
Y046404D01*
Y045696D02*
X044615D01*
X043828Y045853D02*
Y046247D01*
Y046011D02*
X043985Y045853D01*
Y046247D01*
X043828Y046011D02*
Y04605D01*
Y046011D02*
Y046089D01*
X043985Y046247D01*
X043828Y046889D02*
X043985Y047047D01*
X043828Y046811D02*
Y046889D01*
Y046811D02*
Y04685D01*
X043985Y046653D02*
Y047047D01*
X043828Y046811D02*
X043985Y046653D01*
X043828D02*
Y047047D01*
X043198Y046496D02*
X044615D01*
X043198D02*
Y047204D01*
X044615D01*
Y046496D02*
Y047204D01*
D21*
X02529Y036137D02*
X02637D01*
X02643D02*
X02705D01*
X0253Y036128D02*
X02638D01*
X02644D02*
X02705D01*
X02531Y036117D02*
X02639D01*
X02644D02*
X02705D01*
X02754D02*
X02853D01*
X02531Y036107D02*
X0264D01*
X02645D02*
X02705D01*
X02754D02*
X02854D01*
X02532Y036098D02*
X0264D01*
X02646D02*
X02704D01*
X02753D02*
X02856D01*
X02533Y036088D02*
X02641D01*
X02647D02*
X02704D01*
X02753D02*
X02857D01*
X02534Y036077D02*
X02642D01*
X02647D02*
X02704D01*
X02753D02*
X02857D01*
X02534Y036068D02*
X02643D01*
X02648D02*
X02704D01*
X02753D02*
X02858D01*
X02535Y036058D02*
X02644D01*
X02649D02*
X02704D01*
X02752D02*
X02859D01*
X02536Y036047D02*
X02644D01*
X0265D02*
X02703D01*
X02752D02*
X02859D01*
X02537Y036037D02*
X02645D01*
X02651D02*
X02703D01*
X02752D02*
X0286D01*
X02537Y036028D02*
X02646D01*
X02651D02*
X02703D01*
X02752D02*
X0286D01*
X02538Y036017D02*
X02647D01*
X02652D02*
X02703D01*
X02752D02*
X0286D01*
X02539Y036007D02*
X02647D01*
X02653D02*
X02702D01*
X02751D02*
X02859D01*
X0254Y035998D02*
X02648D01*
X02654D02*
X02702D01*
X02751D02*
X02859D01*
X02541Y035988D02*
X02649D01*
X02654D02*
X02702D01*
X02751D02*
X02859D01*
X02541Y035977D02*
X0265D01*
X02655D02*
X02702D01*
X02751D02*
X02859D01*
X02542Y035968D02*
X0265D01*
X02656D02*
X02702D01*
X0275D02*
X02859D01*
X02543Y035958D02*
X02651D01*
X02657D02*
X02701D01*
X0275D02*
X02858D01*
X02544Y035947D02*
X02652D01*
X02657D02*
X02701D01*
X0275D02*
X02858D01*
X02544Y035938D02*
X02653D01*
X02658D02*
X02701D01*
X0275D02*
X02858D01*
X02545Y035928D02*
X02653D01*
X02659D02*
X02701D01*
X0275D02*
X02858D01*
X02546Y035917D02*
X02654D01*
X0266D02*
X027D01*
X02749D02*
X02857D01*
X02546Y035907D02*
X02655D01*
X0266D02*
X027D01*
X02749D02*
X02857D01*
X02546Y035898D02*
X02655D01*
X02659D02*
X027D01*
X02749D02*
X02857D01*
X02545Y035887D02*
X02654D01*
X02659D02*
X027D01*
X02749D02*
X02857D01*
X02545Y035877D02*
X02654D01*
X02659D02*
X027D01*
X02749D02*
X02857D01*
X02545Y035868D02*
X02654D01*
X02659D02*
X02699D01*
X02748D02*
X02856D01*
X02545Y035858D02*
X02654D01*
X02659D02*
X02699D01*
X02748D02*
X02856D01*
X02544Y035847D02*
X02654D01*
X02658D02*
X02699D01*
X02748D02*
X02856D01*
X02544Y035838D02*
X02653D01*
X02658D02*
X02699D01*
X02748D02*
X02856D01*
X02544Y035828D02*
X02585D01*
X02614D02*
X02653D01*
X02658D02*
X02699D01*
X02747D02*
X02855D01*
X02544Y035817D02*
X02584D01*
X02614D02*
X02653D01*
X02658D02*
X02698D01*
X02747D02*
X02855D01*
X02544Y035807D02*
X02584D01*
X02614D02*
X02653D01*
X02657D02*
X02698D01*
X02747D02*
X02787D01*
X02814D02*
X02855D01*
X02543Y035798D02*
X02584D01*
X02614D02*
X02653D01*
X02657D02*
X02698D01*
X02747D02*
X02787D01*
X02814D02*
X02855D01*
X02543Y035787D02*
X02584D01*
X02614D02*
X02652D01*
X02657D02*
X02698D01*
X02747D02*
X02787D01*
X02814D02*
X02855D01*
X02543Y035777D02*
X02584D01*
X02613D02*
X02652D01*
X02657D02*
X02697D01*
X02746D02*
X02787D01*
X02814D02*
X02854D01*
X02543Y035768D02*
X02583D01*
X02613D02*
X02652D01*
X02657D02*
X02697D01*
X02746D02*
X02787D01*
X02813D02*
X02854D01*
X02542Y035758D02*
X02583D01*
X02613D02*
X02652D01*
X02656D02*
X02697D01*
X02746D02*
X02786D01*
X02813D02*
X02854D01*
X02542Y035747D02*
X02583D01*
X02613D02*
X02651D01*
X02656D02*
X02697D01*
X02746D02*
X02786D01*
X02813D02*
X02854D01*
X02542Y035738D02*
X02583D01*
X02612D02*
X02651D01*
X02656D02*
X02697D01*
X02745D02*
X02786D01*
X02813D02*
X02854D01*
X02542Y035728D02*
X02582D01*
X02612D02*
X02651D01*
X02656D02*
X02696D01*
X02745D02*
X02786D01*
X02815D02*
X02853D01*
X02542Y035717D02*
X02582D01*
X02612D02*
X02651D01*
X02655D02*
X02696D01*
X02745D02*
X02785D01*
X02816D02*
X02853D01*
X02541Y035707D02*
X02582D01*
X02612D02*
X02651D01*
X02655D02*
X02696D01*
X02745D02*
X02785D01*
X02818D02*
X02853D01*
X02541Y035698D02*
X02582D01*
X02612D02*
X0265D01*
X02655D02*
X02696D01*
X02745D02*
X02785D01*
X0282D02*
X02853D01*
X02541Y035687D02*
X02582D01*
X02611D02*
X0265D01*
X02655D02*
X02695D01*
X02744D02*
X02785D01*
X02821D02*
X02852D01*
X02541Y035677D02*
X02581D01*
X02611D02*
X0265D01*
X02655D02*
X02695D01*
X02744D02*
X02785D01*
X02823D02*
X02852D01*
X0254Y035668D02*
X02581D01*
X02611D02*
X0265D01*
X02654D02*
X02695D01*
X02744D02*
X02784D01*
X02824D02*
X02852D01*
X0254Y035657D02*
X02581D01*
X02611D02*
X0265D01*
X02654D02*
X02695D01*
X02744D02*
X02784D01*
X02826D02*
X02852D01*
X0254Y035647D02*
X02581D01*
X02611D02*
X02649D01*
X02654D02*
X02695D01*
X02743D02*
X02784D01*
X02828D02*
X02852D01*
X0254Y035638D02*
X0258D01*
X0261D02*
X02649D01*
X02654D02*
X02694D01*
X02743D02*
X02784D01*
X02829D02*
X02851D01*
X0254Y035628D02*
X0258D01*
X0261D02*
X02649D01*
X02653D02*
X02694D01*
X02743D02*
X02783D01*
X02831D02*
X02851D01*
X02539Y035617D02*
X0258D01*
X0261D02*
X02649D01*
X02653D02*
X02694D01*
X02743D02*
X02783D01*
X02833D02*
X02851D01*
X02539Y035608D02*
X0258D01*
X0261D02*
X02648D01*
X02653D02*
X02694D01*
X02743D02*
X02783D01*
X02834D02*
X02851D01*
X02539Y035598D02*
X0258D01*
X02609D02*
X02648D01*
X02653D02*
X02694D01*
X02742D02*
X02783D01*
X02836D02*
X0285D01*
X02539Y035587D02*
X02579D01*
X02609D02*
X02648D01*
X02653D02*
X02693D01*
X02742D02*
X02783D01*
X02837D02*
X0285D01*
X02539Y035577D02*
X02579D01*
X02609D02*
X02648D01*
X02652D02*
X02693D01*
X02742D02*
X02782D01*
X02839D02*
X0285D01*
X02538Y035568D02*
X02579D01*
X02609D02*
X02648D01*
X02652D02*
X02693D01*
X02742D02*
X02782D01*
X02841D02*
X0285D01*
X02538Y035557D02*
X02579D01*
X02609D02*
X02647D01*
X02652D02*
X02693D01*
X02742D02*
X02782D01*
X02842D02*
X0285D01*
X02538Y035547D02*
X02578D01*
X02608D02*
X02647D01*
X02652D02*
X02692D01*
X02741D02*
X02782D01*
X02844D02*
X02849D01*
X02538Y035538D02*
X02578D01*
X02608D02*
X02647D01*
X02652D02*
X02692D01*
X02741D02*
X02781D01*
X02846D02*
X02849D01*
X02537Y035528D02*
X02578D01*
X02608D02*
X02647D01*
X02651D02*
X02692D01*
X02741D02*
X02781D01*
X02847D02*
X02849D01*
X02537Y035517D02*
X02578D01*
X02608D02*
X02646D01*
X02651D02*
X02692D01*
X02741D02*
X02781D01*
X02537Y035508D02*
X02578D01*
X02607D02*
X02646D01*
X02651D02*
X02692D01*
X0274D02*
X02752D01*
X02537Y035498D02*
X02577D01*
X02607D02*
X02646D01*
X02651D02*
X02691D01*
X0274D02*
X02753D01*
X02537Y035487D02*
X02577D01*
X02607D02*
X02646D01*
X0265D02*
X02691D01*
X0274D02*
X02754D01*
X02536Y035477D02*
X02577D01*
X02607D02*
X02646D01*
X0265D02*
X02691D01*
X0274D02*
X02755D01*
X02536Y035468D02*
X02577D01*
X02607D02*
X02645D01*
X0265D02*
X02691D01*
X0274D02*
X02756D01*
X02536Y035457D02*
X02577D01*
X02606D02*
X02645D01*
X0265D02*
X0269D01*
X02739D02*
X02757D01*
X02766D02*
X02821D01*
X02536Y035447D02*
X02576D01*
X02606D02*
X02645D01*
X0265D02*
X0269D01*
X02739D02*
X02758D01*
X02766D02*
X02822D01*
X02535Y035438D02*
X02576D01*
X02606D02*
X02645D01*
X02649D02*
X0269D01*
X02739D02*
X02759D01*
X02767D02*
X02823D01*
X02535Y035427D02*
X02576D01*
X02606D02*
X02644D01*
X02649D02*
X0269D01*
X02739D02*
X0276D01*
X02768D02*
X02824D01*
X02535Y035417D02*
X02576D01*
X02605D02*
X02644D01*
X02649D02*
X0269D01*
X02738D02*
X02761D01*
X02769D02*
X02825D01*
X02535Y035408D02*
X02575D01*
X02603D02*
X02644D01*
X02649D02*
X02689D01*
X02738D02*
X02762D01*
X0277D02*
X02826D01*
X02535Y035398D02*
X02575D01*
X02601D02*
X02644D01*
X02648D02*
X02689D01*
X02738D02*
X02763D01*
X02771D02*
X02827D01*
X02534Y035387D02*
X02575D01*
X02599D02*
X02644D01*
X02648D02*
X02689D01*
X02738D02*
X02763D01*
X02772D02*
X02828D01*
X02534Y035378D02*
X02575D01*
X02597D02*
X02643D01*
X02648D02*
X02689D01*
X02738D02*
X02764D01*
X02773D02*
X02829D01*
X02534Y035368D02*
X02575D01*
X02595D02*
X02643D01*
X02648D02*
X02688D01*
X02737D02*
X02765D01*
X02774D02*
X0283D01*
X02534Y035357D02*
X02574D01*
X02593D02*
X02643D01*
X02648D02*
X02688D01*
X02737D02*
X02766D01*
X02774D02*
X02831D01*
X02533Y035347D02*
X02573D01*
X02591D02*
X02643D01*
X02647D02*
X02688D01*
X02737D02*
X02767D01*
X02775D02*
X02832D01*
X02533Y035338D02*
X02572D01*
X02589D02*
X02642D01*
X02647D02*
X02688D01*
X02737D02*
X02768D01*
X02776D02*
X02833D01*
X02533Y035327D02*
X0257D01*
X02587D02*
X02642D01*
X02647D02*
X02688D01*
X02736D02*
X02769D01*
X02777D02*
X02834D01*
X02533Y035317D02*
X02569D01*
X02585D02*
X02642D01*
X02647D02*
X02687D01*
X02736D02*
X0277D01*
X02778D02*
X02835D01*
X02533Y035308D02*
X02568D01*
X02583D02*
X02642D01*
X02646D02*
X02687D01*
X02736D02*
X02771D01*
X02779D02*
X02836D01*
X02532Y035298D02*
X02566D01*
X02581D02*
X02642D01*
X02646D02*
X02687D01*
X02736D02*
X02772D01*
X0278D02*
X02837D01*
X02532Y035287D02*
X02565D01*
X02579D02*
X02641D01*
X02646D02*
X02687D01*
X02736D02*
X02773D01*
X02781D02*
X02838D01*
X02532Y035278D02*
X02563D01*
X02577D02*
X02641D01*
X02646D02*
X02686D01*
X02735D02*
X02774D01*
X02782D02*
X02839D01*
X02532Y035268D02*
X02564D01*
X02575D02*
X02641D01*
X02646D02*
X02686D01*
X02735D02*
X02774D01*
X02783D02*
X0284D01*
X02532Y035257D02*
X02564D01*
X02573D02*
X02641D01*
X02645D02*
X02686D01*
X02735D02*
X02775D01*
X02784D02*
X02841D01*
X02531Y035247D02*
X02564D01*
X02572D02*
X02641D01*
X02645D02*
X02686D01*
X02735D02*
X02775D01*
X02785D02*
X02842D01*
X02531Y035238D02*
X02565D01*
X02572D02*
X0264D01*
X02645D02*
X02686D01*
X02734D02*
X02775D01*
X02785D02*
X02843D01*
X02531Y035227D02*
X02565D01*
X02572D02*
X0264D01*
X02645D02*
X02685D01*
X02734D02*
X02775D01*
X02786D02*
X02842D01*
X02531Y035217D02*
X02565D01*
X02573D02*
X0264D01*
X02644D02*
X02685D01*
X02734D02*
X02775D01*
X02787D02*
X02842D01*
X0253Y035208D02*
X02565D01*
X02573D02*
X02639D01*
X02644D02*
X02685D01*
X02734D02*
X02774D01*
X02788D02*
X02842D01*
X0253Y035198D02*
X02566D01*
X02573D02*
X02637D01*
X02644D02*
X02685D01*
X02734D02*
X02774D01*
X02789D02*
X02842D01*
X0253Y035187D02*
X02566D01*
X02573D02*
X02635D01*
X02644D02*
X02685D01*
X02733D02*
X02774D01*
X0279D02*
X02841D01*
X0253Y035178D02*
X02566D01*
X02574D02*
X02633D01*
X02644D02*
X02684D01*
X02733D02*
X02774D01*
X02791D02*
X02841D01*
X0253Y035168D02*
X02566D01*
X02574D02*
X02631D01*
X02643D02*
X02684D01*
X02733D02*
X02773D01*
X02792D02*
X02841D01*
X02529Y035157D02*
X02567D01*
X02574D02*
X02629D01*
X02643D02*
X02684D01*
X02733D02*
X02773D01*
X02793D02*
X02841D01*
X02529Y035148D02*
X02567D01*
X02575D02*
X02627D01*
X02643D02*
X02684D01*
X02733D02*
X02773D01*
X02794D02*
X02841D01*
X02529Y035138D02*
X02567D01*
X02575D02*
X02625D01*
X02643D02*
X02683D01*
X02732D02*
X02773D01*
X028D02*
X0284D01*
X02529Y035127D02*
X02568D01*
X02575D02*
X02623D01*
X02643D02*
X02683D01*
X02732D02*
X02773D01*
X028D02*
X0284D01*
X02528Y035117D02*
X02568D01*
X02575D02*
X02621D01*
X02642D02*
X02683D01*
X02732D02*
X02772D01*
X02799D02*
X0284D01*
X02528Y035108D02*
X02568D01*
X02576D02*
X02619D01*
X02642D02*
X02683D01*
X02732D02*
X02772D01*
X02799D02*
X0284D01*
X02528Y035097D02*
X02568D01*
X02576D02*
X02617D01*
X02642D02*
X02683D01*
X02731D02*
X02772D01*
X02799D02*
X02839D01*
X02528Y035087D02*
X02568D01*
X02576D02*
X02615D01*
X02642D02*
X02682D01*
X02731D02*
X02772D01*
X02799D02*
X02839D01*
X02528Y035078D02*
X02568D01*
X02577D02*
X02613D01*
X02641D02*
X02682D01*
X02731D02*
X02771D01*
X02798D02*
X02839D01*
X02527Y035068D02*
X02568D01*
X02577D02*
X02611D01*
X02641D02*
X02682D01*
X02731D02*
X02771D01*
X02798D02*
X02839D01*
X02527Y035057D02*
X02568D01*
X02577D02*
X02609D01*
X02641D02*
X02682D01*
X02731D02*
X02771D01*
X02798D02*
X02839D01*
X02527Y035048D02*
X02568D01*
X02577D02*
X02607D01*
X02641D02*
X02681D01*
X0273D02*
X02771D01*
X02798D02*
X02838D01*
X02527Y035038D02*
X02567D01*
X02578D02*
X02605D01*
X02641D02*
X02681D01*
X0273D02*
X02771D01*
X02798D02*
X02838D01*
X02526Y035027D02*
X02567D01*
X02578D02*
X02603D01*
X0264D02*
X02681D01*
X0273D02*
X0277D01*
X02797D02*
X02838D01*
X02526Y035017D02*
X02567D01*
X02578D02*
X02601D01*
X0264D02*
X02681D01*
X02696D02*
X02725D01*
X0273D02*
X0277D01*
X02797D02*
X02838D01*
X02526Y035008D02*
X02567D01*
X02578D02*
X02599D01*
X0264D02*
X02681D01*
X02696D02*
X02725D01*
X02729D02*
X0277D01*
X02797D02*
X02838D01*
X02526Y034997D02*
X02566D01*
X02579D02*
X02597D01*
X0264D02*
X0268D01*
X02696D02*
X02724D01*
X02729D02*
X0277D01*
X02797D02*
X02837D01*
X02526Y034987D02*
X02566D01*
X02579D02*
X02595D01*
X02639D02*
X0268D01*
X02695D02*
X02724D01*
X02729D02*
X02769D01*
X02796D02*
X02837D01*
X02525Y034978D02*
X02566D01*
X02579D02*
X02593D01*
X02639D02*
X0268D01*
X02695D02*
X02724D01*
X02729D02*
X02769D01*
X02796D02*
X02837D01*
X02525Y034968D02*
X02566D01*
X0258D02*
X02591D01*
X02639D02*
X0268D01*
X02695D02*
X02724D01*
X02729D02*
X02769D01*
X02796D02*
X02837D01*
X02525Y034957D02*
X02566D01*
X0258D02*
X02589D01*
X02639D02*
X02679D01*
X02695D02*
X02724D01*
X02728D02*
X02769D01*
X02796D02*
X02836D01*
X02525Y034948D02*
X02565D01*
X0258D02*
X02587D01*
X02639D02*
X02679D01*
X02694D02*
X02723D01*
X02728D02*
X02769D01*
X02796D02*
X02836D01*
X02525Y034938D02*
X02565D01*
X0258D02*
X02585D01*
X02638D02*
X02679D01*
X02694D02*
X02723D01*
X02728D02*
X02768D01*
X02795D02*
X02836D01*
X02524Y034927D02*
X02565D01*
X02581D02*
X02582D01*
X02638D02*
X02679D01*
X02694D02*
X02723D01*
X02728D02*
X02768D01*
X02795D02*
X02836D01*
X02524Y034918D02*
X02565D01*
X02638D02*
X02679D01*
X02694D02*
X02723D01*
X02727D02*
X02768D01*
X02795D02*
X02836D01*
X02524Y034908D02*
X02564D01*
X02638D02*
X02678D01*
X02694D02*
X02722D01*
X02727D02*
X02768D01*
X02795D02*
X02835D01*
X02524Y034897D02*
X02564D01*
X02637D02*
X02678D01*
X02693D02*
X02722D01*
X02727D02*
X02768D01*
X02794D02*
X02835D01*
X02523Y034887D02*
X02564D01*
X02637D02*
X02678D01*
X02693D02*
X02722D01*
X02727D02*
X02767D01*
X02794D02*
X02835D01*
X02523Y034878D02*
X02564D01*
X02637D02*
X02678D01*
X02693D02*
X02722D01*
X02727D02*
X02767D01*
X02794D02*
X02835D01*
X02523Y034867D02*
X02564D01*
X02637D02*
X02722D01*
X02726D02*
X02767D01*
X02794D02*
X02834D01*
X02523Y034857D02*
X02563D01*
X02637D02*
X02721D01*
X02726D02*
X02767D01*
X02794D02*
X02834D01*
X02523Y034848D02*
X02563D01*
X02636D02*
X02721D01*
X02726D02*
X02834D01*
X02522Y034838D02*
X02563D01*
X02636D02*
X02721D01*
X02726D02*
X02834D01*
X02522Y034827D02*
X02563D01*
X02636D02*
X02721D01*
X02725D02*
X02834D01*
X02522Y034818D02*
X02563D01*
X02636D02*
X02721D01*
X02725D02*
X02833D01*
X02522Y034808D02*
X02562D01*
X02636D02*
X0272D01*
X02725D02*
X02833D01*
X02521Y034797D02*
X02562D01*
X02635D02*
X0272D01*
X02725D02*
X02833D01*
X02521Y034787D02*
X02562D01*
X02635D02*
X0272D01*
X02725D02*
X02833D01*
X02521Y034778D02*
X02562D01*
X02635D02*
X0272D01*
X02724D02*
X02832D01*
X02521Y034767D02*
X02561D01*
X02635D02*
X02719D01*
X02724D02*
X02832D01*
X02521Y034757D02*
X02561D01*
X02634D02*
X02719D01*
X02724D02*
X02832D01*
X0252Y034748D02*
X02561D01*
X02634D02*
X02719D01*
X02724D02*
X02832D01*
X0252Y034738D02*
X02561D01*
X02634D02*
X02719D01*
X02724D02*
X02832D01*
X0252Y034727D02*
X02561D01*
X02634D02*
X02719D01*
X02723D02*
X02831D01*
X0252Y034718D02*
X0256D01*
X02634D02*
X02718D01*
X02723D02*
X02831D01*
X02633Y034708D02*
X02718D01*
X02723D02*
X02831D01*
X02633Y034697D02*
X02718D01*
X02723D02*
X02831D01*
X02633Y034688D02*
X02718D01*
X02722D02*
X0283D01*
X02633Y034678D02*
X02717D01*
X02722D02*
X0283D01*
X02632Y034667D02*
X02717D01*
X02722D02*
X0283D01*
X02632Y034657D02*
X02717D01*
X02722D02*
X0283D01*
X02632Y034648D02*
X02717D01*
X02722D02*
X0283D01*
X02632Y034637D02*
X02717D01*
X02722D02*
X02829D01*
X02632Y034627D02*
X02717D01*
X02722D02*
X02829D01*
X02631Y034618D02*
X02718D01*
X02722D02*
X02829D01*
X02631Y034608D02*
X02718D01*
X02723D02*
X02829D01*
X02631Y034597D02*
X02718D01*
X02723D02*
X02829D01*
X02631Y034588D02*
X02719D01*
X02724D02*
X02828D01*
X0263Y034578D02*
X02719D01*
X02725D02*
X02828D01*
X0263Y034567D02*
X0272D01*
X02726D02*
X02828D01*
X02728Y034557D02*
X02828D01*
X0273Y034548D02*
X02827D01*
X02519Y034708D02*
X0256D01*
X02519Y034697D02*
X0256D01*
X02519Y034688D02*
X0256D01*
X02519Y034678D02*
X02559D01*
X02519Y034667D02*
X02559D01*
X02518Y034657D02*
X02559D01*
X02518Y034648D02*
X02559D01*
X02518Y034637D02*
X02559D01*
X02518Y034627D02*
X02558D01*
X02517Y034618D02*
X02558D01*
X02517Y034608D02*
X02558D01*
X02517Y034597D02*
X02558D01*
X02517Y034588D02*
X02557D01*
X02517Y034578D02*
X02557D01*
X02517Y034567D02*
X02557D01*
D22*
X0207Y0477D02*
Y0478D01*
X0208Y0479D01*
X0189Y0478D02*
X019Y0477D01*
X0189Y04935D02*
Y0494D01*
Y04975D02*
Y0498D01*
Y05015D02*
Y050233D01*
X0208Y04985D02*
Y0499D01*
Y04945D02*
Y0495D01*
Y04825D02*
Y0483D01*
X0189Y04815D02*
Y0482D01*
Y04855D02*
Y0486D01*
Y04895D02*
Y049D01*
X0208Y04905D02*
Y0491D01*
Y04865D02*
Y0487D01*
X0187Y0479D02*
X0189Y0478D01*
X0187Y0479D02*
X021Y048D01*
X0208Y04825D02*
X021Y04815D01*
X0187Y04805D02*
X021Y04815D01*
X0187Y0479D02*
Y04805D01*
X0189Y04815D01*
X021Y048D02*
Y04815D01*
X0208Y0479D02*
X021Y048D01*
X0187Y0483D02*
X0189Y0482D01*
X0187Y0483D02*
X021Y0484D01*
X0208Y04865D02*
X021Y04855D01*
X0187Y04845D02*
X021Y04855D01*
X0187Y0483D02*
Y04845D01*
X0189Y04855D01*
X021Y0484D02*
Y04855D01*
X0208Y0483D02*
X021Y0484D01*
X02115Y04715D02*
X02145Y04685D01*
X0208Y04715D02*
X02115D01*
X0214Y0469D02*
X02145Y04685D01*
Y04435D02*
Y04685D01*
X0211Y044D02*
X02115Y04405D01*
X0186Y044D02*
X0211D01*
X01825Y04435D02*
X0183Y0443D01*
X01825Y04435D02*
Y04485D01*
X02115Y04405D02*
X02145Y04435D01*
X0183Y0443D02*
X0186Y044D01*
X01825Y0448D02*
Y04685D01*
X01855Y04715D01*
X0189D01*
X019Y04755D02*
X0207D01*
X020433Y0506D02*
X0208Y050233D01*
X0207Y0476D02*
Y0477D01*
Y04755D02*
Y0476D01*
Y04755D02*
X0208Y04745D01*
Y047D02*
Y04745D01*
X020783Y047017D02*
X0208Y047D01*
X0189Y050233D02*
X019317Y0506D01*
X019Y0476D02*
Y0477D01*
Y04755D02*
Y0476D01*
X0189Y04745D02*
X019Y04755D01*
X0189Y047D02*
Y04745D01*
Y047D02*
X018917Y047017D01*
X019317Y0506D02*
X020433D01*
X0187Y0487D02*
X0189Y0486D01*
X0187Y0487D02*
X021Y0488D01*
X0208Y04905D02*
X021Y04895D01*
X0187Y04885D02*
X021Y04895D01*
X0187Y0487D02*
Y04885D01*
X0189Y04895D01*
X021Y0488D02*
Y04895D01*
X0208Y0487D02*
X021Y0488D01*
X0187Y0491D02*
X0189Y049D01*
X0187Y0491D02*
X021Y0492D01*
X0208Y04945D02*
X021Y04935D01*
X0187Y04925D02*
X021Y04935D01*
X0187Y0491D02*
Y04925D01*
X0189Y04935D01*
X021Y0492D02*
Y04935D01*
X0208Y0491D02*
X021Y0492D01*
X0187Y0495D02*
X0189Y0494D01*
X0187Y0495D02*
X021Y0496D01*
X0208Y04985D02*
X021Y04975D01*
X0187Y04965D02*
X021Y04975D01*
X0187Y0495D02*
Y04965D01*
X0189Y04975D01*
X021Y0496D02*
Y04975D01*
X0208Y0495D02*
X021Y0496D01*
X0187Y0499D02*
X0189Y0498D01*
X0187Y0499D02*
X021Y05D01*
X0208Y05025D02*
X021Y05015D01*
X0187Y05005D02*
X021Y05015D01*
X0187Y0499D02*
Y05005D01*
X0189Y05015D01*
X021Y05D02*
Y05015D01*
X0208Y0499D02*
X021Y05D01*
D23*
X01515Y0407D02*
D03*
X0227Y0184D02*
D03*
X0227Y02225D02*
D03*
D24*
X036703Y040318D02*
D03*
X034203Y040296D02*
D03*
X031603D02*
D03*
X036606Y030046D02*
D03*
X032506D02*
D03*
X028456D02*
D03*
M02*
