G04*
G04 #@! TF.GenerationSoftware,Altium Limited,Altium Designer,18.0.11 (651)*
G04*
G04 Layer_Color=8421504*
%FSTAX24Y24*%
%MOIN*%
G70*
G01*
G75*
%ADD25R,0.0394X0.0787*%
%ADD26R,0.1299X0.0787*%
%ADD27R,0.0512X0.0394*%
%ADD28R,0.1228X0.0886*%
%ADD29R,0.0886X0.1228*%
%ADD30R,0.0925X0.1378*%
G04:AMPARAMS|DCode=31|XSize=51.6mil|YSize=24.4mil|CornerRadius=3.1mil|HoleSize=0mil|Usage=FLASHONLY|Rotation=180.000|XOffset=0mil|YOffset=0mil|HoleType=Round|Shape=RoundedRectangle|*
%AMROUNDEDRECTD31*
21,1,0.0516,0.0183,0,0,180.0*
21,1,0.0455,0.0244,0,0,180.0*
1,1,0.0061,-0.0227,0.0092*
1,1,0.0061,0.0227,0.0092*
1,1,0.0061,0.0227,-0.0092*
1,1,0.0061,-0.0227,-0.0092*
%
%ADD31ROUNDEDRECTD31*%
%ADD32R,0.1492X0.0390*%
G04:AMPARAMS|DCode=33|XSize=39.4mil|YSize=55.9mil|CornerRadius=4.9mil|HoleSize=0mil|Usage=FLASHONLY|Rotation=90.000|XOffset=0mil|YOffset=0mil|HoleType=Round|Shape=RoundedRectangle|*
%AMROUNDEDRECTD33*
21,1,0.0394,0.0461,0,0,90.0*
21,1,0.0295,0.0559,0,0,90.0*
1,1,0.0098,0.0230,0.0148*
1,1,0.0098,0.0230,-0.0148*
1,1,0.0098,-0.0230,-0.0148*
1,1,0.0098,-0.0230,0.0148*
%
%ADD33ROUNDEDRECTD33*%
G04:AMPARAMS|DCode=34|XSize=39.4mil|YSize=55.9mil|CornerRadius=4.9mil|HoleSize=0mil|Usage=FLASHONLY|Rotation=180.000|XOffset=0mil|YOffset=0mil|HoleType=Round|Shape=RoundedRectangle|*
%AMROUNDEDRECTD34*
21,1,0.0394,0.0461,0,0,180.0*
21,1,0.0295,0.0559,0,0,180.0*
1,1,0.0098,-0.0148,0.0230*
1,1,0.0098,0.0148,0.0230*
1,1,0.0098,0.0148,-0.0230*
1,1,0.0098,-0.0148,-0.0230*
%
%ADD34ROUNDEDRECTD34*%
%ADD35R,0.0472X0.0512*%
%ADD36R,0.0354X0.0276*%
%ADD37R,0.0472X0.0315*%
%ADD38R,0.0354X0.0354*%
%ADD39R,0.0354X0.0787*%
%ADD40R,0.0787X0.0354*%
G04:AMPARAMS|DCode=41|XSize=17.7mil|YSize=59.1mil|CornerRadius=4.4mil|HoleSize=0mil|Usage=FLASHONLY|Rotation=270.000|XOffset=0mil|YOffset=0mil|HoleType=Round|Shape=RoundedRectangle|*
%AMROUNDEDRECTD41*
21,1,0.0177,0.0502,0,0,270.0*
21,1,0.0089,0.0591,0,0,270.0*
1,1,0.0089,-0.0251,-0.0044*
1,1,0.0089,-0.0251,0.0044*
1,1,0.0089,0.0251,0.0044*
1,1,0.0089,0.0251,-0.0044*
%
%ADD41ROUNDEDRECTD41*%
G04:AMPARAMS|DCode=42|XSize=17.7mil|YSize=59.1mil|CornerRadius=4.4mil|HoleSize=0mil|Usage=FLASHONLY|Rotation=180.000|XOffset=0mil|YOffset=0mil|HoleType=Round|Shape=RoundedRectangle|*
%AMROUNDEDRECTD42*
21,1,0.0177,0.0502,0,0,180.0*
21,1,0.0089,0.0591,0,0,180.0*
1,1,0.0089,-0.0044,0.0251*
1,1,0.0089,0.0044,0.0251*
1,1,0.0089,0.0044,-0.0251*
1,1,0.0089,-0.0044,-0.0251*
%
%ADD42ROUNDEDRECTD42*%
%ADD43O,0.0472X0.0984*%
%ADD44R,0.0394X0.0512*%
%ADD45R,0.1378X0.0630*%
%ADD46R,0.0449X0.0236*%
%ADD47R,0.0449X0.0118*%
G36*
X048485Y033248D02*
X047886D01*
Y03374D01*
X048485D01*
Y033248D01*
D02*
G37*
G36*
X047449D02*
X046851D01*
Y03374D01*
X047449D01*
Y033248D01*
D02*
G37*
G36*
X046414D02*
X045815D01*
Y03374D01*
X046414D01*
Y033248D01*
D02*
G37*
G36*
X048485Y032535D02*
X047886D01*
Y033027D01*
X048485D01*
Y032535D01*
D02*
G37*
G36*
X047449D02*
X046851D01*
Y033027D01*
X047449D01*
Y032535D01*
D02*
G37*
G36*
X046414D02*
X045815D01*
Y033027D01*
X046414D01*
Y032535D01*
D02*
G37*
G36*
X048485Y031822D02*
X047886D01*
Y032315D01*
X048485D01*
Y031822D01*
D02*
G37*
G36*
X047449D02*
X046851D01*
Y032315D01*
X047449D01*
Y031822D01*
D02*
G37*
G36*
X046414D02*
X045815D01*
Y032315D01*
X046414D01*
Y031822D01*
D02*
G37*
G36*
X048485Y035385D02*
X047886D01*
Y035878D01*
X048485D01*
Y035385D01*
D02*
G37*
G36*
X047449D02*
X046851D01*
Y035878D01*
X047449D01*
Y035385D01*
D02*
G37*
G36*
X046414D02*
X045815D01*
Y035878D01*
X046414D01*
Y035385D01*
D02*
G37*
G36*
X048485Y034673D02*
X047886D01*
Y035165D01*
X048485D01*
Y034673D01*
D02*
G37*
G36*
X047449D02*
X046851D01*
Y035165D01*
X047449D01*
Y034673D01*
D02*
G37*
G36*
X046414D02*
X045815D01*
Y035165D01*
X046414D01*
Y034673D01*
D02*
G37*
G36*
X048485Y03396D02*
X047886D01*
Y034452D01*
X048485D01*
Y03396D01*
D02*
G37*
G36*
X047449D02*
X046851D01*
Y034452D01*
X047449D01*
Y03396D01*
D02*
G37*
G36*
X046414D02*
X045815D01*
Y034452D01*
X046414D01*
Y03396D01*
D02*
G37*
D25*
X042694Y03944D02*
D03*
X0436D02*
D03*
X044506D02*
D03*
D26*
X0436Y041763D02*
D03*
D27*
X041696Y039477D02*
D03*
X041689Y040089D02*
D03*
X044339Y030139D02*
D03*
X044346Y029527D02*
D03*
D28*
X04085Y03531D02*
D03*
Y03259D02*
D03*
D29*
X04569Y01965D02*
D03*
X04841D02*
D03*
D30*
X041709Y0375D02*
D03*
X044091D02*
D03*
D31*
X019883Y01795D02*
D03*
Y01845D02*
D03*
Y01895D02*
D03*
Y01945D02*
D03*
Y01995D02*
D03*
Y02045D02*
D03*
Y02095D02*
D03*
Y02145D02*
D03*
X017717D02*
D03*
Y02095D02*
D03*
Y02045D02*
D03*
Y01995D02*
D03*
Y01945D02*
D03*
Y01895D02*
D03*
Y01845D02*
D03*
Y01795D02*
D03*
D32*
X042918Y032511D02*
D03*
Y033181D02*
D03*
Y03385D02*
D03*
Y034519D02*
D03*
Y035189D02*
D03*
D33*
X033672Y035832D02*
D03*
Y036568D02*
D03*
X034747Y035832D02*
D03*
Y036568D02*
D03*
X036144Y035882D02*
D03*
Y036618D02*
D03*
X037197Y035882D02*
D03*
Y036618D02*
D03*
X0223Y042037D02*
D03*
Y042774D02*
D03*
X032097Y036518D02*
D03*
Y035782D02*
D03*
X031044Y036518D02*
D03*
Y035782D02*
D03*
X0352Y029232D02*
D03*
Y029968D02*
D03*
X035213Y028568D02*
D03*
Y027832D02*
D03*
X0311Y029232D02*
D03*
Y029968D02*
D03*
X031113Y028568D02*
D03*
Y027832D02*
D03*
X02705Y029968D02*
D03*
Y029232D02*
D03*
Y027832D02*
D03*
Y028568D02*
D03*
X01595Y039418D02*
D03*
Y038682D02*
D03*
D34*
X037Y0317D02*
D03*
X036264D02*
D03*
X023Y039546D02*
D03*
X023736D02*
D03*
X028418Y0428D02*
D03*
X027682D02*
D03*
X023332Y04195D02*
D03*
X024068D02*
D03*
X037065Y0428D02*
D03*
X036329D02*
D03*
X037065Y042D02*
D03*
X036329D02*
D03*
X034583Y04275D02*
D03*
X033847D02*
D03*
X034583Y04195D02*
D03*
X033847D02*
D03*
X031163Y04275D02*
D03*
X0319D02*
D03*
X031163Y04195D02*
D03*
X0319D02*
D03*
X032214Y0317D02*
D03*
X03295D02*
D03*
X0289D02*
D03*
X028164D02*
D03*
X0351Y02605D02*
D03*
X035836D02*
D03*
X031032Y026056D02*
D03*
X031768D02*
D03*
X0277D02*
D03*
X026964D02*
D03*
X02225Y020144D02*
D03*
X021514D02*
D03*
X02225Y02095D02*
D03*
X021514D02*
D03*
X045868Y04605D02*
D03*
X045132D02*
D03*
X045868Y04685D02*
D03*
X045132D02*
D03*
X015682Y02395D02*
D03*
X016418D02*
D03*
X014032Y022397D02*
D03*
X014768D02*
D03*
D35*
X023281Y04275D02*
D03*
X024068D02*
D03*
X033796Y0351D02*
D03*
X034583D02*
D03*
X03626Y03515D02*
D03*
X037047D02*
D03*
X031947Y03505D02*
D03*
X03116D02*
D03*
X0443Y04605D02*
D03*
X043513D02*
D03*
Y04685D02*
D03*
X0443D02*
D03*
D36*
X022847Y03835D02*
D03*
X023753Y037976D02*
D03*
Y038724D02*
D03*
X014853Y02355D02*
D03*
X013947Y023924D02*
D03*
Y023176D02*
D03*
X015597Y0228D02*
D03*
X016503Y022426D02*
D03*
Y023174D02*
D03*
D37*
X013772Y0407D02*
D03*
X016528D02*
D03*
X024078Y0184D02*
D03*
X021322D02*
D03*
X024078Y02225D02*
D03*
X021322D02*
D03*
D38*
X016827Y027908D02*
D03*
X017378Y028459D02*
D03*
X016827D02*
D03*
Y029011D02*
D03*
X01793D02*
D03*
Y028459D02*
D03*
Y027908D02*
D03*
X017378Y029011D02*
D03*
Y027908D02*
D03*
D39*
X014339Y032495D02*
D03*
X014839D02*
D03*
X015339D02*
D03*
X015839D02*
D03*
X016339D02*
D03*
X016839D02*
D03*
X017339D02*
D03*
X017839D02*
D03*
X018339D02*
D03*
X018839D02*
D03*
X019339D02*
D03*
X019839D02*
D03*
X020339D02*
D03*
X020839D02*
D03*
X014339Y025605D02*
D03*
X014839D02*
D03*
X015339D02*
D03*
X015839D02*
D03*
X019839D02*
D03*
X019339D02*
D03*
X018839D02*
D03*
X018339D02*
D03*
X017839D02*
D03*
X017339D02*
D03*
X016339D02*
D03*
X016839D02*
D03*
X020839D02*
D03*
X020339D02*
D03*
D40*
X021331Y031302D02*
D03*
Y030802D02*
D03*
Y030302D02*
D03*
Y029802D02*
D03*
Y029302D02*
D03*
Y028802D02*
D03*
Y028302D02*
D03*
Y027802D02*
D03*
Y027302D02*
D03*
Y026802D02*
D03*
D41*
X021414Y035275D02*
D03*
Y03559D02*
D03*
Y035905D02*
D03*
Y03622D02*
D03*
Y036535D02*
D03*
Y03685D02*
D03*
Y037165D02*
D03*
Y03748D02*
D03*
Y037795D02*
D03*
Y03811D02*
D03*
Y038425D02*
D03*
X016886D02*
D03*
Y03811D02*
D03*
Y037795D02*
D03*
Y03748D02*
D03*
Y037165D02*
D03*
Y03685D02*
D03*
Y036535D02*
D03*
Y03622D02*
D03*
Y035905D02*
D03*
Y03559D02*
D03*
Y035275D02*
D03*
D42*
X020725Y039114D02*
D03*
X02041D02*
D03*
X020095D02*
D03*
X01978D02*
D03*
X019465D02*
D03*
X01915D02*
D03*
X018835D02*
D03*
X01852D02*
D03*
X018205D02*
D03*
X01789D02*
D03*
X017575D02*
D03*
Y034586D02*
D03*
X01789D02*
D03*
X018205D02*
D03*
X01852D02*
D03*
X018835D02*
D03*
X01915D02*
D03*
X019465D02*
D03*
X01978D02*
D03*
X020095D02*
D03*
X02041D02*
D03*
X020725D02*
D03*
D43*
X037197Y040993D02*
D03*
X036197D02*
D03*
X037197Y03745D02*
D03*
X036197D02*
D03*
X034697Y040972D02*
D03*
X033697D02*
D03*
X034697Y037428D02*
D03*
X033697D02*
D03*
X031097D02*
D03*
X032097D02*
D03*
X031097Y040972D02*
D03*
X032097D02*
D03*
X0361Y027178D02*
D03*
X0371D02*
D03*
X0361Y030722D02*
D03*
X0371D02*
D03*
X032Y027178D02*
D03*
X033D02*
D03*
X032Y030722D02*
D03*
X033D02*
D03*
X02895D02*
D03*
X02795D02*
D03*
X02895Y027178D02*
D03*
X02795D02*
D03*
D44*
X037383Y02605D02*
D03*
X036517D02*
D03*
X033283D02*
D03*
X032417D02*
D03*
X028417D02*
D03*
X029283D02*
D03*
X015Y03935D02*
D03*
X014388Y039343D02*
D03*
X023842Y020161D02*
D03*
X023229Y020154D02*
D03*
X023839Y020961D02*
D03*
X023227Y020954D02*
D03*
X046161Y039339D02*
D03*
X046773Y039346D02*
D03*
D45*
X048063Y0412D02*
D03*
X045937D02*
D03*
X047913Y0375D02*
D03*
X045787D02*
D03*
D46*
X01627Y01834D02*
D03*
Y018655D02*
D03*
Y020545D02*
D03*
Y02086D02*
D03*
D47*
Y018911D02*
D03*
Y019108D02*
D03*
Y019305D02*
D03*
Y019502D02*
D03*
Y020289D02*
D03*
Y020092D02*
D03*
Y019895D02*
D03*
Y019698D02*
D03*
M02*
